<?xml version="1.0" encoding="utf-8"?>
<!-- Generator: Adobe Illustrator 28.2.0, SVG Export Plug-In . SVG Version: 6.00 Build 0)  -->
<svg version="1.1" id="Слой_1" xmlns="http://www.w3.org/2000/svg" xmlns:xlink="http://www.w3.org/1999/xlink" x="0px" y="0px"
	 viewBox="0 0 124 184" style="enable-background:new 0 0 124 184;" xml:space="preserve">
<style type="text/css">
	.st0{display:none;}
	.st1{display:inline;}
	.st2{fill:#1D1D1B;}
</style>
<g class="st0">
	<g class="st1">
		<path d="M29.75,88.55c-1.01,0.47-1.49,1.28-1.49,2.32c0.01,3.87-0.14,7.73,0.12,11.6c0.09,1.36-0.28,1.7-1.77,1.5
			c-0.54-0.77-0.52-1.68-0.52-2.58c0-3.8,0.02-7.6,0.03-11.41c0-0.38,0.08-0.78-0.2-1.11c-1.06-0.09-1.95,0.84-1.99,2.22
			c-0.05,1.62-0.08,3.25-0.01,4.87c0.1,2.43-0.14,4.87,0.04,7.3c0.01,0.18-0.06,0.37-0.1,0.56c-0.58,0.34-1.13,0.3-1.7,0.13
			c-0.35-0.55-0.37-1.13-0.38-1.71c-0.03-4.39-0.07-8.77-0.09-13.16c0-0.74-0.16-1.49-0.02-2.26c0.55-0.34,1.15-0.36,1.72-0.24
			c0.35,0.25,0.3,0.61,0.42,0.97c0.72-0.41,1.31-1.06,2.23-1.05c0.92,0.01,1.58,0.34,1.76,1.32c0.44-0.16,0.6-0.49,0.86-0.73
			c0.78-0.72,1.68-0.81,2.64-0.49c0.88,0.3,1.2,0.98,1.32,1.86c0.21,1.53,0.03,3.05-0.01,4.57c-0.08,3.15-0.08,6.3,0.05,9.45
			c0.06,1.33-0.23,1.7-1.18,1.67c-0.66-0.02-1.04-0.34-1.08-1c-0.04-0.58-0.08-1.17-0.08-1.75c0.02-3.77,0.06-7.54,0.09-11.31
			C30.4,89.55,30.41,88.99,29.75,88.55z"/>
		<path d="M10.64,85.96c0-0.97-0.06-1.95-0.24-2.92c-0.49-2.79-1.34-3.41-4.17-3.19c-1.09,0.08-1.81,0.61-2.3,1.55
			c-0.58,1.07-0.87,2.24-0.96,3.44c-0.42,5.77-0.38,11.55-0.32,17.33c0.01,0.55-0.24,1.18,0.25,1.72c0.54,0.31,1.11,0.35,1.79,0.14
			c0.18-3.67-0.18-7.33,0.32-11.06c1.11,0.2,2.09-0.31,3.31-0.06v10.89c0.93,0.48,1.59,0.35,2.34-0.08
			c0.01-0.34,0.04-0.62,0.04-0.92C10.69,97.19,10.67,91.57,10.64,85.96z M5.09,90.96c-0.06-0.08-0.13-0.14-0.13-0.18
			c0.08-2.41,0.18-4.81,0.49-7.19c0.18-1.44,1-1.83,2.55-1.3c0.41,2.76,0.24,5.51,0.34,8.28C7.2,90.92,6.13,90.91,5.09,90.96z"/>
		<path d="M19.73,100.13c-0.1-6.32-0.2-12.65-0.3-18.98c0-0.34,0-0.66-0.31-0.93c-0.39-0.14-0.82-0.31-1.44-0.04
			c-0.63,2.02-0.24,4.2-0.42,6.44c-0.93-0.34-1.73-0.23-2.45,0.21c-0.92,0.55-1.27,1.48-1.44,2.45c-0.76,4.16-0.54,8.35-0.1,12.51
			c0.24,2.23,2.34,3.03,4.36,1.89c0.86,0.56,1.13,0.58,2.1,0.01C19.73,102.6,19.74,101.37,19.73,100.13z M17.37,100.95
			c-0.01,1.06-0.25,1.27-1.31,1.23c-0.76-0.76-0.93-1.8-1.03-2.82c-0.31-3.13-0.42-6.27,0.08-9.41c0.11-0.71,0.42-1.3,1.14-1.66
			c0.86,0.25,0.92,0.94,0.99,1.57c0.1,0.94,0.11,1.89,0.13,2.82C17.38,95.43,17.38,98.2,17.37,100.95z"/>
		<path d="M112.93,94.61v-2.74c-0.01-0.9-0.06-1.8-0.08-2.72c-0.01-0.97-0.39-1.76-1.24-2.28c-2.1-1.28-4.55-0.25-5.06,2.14
			c-0.1,0.44-0.16,0.89-0.2,1.34c-0.32,3.17-0.03,6.36-0.06,9.53c-0.01,0.65,0.11,1.3,0.37,1.9c0.86,2.06,2.65,2.85,4.47,2
			c1.14-0.55,1.49-1.58,1.69-2.68C113.22,98.96,112.95,96.77,112.93,94.61z M110.83,100.24c0,0.85-0.27,1.54-1.17,1.75
			c-0.69-0.14-0.96-0.58-1.02-1.18c-0.06-0.75-0.14-1.48-0.11-2.23c0.07-2.92-0.11-5.84,0.16-8.74c0.04-0.52,0.11-1.04,0.58-1.42
			c0.79-0.1,1.2,0.31,1.3,1.06c0.21,1.48,0.3,2.96,0.3,4.46C110.88,96.02,110.86,98.14,110.83,100.24z"/>
		<path d="M52.17,87.08c-0.56-0.32-0.92-0.69-1.48-0.73c-0.35,0.11-0.68,0.34-1.14,0.2c-0.97-0.28-1.79,0.06-2.45,0.8
			c-0.59,0.68-0.97,1.44-1.26,2.28c-0.72,2.27-0.59,4.61-0.58,6.95c0.01,1.85,0.08,3.71,0.76,5.46c0.82,2.17,1.88,2.59,4,1.66
			c0.06-0.01,0.13-0.03,0.2-0.04c0.56,0.71,1.3,0.56,2.33,0.37C51.92,98.34,52.27,92.67,52.17,87.08z M49.94,97.93
			c-0.01,1.42,0.2,2.85,0,4.23c-0.86,0.48-1.31,0.37-1.71-0.39c-0.41-0.78-0.62-1.64-0.68-2.52c-0.2-2.85-0.24-5.7,0.01-8.55
			c0.06-0.55,0.24-1.07,0.49-1.57c0.24-0.51,0.56-0.96,1.23-1c0.58,0.44,0.59,1.1,0.69,1.73C50.38,92.56,49.97,95.23,49.94,97.93z"
			/>
		<path d="M72.46,104.07c-0.5,0.12-0.97,0.19-1.52-0.32c-0.32-5.44,0.07-11.02-0.41-16.6c0.47-0.43,1.01-0.56,1.57-0.53
			c0.43,0.23,0.35,0.68,0.49,1.08c0.41-0.36,0.73-0.68,1.1-0.94c1.09-0.77,2.57-0.36,3.12,0.86c0.26,0.57,0.35,1.17,0.36,1.8
			c0.04,4.38,0.09,8.77,0.13,13.15c0.01,1.26-0.35,1.55-1.76,1.39c-0.49-0.79-0.35-1.73-0.37-2.61c-0.08-3.93-0.08-7.86-0.12-11.79
			c0-0.4,0.15-0.87-0.34-1.12c-1.19,0.28-1.81,1.1-1.83,2.5c-0.03,1.95-0.01,3.9-0.01,5.85c0.01,1.95,0.02,3.9,0.03,5.85
			C72.88,103.13,72.96,103.64,72.46,104.07z"/>
		<path d="M92.29,98.62c-0.65-0.47-1.26-0.51-1.95-0.2c-0.25,0.82-0.04,1.68-0.21,2.51c-0.2,0.93-0.59,1.25-1.61,1.17
			c-0.69-1.9-0.49-3.91-0.52-5.96c0.23-0.1,0.34-0.16,0.45-0.21c2.71-1.28,3.78-3.54,3.78-6.4c0-0.78-0.31-1.45-0.82-2.03
			c-1.59-1.82-4.16-1.4-4.98,0.83c-0.2,0.55-0.35,1.13-0.44,1.71c-0.39,2.78-0.24,5.57-0.13,8.36c0.07,1.35-0.01,2.74,0.51,4.03
			c0.42,1.06,1.16,1.69,2.34,1.78c1.3,0.08,2.41-0.18,3.05-1.45C92.43,101.42,92.4,100.01,92.29,98.62z M88.48,88.42
			c1.18,0.01,1.64,0.44,1.66,1.47c0.04,1.78-0.59,3.02-2.2,4.06C88.06,91.99,87.69,90.14,88.48,88.42z"/>
		<path d="M64.87,81.74c-0.45-0.08-0.83-0.15-1.19-0.22c-0.43-0.4-0.48-0.86-0.35-1.51c1.62-0.36,3.27-0.21,4.87-0.12
			c0.25,0.56,0.21,0.96-0.03,1.31c-0.33,0.3-0.76,0.23-1.14,0.4c0,6.77,0,13.55,0,20.25c0.36,0.4,0.81,0.24,1.18,0.43
			c0.33,0.42,0.26,0.88,0.03,1.49c-1.37,0.43-2.82,0.03-4.22,0.14c-0.36-0.56-0.44-1.08-0.24-1.59c0.29-0.36,0.74-0.1,1.08-0.41
			C64.87,95.24,64.87,88.5,64.87,81.74z"/>
		<path d="M83.13,102.87c-0.22,0.71-0.6,1.15-1.24,1.23c-0.68,0.09-1.07-0.39-1.4-0.89c-0.64-1-0.67-2.16-0.72-3.29
			c-0.17-3.41-0.01-6.82-0.04-10.23c0-0.35,0-0.7,0-1.08c-0.39-0.05-0.71-0.08-1.02-0.12c-0.35-0.58-0.12-1.14-0.12-1.63
			c0.39-0.4,0.83-0.17,1.25-0.36c0.22-2.04,0.03-4.15,0.17-6.19c0.63-0.35,1.17-0.28,1.87-0.12c0.34,2.07,0.13,4.18,0.09,6.33
			c0.81,0.28,1.71-0.12,2.5,0.37c0.26,0.53,0.19,1.04-0.13,1.57c-0.67,0.27-1.41,0-2.22,0.19c-0.15,2.38-0.25,4.8-0.22,7.21
			C81.93,98.27,81.67,100.71,83.13,102.87z"/>
		<path d="M56.81,103.72c-0.73,0.4-1.39,0.54-2.35,0.15c0.24-7.86,0.21-15.79,0.21-23.73c0.64-0.36,1.22-0.25,1.84-0.01
			c0.24,0.58,0.29,1.19,0.29,1.8c0,5.75,0.03,11.5-0.02,17.24C56.77,100.7,56.78,102.22,56.81,103.72z"/>
		<path d="M99.37,89.6c-0.4-0.21-0.51-0.58-0.74-0.85c-0.33-0.39-0.73-0.69-1.27-0.54c-0.54,0.15-0.9,0.53-1.01,1.08
			c-0.06,0.31-0.06,0.65-0.06,0.97c0,3.87,0,7.74,0,11.6c0,0.68,0.01,1.36-0.26,2.01c-0.52,0.22-1.01,0.26-1.67-0.04
			c0-5.56,0-11.19,0-16.89c0.53-0.37,1.16-0.25,1.82-0.02c0.72-0.43,1.51-0.69,2.39-0.56c0.76,0.11,1.34,0.47,1.75,1.12
			C100.99,88.55,100.66,89.3,99.37,89.6z"/>
		<path d="M44.12,89.58c-0.36-0.15-0.46-0.52-0.69-0.79c-0.33-0.39-0.71-0.71-1.26-0.58c-0.59,0.14-0.96,0.55-1.06,1.15
			c-0.06,0.32-0.04,0.65-0.04,0.97c0,3.83,0,7.67,0,11.5c0,0.68,0,1.36-0.24,2.02c-0.5,0.28-1,0.27-1.5,0.09
			c-0.34-0.7-0.55-13.64-0.28-16.91c0.58-0.45,1.2-0.34,1.88-0.11c0.75-0.4,1.56-0.71,2.48-0.55c0.79,0.14,1.39,0.53,1.77,1.24
			C45.74,88.69,45.38,89.37,44.12,89.58z"/>
		<path d="M116.73,103.91c-0.49,0.17-0.97,0.22-1.61-0.05c0-5.56,0-11.18,0-16.92c0.46-0.39,1.09-0.24,1.78-0.03
			c0.76-0.42,1.61-0.72,2.56-0.53c0.71,0.15,1.25,0.52,1.62,1.14c0.63,1.05,0.34,1.72-0.9,2.08c-0.43-0.11-0.54-0.52-0.79-0.81
			c-0.35-0.41-0.75-0.76-1.34-0.56c-0.57,0.2-0.92,0.6-0.98,1.21c-0.03,0.32-0.02,0.65-0.02,0.97c-0.04,4.12,0.08,8.25-0.07,12.37
			C116.96,103.15,116.98,103.52,116.73,103.91z"/>
		<path d="M34.57,86.77c0.61-0.35,1.18-0.42,1.76-0.3c0.47,0.34,0.55,0.83,0.51,1.32c-0.2,2.4,0.03,4.8,0,7.2
			c-0.03,2.33-0.15,4.67-0.01,7c0.04,0.65-0.08,1.29-0.24,1.92c-0.54,0.3-1.08,0.15-1.62,0.08c-0.35-0.62-0.41-1.26-0.41-1.91
			C34.51,96.99,34.72,91.9,34.57,86.77z"/>
		<path d="M103.8,103.97c-0.54,0.14-1.04,0.12-1.56-0.02c-0.46-0.79-0.41-1.65-0.41-2.48c0.04-4.83,0.11-9.66,0.04-14.48
			c0-0.06,0.03-0.12,0.06-0.25c0.51-0.33,1.1-0.39,1.67-0.29c0.49,0.33,0.53,0.79,0.5,1.25c-0.18,2.53,0.06,5.05,0.01,7.58
			c-0.05,2.56-0.05,5.12-0.08,7.68C104.04,103.27,104.06,103.61,103.8,103.97z"/>
		<path d="M34.77,82.68c0.59-0.45,1.17-0.43,1.87-0.26c0.23,0.95,0.4,1.91-0.27,2.74c-0.36,0.44-0.88,0.26-1.34,0.03
			C34.52,84.38,34.67,83.52,34.77,82.68z"/>
		<path d="M103.96,82.48c0.4,2.44-0.09,3.24-1.63,2.7c-0.48-0.78-0.38-1.64-0.22-2.52C102.68,82.24,103.28,82.21,103.96,82.48z"/>
	</g>
</g>
<g>
	<g>
		<g>
			<g>
				<path d="M21.78,63.13c0.03-3.16-0.42-6.46-0.71-9.77c-0.05-0.58-0.36-0.8-0.84-0.99c-1.53-0.6-3.05-1.22-4.55-1.87
					c-6.36-2.74-10.5-9.45-10.24-16.35c0.2-5.28,2.75-9.39,6.5-12.72c4.92-4.38,10.24-8.28,16.34-10.92
					c6.46-2.8,12.94-5.53,19.94-6.83c3.54-0.66,7.09-0.86,10.67-1.06c8-0.45,15.75,0.94,23.51,2.74
					c12.04,2.8,22.18,8.77,30.77,17.56c1.05,1.08,1.92,2.3,2.83,3.49c3.44,4.53,3.21,9.3,0.77,14.11c-1.33,2.62-3.41,4.65-5.85,6.27
					c-2.07,1.37-4.11,2.79-6.3,3.98c-0.49,0.27-0.74,0.64-0.93,1.14c-0.85,2.25-1.02,4.63-1.25,6.99
					c-0.35,3.53-0.68,7.05-1.05,10.58c-0.14,1.38-0.18,1.37,1.14,1.28c1.86-0.13,3.07,0.91,3.21,2.78c0.16,2.16-0.52,4.2-1,6.25
					c-0.8,3.41-1.56,6.83-3.23,9.97c-0.64,1.2-0.64,2.54-0.56,3.86c0.14,2.44,0.34,4.88,0.51,7.33c0.01,0.18,0.02,0.37,0.02,0.55
					c-0.02,1.69-0.03,1.76,1.64,1.85c3,0.16,5.99,0.13,8.82-1.14c0.45-0.2,0.98-0.43,1.29,0.27c0.32,0.72-0.21,0.92-0.69,1.1
					c-3.9,1.51-7.07,4.22-10.53,6.45c-0.41,0.26-0.48,0.59-0.43,1.02c0.67,6.39,0.92,12.83,2.1,19.17c0.45,2.42,0.21,4.89,0.43,7.33
					c0.36,3.93,0.67,7.86,1.19,11.78c0.25,1.92-0.09,3.74-1.01,5.4c-2.73,4.87-6.14,9.2-10.87,12.27c-2.56,1.66-4.87,3.45-6.41,6.14
					c-0.67,1.17-1.7,2.02-3,2.44c-1.41,0.45-2.52,1.3-3.49,2.37c-0.86,0.95-1.87,1.59-3.19,1.72c-0.64,0.06-1.27,0.33-1.89,0.53
					c-1.17,0.37-2.34,0.59-3.52,0.03c-0.51-0.24-0.98-0.16-1.38,0.29c-0.68,0.77-1.58,0.92-2.51,0.67c-1.88-0.5-3.72-0.69-5.56,0.13
					c-0.44,0.2-0.93,0.14-1.4,0.01c-3.76-1.02-7.53-2.04-11.13-3.56c-0.17-0.07-0.33-0.19-0.5-0.21c-2.48-0.26-4.62-1.52-6.89-2.37
					c-1.59-0.6-3.41-0.93-4.71-1.98c-1.5-1.22-3.07-2.02-4.9-2.5c-0.79-0.21-1.49-0.77-1.83-1.62c-0.15-0.37-0.48-0.57-0.82-0.68
					c-2.15-0.69-3.46-2.51-5.14-3.84c-0.17-0.13-0.31-0.33-0.38-0.53c-1.26-3.42-3.18-6.58-4.1-10.13
					c-0.49-1.89-0.23-3.78,0.04-5.66c0.31-2.19,0.3-4.39,0.13-6.57c-0.5-6.51-0.13-13,0.43-19.48c0.25-2.91,0.33-5.84,0.51-8.76
					c0.05-0.75-0.19-1.28-0.76-1.8c-2.7-2.49-4.97-5.35-6.84-8.52c-0.23-0.39-0.49-0.79-0.15-1.2c0.38-0.46,0.84-0.28,1.29-0.07
					c2.03,0.94,4.12,1.66,6.33,2.06c0.64,0.12,0.86-0.04,0.78-0.7c-0.71-5.8-1.31-11.61-3.66-17.06c-1.66-3.84-2.24-7.92-2.3-12.08
					c-0.01-0.51,0.03-1.03,0.16-1.52c0.49-1.84,1.86-2.57,3.6-1.83c0.85,0.36,0.98,0.02,1.1-0.66
					C21.67,67.84,21.83,65.58,21.78,63.13z M60.44,64.95c0-0.01,0-0.01,0-0.02c-2.12,0-4.24,0.03-6.36-0.02
					c-0.84-0.02-1.15,0.18-1.09,1.09c0.43,5.8,0.53,11.6,0.64,17.41c0.04,2.26,0.23,4.54-0.59,6.72c-0.56,1.5-1.4,2.03-2.94,1.86
					c-0.76-0.08-1.5-0.28-2.26-0.41c-0.96-0.17-1.89-0.19-2.69,0.51c-1.13,0.99-1.7,3.24-1.21,4.76c0.54,1.7,1.92,1.93,3.4,2
					c3.43,0.16,6.5,1.22,9.13,3.49c1.08,0.93,2.22,1.79,3.48,2.47c1.73,0.93,3.5,1.19,5.36,0.35c1.32-0.59,2.45-1.45,3.5-2.42
					c2.06-1.9,4.24-3.58,7.08-4.16c0.32-0.06,0.62-0.23,0.91-0.37c1.76-0.91,2.46-2.7,1.83-4.64c-0.68-2.08-2.34-3.17-4.32-2.84
					c-0.79,0.13-1.58,0.27-2.37,0.41c-2.64,0.46-3.84-0.49-3.84-3.15c0-1.79,0.13-3.58,0.21-5.36c0.24-5.67-0.84-11.3-0.49-16.97
					c0.05-0.74-0.42-0.71-0.92-0.71C64.75,64.95,62.6,64.95,60.44,64.95z M60.88,43.49c0.1-1.6,0.19-3.17,0.29-4.73
					c0.02-0.39-0.03-0.92,0.54-0.89c0.65,0.03,0.53,0.59,0.49,1.01c-0.38,3.4-0.16,6.79,0.02,10.18c0.03,0.59,0.15,0.84,0.8,0.84
					c1.94-0.02,3.88-0.05,5.8,0.18c0.76,0.09,0.94-0.23,0.97-0.9c0.08-1.72,0.42-3.4,0.79-5.08c1.18-5.26,3.28-10.2,5.21-15.21
					c1.05-2.72,1.66-5.5,1.71-8.43c0.08-5.14-1.25-9.97-3.07-14.7c-0.2-0.52-0.51-0.7-1.04-0.79c-3.24-0.61-6.52-0.8-9.81-0.9
					c-0.74-0.02-0.94,0.26-0.91,0.95c0.04,1.2,0.01,2.41,0,3.62c0,0.39-0.06,0.78-0.55,0.78c-0.57,0-0.46-0.45-0.46-0.8
					c-0.01-1.24-0.02-2.49,0.01-3.73c0.01-0.52-0.09-0.82-0.71-0.81c-3.73,0.08-7.45,0.19-11.13,0.82c-0.57,0.1-0.87,0.37-1.03,0.95
					c-0.35,1.3-0.82,2.57-1.16,3.88C45.8,16.55,45.67,23.28,48.4,30c2.55,6.26,4.52,12.73,5.04,19.54c0.05,0.62,0.41,0.59,0.82,0.57
					c1.93-0.07,3.87-0.21,5.8-0.19c0.96,0.01,1.19-0.35,1.12-1.21C61.05,46.96,60.98,45.21,60.88,43.49z M79.32,98.16
					c2.8,0.3,5.32,1.05,7.7,2.16c1.11,0.52,1.81,0.19,2.42-0.66c0.96-1.34,2.05-2.58,3.24-3.71c2.63-2.51,3.63-5.58,3.63-9.17
					c0.01-6.54,0.37-13.07,0.1-19.62c-0.06-1.33-0.01-1.33-1.33-0.9c-6.38,2.07-12.61,4.58-18.92,6.83
					c-1.27,0.45-2.48,1.07-3.55,1.91c-0.83,0.65-1.49,1.43-1.77,2.45c-0.85,3.18-1.35,6.41-1.12,9.72c0.16,2.19,1,2.77,3.08,2.14
					c3.23-0.98,6.37,0.72,7.32,3.96C80.61,94.94,80.32,96.51,79.32,98.16z M49.02,74.9c-0.28-0.15-0.56-0.32-0.85-0.45
					c-2.37-1.06-4.77-2.01-7.25-2.76c-4.4-1.33-8.79-2.67-13.19-4c-0.35-0.11-0.83-0.4-0.86,0.33c-0.09,2.19-0.3,4.38-0.23,6.56
					c0.14,4.43,0.95,8.78,1.88,13.1c0.49,2.3,0.89,4.7,2.59,6.53c1.57,1.69,3.08,3.42,4.39,5.33c0.32,0.46,0.59,0.52,1.06,0.2
					c1.41-0.95,2.98-1.58,4.64-1.85c1.04-0.17,1.25-0.53,1.09-1.57c-0.64-4.16,2.45-7.03,6.53-6.17c0.14,0.03,0.28,0.08,0.43,0.1
					c1.72,0.28,2.33-0.19,2.58-1.94c0.43-3.06,0.29-6.13,0.16-9.2c-0.05-1.1-0.34-2.18-1.17-3c-0.18-0.18-0.45-0.7-0.72-0.1
					c-0.29,0.63-0.74,0.45-1.2,0.34c-0.67-0.15-1.35-0.32-2.02-0.46c-0.22-0.05-0.43-0.18-0.54,0.26c-0.41,1.61-1.75,2.21-3.23,1.53
					c-0.7-0.33-1.06-0.88-0.75-1.59c0.33-0.77-0.04-0.77-0.6-0.77c-2.53-0.03-5.03,0.29-7.49,0.85c-0.45,0.1-0.99,0.39-1.18-0.29
					c-0.22-0.79,0.51-0.78,0.95-0.89c2.35-0.57,4.74-0.85,7.16-0.88C43.81,74.08,46.41,74.43,49.02,74.9z M84.59,7.48
					c0.04,0.31,0.03,0.46,0.08,0.59c1.74,4.9,1.76,9.86,0.64,14.89c-1,4.5-2.73,8.77-4.08,13.17c-1.36,4.46-2.74,8.92-4.11,13.39
					c-0.1,0.33-0.36,0.69-0.04,1.02c0.48,0.48,2.91,0.24,3.33-0.33c1.37-1.85,2.77-3.68,4.09-5.56c3.8-5.44,7.2-11.1,8.86-17.61
					c1.5-5.9,1.13-11.59-2.22-16.87c-0.19-0.31-0.34-0.63-0.73-0.77C88.54,8.71,86.67,7.98,84.59,7.48z M40.14,7.34
					c-2.06,0.59-3.85,1.36-5.6,2.23c-0.18,0.09-0.29,0.32-0.4,0.51c-1.47,2.53-2.37,5.25-2.62,8.16c-0.39,4.65,0.61,9.06,2.35,13.35
					c2.61,6.42,6.54,12.04,10.55,17.62c0.93,1.3,1.88,1.64,3.37,1.19c-0.31-0.97-0.61-1.94-0.94-2.89
					c-2.64-7.65-5.55-15.21-7.27-23.15c-0.9-4.16-1.68-8.3-0.75-12.57C39.15,10.34,39.67,8.95,40.14,7.34z M70.03,63.42
					c0.34-0.06,0.35-0.26,0.35-0.43c0.03-3.73,0.05-7.46,0.09-11.19c0.01-0.54-0.23-0.65-0.72-0.69c-5.48-0.39-10.95-0.1-16.43,0.09
					c-0.55,0.02-1.19-0.06-1.61,0.2c-0.56,0.35-0.04,1.06-0.17,1.6c-0.02,0.07-0.01,0.15-0.01,0.22c-0.01,0.21-0.11,0.36-0.32,0.37
					c-0.22,0.01-0.3-0.15-0.33-0.36c-0.05-0.4-0.1-0.8-0.16-1.19c-0.04-0.29-0.04-0.66-0.43-0.64c-0.43,0.02-0.34,0.41-0.33,0.68
					c0.06,1.2,0.17,2.41,0.2,3.61c0.01,0.3,0.3,0.84-0.27,0.88c-0.5,0.04-0.45-0.49-0.48-0.83c-0.09-1.2-0.16-2.41-0.24-3.61
					c-0.02-0.29,0.02-0.63-0.43-0.58c-0.4,0.05-0.28,0.37-0.27,0.6c0.04,0.8,0.12,1.6,0.15,2.41c0.09,2.67,0.15,5.33,0.25,8
					c0.02,0.5-0.13,1.11,0.81,1.06c5.66-0.32,11.32-0.31,16.98-0.14c0.67,0.02,1.65,0.4,1.6-0.92c0-0.07,0.17-0.22,0.22-0.2
					c0.73,0.24,0.67-0.24,0.66-0.7c-0.01-0.26,0-0.55,0.37-0.55c0.33,0.01,0.39,0.26,0.4,0.54C69.94,62.24,69.83,62.84,70.03,63.42z
					 M75.7,5.37c0,0.29-0.02,0.37,0,0.43c0.11,0.27,0.23,0.54,0.34,0.81c2.53,6.16,3.6,12.52,1.94,19.06
					c-1.38,5.41-3.55,10.58-5.26,15.89c-0.76,2.37-1.5,4.73-1.87,7.19c-0.13,0.83-0.17,1.53,1.04,1.49c0.94-0.03,1.91,0.04,2.84,0.2
					c0.79,0.14,1.06-0.11,1.28-0.86c1.28-4.45,2.6-8.89,3.96-13.32c1.35-4.39,3.16-8.63,4.19-13.13c1.16-5.05,1.26-10.05-0.56-14.99
					c-0.15-0.4-0.19-0.95-0.67-1.07C80.55,6.49,78.18,5.95,75.7,5.37z M101.1,15.02c0.12,0.53,0.21,0.91,0.28,1.29
					c0.69,3.4,1.32,6.82,0.89,10.31c-0.57,4.56-2.48,8.59-5.06,12.33c-2.86,4.15-6.45,7.64-10.14,11.03
					c-0.44,0.4-0.87,0.81-1.49,1.38c2.53,0.16,4.74,0.29,6.96,0.43c0.48,0.03,0.83-0.22,1.18-0.49c1.47-1.09,2.87-2.26,4.18-3.54
					c4.49-4.39,8.29-9.26,10.15-15.37C110.08,25.69,108.72,18.75,101.1,15.02z M24.83,14.05c-2.17,0.88-4.83,2.8-5.57,3.99
					c-2.67,4.29-2.93,8.91-1.49,13.6c2.58,8.43,8.05,14.78,14.88,20.09c0.17,0.14,0.35,0.26,0.59,0.23
					c2.11-0.26,4.23-0.53,6.56-0.82c-1.23-1.15-2.3-2.14-3.34-3.14c-4-3.82-7.79-7.83-10.34-12.81c-2.08-4.05-3.4-8.29-2.87-12.95
					C23.56,19.53,23.91,16.83,24.83,14.05z M50.33,50.31c0.39,0,0.64-0.02,0.9,0c1.03,0.1,1.32-0.33,1.14-1.34
					c-0.29-1.61-0.43-3.26-0.71-4.87c-0.81-4.66-2.36-9.11-4.17-13.46c-2.03-4.86-2.79-9.87-2.1-15.12
					c0.42-3.16,1.16-6.24,2.15-9.26c0.22-0.68,0.15-0.97-0.65-0.75c-1.55,0.42-3.1,0.81-4.66,1.19c-0.47,0.11-0.76,0.32-0.95,0.79
					c-1.6,3.94-2.2,8.02-1.56,12.24c0.64,4.19,1.77,8.28,2.9,12.36c1.58,5.7,3.97,11.13,5.76,16.76
					C48.74,49.96,49.09,50.78,50.33,50.31z M32.7,10.37c-2.16,0.81-4.02,1.52-5.81,2.42c-0.36,0.18-0.52,0.48-0.67,0.82
					c-1.62,3.61-2.13,7.43-2.02,11.33c0.13,4.59,1.99,8.63,4.43,12.43c3.3,5.13,7.77,9.19,12.22,13.27
					c0.48,0.44,1.01,0.38,1.54,0.31c0.56-0.07,1.37,0.11,1.59-0.38c0.2-0.43-0.49-0.9-0.81-1.33c-4.13-5.64-8.02-11.42-10.54-18
					c-1.58-4.13-2.53-8.37-2.18-12.84C30.66,15.67,31.43,13.11,32.7,10.37z M81.27,50.88c2.3,0.47,2.67,0.48,3.24-0.03
					c3.57-3.19,7.1-6.43,10.09-10.18c5.05-6.33,7.91-13.27,6.4-21.62c-0.64-3.52-1.81-6.31-5.49-7.45c-0.66-0.2-1.26-0.58-1.89-0.85
					c-0.25-0.1-0.49-0.36-0.82-0.12c0.02,0.1,0.01,0.21,0.06,0.3c3.2,6.15,2.91,12.44,0.79,18.81c-2.08,6.24-5.55,11.72-9.34,17.02
					C83.34,48.1,82.33,49.43,81.27,50.88z M17.21,19.15c-1.72,1.09-3.15,2.24-3.72,4.42c-1.12,4.29-1.87,8.58-0.92,12.97
					c1.37,6.34,5.13,11.13,10.11,15.04c0.91,0.72,2.15,1.4,3.25,1.42c1.77,0.03,3.54-0.49,5.35-0.79c-0.08-0.18-0.09-0.26-0.14-0.3
					c-0.19-0.17-0.39-0.33-0.58-0.5c-4.6-3.82-8.49-8.25-11.31-13.54C16.09,32,14.56,25.92,17.27,19.4
					C17.3,19.35,17.24,19.27,17.21,19.15z M56.14,114.44c-0.7,0.56-1.54,0.66-1.32,1.64c0.79,3.63,0.42,7.28,0.06,10.91
					c-0.38,3.77-0.63,7.54,0.66,11.18c1.2,3.4,1.55,6.88,1.68,10.44c0.14,3.8,0.29,7.59,0.81,11.37c0.36,2.64,1.17,5.2,1.17,7.9
					c0,2.82-0.27,5.62-0.61,8.41c-0.1,0.79-0.37,1.68-0.13,2.37c0.21,0.59,1.26,0.29,1.85,0.68c0.27,0.18,0.6,0.26,0.91,0.38
					c0.45,0.18,0.92,0.2,1.4,0.14c0.61-0.08,0.9-0.27,0.67-1.01c-0.49-1.57-0.68-3.21-0.78-4.86c-0.17-2.96-0.59-5.87-1.39-8.74
					c-0.99-3.56-1.57-7.19-1.73-10.9c-0.14-3.33,0-6.66-0.21-9.98c-0.21-3.47-0.53-6.93-0.37-10.41c0.03-0.58,0-1.16-0.14-1.74
					C57.32,126.45,55.64,120.71,56.14,114.44z M54.15,116.61c-0.45,0.51-0.54,0.98-0.67,1.43c-0.59,2.05-0.87,4.13-0.92,6.27
					c-0.09,4.16,0.4,8.33,0.02,12.49c-0.22,2.47,0.1,4.88,0.79,7.25c0.27,0.94,0.48,1.93,0.49,2.91c0.06,5.16,0.07,10.31,0.07,15.47
					c0,4.64-0.07,9.28-0.26,13.92c-0.01,0.31-0.13,0.72,0.31,0.83c0.88,0.22,1.54,0.83,2.31,1.23c1.11,0.58,1.3,0.47,1.41-0.75
					c0.12-1.42,0.28-2.84,0.36-4.26c0.2-3.28,0.43-6.59-0.32-9.83c-0.96-4.16-1.23-8.37-1.28-12.61c-0.04-3.29,0.05-6.6-0.94-9.78
					c-1.73-5.51-1.92-11.09-1.17-16.78C54.68,121.88,54.69,119.29,54.15,116.61z M87.49,169.55c0.12,0.04,0.24,0.07,0.36,0.11
					c0.64-0.69,1.27-1.39,1.93-2.06c0.29-0.3,0.1-0.53-0.01-0.78c-1.12-2.4-1.23-4.91-0.98-7.5c0.19-1.96,0.47-3.92,0.25-5.9
					c-0.59-5.52-0.99-11.06-1.27-16.6c-0.17-3.43-0.37-6.85-0.8-10.26c-0.44-3.55-1.15-7.06-1.41-10.64
					c-0.03-0.42,0.04-0.92-0.67-0.86c-0.61,0.05-1.23,0.05-1.22,0.88c0,1.09-0.04,2.2,0.22,3.27c1.01,4.2,1.69,8.44,1.56,12.79
					c-0.16,5.51-0.23,11.03-0.34,16.55c-0.04,2.23-0.05,4.45-0.46,6.66c-0.34,1.83-0.67,3.76,0.05,5.53
					C85.88,163.59,87.03,166.45,87.49,169.55z M94.48,152.68c-0.3,3.18,0.65,6.15,1.54,9.13c0.22,0.73,0.46,0.71,0.91,0.2
					c0.75-0.85,1.49-1.71,2.29-2.51c0.5-0.5,0.6-0.98,0.36-1.65c-0.83-2.37-1.16-4.8-0.86-7.33c0.22-1.86,0.04-3.72-0.61-5.51
					c-0.64-1.75-0.76-3.54-0.52-5.4c0.16-1.23,0.17-2.49,0.1-3.72c-0.24-4.29-1.26-8.51-1.04-12.86c0.15-2.99-0.81-5.92-1.46-8.84
					c-0.08-0.36-0.1-0.83-0.75-0.61c-0.49,0.17-0.57,0.38-0.48,0.87c0.36,1.98,0.53,3.98,0.55,5.99c0.04,3.95-0.07,7.9,0.19,11.85
					c0.19,2.91,0.29,5.84-0.5,8.72c-0.12,0.44-0.14,0.96-0.05,1.41C94.73,145.82,94.75,149.25,94.48,152.68z M71.44,144.99
					c0.13,7.68,0.24,15.25,0.41,22.81c0.06,2.48-0.13,4.97,0.25,7.45c0.18,1.17,0.53,2.27,1.11,3.3c0.25,0.45,0.6,0.49,1.02,0.31
					c0.2-0.08,0.43-0.16,0.31-0.46c-0.86-2.18-0.62-4.54-1.1-6.78c-0.29-1.36-0.23-2.77-0.04-4.15c0.9-6.66,0.79-13.33,0.27-20.01
					c-0.43-5.51-0.31-11.02,0.19-16.52c0.38-4.26,0.76-8.52,0.29-12.8c-0.12-1.12-0.37-2.23-0.53-3.35
					c-0.08-0.55-0.37-0.92-0.92-0.88c-0.65,0.05-0.29,0.61-0.35,0.94c-0.06,0.32-0.01,0.66,0.01,0.98c0.22,4.2,0.41,8.4-0.03,12.59
					c-0.22,2.1-0.62,4.19-0.87,6.29C71.05,138.17,71.6,141.64,71.44,144.99z M95.16,51.74c1.03-0.03,2.07,0.45,3-0.18
					c5.18-3.48,9.62-7.7,13.08-12.94c2.81-4.24,3.86-8.61,1.55-13.43c-0.87-1.81-2.48-2.83-3.86-4.17
					c-0.09,0.18-0.13,0.21-0.12,0.24c0.05,0.17,0.1,0.35,0.16,0.52c1.07,2.97,1.16,6,0.52,9.07c-1.07,5.1-3.68,9.41-6.9,13.41
					C100.38,46.98,97.85,49.4,95.16,51.74z M66.99,168.43c0.91-3.8,1.53-7.36,1.13-11.06c-0.36-3.27-0.03-6.47,1.5-9.5
					c0.87-1.71,1.07-3.6,1.02-5.54c-0.08-3.03-0.14-6.06,0.21-9.09c0.29-2.5,0.88-4.96,0.93-7.49c0.09-3.88-0.06-7.75-0.23-11.62
					c-0.02-0.37,0.02-0.72-0.44-0.9c-0.64-0.25-1.26-0.55-1.99-0.88c0.14,1.63,0.29,3.15,0.4,4.66c0.6,8.17,0.14,16.28-1.54,24.31
					c-0.67,3.21-1.58,6.38-1.44,9.72c0.11,2.57-0.25,5.1-0.71,7.62C65.24,161.97,66.14,165.08,66.99,168.43z M34.68,125.66
					c0-1.79-0.54-3.39-0.57-5.02c-0.02-1.33-0.62-1.68-1.73-2c-0.9-0.26-1.09,0.07-1.24,0.78c-0.37,1.85-0.37,3.71-0.18,5.57
					c0.29,2.88,0.46,5.76,0.26,8.65c-0.3,4.22-0.83,8.4-0.67,12.67c0.18,4.74-0.93,9.44-1.36,14.16c-0.14,1.49-0.34,2.98-0.5,4.47
					c-0.07,0.65,0.67,1.54,1.25,1.57c0.35,0.02,0.38-0.04,0.32-1.27c-0.12-2.32,0.15-4.6,0.57-6.87c0.53-2.87,1.26-5.71,1.62-8.61
					c0.56-4.53,0.87-9.09,1.29-13.64C34.07,132.59,34.38,129.06,34.68,125.66z M53.11,116.55c-0.83,0.23-1.38,0.48-1.42,1.36
					c-0.03,0.61-0.21,1.22-0.33,1.83c-0.95,5.1-1.97,10.19-1.79,15.42c0.1,3.03,0.29,6.06,0.37,9.09c0.12,4.54,0.58,9.03,1.44,13.49
					c0.85,4.44,1.2,8.9,0.34,13.39c-0.3,1.58-0.61,3.15-0.89,4.73c-0.2,1.13,0.79,1.07,1.41,1.24c0.83,0.23,0.61-0.52,0.63-0.91
					c0.09-1.53,0.14-3.07,0.18-4.6c0.12-4.6,0.28-9.21,0.31-13.81c0.02-4.41,0.37-8.87-0.73-13.21c-0.69-2.72-0.95-5.45-0.84-8.25
					c0.09-2.3,0.23-4.59,0.08-6.9c-0.17-2.59-0.19-5.18,0.11-7.78C52.18,119.94,52.64,118.31,53.11,116.55z M74.32,114.43
					c1.34,6.03,0.88,11.97,0.32,17.9c-0.57,6.1-0.66,12.17-0.01,18.27c0.45,4.26,0.85,8.59,0,12.79c-0.95,4.72-0.24,9.28,0.33,13.9
					c0.1,0.83,0.51,1.19,1.43,0.97c1.82-0.44,1.84-0.4,1.34-2.2c-0.16-0.56-0.31-1.13-0.53-1.67c-0.86-2.06-1.19-4.21-1.05-6.43
					c0.27-4.42,0.28-8.84,0.24-13.26c-0.11-12.76-0.16-25.52-0.23-38.28C76.15,114.72,76.15,114.72,74.32,114.43z M50.96,117.69
					c-1.34,0.3-1.34,0.3-1.64,1.42c-1.58,5.81-1.91,11.72-1.58,17.7c0.23,4.27,0.47,8.55,0.01,12.81
					c-0.37,3.41-0.17,6.78,0.43,10.14c0.55,3.07,0.64,6.17,0.25,9.27c-0.24,1.92-0.59,3.82-1.08,5.7c-0.18,0.67,0,0.96,0.71,1.09
					c1.9,0.36,1.91,0.39,2.29-1.45c0.9-4.35,1.4-8.73,0.77-13.17c-0.41-2.82-0.97-5.61-1.3-8.44c-0.43-3.67-0.44-7.36-0.74-11.04
					c-0.53-6.63-0.31-13.2,1.11-19.72C50.48,120.6,50.69,119.17,50.96,117.69z M59.78,136.11c-0.16,5.11,0.3,10.07,0.27,15.04
					c-0.02,3.96,0.41,7.87,1.29,11.74c0.67,2.95,1.6,5.85,1.75,8.9c0.1,2.12,0.26,4.23,0.76,6.3c0.14,0.57,0.19,1.3,1.14,1.12
					c0.88-0.17,0.69-0.83,0.65-1.38c-0.17-2.33-0.39-4.65-0.99-6.93c-0.38-1.45-0.58-2.94-0.58-4.44c0-1.83,0.11-3.67-0.07-5.48
					c-0.26-2.65-0.49-5.28-0.41-7.97c0.15-4.61-0.73-9.08-2.47-13.37C60.67,138.51,60.43,137.29,59.78,136.11z M83,130.31
					c-0.06-1.43-0.12-2.71-0.18-3.99c-0.16-3.28-0.64-6.56-0.08-9.84c0.23-1.33,0.17-1.36-1.19-1.28c-0.44,0.03-0.67,0.14-0.7,0.61
					c-0.03,0.51-0.17,1.01-0.18,1.52c-0.12,5.62,0.32,11.25-0.02,16.88c-0.18,2.92,0.67,5.8,0.87,8.71
					c0.54,7.77,0.75,15.55,1.06,23.33c0.1,2.45,0.17,4.9,0.28,7.34c0.01,0.29-0.21,0.82,0.49,0.67c1.25-0.28,2.2-1.45,2.18-2.76
					c-0.01-1.03-0.21-2.04-0.54-3.01c-1.15-3.41-1.4-6.93-1.39-10.49c0-0.98,0.32-1.91,0.11-2.94c-0.45-2.29-0.85-4.6-0.8-6.96
					c0.04-1.72,0.28-3.44,0.18-5.15C82.85,138.7,82.66,134.44,83,130.31z M19.27,50.19c-7.75-7.63-10.09-16.6-6.64-27.14
					c-3.76,2.53-6.42,9.03-5.6,13.79C8.23,43.83,12.48,48.15,19.27,50.19z M71.74,51.74c-0.1,0-0.19,0-0.29,0c0,3.17,0,6.33,0,9.5
					c0,0.17,0,0.46,0.22,0.42c0.95-0.18,0.61,0.53,0.67,0.94c0.08,0.53,0.03,1.1,0.86,1.11c1.75,0.03,3.5,0.11,5.25,0.22
					c0.72,0.04,0.97-0.2,0.95-0.92c-0.08-3.4,0.12-6.79,0.31-10.18c0.05-0.82-0.26-1.01-0.96-1.05c-1.53-0.1-3.06-0.23-4.58-0.38
					c-1.57-0.16-1.57-0.18-1.61,1.45c0,0.15-0.01,0.29-0.01,0.44c-0.01,0.3-0.02,0.65-0.42,0.62c-0.38-0.03-0.38-0.38-0.38-0.68
					C71.73,52.74,71.74,52.24,71.74,51.74z M38.67,131.87c-0.13,1.03-0.24,1.86-0.33,2.68c-0.78,7.15-1.81,14.28-3.55,21.25
					c-1.06,4.24-1.68,8.39-0.95,12.75c0.22,1.29,0.93,1.28,1.76,1.39c1.62,0.21,1.9-0.01,1.62-1.65c-0.36-2.16-0.39-4.28,0.1-6.41
					c0.42-1.77,0.06-3.56,0.11-5.35c0.07-2.29,1.07-4.39,1.4-6.62c0.72-4.94,0.61-9.91,0.32-14.87
					C39.1,134.05,39.17,133.01,38.67,131.87z M62.23,108.78c-1.04,0.85-1.67,1.7-1.64,3.03c0.04,1.6-0.16,3.21-0.24,4.81
					c-0.2,3.84-0.18,7.66,0.89,11.41c0.54,1.89,1.03,3.8,1.42,5.73c0.87,4.23,1.1,8.54,1.55,12.82c0.34,3.31,0.64,6.61,0.23,9.94
					c-0.1,0.77,0.04,1.56,0.44,2.52c0.66-3.76,1.08-7.32,0.66-10.89c-0.9-7.59-1.18-15.22-1.65-22.84
					C63.56,119.82,62.68,114.38,62.23,108.78z M99.3,151.79c0.05,2.09,0.37,3.78,0.88,5.42c0.07,0.22,0.01,0.58,0.42,0.48
					c0.43-0.1,1.05-1.39,0.84-1.81c-0.8-1.62-1-3.35-0.94-5.12c0.08-2.53,0.06-5.04-0.75-7.48c-0.24-0.74-0.19-1.53-0.06-2.29
					c0.17-1,0.1-1.97-0.14-2.93c-0.16-0.66-0.16-1.29,0-1.95c0.22-0.92,0.53-1.9,0.25-2.81c-0.87-2.81-0.2-5.59,0.01-8.37
					c0.2-2.78,1.5-5.41,0.94-8.31c-0.22-1.14-0.42-2.2-1.17-3.12c-1.11-1.37-1.07-1.32-2.74-0.76c-0.95,0.31-1.13,0.72-0.85,1.66
					c1.13,3.8,1.82,7.67,1.53,11.67c-0.07,0.97,0.08,1.97,0.18,2.95c0.38,3.67,1.08,7.31,0.56,11.02c-0.14,1.03-0.07,2.08,0.22,3.05
					C99.42,146.06,99.92,149.05,99.3,151.79z M41.03,143.21c-0.12-1.99-0.24-3.85-0.33-5.71c-0.16-3.18-0.34-6.37,0.57-9.47
					c0.75-2.55,0.44-5.06,0.02-7.59c-0.09-0.51-0.36-0.56-0.76-0.54c-0.41,0.01-0.53,0.17-0.54,0.61
					c-0.04,3.69-0.56,7.37-0.33,11.06c0.23,3.68,0.52,7.36,0.41,11.06c-0.11,3.43-0.03,6.87-1.08,10.2
					c-0.53,1.69-0.75,3.42-0.72,5.19c0.03,1.5,0.09,3-0.2,4.48c-0.33,1.67-0.45,3.33-0.14,5c0.16,0.88,0.08,1.74-0.03,2.62
					c-0.17,1.41,0.64,2.3,2.05,2.3c0.5,0,0.7-0.12,0.74-0.66c0.09-1.35,0.14-2.72,0.44-4.02c0.3-1.29,0.18-2.52,0.02-3.78
					c-0.5-3.8-1-7.61-0.75-11.46C40.58,149.34,40.82,146.21,41.03,143.21z M47.82,62.07c-0.14-3.32-0.29-6.49-0.39-9.66
					c-0.02-0.65-0.17-0.91-0.88-0.82c-1.48,0.18-2.98,0.3-4.47,0.4c-0.57,0.04-0.73,0.26-0.72,0.82c0.01,0.5,0.38,1.4-0.19,1.44
					c-0.71,0.05-0.4-0.91-0.56-1.42c-0.08-0.28-0.04-0.65-0.47-0.58c-0.44,0.08-0.25,0.47-0.22,0.72c0.42,3.55,0.58,7.13,0.81,10.69
					c0.02,0.28-0.19,0.78,0.28,0.8c0.6,0.03,0.49-0.5,0.47-0.89c-0.07-0.98-0.15-1.96-0.21-2.95c-0.02-0.28-0.08-0.66,0.34-0.69
					c0.51-0.04,0.41,0.39,0.44,0.7c0.07,0.91,0.18,1.82,0.2,2.73c0.01,0.76,0.33,0.92,1.02,0.81c0.94-0.14,1.89-0.16,2.83-0.3
					C48.24,63.57,47.82,64.04,47.82,62.07z M41.94,163.88c1.55-2.86,2.16-5.69,1.17-8.74c-0.8-2.47-0.99-5.02-0.7-7.59
					c0.72-6.5,1.66-12.97,2.05-19.51c0.15-2.56,0.14-5.12,0.04-7.68c-0.01-0.28,0.06-0.71-0.32-0.71c-0.65,0-1.38-0.02-1.93,0.26
					c-0.49,0.25-0.18,0.93-0.09,1.41c0.3,1.62,0.79,3.26,0.3,4.88c-1.34,4.4-1.21,8.87-0.87,13.37c0.18,2.48,0.24,4.97-0.05,7.44
					C40.88,152.61,40.94,158.17,41.94,163.88z M90.49,124.13c-0.25,0.61-0.14,1.23-0.1,1.84c0.44,7.34,0.68,14.68,0.17,22.03
					c-0.09,1.36-0.08,2.73,0.38,4.02c0.79,2.25,0.92,4.55,0.96,6.9c0.03,1.9,0.64,3.73,1.24,5.53c0.05,0.15,0.04,0.37,0.3,0.39
					c0.61,0.04,1.96-1.54,1.76-2.14c-1.6-4.68-1.75-9.49-1.71-14.38c0.03-4.81-0.6-9.61-1.21-14.39
					C91.86,130.63,91.32,127.36,90.49,124.13z M51.44,101.55c-1.32-0.63-2.38-1-3.73-0.33c-3.82,1.89-7.64,3.81-11.73,5.06
					c-4.76,1.46-9.42,1.64-14.04-0.66c-1.41-0.7-3.11-0.85-4.67-1.25c1.38,1.22,2.81,2.34,4.38,3.21c2.54,1.4,5.39,1.78,8.23,1.98
					c3.32,0.23,6.61,0.27,9.74-1.31C43.61,106.22,47.2,103.49,51.44,101.55z M77.1,149.1c0.09-0.01,0.18-0.02,0.27-0.03
					c0.42-2.74,0.64-5.52,1.31-8.19c0.67-2.72,0.95-5.45,1.14-8.22c0.23-3.32,0.44-6.63,0.14-9.96c-0.17-1.89-0.16-3.8-0.02-5.7
					c0.14-1.84,0.18-1.78-1.67-1.99c-1.01-0.11-1.38,0.08-1.37,1.22c0.11,8.74,0.14,17.48,0.2,26.21
					C77.11,144.66,77.1,146.88,77.1,149.1z M80.19,138.71c-0.52,0.84-0.71,1.63-0.83,2.39c-0.55,3.53-0.99,7.08-1.57,10.6
					c-0.31,1.91-0.07,3.69,0.61,5.47c0.32,0.85,0.57,1.74,0.73,2.63c0.85,4.84,2.13,9.63,2.05,14.6c0,0.22-0.06,0.58,0.36,0.51
					c0.24-0.04,0.52-0.12,0.54-0.45c0.01-0.26,0.02-0.51,0.01-0.77c-0.13-3.72-0.28-7.44-0.38-11.16
					c-0.15-5.77-0.41-11.53-0.76-17.29C80.82,143.12,80.63,140.99,80.19,138.71z M21.55,109.02c0.18,0.17,0.35,0.37,0.55,0.5
					c4.12,2.5,8.39,4.45,13.41,3.55c3.03-0.54,6.08-1.14,8.62-2.96c3.01-2.16,6.04-4.22,9.57-5.45c0.2-0.07,0.47-0.09,0.44-0.49
					c-0.1-1.37-1.21-2.08-2.48-1.53c-0.33,0.15-0.66,0.31-0.99,0.47c-3.43,1.64-6.49,3.94-9.85,5.71
					c-4.08,2.14-8.35,2.97-12.91,2.02C25.78,110.38,23.73,109.64,21.55,109.02z M28.71,156.04c0.13-0.15,0.21-0.2,0.22-0.25
					c0.41-4.31,1.46-8.58,0.79-12.96c-0.1-0.64-0.02-1.32,0.07-1.96c0.61-4.53,0.89-9.08,0.74-13.66c-0.08-2.41-0.48-4.81-0.23-7.22
					c0.07-0.64,0.59-1.39,0.23-1.87c-0.37-0.49-1.2-0.63-1.79-0.97c-0.62-0.35-0.74-0.11-0.74,0.49c-0.01,2.05,0.02,4.1-0.08,6.14
					c-0.18,3.47-0.28,6.93,0.04,10.4c0.41,4.4,0.68,8.82,0.49,13.24C28.33,150.27,28.67,153.1,28.71,156.04z M25.26,113.18
					c0.09,0.09,0.16,0.21,0.26,0.28c2.69,1.94,5.6,3.41,8.82,4.25c0.92,0.24,1.9,0.24,2.67-0.21c2.23-1.31,4.64-2.26,6.86-3.62
					c4.44-2.71,8.08-6.7,13.33-8.17c-0.82-0.61-1.58-0.63-2.44-0.31c-3.18,1.16-6.12,2.76-8.84,4.77
					c-3.85,2.84-8.23,3.98-12.92,4.15C30.38,114.42,27.79,114.05,25.26,113.18z M22.98,121.4c-0.14,0.34-0.21,0.43-0.22,0.53
					c-0.39,5.25-0.87,10.5-0.66,15.77c0.17,4.38,0.44,8.75-0.19,13.13c-0.35,2.45,0.66,4.68,1.64,6.97c0.17-0.2,0.28-0.27,0.3-0.36
					c1.28-4.64,1.58-9.36,1.05-14.12c-0.66-5.88-1.36-11.76-1.64-17.68C23.19,124.32,23.09,122.98,22.98,121.4z M70.59,148.04
					c-0.24,0.41-0.36,0.58-0.46,0.77c-1.38,2.52-1.44,5.23-1.21,7.99c0.19,2.19,0.18,4.36-0.26,6.54c-0.48,2.35-1.28,4.7-0.88,7.13
					c0.45,2.73,1.77,5.25,2.09,8.02c0.03,0.23,0.12,0.58,0.48,0.37c0.61-0.37,1.26-0.18,2.01-0.15c-0.64-1.43-1.09-2.81-1.24-4.26
					c-0.15-1.45-0.31-2.91-0.22-4.37c0.36-5.58-0.11-11.17-0.05-16.75C70.88,151.66,70.94,149.97,70.59,148.04z M66.43,110.92
					c0.11,0.89,0.23,1.71,0.32,2.54c0.39,3.3,0.97,6.58,0.54,9.92c-0.22,1.66-0.48,3.32-0.66,4.99c-0.33,3.08-0.27,6.19-0.83,9.26
					c-0.49,2.67-0.12,5.34,0.3,8.25c0.16-0.37,0.22-0.49,0.26-0.62c1.6-5.64,2.59-11.38,2.76-17.24c0.14-4.83-0.07-9.64-0.61-14.44
					C68.35,112.24,67.97,111.29,66.43,110.92z M101.12,122.17c-0.88,3.39-1.3,6.81-0.73,10.26c0.16,0.98,0.32,1.95,0.2,2.93
					c-0.28,2.23-0.08,4.45,0.18,6.67c0.33,2.76,0.62,5.5,0.4,8.3c-0.13,1.71-0.01,3.48,0.99,5.22c0.96-1.59,1.57-3.12,1.64-4.84
					c0.1-2.39-0.4-4.73-0.67-7.09c-0.54-4.8-0.49-9.64-1.09-14.43C101.75,126.86,101.43,124.51,101.12,122.17z M35.32,63.57
					c-0.16-2.17-0.28-4.32-0.49-6.46c-0.12-1.27-0.37-2.52-0.57-3.78c-0.03-0.17-0.05-0.38-0.31-0.35
					c-0.24,0.03-0.27,0.23-0.26,0.41c0.04,0.55,0.1,1.09,0.13,1.64c0.01,0.22-0.03,0.45-0.32,0.48c-0.3,0.03-0.36-0.18-0.39-0.41
					c-0.06-0.43-0.11-0.87-0.18-1.3c-0.04-0.26,0.05-0.69-0.39-0.62c-0.39,0.06-0.28,0.44-0.25,0.72c0.01,0.07,0.03,0.15,0.03,0.22
					c-0.03,0.31,0.1,0.74-0.41,0.73c-0.43-0.01-0.34-0.44-0.33-0.68c0.04-0.79-0.31-0.92-1.01-0.77c-1.07,0.22-2.15,0.43-3.23,0.53
					c-0.94,0.08-0.95,0.48-0.7,1.22c0.41,1.21,0.9,2.39,1.53,3.5c1.45,2.55,3.41,4.53,6.22,5.56C35.1,64.47,35.45,64.39,35.32,63.57
					z M44.02,154.39c0.07-0.8,0.12-1.6,0.21-2.39c0.33-3.01,1.15-5.95,1.33-8.98c0.06-1.02,0.06-2.08,0.54-3
					c0.77-1.48,0.68-3.04,0.56-4.6c-0.35-4.88-0.08-9.7,1.08-14.47c0.17-0.72,0.81-1.68,0.32-2.12c-0.45-0.4-1.39,0.31-2.15,0.41
					c-0.55,0.08-0.72,0.35-0.69,0.98c0.34,5.75-0.25,11.45-0.86,17.16c-0.42,3.88-1.09,7.74-1.25,11.65
					C43.04,150.85,43.24,152.65,44.02,154.39z M27.05,133.52c-0.63,3.55-1.46,7.07-1.26,10.72c0.27,4.84-0.01,9.63-1.45,14.3
					c-0.13,0.42-0.09,0.8,0.19,1.13c0.65,0.79,0.89,1.73,1.09,2.71c0.15,0.74,0.52,1.33,1.23,1.71c0.62,0.33,0.77,0.2,0.84-0.49
					c0.29-2.84,0.25-5.69,0.22-8.54c-0.03-2.81-0.33-5.61-0.22-8.43C27.86,142.26,27.64,137.88,27.05,133.52z M46.61,142.89
					c-0.19,1.32-0.28,2.49-0.55,3.61c-0.94,3.93-1.55,7.88-1.13,11.93c0.2,1.97,0.17,3.94-0.09,5.91c-0.33,2.5-0.47,5.01-0.58,7.53
					c-0.07,1.55,0.49,2.47,1.89,2.97c1.04-2.88,1.71-9.89,1.15-13.42c-0.8-4.97-1.03-9.94-0.43-14.95
					C47.01,145.35,47.1,144.16,46.61,142.89z M89.32,148.53c0.37-0.29,0.34-0.63,0.38-0.95c0.32-2.28,0.43-4.58,0.42-6.88
					c-0.01-5.99-0.32-11.97-0.63-17.95c-0.12-2.33-0.44-4.65-0.24-6.99c0.03-0.38,0.19-0.98-0.51-0.99
					c-0.8-0.01-1.71-0.12-2.33,0.36c-0.43,0.33,0.01,1.09-0.02,1.67c-0.02,0.29,0.05,0.58,0.09,0.87c0.48,3.58,1.01,7.15,1.43,10.74
					c0.54,4.64,0.6,9.32,0.91,13.98C88.95,144.42,89.15,146.44,89.32,148.53z M33.01,169.05c0.19-0.61,0.07-1,0.04-1.4
					c-0.14-1.89-0.31-3.77-0.21-5.68c0.14-2.74,1.13-5.27,1.64-7.91c1.33-6.77,2.48-13.56,3.23-20.42c0.18-1.64,0.33-3.29,0.49-4.94
					c-0.51,0.58-0.66,1.25-0.77,1.91c-1.07,6.63-2.47,13.18-4.14,19.68c-1.19,4.65-2.18,9.36-2.33,14.22
					C30.9,166.47,31.89,167.62,33.01,169.05z M114.88,27.7c0.83,3.35,0.05,6.41-1.51,9.33c-1.91,3.58-4.39,6.73-7.31,9.52
					c-1.29,1.23-2.65,2.4-3.98,3.59c3.49-1.56,6.75-3.49,9.66-5.93c3.57-2.99,5.6-6.76,5.24-11.6
					C116.83,30.72,116.15,29.11,114.88,27.7z M23.23,113.72c-0.11,2.56-0.03,4.91,0.31,7.32c0.75,5.3,0.75,10.7,1.4,16.03
					c0.05,0.38-0.09,0.81,0.42,1.18c0.52-2.67,0.84-5.29,0.97-7.92c0.23-4.45,0.4-8.9,0.6-13.35c0.02-0.41,0.02-0.78-0.4-1.04
					C25.46,115.24,24.42,114.52,23.23,113.72z M58.47,107.37c-1.64-0.62-3.13-0.47-4.66,0.75c-2.47,1.96-5.25,3.44-7.78,5.29
					c-1.59,1.16-3.19,2.3-4.88,3.31c-0.91,0.54-1.87,1-2.81,1.49c1.29,0.16,2.53,0.2,3.77,0.15c4.25-0.15,7.68-1.59,9.26-5.93
					c0.15-0.4,0.42-0.77,0.66-1.13c0.37-0.57,0.88-1.03,1.54-1.17C55.51,109.73,56.69,108.05,58.47,107.37z M59.41,111.7
					c-0.61,0.53-1.1,1-1.65,1.4c-0.54,0.4-0.75,0.89-0.84,1.56c-0.31,2.34-0.17,4.67,0.18,6.99c0.92,6.08,2.61,11.96,4.72,17.73
					c0.09,0.25,0.09,0.58,0.43,0.69c0.16-0.33,0.08-0.66,0.03-0.98c-0.4-2.63-0.7-5.29-1.43-7.85c-1.37-4.83-1.9-9.72-1.63-14.73
					C59.31,114.97,59.63,113.42,59.41,111.7z M106.24,105.25c-0.02-0.07-0.04-0.13-0.06-0.2c-0.14,0-0.28,0-0.43,0
					c-6.18,0.06-12.24-0.54-17.97-3.13c-1.89-0.85-3.86-1.55-5.91-1.94c-1.36-0.26-2.73-0.53-4.19-0.21
					c0.13,0.15,0.17,0.24,0.22,0.25c0.43,0.1,0.85,0.18,1.28,0.26c4.5,0.85,8.63,2.65,12.57,4.95c3.06,1.79,6.39,2.64,9.94,2.61
					c0.36,0,0.72,0.05,1.06-0.18C103.9,106.84,105.07,106.05,106.24,105.25z M21.69,91.24c0.01-0.14,0.03-0.29,0.03-0.43
					c-0.19-5.95-0.85-11.88-0.65-17.85c0.03-0.97-0.86-1.07-1.52-1.29c-0.67-0.22-1.11,0.19-1.42,0.74
					c-0.46,0.83-0.45,1.75-0.5,2.66C17.32,80.87,19.82,85.99,21.69,91.24z M63.36,108.51c-0.14,0.04-0.29,0.07-0.43,0.11
					c0.87,8.53,2.03,17.05,2.31,25.64c0.41-0.35,0.38-0.79,0.38-1.21c-0.02-2.05,0.16-4.09,0.44-6.12c0.36-2.6,0.88-5.2,0.58-7.85
					c-0.3-2.76-0.67-5.51-0.99-8.27c-0.04-0.38-0.1-0.69-0.45-0.93C64.56,109.44,63.97,108.96,63.36,108.51z M26.21,105.93
					c7.71,1.44,13.99-2.42,20.75-5.48c-1.02-0.29-1.9-0.26-2.51-0.76c-1.07-0.89-2.14-0.59-3.27-0.29c-1.33,0.35-2.47,1.02-3.52,1.9
					c-2.54,2.13-5.55,3.27-8.72,4.07C28.03,105.61,27.05,105.41,26.21,105.93z M78.79,177.34c1.65-1.05,1.79-2.55,1.69-4.23
					c-0.25-4.05-1.18-8-1.82-11.99c-0.25-1.56-0.51-3.13-1.42-4.78c-0.04,0.53-0.07,0.8-0.08,1.07c-0.02,3.06,0.01,6.13-0.19,9.19
					c-0.14,2.18-0.19,4.38,0.56,6.5C78.02,174.47,78.56,175.82,78.79,177.34z M97.21,52.87c-1.18,0-2.2,0-3.21,0
					c-0.62,0-1.3-0.17-1.85,0.04c-0.74,0.28-0.19,1.1-0.37,1.65c-0.07,0.21-0.1,0.46-0.37,0.46c-0.28,0-0.33-0.23-0.34-0.46
					c-0.01-0.37,0-0.73-0.01-1.1c-0.01-0.32,0.05-0.76-0.45-0.68c-0.41,0.06-0.27,0.46-0.23,0.72c0.26,1.6,0.16,3.21,0.15,4.81
					c0,0.36,0.18,0.99-0.37,0.98c-0.68,0-0.38-0.68-0.38-1.04c0.02-1.68,0.06-3.36-0.21-5.02c-0.03-0.22,0.02-0.56-0.43-0.5
					c-0.24,0.75,0.03,1.5,0.03,2.26c-0.01,2.52-0.26,5.03-0.45,7.54c-0.02,0.25-0.25,0.66,0.24,0.66c0.26,0,0.56-0.18,0.55-0.56
					c0-0.15-0.02-0.3,0.01-0.44c0.08-0.38-0.22-1.04,0.42-1.05c0.58-0.01,0.25,0.64,0.39,0.98c0.02,0.06,0.08,0.1,0.17,0.21
					c1.59-1.02,2.78-2.42,3.87-3.93c0.38-0.53,0.5-1.11,0.6-1.73c0.08-0.5-0.51-1.65,0.9-1.11c0.05,0.02,0.22-0.17,0.27-0.28
					C96.51,54.52,96.83,53.76,97.21,52.87z M100.7,87.94c1.32-1.8,1.78-3.81,2.28-5.82c0.61-2.43,1.43-4.82,1.48-7.37
					c0.01-0.74-0.09-1.46-0.53-2.08c-0.58-0.82-1.42-0.79-2.27-0.65c-0.86,0.14-0.75,0.83-0.82,1.44c-0.37,3.19-0.5,6.4-0.41,9.61
					C100.48,84.69,100.61,86.32,100.7,87.94z M71.19,105.56c1.89,0.5,3.79,0.98,5.68,1.51c3.69,1.03,7.21,2.57,10.93,3.54
					c1.52,0.4,3.03,0.44,4.59,0.1C86.16,105.59,78.71,105.4,71.19,105.56z M33.76,144.28c0.5-0.63,0.55-1.25,0.69-1.83
					c1-3.97,1.34-8.06,2.21-12.05c0.59-2.69,1.75-5.29,1.36-8.14c-0.11-0.79,0.53-1.83-0.02-2.29c-0.55-0.47-1.6-0.31-2.41-0.5
					c-0.69-0.17-0.87,0.1-0.8,0.71c0.14,1.16,0.32,2.31,0.45,3.47c0.38,3.34-0.31,6.62-0.55,9.92
					C34.45,137.1,34.09,140.62,33.76,144.28z M93.35,135.86c0.36-0.44,0.31-0.71,0.29-0.96c-0.25-3.98-0.24-7.97-0.17-11.95
					c0.04-2.34-0.02-4.68-0.37-7c-0.29-1.9-1.02-2.26-2.78-1.43c-0.22,0.11-0.38,0.21-0.37,0.46c0.04,1.38-0.44,2.81,0.1,4.13
					c1.5,3.63,1.76,7.52,2.46,11.31C92.84,132.16,93.06,133.92,93.35,135.86z M24.59,100.35c0.11-0.22,0.18-0.3,0.2-0.39
					c0.52-3.58,1.26-7.1,2.44-10.52c0.14-0.41,0.08-0.77,0.01-1.17c-0.37-2.12-1.03-4.17-1.2-6.33c-0.1-1.23,0-2.52-0.69-3.91
					c-0.94,2.65-1.48,5.16-1.33,7.75c0.21,3.61,0.35,7.21,0,10.82C23.9,97.84,24.18,99.05,24.59,100.35z M100.26,109.19
					c-0.37-0.46-0.89-0.41-1.32-0.53c-3.66-1.01-7.42-1.88-10.62-3.97c-3.72-2.44-7.85-3.42-12.11-4.14
					c-0.83-0.14-1.63-0.08-2.37,0.64c0.8,0.1,1.49,0.19,2.17,0.28c4.13,0.59,8.12,1.61,11.37,4.42c2.62,2.27,5.67,3.5,8.98,4.33
					C97.94,110.63,99.08,110.08,100.26,109.19z M23.57,103.45c0.15-1.1,0.32-2.25,0.04-3.34c-0.4-1.55-0.48-3.1-0.34-4.67
					c0.26-2.95,0.27-5.9,0.03-8.86c-0.12-1.45-0.28-2.95,0.14-4.36c1.37-4.69,1.98-9.48,1.99-14.35c0-0.42,0.32-1.09-0.38-1.17
					c-0.58-0.06-0.44,0.61-0.54,0.98c-0.61,2.25-0.9,4.58-1.73,6.77c-0.21,0.57-0.72,1.01-0.69,1.69c0.06,1.24,0.07,2.48,0.11,3.72
					c0.14,4.49,0.76,8.96,0.53,13.46C22.54,96.72,22.9,100.08,23.57,103.45z M92.27,112.47c-2.36-0.42-4.31-1.24-6.48-1.17
					c-3.38,0.11-6.77,0.27-10.16-0.02c-0.16-0.01-0.37-0.05-0.47,0.25c0.41,0.37,1,0.67,1.24,1.15c0.41,0.83,1.08,0.8,1.81,0.9
					c2.77,0.38,5.54,0.19,8.29-0.1C88.33,113.29,90.19,113.17,92.27,112.47z M84.25,110.49c-5.17-2.25-10.83-2.64-16.15-4.4
					c1.19,1.34,2.39,2.61,4.02,3.34c0.72,0.33,1.31,0.97,2.14,1.03C77.59,110.7,80.91,110.76,84.25,110.49z M27.7,90.65
					c-0.11,0.26-0.23,0.48-0.3,0.71c-1.21,4.04-1.83,8.18-2.39,12.35c-0.03,0.21-0.1,0.43,0.15,0.58c0.61,0.35,1.71-0.13,1.87-0.82
					c0.46-2.03,0.57-4.15,1.36-6.08C29.38,94.99,28.87,92.84,27.7,90.65z M96.65,92.91c-0.83,0.78-0.93,1.72-0.78,2.74
					c0.22,1.48,0.14,2.98,0.22,4.47c0.05,0.92-0.66,2.1,0.05,2.65c0.63,0.5,1.81,0.28,2.75,0.42c0.8,0.12,1.05-0.06,0.77-0.91
					c-0.9-2.72-1.97-5.4-2.45-8.25C97.13,93.65,96.99,93.26,96.65,92.91z M60.92,107.84c-0.91-0.14-1.44,0.25-1.96,0.52
					c-1.77,0.92-3.4,2.12-5.35,2.7c-0.5,0.15-0.88,0.54-1.15,0.98c-0.82,1.32-1.6,2.65-2.39,3.98
					C54.36,114.26,57.79,111.43,60.92,107.84z M81.53,61.05c0.01,0,0.02,0,0.02,0c0,0.69,0.06,1.39-0.02,2.08
					c-0.09,0.8,0.38,0.86,0.96,0.95c0.67,0.11,0.89-0.17,0.97-0.8c0.44-3.41,0.36-6.83,0.03-10.24c-0.06-0.64-0.3-0.87-0.95-0.87
					c-0.75,0-0.56,0.54-0.58,0.92C81.81,55.74,81.67,58.39,81.53,61.05z M97.77,85.23c-0.65,2.04-0.37,3.88-0.51,5.69
					c-0.07,0.93,0.62,1.77,0.92,2.66c0.14,0.41,0.21,0.85,0.29,1.28c0.35,1.81,0.89,3.55,1.64,5.28c0.34-0.31,0.2-0.61,0.19-0.88
					c-0.2-3.16-0.37-6.33-0.63-9.48C99.54,88.15,98.75,86.76,97.77,85.23z M83.42,121.54c0.52,10.22,0.12,20.46,0.53,30.85
					c0.41-0.38,0.34-0.66,0.34-0.9c0.13-7.45,0.3-14.9,0.34-22.35C84.64,126.57,84.32,124,83.42,121.54z M51.69,74.66
					c-1.36-2.98-2.47-5.82-2.12-8.97c0.03-0.28-0.13-0.51-0.44-0.51c-0.69,0-1.45-0.17-2.03,0.22c-0.51,0.34-0.02,0.93-0.03,1.41
					c0,0.22-0.01,0.44,0.04,0.65c0.68,2.77,0.62,6,4.18,7.07C51.32,74.54,51.35,74.55,51.69,74.66z M37.78,63.71
					c-0.32-3.46-0.69-6.91-0.68-10.37c0-0.84-0.48-0.74-0.99-0.69c-0.52,0.06-1.21-0.06-1.04,0.84c0.65,3.37,0.74,6.8,0.99,10.21
					c0.07,0.91,0.47,1.11,1.22,1.1C38.28,64.79,37.64,64.08,37.78,63.71z M44.02,161.44c-0.17,0.28-0.27,0.42-0.35,0.57
					c-1.56,3.08-2.15,6.39-2.29,9.81c-0.04,1.04,0.5,1.53,1.29,1.92c0.66,0.33,1.04,0.24,0.95-0.62c-0.3-2.63-0.13-5.23,0.24-7.84
					C44.02,164.07,44.27,162.86,44.02,161.44z M29.78,95.32c-0.94,2.44-1.31,4.81-1.78,7.17c-0.4,2.01-0.32,1.63,1.45,1.33
					c1-0.17,1.43-0.66,1.31-1.71c-0.13-1.13,0.01-2.29,0.31-3.37C31.47,97.26,30.72,96.36,29.78,95.32z M83.51,104.74
					c-0.24-0.5-0.67-0.55-1.02-0.7c-2.49-1.1-5.12-1.6-7.8-2c-1.44-0.22-2.56,0.2-3.53,1.21c-0.19,0.2-0.55,0.35-0.38,0.69
					c0.13,0.27,0.44,0.38,0.74,0.38c0.36,0,0.73-0.01,1.09-0.04c2.44-0.22,4.87-0.26,7.31,0.03
					C81.1,104.45,82.28,104.59,83.51,104.74z M64.73,107.61c3.23,2.59,6.72,4.48,10.99,5.55c-1.17-1.24-2.1-2.27-3.46-2.8
					c-1.17-0.45-2.22-1.11-3.11-2C67.9,107.13,66.58,106.42,64.73,107.61z M65.36,164.58c-0.1,0-0.19-0.01-0.29-0.01
					c-0.05,0.16-0.13,0.32-0.13,0.48c-0.04,1.83,0.3,3.62,0.66,5.41c0.57,2.85,1.5,5.64,1.18,8.61c-0.03,0.28,0.07,0.42,0.3,0.48
					c0.46,0.11,0.99,0.27,1.39,0.04c0.47-0.27-0.06-0.7-0.06-1.07c0-0.29-0.1-0.57-0.17-0.85
					C67.28,173.31,66.32,168.95,65.36,164.58z M71.07,72.4c1.49-1.95,2.82-3.68,4.13-5.42c0.32-0.43,0.87-0.97,0.65-1.42
					c-0.26-0.54-1.03-0.3-1.59-0.35c-0.33-0.03-0.66,0-0.98-0.05c-0.69-0.11-0.96,0.24-1.1,0.86C71.7,68.05,71.43,70.1,71.07,72.4z
					 M86.98,59.57c-0.07,0-0.14,0-0.22,0c0,1.13-0.01,2.26,0.01,3.39c0.01,0.32-0.22,0.83,0.33,0.88c0.51,0.05,0.76-0.33,0.8-0.83
					c0.07-0.73,0.17-1.45,0.22-2.17c0.18-2.4,0.43-4.8,0.25-7.21c-0.04-0.49,0.01-1.03-0.78-1.05c-0.87-0.03-0.59,0.63-0.6,0.98
					C86.96,55.56,86.98,57.56,86.98,59.57z M75.46,71.28c1.31-0.41,2.81-0.54,3.69-1.51c1.06-1.16,1.73-2.68,2.61-4.12
					c-0.94-0.16-2-0.67-2.55,0.05C77.83,67.46,76.69,69.41,75.46,71.28z M97.83,77.04c2.28-2.99,2.36-6.56,2.57-10.09
					C97.97,69.89,97.59,73.38,97.83,77.04z M94.8,95.73c-0.99,1.09-1.84,2.03-2.68,2.97c-0.13,0.14-0.19,0.3-0.16,0.5
					c0.16,1.11,0.58,2.12,1.23,3.01c0.41,0.55,1.5,0.51,1.6-0.02C95.2,100.1,95.1,98.01,94.8,95.73z M89.71,151.79
					c0,0.14-0.01,0.29,0,0.43c0.42,4.36,0.84,8.72,1.28,13.09c0.04,0.37-0.17,0.95,0.3,1.04c0.29,0.06,0.67-0.37,1-0.58
					c0.49-0.31,0.22-0.71,0.1-1.07c-0.88-2.77-1.47-5.57-1.35-8.5C91.11,154.6,90.6,153.11,89.71,151.79z M47.73,72.7
					c-0.46-1.81-1.18-3.45-1.38-5.22c-0.24-2.12-0.27-2.12-2.37-1.88c-0.11,0.01-0.22,0.01-0.33,0.02
					c-0.42,0.05-0.52,0.27-0.23,0.57c1.25,1.33,1.61,3.07,2.2,4.7C45.95,71.83,46.42,72.63,47.73,72.7z M69.32,74.05
					c0.66-0.19,0.65-0.46,0.72-0.7c0.66-2.4,0.78-4.9,1.35-7.32c0.11-0.45,0.3-0.96-0.42-0.89c-0.58,0.05-1.59-0.54-1.62,0.62
					C69.27,68.52,69.32,71.29,69.32,74.05z M97.59,55.98c-0.58,0.98-1.02,1.81-1.54,2.59c-0.36,0.54-0.16,0.76,0.35,0.93
					c1.32,0.43,2.62,0.88,3.94,1.29c0.24,0.07,0.58,0.31,0.78-0.04c0.18-0.32-0.12-0.55-0.29-0.77c-0.22-0.29-0.47-0.57-0.75-0.79
					C99.02,58.36,97.95,57.54,97.59,55.98z M99.36,85.47c-0.38-2.83,0.31-5.5-0.02-8.23C97.13,78.75,96.77,82.89,99.36,85.47z
					 M31.76,67.38c-0.06-0.5-0.35-0.8-0.58-1.12c-0.67-0.95-1.79-1.37-2.63-2.12c-1.25-1.12-1.27-1.09-2.74-0.13
					C28.57,66.76,28.96,66.98,31.76,67.38z M87.99,66.88c1.38-0.43,2.56-0.46,3.1-1.79c0.24-0.6,0.88-0.96,1.42-1.34
					c0.89-0.63,1.8-1.25,2.68-1.9c0.22-0.16,0.63-0.24,0.56-0.58c-0.08-0.35-0.52-0.34-0.8-0.48c-0.47-0.23-0.65,0.19-0.87,0.45
					c-1.06,1.18-2.24,2.21-3.64,2.95C89.37,64.74,88.76,65.65,87.99,66.88z M98.73,62.32c-1.1-0.81-2.03-0.63-2.95,0.11
					c-0.62,0.5-1.33,0.88-2,1.33c-0.75,0.5-1.57,0.93-2.13,1.96C94.26,64.89,96.67,64.09,98.73,62.32z M101.31,58.67
					c0.29-1.07,0.61-2.07-0.45-2.97c-0.58-0.49-0.91-1.21-1.14-1.96c-0.07-0.22,0.03-0.69-0.44-0.59c-0.31,0.07-0.38,0.34-0.44,0.66
					C98.41,56.1,98.97,57.24,101.31,58.67z M43.01,70.98c-0.42-1.73-1.52-2.94-2.46-4.26c-0.57-0.8-1.31-0.35-1.98-0.42
					c-0.17-0.02-0.44,0.06-0.42,0.25c0.06,0.62,0.46,1.04,0.95,1.38c0.03,0.02,0.06,0.04,0.09,0.06c0.96,0.71,2.01,1.29,2.51,2.5
					C41.87,70.92,42.43,70.99,43.01,70.98z M97.88,68.78c0.71-1.51,1.52-2.62,2.43-3.65c0.67-0.76,0.7-1.58,0.6-2.54
					C97.93,64.37,97.39,65.4,97.88,68.78z M35.9,68.24c-0.43-0.72-0.36-2-1.38-2.35c-2.02-0.69-3.78-1.71-5.27-3.21
					c-0.22-0.22-0.46-0.4-0.74-0.12c-0.38,0.38,0.08,0.51,0.26,0.65c0.93,0.76,1.91,1.46,2.82,2.25c1.19,1.04,2.85,1.52,3.63,3.06
					c0.07,0.13,0.39,0.18,0.6,0.18C35.96,68.7,35.98,68.51,35.9,68.24z M72.03,72.96c2.33-1.95,4.37-4.12,5.78-6.82
					c0.11-0.2,0.41-0.46,0.15-0.66c-0.26-0.21-0.65-0.17-0.94,0c-0.17,0.09-0.26,0.34-0.37,0.53c-0.98,1.8-2.19,3.45-3.43,5.08
					C72.78,71.67,72.22,72.19,72.03,72.96z M51.77,72.56c0.1-2.56-0.2-4.82-0.3-7.09c-0.01-0.34-0.28-0.49-0.63-0.45
					c-0.27,0.03-0.5,0.13-0.51,0.46C50.21,67.85,50.33,70.17,51.77,72.56z M25.51,56.85c-0.67,0.82-1.19,1.77-2.05,2.39
					c-0.98,0.7-0.78,1.53-0.49,2.59c0.9-0.97,1.66-1.84,2.47-2.68C26.16,58.42,26.29,57.68,25.51,56.85z M45.05,71.63
					c-0.32-0.93-0.59-1.75-0.88-2.57c-0.39-1.08-1.07-1.98-1.77-2.86c-0.33-0.41-0.74-0.38-1.06-0.13
					c-0.34,0.27,0.07,0.52,0.22,0.71c1.02,1.25,1.87,2.59,2.31,4.17C44.01,71.47,44.36,71.72,45.05,71.63z M84.52,64.17
					c0.34-0.63,0.35-1.24,0.42-1.85c0.34-3.03-0.08-6.05-0.07-9.08c0-0.34,0.12-0.89-0.42-0.82c-0.52,0.07-0.21,0.6-0.19,0.9
					c0.3,3.21,0.34,6.41-0.01,9.61C84.21,63.3,84.02,63.72,84.52,64.17z M83.74,68.31c1.81-0.44,3.49-0.8,3.98-2.84
					C85.62,65.25,84.73,65.86,83.74,68.31z M80.43,69.37c2.55-0.12,2.75-2.27,3.93-3.74c-0.76,0.01-1.35-0.29-1.74,0.27
					C81.85,66.99,81.07,68.07,80.43,69.37z M31.6,103.03c0.57-0.34,1.31-0.38,1.28-1.04c-0.06-1.12,0.48-2.33-0.43-3.34
					c-0.4-0.44-0.62-0.28-0.68,0.22C31.62,100.21,31.36,101.54,31.6,103.03z M22.95,63.5c0.07,0.08,0.14,0.16,0.21,0.23
					c1.38-0.98,2.79-1.91,4.12-2.95c0.49-0.38-0.16-0.75-0.31-1.12c-0.09-0.23-0.29-0.34-0.5-0.1
					C25.29,60.87,24.12,62.19,22.95,63.5z M86.38,171.37c0.58-0.41,0.74-0.72,0.57-1.3c-0.44-1.5-0.76-3.04-1.16-4.55
					c-0.22-0.83-0.5-1.65-1.12-2.63C84.81,165.99,86.45,168.43,86.38,171.37z M85.73,63.99c0.41-0.11,0.28-0.46,0.28-0.72
					c-0.03-2.41,0.02-4.82,0.17-7.23c0.06-0.98,0.04-1.97,0.05-2.96c0-0.23,0.08-0.59-0.29-0.59c-0.43,0-0.37,0.36-0.36,0.65
					c0,0.11,0.04,0.22,0.05,0.33c0.07,3.32,0.37,6.65-0.07,9.97C85.53,63.63,85.45,63.86,85.73,63.99z M38.99,69.7
					c-0.64-1.28-1.46-2.14-1.89-3.23c-0.11-0.28-0.44-0.21-0.69-0.2c-0.17,0.01-0.3,0.12-0.25,0.27c0.28,0.83,0.48,1.71,0.91,2.46
					C37.37,69.54,38.12,69.51,38.99,69.7z M22.24,71.48c0.1,0.02,0.19,0.04,0.29,0.06c0.32-1.4,0.64-2.81,0.96-4.21
					c0.08-0.35,0.16-0.71,0.19-1.07c0.03-0.37-0.3-0.47-0.56-0.58c-0.24-0.1-0.32,0.11-0.34,0.29
					C22.6,67.81,22.42,69.65,22.24,71.48z M22.55,57.31c0.11,0.22-0.21,1,0.3,0.9c0.69-0.14,1.19-0.9,1.36-1.58
					c0.11-0.46-0.58-0.71-1.02-0.68C22.44,56,22.42,56.59,22.55,57.31z M90.94,99.82c-0.5,0.48-1.22,0.86-0.97,1.42
					c0.22,0.49,1,0.56,1.69,0.63C91.42,101.17,91.2,100.57,90.94,99.82z M22.34,55.12c0.6-0.48,1.11-0.81,0.88-1.42
					c-0.11-0.28-0.74-0.55-0.92-0.36C21.86,53.8,22.31,54.38,22.34,55.12z M101.83,54.82c-0.18-0.68-0.35-1.36-0.54-2.04
					c-0.03-0.11-0.19-0.29-0.27-0.28c-0.24,0.03-0.37,0.24-0.34,0.47C100.74,53.76,101.04,54.42,101.83,54.82z"/>
			</g>
			<g>
				<path d="M78.4,78.34c-0.73-0.1-1.53-0.31-1.6-1.41c-0.04-0.59-0.41-0.61-0.84-0.52c-0.57,0.12-1.14,0.26-1.71,0.37
					c-0.54,0.11-0.98-0.06-1.09-0.63c-0.1-0.56,0.3-0.73,0.78-0.84c2.92-0.64,5.88-1.12,8.85-1.48c1.74-0.21,3.49-0.33,5.23-0.52
					c0.52-0.06,1.01-0.09,1.08,0.57c0.07,0.67-0.43,0.89-0.98,0.92c-2.15,0.12-4.29,0.4-6.42,0.68c-0.77,0.1-1.57,0-1.27,1.29
					C80.6,77.55,79.53,78.34,78.4,78.34z"/>
			</g>
		</g>
		<g>
			<g>
				<g>
					<g>
						<path class="st2" d="M75.77,15.57c-0.02-0.73-0.62-1.32-1.37-1.37c-3.78-0.18-4.74-1.34-4.78-1.37
							c-1.99-2.89-7.52-2.72-7.5-2.72c-0.07,0-5.56-0.2-7.57,2.71c-0.03,0.05-1,1.2-4.78,1.39c-0.75,0.05-1.35,0.63-1.37,1.37
							c-0.12,3.44,0.5,15.05,12.93,19.84c0.23,0.1,0.5,0.13,0.75,0.13c0.25,0,0.52-0.03,0.75-0.13
							c11.73-4.53,12.95-15.12,12.95-19.19C75.79,15.99,75.77,15.77,75.77,15.57z M62.56,34.21c-0.15,0.05-0.32,0.07-0.47,0.07
							c-0.17,0-0.33-0.02-0.47-0.07c-11.54-4.54-12.09-15.4-11.98-18.62c0-0.1,0.1-0.15,0.18-0.17c4.29-0.2,5.53-1.6,5.73-1.9
							c1.44-2.07,5.68-2.17,6.43-2.17h0.12c0.2,0.02,4.98-0.03,6.51,2.19c0.2,0.28,1.44,1.69,5.73,1.89
							c0.08,0.02,0.18,0.07,0.18,0.17C74.66,18.81,74.1,29.67,62.56,34.21z"/>
					</g>
				</g>
			</g>
		</g>
	</g>
	<g>
		<g>
			<path class="st2" d="M52.33,22.14c0,0.04-0.03,0.05-0.07,0.05c-0.03,0-0.08-0.01-0.14-0.03c-0.06-0.02-0.11-0.02-0.14-0.03
				c-0.03,0-0.08-0.01-0.14-0.01c-0.06,0-0.11-0.01-0.14-0.01c-0.04-0.01-0.06-0.03-0.06-0.07c0-0.19,0.01-0.49,0.03-0.88
				c0.02-0.39,0.03-0.69,0.03-0.89c0-0.19-0.01-0.48-0.03-0.86c-0.02-0.38-0.03-0.67-0.03-0.86c0-0.04,0.02-0.07,0.06-0.07
				c0.03,0,0.08-0.01,0.15-0.01c0.07,0,0.12-0.01,0.15-0.01c0.03,0,0.08-0.01,0.14-0.03c0.06-0.01,0.11-0.02,0.14-0.03
				c0.04-0.01,0.07,0.01,0.07,0.04c0,0.2-0.01,0.51-0.02,0.91c-0.01,0.41-0.02,0.71-0.02,0.91c0,0.21,0.01,0.52,0.02,0.94
				C52.33,21.62,52.33,21.93,52.33,22.14z"/>
			<path class="st2" d="M56.1,18.02c0,0.26-0.01,0.64-0.02,1.16c-0.01,0.52-0.02,0.9-0.02,1.16c0,0.24,0,0.6,0,1.09
				c0,0.48,0,0.84,0,1.09c0,0.07-0.02,0.11-0.06,0.1c-0.03,0-0.07-0.01-0.12-0.02c-0.05-0.01-0.09-0.02-0.12-0.02
				c-0.03,0-0.07,0-0.13,0c-0.06,0-0.1,0-0.13,0c-0.03,0-0.07-0.04-0.11-0.12c-0.37-0.66-0.93-1.64-1.68-2.76
				c-0.12-0.17-0.18-0.26-0.2-0.28c-0.02,0-0.03,0.04-0.03,0.12c0,0.3,0,0.75,0.01,1.36c0.01,0.6,0.01,1.06,0.01,1.36
				c0,0.06-0.02,0.09-0.05,0.09c-0.03,0-0.07-0.01-0.13-0.03c-0.06-0.01-0.1-0.02-0.13-0.03c-0.03,0-0.08-0.01-0.14-0.01
				c-0.06,0-0.11-0.01-0.14-0.01c-0.04-0.01-0.06-0.03-0.06-0.06c0-0.21,0.01-0.52,0.03-0.93c0.02-0.42,0.03-0.73,0.03-0.94
				c0-0.23-0.01-0.64-0.02-1.23c0-0.15-0.01-0.39-0.03-0.69c0-0.01,0-0.02,0-0.04c0-0.03,0.02-0.05,0.06-0.05
				c0.11-0.02,0.2-0.03,0.26-0.04c0.02-0.01,0.07-0.02,0.14-0.04c0.06-0.02,0.1-0.03,0.13-0.03c0.02,0,0.04,0.02,0.08,0.08
				c0.39,0.57,0.99,1.47,1.81,2.84c0.04,0.06,0.07,0.11,0.1,0.15c0.01-0.09,0.02-0.3,0.02-0.62c0-0.28-0.01-0.7-0.02-1.27
				c-0.02-0.56-0.02-0.98-0.02-1.26c0-0.07,0.02-0.11,0.05-0.11c0.03,0,0.08,0,0.14,0c0.06,0,0.11,0,0.14,0
				c0.03,0,0.08-0.01,0.15-0.02c0.07-0.01,0.11-0.02,0.15-0.02C56.08,17.95,56.1,17.98,56.1,18.02z"/>
			<path class="st2" d="M59.04,18.44c0,0.06-0.02,0.09-0.05,0.1c-0.05,0-0.35,0-0.91-0.01c-0.02,0.72-0.02,1.3-0.02,1.73
				c0,0.27,0.01,0.68,0.02,1.22c0.01,0.54,0.02,0.95,0.02,1.22c0,0.05-0.02,0.07-0.08,0.07c-0.03,0-0.08-0.01-0.14-0.02
				c-0.06-0.01-0.11-0.02-0.15-0.02c-0.03,0-0.08,0-0.14,0c-0.06,0-0.11,0-0.14,0c-0.04,0-0.06-0.03-0.06-0.09
				c0-0.26,0.01-0.66,0.02-1.19c0.02-0.53,0.02-0.93,0.02-1.2c0-0.41-0.01-0.98-0.03-1.7c-0.44,0.06-0.77,0.09-0.97,0.11
				c-0.02,0-0.03-0.01-0.03-0.03c0-0.04,0.01-0.1,0.02-0.18c0.02-0.1,0.03-0.16,0.03-0.18c0.01-0.07,0.02-0.19,0.04-0.33
				c0.01-0.03,0.02-0.05,0.04-0.05c0.01,0,0.02,0,0.03,0c0.61,0,1.01,0,1.2-0.01c0.17-0.01,0.45-0.04,0.84-0.1
				c0.26-0.04,0.38-0.05,0.33-0.05c0.04,0,0.07,0.02,0.08,0.06c0-0.03-0.01,0.09-0.01,0.35c0,0.03,0,0.08,0.01,0.15
				C59.04,18.35,59.04,18.4,59.04,18.44z"/>
			<path class="st2" d="M61.79,22.15c0,0.04-0.01,0.1-0.02,0.17c-0.02,0.09-0.03,0.15-0.03,0.17c-0.01,0.08-0.02,0.22-0.04,0.39
				c-0.01,0.04-0.03,0.07-0.07,0.07c-0.02,0-0.05-0.01-0.1-0.02c-0.21-0.05-0.54-0.07-0.98-0.09c-0.13,0-0.31,0-0.57,0
				c-0.25,0-0.44,0-0.57-0.01c-0.06,0-0.09-0.04-0.09-0.11c0-0.27,0.01-0.68,0.03-1.22c0.02-0.54,0.03-0.95,0.03-1.22
				c0-0.28-0.01-0.8-0.03-1.55c0-0.19-0.01-0.48-0.03-0.87c0-0.02,0-0.03,0-0.05c0-0.06,0.02-0.08,0.07-0.09
				c0.12-0.01,0.3-0.01,0.54-0.01c0.24,0,0.42,0,0.54,0c0.12,0,0.29-0.01,0.52-0.03c0.23-0.02,0.4-0.02,0.52-0.02
				c0.08,0,0.13,0.03,0.13,0.11c0.04,0.33,0.05,0.53,0.05,0.61c0,0.06-0.02,0.09-0.06,0.09c-0.15,0-0.37-0.01-0.66-0.03
				c-0.3-0.02-0.52-0.03-0.67-0.02c-0.14,0-0.23,0.03-0.27,0.09c-0.04,0.06-0.06,0.19-0.06,0.4c0,0.22,0,0.33,0,0.55
				c0,0.15,0,0.24,0.01,0.26c0.01,0.08,0.06,0.11,0.13,0.11c0.02,0,0.05,0,0.09,0c0.04,0,0.07,0,0.09,0c0.34,0,0.64-0.01,0.91-0.03
				c0.1-0.01,0.23-0.02,0.37-0.04c0.04-0.01,0.05,0.02,0.05,0.07c0,0.08-0.01,0.2-0.02,0.36s-0.02,0.29-0.02,0.37
				c0,0.04-0.02,0.07-0.08,0.07c-0.02,0-0.1-0.01-0.23-0.03c-0.1-0.01-0.31-0.02-0.65-0.02c-0.28,0-0.47,0-0.54,0.01
				c-0.07,0.01-0.11,0.06-0.12,0.15c0-0.02,0,0.08,0,0.28c0,0.22,0,0.33,0,0.54c0,0.25,0.03,0.41,0.08,0.48
				c0.04,0.05,0.15,0.08,0.32,0.08c0.11,0,0.17,0,0.28,0c0.12,0,0.46-0.02,1.01-0.08c0.02,0,0.02,0,0.04,0
				C61.78,22.05,61.79,22.09,61.79,22.15z"/>
			<path class="st2" d="M64.98,22.83c0,0.02-0.01,0.03-0.04,0.03c-0.03,0-0.08,0-0.15-0.01c-0.07-0.01-0.12-0.01-0.15-0.01
				c-0.04,0-0.09,0.01-0.16,0.02c-0.07,0.01-0.12,0.01-0.16,0.01c-0.04,0-0.07-0.03-0.09-0.09c-0.06-0.17-0.21-0.68-0.47-1.55
				c-0.03-0.09-0.09-0.14-0.19-0.16c-0.02,0-0.1,0-0.24,0c-0.24,0-0.38,0.01-0.42,0.02c-0.04,0.01-0.05,0.07-0.05,0.19
				c0,0.17,0,0.43,0.02,0.78c0.01,0.35,0.02,0.6,0.02,0.78c0,0.05-0.02,0.08-0.05,0.08c-0.03,0-0.09,0-0.16-0.02
				c-0.07-0.01-0.12-0.02-0.16-0.02c-0.03,0-0.07,0-0.13,0.01c-0.06,0.01-0.1,0.01-0.13,0.01c-0.04,0-0.06-0.03-0.06-0.09
				c0-0.28,0.01-0.69,0.03-1.24c0.02-0.55,0.03-0.97,0.03-1.24c0-0.78-0.02-1.62-0.06-2.51c0-0.02,0-0.04,0-0.06
				c0-0.05,0.03-0.07,0.11-0.07c0.15,0,0.37,0,0.66-0.01c0.3-0.01,0.52-0.01,0.66-0.01c0.38,0.01,0.69,0.15,0.92,0.41
				c0.25,0.29,0.38,0.7,0.38,1.23c0,0.36-0.03,0.65-0.1,0.85c-0.07,0.22-0.21,0.43-0.4,0.63c-0.03,0.03-0.05,0.06-0.05,0.09
				c0,0.04,0.1,0.36,0.31,0.98C64.88,22.47,64.98,22.79,64.98,22.83z M64.27,19.5c0-0.44-0.09-0.74-0.27-0.9
				c-0.13-0.11-0.37-0.17-0.71-0.17c-0.28,0-0.42,0.03-0.43,0.09c-0.01,0.13-0.02,0.49-0.02,1.08c0,0.28,0,0.43,0,0.71
				c0,0,0.02,0.01,0.03,0.01c0.03,0.01,0.08,0.01,0.15,0.02c0.16,0.01,0.34,0.02,0.53,0.02C64.04,20.36,64.27,20.07,64.27,19.5z"/>
			<path class="st2" d="M66.04,22.74c0,0.05-0.02,0.08-0.07,0.08c-0.03,0-0.08,0-0.14,0c-0.06,0-0.11-0.01-0.14,0
				c-0.03,0-0.08,0.01-0.14,0.02c-0.06,0.01-0.11,0.02-0.14,0.02c-0.04,0-0.06-0.03-0.06-0.08c0-0.28,0.01-0.69,0.03-1.25
				c0.02-0.56,0.03-0.98,0.03-1.26c0-0.27-0.01-0.67-0.03-1.21c-0.02-0.54-0.03-0.95-0.03-1.21c0-0.06,0.02-0.09,0.06-0.09
				c0.03,0,0.08,0.01,0.15,0.02c0.07,0.01,0.12,0.02,0.15,0.02c0.03,0,0.08,0,0.14-0.01c0.06,0,0.11-0.01,0.14,0
				c0.04,0,0.07,0.03,0.07,0.08c0,0.27-0.01,0.67-0.02,1.21C66,19.58,66,19.99,66,20.25c0,0.28,0.01,0.69,0.02,1.24
				C66.03,22.05,66.04,22.46,66.04,22.74z"/>
			<path class="st2" d="M69.98,20.29c0,0.62-0.16,1.17-0.49,1.65c-0.34,0.5-0.76,0.79-1.27,0.84c-0.51,0.04-0.93-0.18-1.27-0.68
				c-0.33-0.49-0.49-1.09-0.49-1.8c0-0.7,0.17-1.31,0.5-1.8c0.34-0.51,0.76-0.73,1.26-0.69c0.5,0.04,0.92,0.33,1.26,0.84
				C69.81,19.12,69.98,19.66,69.98,20.29z M69.36,20.28c0-0.42-0.11-0.79-0.31-1.12c-0.22-0.35-0.49-0.54-0.83-0.56
				c-0.33-0.02-0.6,0.15-0.82,0.5c-0.2,0.33-0.31,0.73-0.31,1.19c0,0.46,0.1,0.85,0.31,1.19c0.22,0.35,0.49,0.52,0.82,0.5
				c0.33-0.02,0.61-0.21,0.83-0.56C69.26,21.08,69.36,20.71,69.36,20.28z"/>
			<path class="st2" d="M73.17,22.07c0,0.01-0.01,0.02-0.04,0.03c-0.03,0-0.08,0.01-0.15,0.01c-0.07,0-0.12,0.01-0.15,0.01
				c-0.04,0.01-0.09,0.02-0.16,0.03c-0.07,0.02-0.12,0.03-0.16,0.03c-0.04,0.01-0.07-0.01-0.09-0.06c-0.06-0.12-0.21-0.47-0.47-1.12
				c-0.03-0.07-0.09-0.11-0.19-0.12c-0.02,0-0.1,0-0.23,0.01c-0.24,0.01-0.38,0.02-0.42,0.03c-0.04,0.01-0.05,0.06-0.05,0.15
				c0,0.14,0,0.35,0.02,0.62c0.01,0.28,0.02,0.48,0.02,0.62c0,0.04-0.02,0.06-0.05,0.07c-0.03,0-0.09,0.01-0.16,0.01
				c-0.07,0-0.12,0-0.16,0.01c-0.03,0-0.07,0.01-0.13,0.03c-0.06,0.01-0.1,0.02-0.13,0.02c-0.04,0-0.06-0.02-0.06-0.06
				c0-0.23,0.01-0.57,0.03-1.03c0.02-0.46,0.03-0.8,0.03-1.03c0-0.65-0.02-1.34-0.06-2.08c0-0.02,0-0.03,0-0.05
				c0-0.04,0.03-0.06,0.11-0.05c0.15,0.02,0.37,0.04,0.66,0.06c0.29,0.03,0.51,0.05,0.66,0.07c0.38,0.05,0.68,0.19,0.91,0.41
				c0.25,0.24,0.38,0.54,0.38,0.91c0,0.25-0.03,0.45-0.1,0.6c-0.07,0.16-0.2,0.31-0.4,0.46c-0.03,0.02-0.05,0.05-0.05,0.07
				c0,0.03,0.1,0.27,0.31,0.69C73.07,21.83,73.17,22.04,73.17,22.07z M72.47,19.71c0-0.33-0.09-0.55-0.27-0.68
				c-0.13-0.09-0.37-0.16-0.71-0.19c-0.28-0.03-0.42-0.01-0.42,0.04c-0.01,0.1-0.02,0.39-0.02,0.86c0,0.23,0,0.34,0,0.57
				c0,0,0.02,0.01,0.03,0.01c0.03,0.01,0.08,0.01,0.15,0.01c0.16,0.01,0.34,0.01,0.53,0.01C72.23,20.34,72.47,20.13,72.47,19.71z"/>
		</g>
	</g>
</g>
</svg>
