<?xml version="1.0" encoding="utf-8"?>
<!-- Generator: Adobe Illustrator 28.2.0, SVG Export Plug-In . SVG Version: 6.00 Build 0)  -->
<svg version="1.1" id="Слой_1" xmlns="http://www.w3.org/2000/svg" xmlns:xlink="http://www.w3.org/1999/xlink" x="0px" y="0px"
	 viewBox="0 0 84.38 133.45" style="enable-background:new 0 0 84.38 133.45;" xml:space="preserve">
<style type="text/css">
	.st0{fill:#1D1D1B;}
</style>
<g>
	<g>
		<path d="M277.34,128.39c-0.72,0.34-1.06,0.91-1.06,1.65c0.01,2.74-0.1,5.48,0.09,8.22c0.07,0.97-0.2,1.21-1.26,1.06
			c-0.38-0.54-0.37-1.19-0.37-1.83c0-2.7,0.01-5.39,0.02-8.09c0-0.27,0.06-0.55-0.14-0.79c-0.75-0.06-1.38,0.6-1.41,1.57
			c-0.04,1.15-0.05,2.31-0.01,3.46c0.07,1.73-0.1,3.45,0.03,5.18c0.01,0.13-0.04,0.26-0.07,0.4c-0.41,0.24-0.8,0.21-1.2,0.1
			c-0.25-0.39-0.26-0.8-0.27-1.21c-0.02-3.11-0.05-6.22-0.06-9.33c0-0.53-0.12-1.05-0.02-1.6c0.39-0.24,0.82-0.25,1.22-0.17
			c0.25,0.18,0.21,0.44,0.3,0.69c0.51-0.29,0.93-0.75,1.58-0.74c0.65,0.01,1.12,0.24,1.24,0.94c0.31-0.11,0.43-0.35,0.61-0.52
			c0.55-0.51,1.19-0.58,1.87-0.35c0.62,0.21,0.85,0.7,0.94,1.32c0.15,1.08,0.02,2.16,0,3.24c-0.05,2.23-0.06,4.47,0.04,6.7
			c0.04,0.95-0.16,1.2-0.84,1.18c-0.47-0.02-0.73-0.24-0.77-0.71c-0.03-0.41-0.06-0.83-0.06-1.24c0.02-2.67,0.04-5.34,0.07-8.02
			C277.8,129.1,277.82,128.7,277.34,128.39z"/>
		<path d="M263.8,126.55c0-0.69-0.04-1.38-0.17-2.07c-0.35-1.98-0.95-2.42-2.96-2.26c-0.77,0.06-1.28,0.43-1.63,1.1
			c-0.41,0.76-0.62,1.59-0.68,2.44c-0.3,4.09-0.27,8.19-0.23,12.29c0.01,0.39-0.17,0.84,0.18,1.22c0.38,0.22,0.79,0.25,1.27,0.1
			c0.13-2.6-0.13-5.2,0.23-7.84c0.79,0.14,1.48-0.22,2.35-0.04v7.72c0.66,0.34,1.13,0.25,1.66-0.06c0.01-0.24,0.03-0.44,0.03-0.65
			C263.83,134.52,263.82,130.53,263.8,126.55z M259.86,130.1c-0.04-0.06-0.09-0.1-0.09-0.13c0.06-1.71,0.13-3.41,0.35-5.1
			c0.13-1.02,0.71-1.3,1.81-0.92c0.29,1.96,0.17,3.91,0.24,5.87C261.36,130.07,260.6,130.06,259.86,130.1z"/>
		<path d="M270.24,136.6c-0.07-4.48-0.14-8.97-0.21-13.46c0-0.24,0-0.47-0.22-0.66c-0.28-0.1-0.58-0.22-1.02-0.03
			c-0.45,1.43-0.17,2.98-0.3,4.57c-0.66-0.24-1.23-0.16-1.74,0.15c-0.65,0.39-0.9,1.05-1.02,1.74c-0.54,2.95-0.38,5.92-0.07,8.87
			c0.17,1.58,1.66,2.15,3.09,1.34c0.61,0.4,0.8,0.41,1.49,0.01C270.24,138.35,270.25,137.48,270.24,136.6z M268.57,137.18
			c-0.01,0.75-0.18,0.9-0.93,0.87c-0.54-0.54-0.66-1.28-0.73-2c-0.22-2.22-0.3-4.45,0.06-6.67c0.08-0.5,0.3-0.92,0.81-1.18
			c0.61,0.18,0.65,0.67,0.7,1.11c0.07,0.67,0.08,1.34,0.09,2C268.58,133.27,268.58,135.23,268.57,137.18z"/>
		<path d="M336.34,132.69v-1.94c-0.01-0.64-0.04-1.28-0.06-1.93c-0.01-0.69-0.28-1.25-0.88-1.62c-1.49-0.91-3.23-0.18-3.59,1.52
			c-0.07,0.31-0.11,0.63-0.14,0.95c-0.23,2.25-0.02,4.51-0.04,6.76c-0.01,0.46,0.08,0.92,0.26,1.35c0.61,1.46,1.88,2.02,3.17,1.42
			c0.81-0.39,1.06-1.12,1.2-1.9C336.54,135.77,336.35,134.22,336.34,132.69z M334.85,136.68c0,0.6-0.19,1.09-0.83,1.24
			c-0.49-0.1-0.68-0.41-0.72-0.84c-0.04-0.53-0.1-1.05-0.08-1.58c0.05-2.07-0.08-4.14,0.11-6.2c0.03-0.37,0.08-0.74,0.41-1.01
			c0.56-0.07,0.85,0.22,0.92,0.75c0.15,1.05,0.21,2.1,0.21,3.16C334.88,133.69,334.87,135.19,334.85,136.68z"/>
		<path d="M293.25,127.35c-0.4-0.23-0.65-0.49-1.05-0.52c-0.25,0.08-0.48,0.24-0.81,0.14c-0.69-0.2-1.27,0.04-1.74,0.57
			c-0.42,0.48-0.69,1.02-0.89,1.62c-0.51,1.61-0.42,3.27-0.41,4.93c0.01,1.31,0.06,2.63,0.54,3.87c0.58,1.54,1.33,1.84,2.84,1.18
			c0.04-0.01,0.09-0.02,0.14-0.03c0.4,0.5,0.92,0.4,1.65,0.26C293.07,135.33,293.32,131.31,293.25,127.35z M291.67,135.04
			c-0.01,1.01,0.14,2.02,0,3c-0.61,0.34-0.93,0.26-1.21-0.28c-0.29-0.55-0.44-1.16-0.48-1.79c-0.14-2.02-0.17-4.04,0.01-6.06
			c0.04-0.39,0.17-0.76,0.35-1.11c0.17-0.36,0.4-0.68,0.87-0.71c0.41,0.31,0.42,0.78,0.49,1.23
			C291.98,131.23,291.69,133.13,291.67,135.04z"/>
		<path d="M307.63,139.4c-0.35,0.08-0.69,0.13-1.08-0.22c-0.23-3.86,0.05-7.82-0.29-11.78c0.33-0.31,0.72-0.4,1.11-0.37
			c0.31,0.17,0.25,0.48,0.35,0.77c0.29-0.25,0.52-0.48,0.78-0.66c0.78-0.55,1.82-0.26,2.21,0.61c0.18,0.4,0.25,0.83,0.26,1.28
			c0.03,3.11,0.06,6.22,0.09,9.33c0.01,0.9-0.25,1.1-1.25,0.99c-0.35-0.56-0.25-1.23-0.26-1.85c-0.05-2.79-0.06-5.57-0.09-8.36
			c0-0.28,0.1-0.61-0.24-0.79c-0.84,0.2-1.29,0.78-1.3,1.77c-0.02,1.38-0.01,2.76-0.01,4.15c0,1.38,0.02,2.76,0.02,4.15
			C307.93,138.73,307.99,139.09,307.63,139.4z"/>
		<path d="M321.7,135.53c-0.46-0.33-0.89-0.36-1.38-0.14c-0.18,0.58-0.03,1.19-0.15,1.78c-0.14,0.66-0.42,0.89-1.14,0.83
			c-0.49-1.35-0.35-2.77-0.37-4.23c0.16-0.07,0.24-0.11,0.32-0.15c1.92-0.91,2.68-2.51,2.68-4.54c0-0.55-0.22-1.03-0.58-1.44
			c-1.13-1.29-2.95-0.99-3.53,0.59c-0.14,0.39-0.25,0.8-0.31,1.21c-0.28,1.97-0.17,3.95-0.09,5.93c0.05,0.96-0.01,1.94,0.36,2.86
			c0.3,0.75,0.82,1.2,1.66,1.26c0.92,0.06,1.71-0.13,2.16-1.03C321.8,137.52,321.78,136.52,321.7,135.53z M319,128.3
			c0.84,0.01,1.16,0.31,1.18,1.04c0.03,1.26-0.42,2.14-1.56,2.88C318.7,130.83,318.44,129.52,319,128.3z"/>
		<path d="M302.25,123.57c-0.32-0.06-0.59-0.11-0.84-0.16c-0.3-0.28-0.34-0.61-0.25-1.07c1.15-0.26,2.32-0.15,3.46-0.08
			c0.18,0.4,0.15,0.68-0.02,0.93c-0.23,0.21-0.54,0.16-0.81,0.28c0,4.8,0,9.61,0,14.36c0.25,0.28,0.57,0.17,0.84,0.3
			c0.23,0.3,0.18,0.62,0.02,1.06c-0.97,0.31-2,0.02-3,0.1c-0.26-0.4-0.31-0.76-0.17-1.13c0.21-0.25,0.52-0.07,0.77-0.29
			C302.25,133.14,302.25,128.36,302.25,123.57z"/>
		<path d="M315.2,138.55c-0.16,0.5-0.43,0.81-0.88,0.87c-0.48,0.07-0.76-0.28-0.99-0.63c-0.46-0.71-0.47-1.53-0.51-2.33
			c-0.12-2.42,0-4.83-0.03-7.25c0-0.25,0-0.5,0-0.77c-0.28-0.03-0.5-0.06-0.72-0.08c-0.25-0.41-0.09-0.81-0.08-1.16
			c0.27-0.28,0.59-0.12,0.89-0.25c0.16-1.45,0.02-2.94,0.12-4.39c0.45-0.25,0.83-0.2,1.33-0.08c0.24,1.47,0.09,2.97,0.06,4.49
			c0.57,0.2,1.21-0.08,1.77,0.26c0.18,0.37,0.13,0.74-0.1,1.11c-0.48,0.19-1,0-1.58,0.14c-0.1,1.69-0.18,3.4-0.16,5.12
			C314.35,135.28,314.16,137.02,315.2,138.55z"/>
		<path d="M296.54,139.15c-0.52,0.28-0.99,0.38-1.66,0.11c0.17-5.58,0.15-11.2,0.15-16.83c0.46-0.26,0.87-0.18,1.3-0.01
			c0.17,0.41,0.2,0.84,0.2,1.28c0,4.08,0.02,8.15-0.01,12.23C296.5,137.01,296.51,138.08,296.54,139.15z"/>
		<path d="M326.72,129.14c-0.28-0.15-0.36-0.41-0.52-0.6c-0.23-0.28-0.52-0.49-0.9-0.38c-0.39,0.1-0.64,0.38-0.72,0.77
			c-0.05,0.22-0.04,0.46-0.04,0.69c0,2.74,0,5.49,0,8.23c0,0.48,0,0.96-0.18,1.42c-0.37,0.16-0.72,0.18-1.19-0.03
			c0-3.95,0-7.94,0-11.98c0.38-0.26,0.82-0.18,1.29-0.02c0.51-0.3,1.07-0.49,1.7-0.4c0.54,0.08,0.95,0.33,1.24,0.79
			C327.86,128.39,327.64,128.92,326.72,129.14z"/>
		<path d="M287.54,129.12c-0.26-0.1-0.33-0.37-0.49-0.56c-0.23-0.28-0.5-0.5-0.89-0.41c-0.42,0.1-0.68,0.39-0.75,0.81
			c-0.04,0.22-0.03,0.46-0.03,0.69c0,2.72,0,5.44,0,8.16c0,0.48,0,0.96-0.17,1.43c-0.36,0.2-0.71,0.19-1.07,0.06
			c-0.24-0.5-0.39-9.68-0.2-11.99c0.41-0.32,0.85-0.24,1.33-0.07c0.53-0.29,1.11-0.5,1.76-0.39c0.56,0.1,0.98,0.38,1.25,0.88
			C288.69,128.49,288.43,128.98,287.54,129.12z"/>
		<path d="M339.03,139.29c-0.35,0.12-0.69,0.15-1.14-0.03c0-3.94,0-7.93,0-12c0.33-0.27,0.77-0.17,1.26-0.02
			c0.54-0.3,1.14-0.51,1.82-0.37c0.51,0.1,0.89,0.37,1.15,0.81c0.45,0.74,0.24,1.22-0.64,1.47c-0.3-0.08-0.39-0.37-0.56-0.57
			c-0.24-0.29-0.53-0.54-0.95-0.39c-0.41,0.14-0.65,0.43-0.7,0.86c-0.02,0.23-0.01,0.46-0.02,0.69c-0.03,2.92,0.06,5.85-0.05,8.77
			C339.19,138.75,339.21,139.01,339.03,139.29z"/>
		<path d="M280.76,127.13c0.44-0.24,0.83-0.3,1.25-0.22c0.33,0.24,0.39,0.59,0.36,0.93c-0.14,1.7,0.02,3.4,0,5.1
			c-0.02,1.65-0.11,3.31-0.01,4.96c0.03,0.46-0.05,0.91-0.17,1.36c-0.38,0.21-0.76,0.11-1.15,0.06c-0.25-0.44-0.29-0.9-0.29-1.35
			C280.72,134.37,280.87,130.77,280.76,127.13z"/>
		<path d="M329.86,139.33c-0.38,0.1-0.74,0.09-1.1-0.02c-0.33-0.56-0.29-1.17-0.29-1.76c0.03-3.42,0.08-6.85,0.03-10.27
			c0-0.04,0.02-0.09,0.04-0.17c0.36-0.23,0.78-0.28,1.19-0.21c0.35,0.24,0.38,0.56,0.36,0.88c-0.13,1.79,0.04,3.58,0.01,5.38
			c-0.03,1.81-0.03,3.63-0.06,5.44C330.03,138.83,330.05,139.07,329.86,139.33z"/>
		<path d="M280.91,124.23c0.42-0.32,0.83-0.3,1.33-0.18c0.17,0.67,0.28,1.35-0.19,1.94c-0.25,0.31-0.63,0.19-0.95,0.02
			C280.73,125.43,280.84,124.83,280.91,124.23z"/>
		<path d="M329.97,124.09c0.28,1.73-0.07,2.3-1.15,1.91c-0.34-0.55-0.27-1.16-0.16-1.79C329.06,123.91,329.49,123.9,329.97,124.09z"
			/>
	</g>
</g>
<g>
	<g>
		<g>
			<g>
				<path d="M12.2,45.2c0.03-2.36-0.31-4.82-0.53-7.29c-0.04-0.43-0.27-0.6-0.63-0.74c-1.14-0.45-2.27-0.91-3.4-1.4
					c-4.74-2.04-7.83-7.05-7.64-12.19c0.15-3.93,2.05-7,4.84-9.49c3.67-3.27,7.63-6.17,12.19-8.14c4.82-2.09,9.65-4.12,14.87-5.09
					c2.64-0.49,5.29-0.64,7.96-0.79c5.97-0.33,11.75,0.7,17.53,2.05C66.37,4.2,73.94,8.65,80.34,15.2c0.78,0.8,1.43,1.71,2.11,2.61
					c2.56,3.38,2.39,6.94,0.57,10.52c-0.99,1.95-2.54,3.47-4.37,4.68c-1.54,1.02-3.07,2.08-4.7,2.97c-0.37,0.2-0.55,0.48-0.69,0.85
					c-0.63,1.68-0.76,3.45-0.93,5.21c-0.26,2.63-0.51,5.26-0.78,7.89c-0.11,1.03-0.14,1.02,0.85,0.95c1.39-0.1,2.29,0.68,2.4,2.08
					c0.12,1.61-0.39,3.13-0.75,4.66c-0.6,2.54-1.17,5.1-2.41,7.43c-0.48,0.89-0.48,1.9-0.42,2.88c0.11,1.82,0.25,3.64,0.38,5.46
					c0.01,0.14,0.02,0.27,0.02,0.41c-0.02,1.26-0.02,1.31,1.22,1.38c2.24,0.12,4.47,0.1,6.58-0.85c0.34-0.15,0.73-0.32,0.96,0.2
					c0.24,0.54-0.16,0.68-0.51,0.82c-2.91,1.13-5.28,3.15-7.86,4.81c-0.31,0.2-0.36,0.44-0.32,0.76c0.5,4.77,0.69,9.57,1.57,14.29
					c0.34,1.81,0.15,3.65,0.32,5.47c0.27,2.93,0.5,5.86,0.89,8.78c0.19,1.43-0.06,2.79-0.76,4.03c-2.04,3.63-4.58,6.86-8.11,9.15
					c-1.91,1.24-3.63,2.57-4.78,4.58c-0.5,0.87-1.26,1.51-2.24,1.82c-1.05,0.34-1.88,0.97-2.61,1.77c-0.64,0.71-1.39,1.19-2.38,1.28
					c-0.48,0.05-0.94,0.25-1.41,0.39c-0.87,0.27-1.74,0.44-2.63,0.02c-0.38-0.18-0.73-0.12-1.03,0.22c-0.51,0.58-1.18,0.69-1.87,0.5
					c-1.4-0.37-2.77-0.52-4.15,0.1c-0.33,0.15-0.69,0.11-1.05,0.01c-2.81-0.76-5.61-1.52-8.3-2.66c-0.13-0.05-0.25-0.14-0.38-0.15
					c-1.85-0.19-3.44-1.13-5.14-1.77c-1.19-0.45-2.54-0.69-3.51-1.48c-1.12-0.91-2.29-1.51-3.66-1.87
					c-0.59-0.15-1.11-0.57-1.36-1.21c-0.11-0.27-0.36-0.43-0.61-0.51c-1.61-0.52-2.58-1.87-3.83-2.86c-0.12-0.1-0.23-0.25-0.29-0.39
					c-0.94-2.55-2.37-4.9-3.06-7.56c-0.37-1.41-0.17-2.82,0.03-4.22c0.23-1.63,0.22-3.27,0.1-4.9c-0.37-4.86-0.1-9.69,0.32-14.53
					c0.19-2.17,0.24-4.35,0.38-6.53c0.03-0.56-0.14-0.95-0.57-1.35c-2.02-1.86-3.7-3.99-5.1-6.35c-0.17-0.29-0.37-0.59-0.11-0.9
					c0.28-0.34,0.62-0.21,0.96-0.05c1.51,0.7,3.08,1.24,4.72,1.54c0.48,0.09,0.64-0.03,0.58-0.52c-0.53-4.32-0.97-8.66-2.73-12.72
					c-1.24-2.86-1.67-5.91-1.72-9.01c-0.01-0.38,0.02-0.77,0.12-1.13c0.36-1.37,1.38-1.92,2.68-1.36c0.63,0.27,0.73,0.01,0.82-0.49
					C12.11,48.7,12.23,47.02,12.2,45.2z M41.03,46.55c0,0,0-0.01,0-0.01c-1.58,0-3.16,0.02-4.74-0.01
					c-0.62-0.01-0.86,0.13-0.81,0.81c0.32,4.32,0.4,8.65,0.48,12.98c0.03,1.69,0.17,3.39-0.44,5.01c-0.42,1.12-1.04,1.51-2.19,1.39
					c-0.57-0.06-1.12-0.21-1.68-0.31c-0.71-0.12-1.41-0.15-2.01,0.38c-0.84,0.74-1.26,2.42-0.91,3.55c0.4,1.27,1.43,1.44,2.54,1.49
					c2.56,0.12,4.84,0.91,6.81,2.6c0.8,0.69,1.65,1.33,2.6,1.84c1.29,0.69,2.61,0.89,3.99,0.26c0.98-0.44,1.83-1.08,2.61-1.8
					c1.54-1.42,3.16-2.67,5.28-3.1c0.23-0.05,0.46-0.17,0.68-0.28c1.31-0.68,1.84-2.01,1.36-3.46c-0.51-1.55-1.74-2.37-3.22-2.12
					c-0.59,0.1-1.18,0.2-1.77,0.31c-1.97,0.35-2.86-0.37-2.86-2.35c0-1.33,0.1-2.67,0.15-4c0.18-4.23-0.63-8.43-0.36-12.66
					c0.03-0.55-0.31-0.53-0.69-0.53C44.24,46.55,42.64,46.55,41.03,46.55z M41.36,30.54c0.07-1.19,0.14-2.36,0.22-3.53
					c0.02-0.29-0.03-0.68,0.4-0.67c0.49,0.02,0.4,0.44,0.36,0.75c-0.29,2.53-0.12,5.06,0.01,7.59c0.02,0.44,0.11,0.63,0.59,0.62
					c1.44-0.02,2.89-0.04,4.33,0.13c0.57,0.07,0.7-0.17,0.72-0.67c0.06-1.28,0.31-2.54,0.59-3.79c0.88-3.92,2.45-7.61,3.89-11.34
					c0.78-2.03,1.24-4.1,1.27-6.28c0.06-3.84-0.93-7.43-2.29-10.96c-0.15-0.39-0.38-0.52-0.77-0.59c-2.42-0.45-4.86-0.6-7.31-0.67
					c-0.55-0.02-0.7,0.19-0.68,0.71c0.03,0.9,0.01,1.8,0,2.7c0,0.29-0.04,0.58-0.41,0.58c-0.43,0-0.34-0.34-0.34-0.6
					c0-0.93-0.01-1.86,0-2.78c0.01-0.39-0.07-0.62-0.53-0.61c-2.78,0.06-5.55,0.14-8.3,0.61c-0.42,0.07-0.65,0.28-0.77,0.71
					c-0.26,0.97-0.61,1.92-0.87,2.89c-1.37,5.1-1.47,10.12,0.57,15.13c1.9,4.67,3.37,9.49,3.76,14.57c0.04,0.46,0.3,0.44,0.61,0.43
					c1.44-0.05,2.89-0.15,4.33-0.14c0.72,0.01,0.89-0.26,0.84-0.9C41.49,33.13,41.43,31.83,41.36,30.54z M55.11,71.32
					c2.09,0.22,3.97,0.78,5.74,1.61c0.83,0.38,1.35,0.14,1.8-0.49c0.72-1,1.53-1.92,2.41-2.77c1.96-1.88,2.7-4.17,2.71-6.84
					c0.01-4.88,0.28-9.75,0.07-14.63c-0.04-0.99-0.01-0.99-0.99-0.67c-4.76,1.54-9.4,3.42-14.11,5.09c-0.95,0.34-1.85,0.8-2.65,1.43
					c-0.62,0.48-1.11,1.06-1.32,1.82c-0.63,2.37-1.01,4.78-0.83,7.25c0.12,1.63,0.75,2.06,2.3,1.6c2.41-0.73,4.75,0.54,5.46,2.95
					C56.07,68.92,55.86,70.09,55.11,71.32z M32.51,53.97c-0.21-0.11-0.42-0.24-0.64-0.34c-1.76-0.79-3.56-1.5-5.41-2.06
					c-3.28-0.99-6.56-1.99-9.84-2.98c-0.26-0.08-0.62-0.3-0.64,0.25c-0.07,1.63-0.23,3.27-0.17,4.89c0.11,3.3,0.71,6.55,1.4,9.77
					c0.37,1.71,0.66,3.5,1.93,4.87c1.17,1.26,2.3,2.55,3.27,3.97c0.24,0.35,0.44,0.39,0.79,0.15c1.05-0.71,2.22-1.18,3.46-1.38
					c0.77-0.13,0.93-0.4,0.81-1.17c-0.47-3.1,1.82-5.24,4.87-4.6c0.11,0.02,0.21,0.06,0.32,0.08c1.28,0.21,1.74-0.14,1.92-1.45
					c0.32-2.28,0.22-4.57,0.12-6.86c-0.04-0.82-0.25-1.62-0.87-2.24c-0.13-0.13-0.33-0.52-0.54-0.08c-0.22,0.47-0.55,0.34-0.9,0.26
					c-0.5-0.12-1-0.24-1.51-0.35c-0.16-0.03-0.32-0.14-0.4,0.19c-0.3,1.2-1.31,1.65-2.41,1.14c-0.52-0.24-0.79-0.65-0.56-1.18
					c0.25-0.57-0.03-0.57-0.45-0.58c-1.89-0.02-3.75,0.22-5.59,0.64c-0.34,0.08-0.74,0.29-0.88-0.22c-0.17-0.59,0.38-0.58,0.71-0.66
					c1.75-0.42,3.54-0.64,5.34-0.66C28.63,53.36,30.56,53.62,32.51,53.97z M59.04,3.69c0.03,0.23,0.02,0.34,0.06,0.44
					c1.3,3.65,1.31,7.36,0.48,11.1c-0.75,3.36-2.04,6.54-3.04,9.82c-1.02,3.33-2.04,6.66-3.06,9.98c-0.08,0.25-0.27,0.52-0.03,0.76
					c0.36,0.36,2.17,0.18,2.49-0.25c1.02-1.38,2.07-2.74,3.05-4.15c2.83-4.06,5.37-8.28,6.61-13.13c1.12-4.4,0.84-8.64-1.65-12.58
					c-0.14-0.23-0.26-0.47-0.55-0.57C61.98,4.61,60.59,4.06,59.04,3.69z M25.89,3.58c-1.54,0.44-2.87,1.01-4.18,1.66
					c-0.13,0.07-0.22,0.24-0.3,0.38c-1.1,1.88-1.77,3.91-1.95,6.09c-0.29,3.47,0.46,6.76,1.76,9.95c1.95,4.79,4.88,8.98,7.86,13.14
					c0.69,0.97,1.4,1.22,2.51,0.89c-0.23-0.72-0.45-1.44-0.7-2.16c-1.97-5.7-4.14-11.34-5.42-17.26c-0.67-3.1-1.25-6.19-0.56-9.37
					C25.15,5.82,25.54,4.79,25.89,3.58z M48.18,45.41c0.25-0.05,0.26-0.2,0.26-0.32c0.02-2.78,0.03-5.56,0.06-8.35
					c0-0.4-0.17-0.49-0.54-0.51c-4.09-0.29-8.17-0.07-12.25,0.06c-0.41,0.01-0.89-0.04-1.2,0.15c-0.41,0.26-0.03,0.79-0.13,1.2
					c-0.01,0.05-0.01,0.11-0.01,0.16c-0.01,0.15-0.08,0.27-0.24,0.27c-0.16,0-0.23-0.11-0.24-0.26c-0.03-0.3-0.08-0.59-0.12-0.89
					c-0.03-0.21-0.03-0.49-0.32-0.48c-0.32,0.01-0.25,0.31-0.24,0.51c0.04,0.9,0.12,1.79,0.15,2.69c0.01,0.22,0.22,0.62-0.2,0.66
					c-0.38,0.03-0.34-0.37-0.36-0.62c-0.07-0.9-0.12-1.79-0.18-2.69c-0.01-0.21,0.01-0.47-0.32-0.43c-0.3,0.03-0.21,0.28-0.2,0.45
					c0.03,0.6,0.09,1.2,0.11,1.79c0.07,1.99,0.11,3.98,0.19,5.97c0.01,0.37-0.1,0.83,0.61,0.79c4.22-0.24,8.44-0.23,12.66-0.1
					c0.5,0.02,1.23,0.3,1.19-0.69c0-0.05,0.13-0.16,0.16-0.15c0.54,0.18,0.5-0.18,0.49-0.52c-0.01-0.2,0-0.41,0.27-0.41
					c0.25,0,0.29,0.2,0.3,0.4C48.11,44.53,48.03,44.98,48.18,45.41z M52.41,2.11c0,0.21-0.02,0.27,0,0.32
					c0.08,0.2,0.17,0.4,0.25,0.6c1.89,4.6,2.69,9.34,1.44,14.21c-1.03,4.03-2.65,7.89-3.92,11.85c-0.57,1.76-1.12,3.53-1.4,5.36
					c-0.09,0.62-0.12,1.14,0.77,1.11c0.7-0.02,1.42,0.03,2.12,0.15c0.59,0.1,0.79-0.08,0.95-0.64c0.96-3.32,1.94-6.63,2.95-9.93
					c1.01-3.27,2.36-6.44,3.13-9.79c0.86-3.77,0.94-7.5-0.42-11.18c-0.11-0.3-0.14-0.71-0.5-0.8C56.03,2.95,54.26,2.55,52.41,2.11z
					 M71.35,9.31c0.09,0.39,0.15,0.68,0.21,0.96c0.51,2.54,0.99,5.09,0.66,7.69c-0.43,3.4-1.85,6.41-3.78,9.2
					c-2.14,3.1-4.81,5.7-7.56,8.23c-0.33,0.3-0.65,0.6-1.11,1.03c1.88,0.12,3.54,0.22,5.19,0.32c0.36,0.02,0.62-0.17,0.88-0.36
					c1.1-0.81,2.14-1.69,3.12-2.64c3.35-3.27,6.18-6.91,7.57-11.47C78.05,17.27,77.03,12.1,71.35,9.31z M14.47,8.59
					c-1.62,0.65-3.6,2.09-4.15,2.98c-1.99,3.2-2.18,6.65-1.11,10.14c1.93,6.28,6.01,11.02,11.1,14.98c0.13,0.1,0.26,0.2,0.44,0.17
					c1.58-0.2,3.15-0.39,4.89-0.61c-0.92-0.86-1.71-1.59-2.49-2.34c-2.98-2.85-5.81-5.84-7.71-9.56c-1.55-3.02-2.54-6.18-2.14-9.65
					C13.52,12.68,13.78,10.66,14.47,8.59z M33.49,35.63c0.29,0,0.48-0.02,0.67,0c0.77,0.08,0.99-0.25,0.85-1
					c-0.22-1.2-0.32-2.43-0.53-3.64c-0.61-3.48-1.76-6.79-3.11-10.04c-1.51-3.62-2.08-7.36-1.56-11.27
					c0.31-2.36,0.87-4.65,1.61-6.91c0.17-0.51,0.11-0.72-0.48-0.56c-1.16,0.31-2.32,0.61-3.48,0.89c-0.35,0.08-0.57,0.24-0.71,0.59
					c-1.19,2.94-1.64,5.98-1.17,9.13c0.48,3.13,1.32,6.17,2.16,9.22c1.18,4.25,2.96,8.3,4.3,12.5
					C32.3,35.37,32.56,35.98,33.49,35.63z M20.34,5.85c-1.61,0.6-3,1.13-4.33,1.81c-0.27,0.13-0.39,0.36-0.5,0.61
					c-1.21,2.69-1.59,5.54-1.51,8.45c0.1,3.43,1.49,6.44,3.31,9.27c2.46,3.83,5.79,6.86,9.11,9.89c0.36,0.33,0.75,0.28,1.15,0.23
					c0.42-0.05,1.02,0.08,1.19-0.29c0.15-0.32-0.37-0.67-0.6-0.99c-3.08-4.2-5.98-8.52-7.86-13.42c-1.18-3.08-1.89-6.24-1.63-9.58
					C18.82,9.8,19.39,7.89,20.34,5.85z M56.56,36.05c1.72,0.35,1.99,0.36,2.42-0.02c2.67-2.38,5.29-4.79,7.53-7.59
					c3.77-4.72,5.9-9.9,4.77-16.12c-0.48-2.63-1.35-4.71-4.1-5.56c-0.49-0.15-0.94-0.44-1.41-0.64c-0.18-0.08-0.37-0.27-0.61-0.09
					c0.01,0.07,0.01,0.16,0.04,0.22c2.38,4.58,2.17,9.28,0.59,14.03c-1.55,4.65-4.14,8.74-6.96,12.69
					C58.1,33.98,57.35,34.98,56.56,36.05z M8.79,12.4c-1.28,0.81-2.35,1.67-2.78,3.3c-0.84,3.2-1.4,6.4-0.69,9.67
					c1.02,4.73,3.82,8.3,7.54,11.22c0.68,0.53,1.6,1.04,2.42,1.06c1.32,0.03,2.64-0.37,3.99-0.59c-0.06-0.13-0.07-0.19-0.11-0.23
					c-0.14-0.13-0.29-0.25-0.44-0.37c-3.43-2.85-6.33-6.15-8.44-10.1c-2.34-4.39-3.48-8.92-1.46-13.78
					C8.85,12.54,8.81,12.48,8.79,12.4z M37.82,83.46c-0.53,0.42-1.15,0.49-0.99,1.22c0.59,2.71,0.32,5.43,0.04,8.14
					c-0.28,2.81-0.47,5.63,0.49,8.34c0.9,2.53,1.15,5.13,1.25,7.79c0.11,2.83,0.22,5.66,0.6,8.48c0.27,1.97,0.87,3.88,0.87,5.89
					c0,2.11-0.2,4.19-0.46,6.27c-0.07,0.59-0.27,1.25-0.09,1.77c0.15,0.44,0.94,0.21,1.38,0.51c0.2,0.13,0.45,0.2,0.68,0.28
					c0.34,0.13,0.69,0.15,1.05,0.1c0.45-0.06,0.67-0.2,0.5-0.75c-0.36-1.17-0.51-2.39-0.58-3.62c-0.13-2.21-0.44-4.38-1.04-6.52
					c-0.74-2.65-1.17-5.36-1.29-8.13c-0.1-2.48,0-4.97-0.15-7.44c-0.16-2.59-0.39-5.17-0.27-7.76c0.02-0.43,0-0.87-0.1-1.3
					C38.7,92.42,37.44,88.14,37.82,83.46z M36.33,85.07c-0.34,0.38-0.4,0.73-0.5,1.06c-0.44,1.53-0.65,3.08-0.68,4.67
					c-0.07,3.11,0.3,6.21,0.02,9.32c-0.17,1.84,0.07,3.64,0.59,5.41c0.2,0.7,0.36,1.44,0.37,2.17c0.05,3.84,0.05,7.69,0.05,11.53
					c0,3.46-0.05,6.92-0.19,10.38c-0.01,0.23-0.1,0.54,0.23,0.62c0.65,0.16,1.15,0.62,1.72,0.92c0.83,0.43,0.97,0.35,1.05-0.56
					c0.09-1.06,0.21-2.12,0.27-3.18c0.15-2.45,0.32-4.91-0.24-7.33c-0.71-3.1-0.92-6.24-0.96-9.41c-0.03-2.45,0.04-4.93-0.7-7.29
					c-1.29-4.11-1.43-8.27-0.87-12.52C36.73,89.01,36.74,87.08,36.33,85.07z M61.2,124.56c0.09,0.03,0.18,0.05,0.27,0.08
					c0.48-0.51,0.95-1.03,1.44-1.53c0.22-0.22,0.08-0.4-0.01-0.59c-0.83-1.79-0.92-3.66-0.73-5.6c0.14-1.46,0.35-2.92,0.19-4.4
					c-0.44-4.12-0.74-8.25-0.95-12.38c-0.13-2.56-0.28-5.11-0.59-7.66c-0.33-2.65-0.86-5.27-1.05-7.93
					c-0.02-0.31,0.03-0.69-0.5-0.64c-0.45,0.04-0.91,0.03-0.91,0.66c0,0.82-0.03,1.64,0.16,2.44c0.75,3.13,1.26,6.29,1.16,9.54
					c-0.12,4.11-0.17,8.23-0.25,12.34c-0.03,1.66-0.04,3.32-0.34,4.97c-0.25,1.37-0.5,2.81,0.04,4.12
					C60,120.11,60.86,122.25,61.2,124.56z M66.41,111.98c-0.22,2.37,0.48,4.58,1.15,6.81c0.16,0.55,0.34,0.53,0.68,0.15
					c0.56-0.63,1.11-1.28,1.71-1.87c0.37-0.38,0.45-0.73,0.27-1.23c-0.62-1.77-0.87-3.58-0.64-5.47c0.16-1.39,0.03-2.77-0.46-4.11
					c-0.48-1.3-0.57-2.64-0.39-4.03c0.12-0.91,0.13-1.85,0.07-2.78c-0.18-3.2-0.94-6.34-0.78-9.59c0.11-2.23-0.6-4.41-1.09-6.59
					c-0.06-0.27-0.07-0.62-0.56-0.46c-0.37,0.12-0.43,0.28-0.36,0.65c0.27,1.48,0.4,2.97,0.41,4.47c0.03,2.94-0.06,5.89,0.14,8.83
					c0.14,2.17,0.21,4.36-0.38,6.5c-0.09,0.33-0.1,0.71-0.04,1.05C66.6,106.86,66.62,109.42,66.41,111.98z M49.23,106.25
					c0.1,5.73,0.18,11.37,0.31,17.01c0.04,1.85-0.1,3.71,0.19,5.55c0.14,0.87,0.4,1.69,0.83,2.46c0.19,0.33,0.45,0.36,0.76,0.23
					c0.15-0.06,0.32-0.12,0.23-0.34c-0.64-1.62-0.46-3.38-0.82-5.06c-0.22-1.01-0.17-2.07-0.03-3.1c0.67-4.97,0.59-9.94,0.2-14.92
					c-0.32-4.11-0.23-8.22,0.14-12.32c0.29-3.18,0.56-6.35,0.21-9.54c-0.09-0.84-0.27-1.67-0.4-2.5c-0.06-0.41-0.27-0.69-0.68-0.66
					c-0.49,0.04-0.21,0.46-0.26,0.7c-0.04,0.24-0.01,0.49,0.01,0.73c0.16,3.13,0.31,6.26-0.03,9.39c-0.17,1.57-0.47,3.12-0.65,4.69
					C48.94,101.16,49.35,103.75,49.23,106.25z M66.92,36.7c0.77-0.02,1.54,0.33,2.24-0.13c3.87-2.59,7.17-5.75,9.76-9.65
					c2.09-3.17,2.88-6.42,1.15-10.02c-0.65-1.35-1.85-2.11-2.88-3.11c-0.07,0.13-0.1,0.16-0.09,0.18c0.04,0.13,0.07,0.26,0.12,0.39
					c0.79,2.22,0.87,4.47,0.39,6.76c-0.8,3.81-2.75,7.02-5.14,10C70.82,33.15,68.93,34.96,66.92,36.7z M45.92,123.73
					c0.68-2.83,1.14-5.49,0.84-8.25c-0.27-2.44-0.02-4.83,1.12-7.08c0.65-1.28,0.8-2.68,0.76-4.13c-0.06-2.26-0.11-4.52,0.16-6.78
					c0.22-1.86,0.65-3.7,0.7-5.59c0.06-2.89-0.04-5.78-0.17-8.66c-0.01-0.27,0.01-0.54-0.33-0.67c-0.48-0.19-0.94-0.41-1.48-0.66
					c0.1,1.22,0.21,2.35,0.3,3.48c0.44,6.09,0.11,12.14-1.15,18.13c-0.5,2.39-1.18,4.76-1.07,7.25c0.08,1.91-0.19,3.8-0.53,5.68
					C44.61,118.9,45.28,121.22,45.92,123.73z M21.82,91.82c0-1.33-0.4-2.53-0.42-3.74c-0.02-0.99-0.46-1.25-1.29-1.49
					c-0.67-0.19-0.82,0.05-0.92,0.58c-0.28,1.38-0.28,2.76-0.14,4.15c0.22,2.15,0.35,4.3,0.19,6.45c-0.22,3.15-0.62,6.26-0.5,9.45
					c0.14,3.53-0.69,7.04-1.02,10.56c-0.1,1.11-0.26,2.22-0.37,3.33c-0.05,0.48,0.5,1.15,0.93,1.17c0.26,0.01,0.29-0.03,0.24-0.95
					c-0.09-1.73,0.12-3.43,0.43-5.12c0.4-2.14,0.94-4.26,1.2-6.42c0.41-3.38,0.65-6.78,0.96-10.17C21.36,97,21.59,94.36,21.82,91.82
					z M35.56,85.03c-0.62,0.17-1.03,0.36-1.06,1.01c-0.03,0.46-0.16,0.91-0.24,1.36c-0.71,3.8-1.47,7.6-1.34,11.5
					c0.08,2.26,0.22,4.52,0.28,6.78c0.09,3.38,0.44,6.74,1.07,10.06c0.64,3.31,0.89,6.64,0.26,9.99c-0.22,1.18-0.46,2.35-0.66,3.53
					c-0.15,0.84,0.59,0.8,1.05,0.93c0.62,0.18,0.45-0.39,0.47-0.68c0.07-1.14,0.11-2.29,0.13-3.43c0.09-3.43,0.21-6.87,0.23-10.3
					c0.02-3.29,0.27-6.61-0.54-9.85c-0.51-2.03-0.71-4.07-0.63-6.15c0.07-1.71,0.17-3.42,0.06-5.15c-0.13-1.93-0.14-3.87,0.08-5.8
					C34.87,87.56,35.21,86.34,35.56,85.03z M51.38,83.45c1,4.49,0.66,8.93,0.24,13.35c-0.43,4.55-0.49,9.08-0.01,13.62
					c0.34,3.17,0.63,6.41,0,9.54c-0.71,3.52-0.18,6.92,0.25,10.37c0.08,0.62,0.38,0.89,1.07,0.72c1.36-0.33,1.37-0.3,1-1.64
					c-0.12-0.42-0.23-0.84-0.4-1.24c-0.64-1.54-0.89-3.14-0.78-4.8c0.2-3.29,0.21-6.59,0.18-9.89c-0.08-9.52-0.12-19.03-0.17-28.55
					C52.75,83.67,52.74,83.67,51.38,83.45z M33.96,85.88c-1,0.22-1,0.22-1.23,1.06c-1.18,4.33-1.42,8.74-1.18,13.2
					c0.17,3.18,0.35,6.37,0.01,9.55c-0.27,2.54-0.12,5.05,0.32,7.56c0.41,2.29,0.48,4.6,0.18,6.92c-0.18,1.43-0.44,2.85-0.8,4.25
					c-0.13,0.5,0,0.72,0.53,0.82c1.42,0.27,1.43,0.29,1.71-1.08c0.67-3.24,1.05-6.51,0.57-9.82c-0.3-2.1-0.73-4.18-0.97-6.29
					c-0.32-2.74-0.33-5.49-0.55-8.23c-0.39-4.95-0.23-9.85,0.83-14.71C33.6,88.05,33.76,86.99,33.96,85.88z M40.54,99.62
					c-0.12,3.81,0.22,7.51,0.2,11.22c-0.02,2.95,0.3,5.87,0.96,8.75c0.5,2.2,1.19,4.36,1.3,6.64c0.08,1.58,0.19,3.16,0.56,4.7
					c0.1,0.43,0.14,0.97,0.85,0.84c0.66-0.12,0.51-0.62,0.49-1.03c-0.12-1.74-0.29-3.47-0.74-5.17c-0.28-1.08-0.43-2.19-0.43-3.31
					c0-1.36,0.08-2.74-0.05-4.09c-0.19-1.98-0.37-3.94-0.3-5.94c0.11-3.44-0.54-6.77-1.84-9.97C41.2,101.41,41.02,100.5,40.54,99.62
					z M57.85,95.3c-0.05-1.07-0.09-2.02-0.14-2.98c-0.12-2.45-0.48-4.89-0.06-7.34c0.17-0.99,0.12-1.02-0.89-0.96
					c-0.33,0.02-0.5,0.11-0.52,0.46c-0.02,0.38-0.13,0.76-0.14,1.13c-0.09,4.2,0.24,8.39-0.01,12.59c-0.13,2.18,0.5,4.32,0.65,6.5
					c0.4,5.79,0.56,11.6,0.79,17.4c0.07,1.83,0.13,3.65,0.21,5.48c0.01,0.22-0.16,0.61,0.37,0.5c0.94-0.21,1.64-1.08,1.62-2.06
					c-0.01-0.77-0.16-1.52-0.4-2.24c-0.86-2.54-1.04-5.17-1.04-7.82c0-0.73,0.24-1.43,0.09-2.19c-0.34-1.71-0.64-3.43-0.6-5.19
					c0.03-1.28,0.21-2.57,0.14-3.84C57.74,101.55,57.6,98.37,57.85,95.3z M10.32,35.54C4.54,29.85,2.8,23.16,5.37,15.3
					c-2.8,1.88-4.79,6.74-4.17,10.29C2.09,30.8,5.26,34.02,10.32,35.54z M49.45,36.7c-0.07,0-0.14,0-0.22,0c0,2.36,0,4.72,0,7.09
					c0,0.13,0,0.34,0.16,0.31c0.71-0.14,0.45,0.39,0.5,0.7c0.06,0.4,0.02,0.82,0.64,0.83c1.31,0.02,2.61,0.08,3.91,0.16
					c0.53,0.03,0.72-0.15,0.71-0.69c-0.06-2.53,0.09-5.06,0.23-7.59c0.03-0.61-0.19-0.75-0.72-0.78c-1.14-0.07-2.28-0.17-3.42-0.29
					c-1.17-0.12-1.17-0.14-1.2,1.08c0,0.11-0.01,0.22-0.01,0.33c-0.01,0.22-0.01,0.49-0.31,0.46c-0.28-0.02-0.28-0.29-0.28-0.5
					C49.45,37.44,49.45,37.07,49.45,36.7z M24.79,96.46c-0.1,0.77-0.18,1.38-0.25,2c-0.58,5.33-1.35,10.65-2.65,15.85
					c-0.79,3.17-1.25,6.26-0.71,9.51c0.16,0.96,0.7,0.96,1.31,1.04c1.21,0.16,1.42-0.01,1.21-1.23c-0.27-1.61-0.29-3.19,0.08-4.78
					c0.31-1.32,0.05-2.66,0.08-3.99c0.05-1.71,0.8-3.27,1.04-4.94c0.54-3.68,0.46-7.39,0.24-11.09
					C25.11,98.08,25.16,97.31,24.79,96.46z M42.36,79.24c-0.77,0.63-1.24,1.27-1.22,2.26c0.03,1.19-0.12,2.39-0.18,3.59
					c-0.15,2.87-0.13,5.71,0.66,8.51c0.4,1.41,0.77,2.84,1.06,4.27c0.65,3.15,0.82,6.37,1.15,9.56c0.26,2.47,0.48,4.93,0.17,7.42
					c-0.07,0.58,0.03,1.16,0.33,1.88c0.49-2.81,0.81-5.46,0.49-8.12c-0.67-5.66-0.88-11.35-1.23-17.03
					C43.35,87.47,42.7,83.42,42.36,79.24z M70.01,111.32c0.04,1.56,0.27,2.82,0.65,4.04c0.05,0.16,0.01,0.43,0.31,0.36
					c0.32-0.07,0.79-1.04,0.63-1.35c-0.6-1.21-0.74-2.5-0.7-3.82c0.06-1.88,0.04-3.76-0.56-5.58c-0.18-0.55-0.14-1.14-0.05-1.71
					c0.13-0.74,0.08-1.47-0.1-2.19c-0.12-0.49-0.12-0.96,0-1.45c0.16-0.69,0.4-1.42,0.19-2.1c-0.65-2.09-0.15-4.17,0.01-6.24
					c0.15-2.07,1.12-4.04,0.7-6.2c-0.16-0.85-0.32-1.64-0.87-2.33c-0.82-1.02-0.8-0.98-2.04-0.57c-0.71,0.23-0.84,0.54-0.63,1.24
					c0.84,2.84,1.36,5.72,1.14,8.7c-0.05,0.73,0.06,1.47,0.14,2.2c0.28,2.73,0.8,5.45,0.42,8.22c-0.11,0.77-0.06,1.55,0.17,2.27
					C70.1,107.04,70.47,109.27,70.01,111.32z M26.55,104.91c-0.09-1.49-0.18-2.87-0.25-4.26c-0.12-2.37-0.26-4.75,0.42-7.07
					c0.56-1.9,0.33-3.77,0.01-5.66c-0.06-0.38-0.27-0.41-0.57-0.41c-0.3,0.01-0.4,0.12-0.4,0.45c-0.03,2.75-0.42,5.5-0.25,8.25
					c0.17,2.75,0.39,5.49,0.3,8.25c-0.08,2.55-0.02,5.13-0.8,7.61c-0.4,1.26-0.56,2.55-0.54,3.87c0.02,1.12,0.07,2.24-0.15,3.34
					c-0.25,1.24-0.33,2.48-0.11,3.73c0.12,0.66,0.06,1.3-0.02,1.95c-0.13,1.05,0.47,1.71,1.53,1.72c0.37,0,0.52-0.09,0.55-0.49
					c0.07-1,0.1-2.03,0.33-3c0.22-0.96,0.14-1.88,0.01-2.82c-0.37-2.84-0.74-5.68-0.56-8.55C26.22,109.49,26.4,107.15,26.55,104.91z
					 M31.62,44.4c-0.1-2.47-0.21-4.84-0.29-7.2c-0.02-0.49-0.13-0.68-0.65-0.61c-1.11,0.13-2.22,0.22-3.33,0.3
					c-0.42,0.03-0.55,0.19-0.54,0.61c0.01,0.38,0.28,1.05-0.14,1.08c-0.53,0.04-0.3-0.68-0.42-1.06c-0.06-0.21-0.03-0.49-0.35-0.43
					c-0.33,0.06-0.19,0.35-0.16,0.53c0.31,2.65,0.43,5.31,0.61,7.97c0.01,0.21-0.14,0.58,0.21,0.6c0.45,0.02,0.37-0.37,0.35-0.67
					c-0.05-0.73-0.11-1.46-0.16-2.2c-0.01-0.21-0.06-0.49,0.25-0.51c0.38-0.03,0.31,0.29,0.33,0.52c0.05,0.68,0.14,1.35,0.15,2.03
					c0.01,0.57,0.25,0.69,0.76,0.61c0.7-0.11,1.41-0.12,2.11-0.22C31.93,45.52,31.61,45.87,31.62,44.4z M27.23,120.33
					c1.15-2.13,1.61-4.24,0.88-6.52c-0.6-1.84-0.74-3.74-0.53-5.66c0.53-4.85,1.24-9.68,1.53-14.55c0.11-1.91,0.1-3.82,0.03-5.73
					c-0.01-0.21,0.05-0.53-0.24-0.53c-0.48,0-1.03-0.02-1.44,0.19c-0.37,0.19-0.13,0.69-0.07,1.05c0.22,1.21,0.59,2.43,0.22,3.64
					c-1,3.28-0.9,6.61-0.65,9.97c0.14,1.85,0.18,3.71-0.04,5.55C26.44,111.93,26.49,116.07,27.23,120.33z M63.44,90.68
					c-0.18,0.45-0.1,0.92-0.07,1.37c0.33,5.47,0.5,10.95,0.13,16.43c-0.07,1.01-0.06,2.04,0.28,3c0.59,1.68,0.69,3.39,0.72,5.15
					c0.02,1.42,0.48,2.78,0.92,4.13c0.04,0.11,0.03,0.28,0.22,0.29c0.46,0.03,1.46-1.15,1.31-1.6c-1.19-3.49-1.3-7.07-1.28-10.73
					c0.02-3.59-0.45-7.17-0.9-10.73C64.46,95.53,64.06,93.1,63.44,90.68z M34.31,73.85c-0.98-0.47-1.77-0.74-2.78-0.25
					c-2.85,1.41-5.7,2.84-8.75,3.77c-3.55,1.09-7.02,1.22-10.47-0.49c-1.06-0.53-2.32-0.63-3.49-0.93c1.03,0.91,2.09,1.75,3.27,2.39
					c1.89,1.04,4.02,1.33,6.14,1.48c2.48,0.17,4.93,0.2,7.26-0.98C28.48,77.33,31.15,75.29,34.31,73.85z M53.45,109.31
					c0.07-0.01,0.13-0.02,0.2-0.02c0.31-2.04,0.48-4.12,0.97-6.11c0.5-2.03,0.71-4.06,0.85-6.13c0.17-2.48,0.33-4.95,0.11-7.43
					c-0.13-1.41-0.12-2.84-0.02-4.25c0.1-1.37,0.13-1.33-1.24-1.48c-0.76-0.08-1.03,0.06-1.02,0.91c0.08,6.52,0.11,13.03,0.15,19.55
					C53.46,106,53.45,107.65,53.45,109.31z M55.76,101.56c-0.39,0.63-0.53,1.21-0.62,1.78c-0.41,2.63-0.74,5.28-1.17,7.91
					c-0.23,1.42-0.05,2.75,0.45,4.08c0.24,0.63,0.43,1.29,0.54,1.96c0.63,3.61,1.59,7.18,1.53,10.89c0,0.17-0.04,0.43,0.27,0.38
					c0.18-0.03,0.39-0.09,0.4-0.34c0.01-0.19,0.02-0.38,0.01-0.57c-0.09-2.78-0.21-5.55-0.28-8.33c-0.11-4.3-0.31-8.6-0.56-12.89
					C56.23,104.85,56.09,103.26,55.76,101.56z M12.03,79.42c0.14,0.13,0.26,0.28,0.41,0.37c3.07,1.87,6.26,3.32,10,2.65
					c2.26-0.4,4.54-0.85,6.43-2.21c2.24-1.61,4.51-3.14,7.14-4.06c0.15-0.05,0.35-0.06,0.33-0.37c-0.07-1.02-0.91-1.55-1.85-1.14
					c-0.25,0.11-0.49,0.23-0.74,0.35c-2.56,1.22-4.84,2.94-7.35,4.26c-3.04,1.6-6.23,2.22-9.63,1.5
					C15.18,80.43,13.65,79.88,12.03,79.42z M17.37,114.49c0.1-0.11,0.16-0.15,0.16-0.19c0.31-3.21,1.09-6.4,0.59-9.66
					c-0.07-0.48-0.01-0.98,0.05-1.46c0.46-3.38,0.66-6.77,0.55-10.19c-0.06-1.8-0.35-3.58-0.17-5.39c0.05-0.48,0.44-1.04,0.17-1.39
					c-0.28-0.37-0.89-0.47-1.34-0.72c-0.46-0.26-0.55-0.08-0.55,0.36c0,1.53,0.02,3.06-0.06,4.58c-0.13,2.59-0.21,5.17,0.03,7.76
					c0.31,3.28,0.51,6.57,0.36,9.88C17.08,110.18,17.33,112.29,17.37,114.49z M14.79,82.52c0.06,0.07,0.12,0.16,0.2,0.21
					c2.01,1.44,4.18,2.54,6.58,3.17c0.68,0.18,1.42,0.18,1.99-0.15c1.67-0.98,3.46-1.69,5.12-2.7c3.31-2.02,6.03-4.99,9.94-6.09
					c-0.61-0.46-1.18-0.47-1.82-0.23c-2.37,0.87-4.57,2.06-6.59,3.56c-2.87,2.12-6.14,2.97-9.64,3.1
					C18.61,83.44,16.68,83.17,14.79,82.52z M13.09,88.65c-0.11,0.25-0.16,0.32-0.17,0.39c-0.29,3.92-0.65,7.83-0.49,11.76
					c0.13,3.27,0.33,6.53-0.14,9.79c-0.26,1.83,0.49,3.49,1.22,5.2c0.13-0.15,0.21-0.2,0.23-0.27c0.96-3.46,1.18-6.98,0.78-10.53
					c-0.49-4.39-1.01-8.77-1.22-13.18C13.25,90.82,13.17,89.83,13.09,88.65z M48.6,108.52c-0.18,0.3-0.27,0.44-0.34,0.57
					c-1.03,1.88-1.07,3.9-0.9,5.96c0.14,1.63,0.14,3.25-0.2,4.87c-0.36,1.75-0.96,3.51-0.66,5.32c0.33,2.03,1.32,3.91,1.56,5.98
					c0.02,0.17,0.09,0.44,0.36,0.27c0.46-0.27,0.94-0.13,1.5-0.11c-0.48-1.06-0.82-2.09-0.93-3.18c-0.11-1.08-0.23-2.17-0.16-3.26
					c0.27-4.17-0.08-8.33-0.04-12.49C48.81,111.21,48.86,109.96,48.6,108.52z M45.49,80.83c0.08,0.66,0.17,1.28,0.24,1.89
					c0.29,2.46,0.72,4.91,0.4,7.4c-0.16,1.24-0.36,2.48-0.49,3.72c-0.25,2.3-0.2,4.62-0.62,6.91c-0.37,1.99-0.09,3.98,0.22,6.16
					c0.12-0.27,0.17-0.36,0.19-0.46c1.19-4.21,1.93-8.49,2.06-12.86c0.11-3.6-0.05-7.19-0.46-10.77
					C46.93,81.82,46.65,81.11,45.49,80.83z M71.37,89.22c-0.65,2.53-0.97,5.08-0.54,7.65c0.12,0.73,0.24,1.45,0.15,2.19
					c-0.21,1.67-0.06,3.32,0.14,4.97c0.25,2.06,0.46,4.1,0.3,6.19c-0.1,1.27-0.01,2.59,0.74,3.89c0.72-1.19,1.17-2.32,1.22-3.61
					c0.07-1.78-0.3-3.53-0.5-5.28c-0.4-3.58-0.36-7.19-0.82-10.76C71.83,92.72,71.6,90.97,71.37,89.22z M22.29,45.52
					c-0.12-1.62-0.21-3.22-0.36-4.81c-0.09-0.94-0.28-1.88-0.42-2.82c-0.02-0.13-0.04-0.29-0.23-0.26c-0.18,0.02-0.2,0.17-0.19,0.31
					c0.03,0.41,0.07,0.81,0.1,1.22c0.01,0.16-0.02,0.33-0.24,0.36c-0.22,0.02-0.27-0.13-0.29-0.3c-0.04-0.32-0.08-0.65-0.14-0.97
					c-0.03-0.19,0.04-0.51-0.29-0.46c-0.29,0.05-0.21,0.33-0.18,0.54c0.01,0.05,0.02,0.11,0.02,0.16c-0.02,0.23,0.07,0.55-0.3,0.54
					c-0.32-0.01-0.25-0.33-0.25-0.51c0.03-0.59-0.23-0.68-0.75-0.57c-0.8,0.17-1.6,0.32-2.41,0.39c-0.7,0.06-0.71,0.36-0.52,0.91
					c0.31,0.9,0.67,1.78,1.14,2.61c1.08,1.9,2.54,3.38,4.64,4.15C22.13,46.19,22.39,46.14,22.29,45.52z M28.78,113.25
					c0.05-0.59,0.09-1.19,0.16-1.78c0.25-2.24,0.86-4.44,0.99-6.7c0.05-0.76,0.05-1.55,0.4-2.24c0.57-1.11,0.5-2.27,0.42-3.43
					c-0.26-3.64-0.06-7.23,0.81-10.79c0.13-0.53,0.6-1.25,0.24-1.58c-0.34-0.3-1.04,0.23-1.6,0.31c-0.41,0.06-0.54,0.26-0.51,0.73
					c0.26,4.29-0.18,8.54-0.64,12.8c-0.31,2.89-0.81,5.77-0.93,8.68C28.05,110.61,28.2,111.95,28.78,113.25z M16.12,97.69
					c-0.47,2.65-1.09,5.27-0.94,8c0.2,3.61-0.01,7.18-1.08,10.67c-0.1,0.31-0.07,0.59,0.14,0.85c0.48,0.59,0.66,1.29,0.81,2.02
					c0.11,0.55,0.38,0.99,0.92,1.27c0.47,0.24,0.58,0.15,0.63-0.36c0.21-2.12,0.19-4.24,0.16-6.37c-0.02-2.1-0.24-4.18-0.16-6.29
					C16.73,104.2,16.57,100.94,16.12,97.69z M30.71,104.67c-0.14,0.99-0.21,1.86-0.41,2.7c-0.7,2.93-1.16,5.88-0.84,8.9
					c0.15,1.47,0.13,2.94-0.07,4.4c-0.25,1.87-0.35,3.74-0.43,5.62c-0.05,1.15,0.37,1.84,1.41,2.22c0.78-2.14,1.28-7.38,0.86-10.01
					c-0.6-3.71-0.77-7.41-0.32-11.15C31.01,106.51,31.08,105.63,30.71,104.67z M62.57,108.88c0.27-0.21,0.25-0.47,0.29-0.71
					c0.24-1.7,0.32-3.42,0.32-5.13c-0.01-4.47-0.24-8.93-0.47-13.39c-0.09-1.74-0.33-3.47-0.18-5.21c0.02-0.29,0.14-0.73-0.38-0.74
					c-0.6-0.01-1.27-0.09-1.74,0.27c-0.32,0.25,0.01,0.82-0.01,1.24c-0.01,0.21,0.04,0.43,0.07,0.65c0.36,2.67,0.75,5.33,1.06,8.01
					c0.4,3.46,0.45,6.95,0.68,10.43C62.29,105.82,62.44,107.33,62.57,108.88z M20.57,124.19c0.14-0.45,0.05-0.75,0.03-1.04
					c-0.11-1.41-0.23-2.81-0.16-4.24c0.11-2.04,0.84-3.93,1.23-5.9c0.99-5.05,1.85-10.12,2.41-15.23c0.13-1.23,0.24-2.45,0.37-3.68
					c-0.38,0.43-0.49,0.93-0.57,1.43c-0.8,4.94-1.84,9.83-3.08,14.68c-0.89,3.47-1.63,6.98-1.74,10.61
					C19,122.26,19.73,123.12,20.57,124.19z M81.63,18.77c0.62,2.5,0.04,4.78-1.13,6.96c-1.42,2.67-3.27,5.02-5.45,7.1
					c-0.96,0.92-1.98,1.79-2.97,2.68c2.6-1.16,5.04-2.6,7.21-4.42c2.66-2.23,4.18-5.04,3.9-8.65
					C83.08,21.02,82.57,19.82,81.63,18.77z M13.28,82.92c-0.08,1.91-0.02,3.66,0.23,5.46c0.56,3.96,0.56,7.98,1.04,11.95
					c0.03,0.28-0.06,0.61,0.31,0.88c0.39-1.99,0.63-3.94,0.73-5.91c0.17-3.32,0.3-6.64,0.45-9.95c0.01-0.31,0.01-0.58-0.3-0.78
					C14.94,84.06,14.17,83.52,13.28,82.92z M39.56,78.19c-1.22-0.46-2.33-0.35-3.47,0.56c-1.84,1.46-3.91,2.57-5.8,3.95
					c-1.19,0.87-2.38,1.72-3.64,2.47c-0.68,0.4-1.4,0.74-2.09,1.11c0.96,0.12,1.89,0.15,2.81,0.11c3.17-0.11,5.73-1.19,6.91-4.43
					c0.11-0.3,0.31-0.57,0.49-0.84c0.28-0.43,0.66-0.77,1.15-0.87C37.35,79.94,38.23,78.7,39.56,78.19z M40.26,81.42
					c-0.46,0.39-0.82,0.75-1.23,1.04c-0.41,0.3-0.56,0.66-0.63,1.16c-0.23,1.75-0.13,3.48,0.13,5.21c0.69,4.54,1.95,8.92,3.52,13.22
					c0.07,0.19,0.07,0.43,0.32,0.52c0.12-0.25,0.06-0.49,0.03-0.73c-0.3-1.96-0.52-3.95-1.06-5.86c-1.02-3.6-1.42-7.25-1.22-10.98
					C40.19,83.85,40.42,82.7,40.26,81.42z M75.18,76.6c-0.01-0.05-0.03-0.1-0.04-0.15c-0.11,0-0.21,0-0.32,0
					c-4.61,0.04-9.13-0.4-13.41-2.33c-1.41-0.64-2.88-1.15-4.41-1.45c-1.01-0.19-2.03-0.4-3.13-0.15c0.1,0.11,0.13,0.18,0.17,0.19
					c0.32,0.07,0.64,0.13,0.96,0.19c3.36,0.63,6.44,1.97,9.37,3.69c2.28,1.33,4.77,1.97,7.41,1.95c0.27,0,0.54,0.04,0.79-0.13
					C73.44,77.79,74.31,77.2,75.18,76.6z M12.13,66.16c0.01-0.11,0.03-0.21,0.02-0.32c-0.14-4.44-0.63-8.86-0.49-13.31
					c0.02-0.72-0.64-0.8-1.14-0.96c-0.5-0.16-0.83,0.14-1.06,0.55c-0.35,0.62-0.34,1.3-0.37,1.99
					C8.87,58.43,10.73,62.24,12.13,66.16z M43.2,79.03c-0.11,0.03-0.21,0.05-0.32,0.08c0.65,6.36,1.51,12.71,1.72,19.12
					c0.3-0.26,0.29-0.59,0.28-0.91c-0.01-1.53,0.12-3.05,0.33-4.56c0.27-1.94,0.65-3.88,0.44-5.86c-0.23-2.06-0.5-4.11-0.74-6.17
					c-0.03-0.28-0.08-0.52-0.34-0.7C44.1,79.73,43.66,79.38,43.2,79.03z M15.5,77.12c5.75,1.07,10.43-1.81,15.47-4.08
					c-0.76-0.22-1.42-0.19-1.87-0.57c-0.79-0.66-1.59-0.44-2.44-0.22c-1,0.26-1.84,0.76-2.63,1.42c-1.89,1.59-4.14,2.44-6.51,3.04
					C16.86,76.87,16.13,76.72,15.5,77.12z M54.71,130.37c1.23-0.78,1.34-1.9,1.26-3.15c-0.19-3.02-0.88-5.97-1.35-8.94
					c-0.19-1.17-0.38-2.33-1.06-3.56c-0.03,0.39-0.05,0.6-0.06,0.8c-0.02,2.29,0.01,4.57-0.14,6.86c-0.11,1.62-0.14,3.26,0.42,4.85
					C54.14,128.23,54.54,129.23,54.71,130.37z M68.45,37.54c-0.88,0-1.64,0-2.4,0c-0.46,0-0.97-0.13-1.38,0.03
					c-0.55,0.21-0.14,0.82-0.27,1.23c-0.05,0.16-0.07,0.34-0.28,0.34c-0.21,0-0.25-0.17-0.25-0.35c0-0.27,0-0.54-0.01-0.82
					c-0.01-0.24,0.04-0.56-0.34-0.5c-0.31,0.05-0.2,0.34-0.17,0.54c0.19,1.19,0.12,2.39,0.11,3.59c0,0.27,0.13,0.73-0.28,0.73
					c-0.51,0-0.29-0.51-0.28-0.78c0.01-1.25,0.04-2.5-0.15-3.75c-0.03-0.16,0.02-0.42-0.32-0.37c-0.18,0.56,0.03,1.12,0.02,1.68
					c-0.01,1.88-0.19,3.75-0.34,5.62c-0.01,0.19-0.19,0.49,0.18,0.49c0.2,0,0.42-0.13,0.41-0.42c0-0.11-0.01-0.22,0.01-0.33
					c0.06-0.28-0.16-0.78,0.32-0.78c0.43,0,0.18,0.48,0.29,0.73c0.02,0.04,0.06,0.08,0.13,0.16c1.18-0.76,2.08-1.8,2.89-2.93
					c0.28-0.39,0.37-0.82,0.44-1.29c0.06-0.37-0.38-1.23,0.67-0.83c0.04,0.01,0.16-0.12,0.2-0.21
					C67.93,38.77,68.17,38.2,68.45,37.54z M71.05,63.69c0.99-1.34,1.33-2.84,1.7-4.34c0.46-1.81,1.07-3.6,1.1-5.5
					c0.01-0.55-0.06-1.09-0.39-1.55c-0.43-0.61-1.06-0.59-1.69-0.48c-0.64,0.1-0.56,0.62-0.61,1.08c-0.27,2.38-0.37,4.77-0.31,7.17
					C70.89,61.28,70.99,62.48,71.05,63.69z M49.04,76.83c1.41,0.37,2.83,0.73,4.23,1.12c2.75,0.77,5.38,1.92,8.15,2.64
					c1.13,0.3,2.26,0.33,3.43,0.08C60.21,76.86,54.66,76.72,49.04,76.83z M21.13,105.72c0.37-0.47,0.41-0.93,0.52-1.36
					c0.74-2.96,1-6.01,1.65-8.98c0.44-2.01,1.3-3.94,1.02-6.07c-0.08-0.59,0.39-1.36-0.01-1.71c-0.41-0.35-1.19-0.23-1.79-0.38
					c-0.51-0.12-0.65,0.07-0.59,0.53c0.11,0.86,0.24,1.72,0.33,2.59c0.28,2.49-0.23,4.94-0.41,7.4
					C21.64,100.36,21.38,102.98,21.13,105.72z M65.58,99.43c0.27-0.33,0.23-0.53,0.22-0.71c-0.19-2.97-0.18-5.94-0.13-8.91
					c0.03-1.75-0.01-3.49-0.28-5.22c-0.21-1.42-0.76-1.69-2.07-1.07c-0.17,0.08-0.28,0.15-0.28,0.34c0.03,1.03-0.33,2.1,0.08,3.08
					c1.12,2.71,1.31,5.61,1.84,8.44C65.19,96.68,65.36,97.98,65.58,99.43z M14.29,72.95c0.08-0.16,0.14-0.22,0.15-0.29
					c0.39-2.67,0.94-5.3,1.82-7.85c0.11-0.3,0.06-0.57,0.01-0.87c-0.27-1.58-0.77-3.11-0.89-4.72c-0.07-0.92,0-1.88-0.51-2.92
					c-0.7,1.98-1.11,3.85-0.99,5.78c0.16,2.69,0.26,5.38,0,8.07C13.78,71.08,13.99,71.98,14.29,72.95z M70.73,79.55
					c-0.28-0.34-0.66-0.31-0.99-0.4c-2.73-0.76-5.54-1.4-7.92-2.96c-2.78-1.82-5.85-2.55-9.03-3.09c-0.62-0.1-1.22-0.06-1.77,0.48
					c0.6,0.08,1.11,0.14,1.62,0.21c3.08,0.44,6.06,1.2,8.48,3.3c1.95,1.69,4.23,2.61,6.69,3.23C69,80.62,69.85,80.21,70.73,79.55z
					 M13.53,75.26c0.11-0.82,0.24-1.68,0.03-2.49c-0.3-1.16-0.36-2.31-0.26-3.48c0.2-2.2,0.2-4.4,0.02-6.61
					c-0.09-1.08-0.21-2.2,0.1-3.25c1.02-3.5,1.48-7.07,1.48-10.7c0-0.31,0.24-0.82-0.28-0.87c-0.43-0.04-0.33,0.46-0.4,0.73
					c-0.45,1.68-0.67,3.41-1.29,5.05c-0.16,0.42-0.54,0.75-0.51,1.26c0.04,0.92,0.05,1.85,0.08,2.78c0.1,3.35,0.57,6.68,0.39,10.04
					C12.76,70.25,13.03,72.75,13.53,75.26z M64.77,81.99c-1.76-0.31-3.21-0.92-4.83-0.87c-2.52,0.08-5.05,0.2-7.58-0.01
					c-0.12-0.01-0.28-0.04-0.35,0.19c0.31,0.27,0.75,0.5,0.93,0.86c0.31,0.62,0.81,0.6,1.35,0.67c2.07,0.28,4.13,0.15,6.18-0.07
					C61.83,82.6,63.22,82.51,64.77,81.99z M58.79,80.52c-3.85-1.68-8.08-1.97-12.04-3.28c0.88,1,1.79,1.95,3,2.49
					c0.54,0.24,0.97,0.72,1.6,0.77C53.82,80.67,56.29,80.71,58.79,80.52z M16.61,65.72c-0.08,0.19-0.17,0.36-0.22,0.53
					c-0.9,3.01-1.37,6.1-1.78,9.21c-0.02,0.15-0.08,0.32,0.11,0.43c0.45,0.26,1.28-0.09,1.39-0.61c0.34-1.51,0.42-3.1,1.02-4.53
					C17.86,68.95,17.49,67.35,16.61,65.72z M68.04,67.4c-0.62,0.59-0.69,1.29-0.58,2.04c0.16,1.11,0.1,2.23,0.16,3.34
					c0.04,0.68-0.49,1.56,0.03,1.98c0.47,0.37,1.35,0.21,2.05,0.31c0.6,0.09,0.78-0.04,0.57-0.68c-0.67-2.03-1.47-4.03-1.83-6.15
					C68.39,67.96,68.29,67.67,68.04,67.4z M41.39,78.53c-0.68-0.1-1.07,0.19-1.46,0.39c-1.32,0.69-2.53,1.58-3.99,2.02
					c-0.37,0.11-0.66,0.4-0.86,0.73c-0.61,0.98-1.19,1.98-1.78,2.97C36.49,83.33,39.05,81.22,41.39,78.53z M56.76,43.64
					c0.01,0,0.01,0,0.02,0c0,0.52,0.05,1.04-0.01,1.55c-0.07,0.6,0.29,0.64,0.72,0.71c0.5,0.08,0.66-0.13,0.72-0.6
					c0.33-2.55,0.27-5.09,0.02-7.64c-0.05-0.47-0.23-0.65-0.71-0.65c-0.56,0-0.42,0.41-0.43,0.68
					C56.96,39.68,56.86,41.66,56.76,43.64z M68.87,61.67c-0.49,1.52-0.28,2.89-0.38,4.24c-0.05,0.69,0.46,1.32,0.68,1.99
					c0.1,0.31,0.16,0.63,0.22,0.95c0.26,1.35,0.66,2.65,1.23,3.94c0.26-0.23,0.15-0.46,0.14-0.66c-0.15-2.36-0.27-4.72-0.47-7.07
					C70.19,63.85,69.6,62.81,68.87,61.67z M58.17,88.75c0.39,7.62,0.09,15.26,0.39,23.01c0.3-0.29,0.25-0.49,0.26-0.67
					c0.09-5.56,0.22-11.11,0.25-16.67C59.08,92.51,58.83,90.59,58.17,88.75z M34.5,53.79c-1.01-2.22-1.84-4.34-1.58-6.69
					c0.02-0.21-0.1-0.38-0.33-0.38c-0.51,0-1.08-0.12-1.51,0.16c-0.38,0.25-0.01,0.7-0.02,1.05c0,0.16-0.01,0.33,0.03,0.49
					c0.51,2.07,0.46,4.47,3.12,5.27C34.23,53.7,34.25,53.71,34.5,53.79z M24.13,45.63c-0.24-2.58-0.51-5.15-0.51-7.74
					c0-0.62-0.36-0.55-0.74-0.51c-0.39,0.04-0.9-0.04-0.77,0.63c0.48,2.52,0.55,5.07,0.74,7.62c0.05,0.68,0.35,0.82,0.91,0.82
					C24.5,46.43,24.03,45.9,24.13,45.63z M28.78,118.51c-0.13,0.21-0.2,0.31-0.26,0.43c-1.16,2.3-1.61,4.76-1.71,7.32
					c-0.03,0.77,0.37,1.14,0.96,1.43c0.49,0.24,0.78,0.18,0.71-0.47c-0.22-1.96-0.1-3.9,0.18-5.85
					C28.78,120.48,28.97,119.57,28.78,118.51z M18.16,69.2c-0.7,1.82-0.98,3.59-1.33,5.35c-0.3,1.5-0.23,1.22,1.08,1
					c0.74-0.13,1.07-0.49,0.98-1.28c-0.1-0.84,0.01-1.71,0.23-2.51C19.42,70.64,18.87,69.98,18.16,69.2z M58.24,76.23
					c-0.18-0.37-0.5-0.41-0.76-0.52c-1.85-0.82-3.82-1.19-5.81-1.49c-1.07-0.16-1.91,0.15-2.63,0.9c-0.14,0.15-0.41,0.26-0.29,0.52
					c0.1,0.2,0.33,0.28,0.55,0.28c0.27,0,0.54-0.01,0.81-0.03c1.82-0.16,3.63-0.19,5.45,0.02C56.44,76.01,57.31,76.12,58.24,76.23z
					 M44.23,78.37c2.41,1.93,5.01,3.34,8.19,4.14c-0.87-0.93-1.57-1.7-2.58-2.09c-0.87-0.34-1.66-0.83-2.32-1.49
					C46.6,78.01,45.61,77.48,44.23,78.37z M44.7,120.86c-0.07,0-0.14-0.01-0.21-0.01c-0.03,0.12-0.1,0.24-0.1,0.36
					c-0.03,1.37,0.22,2.7,0.49,4.03c0.43,2.12,1.12,4.21,0.88,6.42c-0.02,0.21,0.05,0.32,0.23,0.36c0.34,0.08,0.74,0.2,1.03,0.03
					c0.35-0.2-0.04-0.52-0.04-0.79c0-0.21-0.08-0.43-0.12-0.64C46.13,127.36,45.41,124.11,44.7,120.86z M48.96,52.11
					c1.11-1.46,2.11-2.74,3.08-4.04c0.24-0.32,0.65-0.72,0.48-1.06c-0.2-0.41-0.77-0.22-1.19-0.26c-0.24-0.02-0.49,0-0.73-0.04
					c-0.52-0.08-0.72,0.18-0.82,0.64C49.43,48.86,49.23,50.39,48.96,52.11z M60.82,42.54c-0.05,0-0.11,0-0.16,0
					c0,0.84-0.01,1.69,0.01,2.53c0,0.24-0.16,0.62,0.25,0.66c0.38,0.03,0.57-0.25,0.6-0.62c0.05-0.54,0.12-1.08,0.16-1.62
					c0.13-1.79,0.32-3.58,0.19-5.37c-0.03-0.36,0.01-0.77-0.58-0.78c-0.65-0.02-0.44,0.47-0.45,0.73
					C60.81,39.55,60.82,41.04,60.82,42.54z M52.23,51.27c0.98-0.3,2.1-0.4,2.75-1.12c0.79-0.87,1.29-2,1.95-3.07
					c-0.7-0.12-1.49-0.5-1.9,0.03C54,48.43,53.15,49.88,52.23,51.27z M68.92,55.57c1.7-2.23,1.76-4.89,1.92-7.53
					C69.02,50.24,68.73,52.84,68.92,55.57z M66.65,69.51c-0.74,0.81-1.37,1.51-2,2.22c-0.1,0.11-0.14,0.22-0.12,0.37
					c0.12,0.83,0.43,1.58,0.92,2.24c0.3,0.41,1.12,0.38,1.2-0.01C66.95,72.76,66.88,71.2,66.65,69.51z M62.85,111.31
					c0,0.11-0.01,0.21,0,0.32c0.32,3.25,0.63,6.51,0.95,9.76c0.03,0.28-0.13,0.71,0.22,0.78c0.21,0.04,0.5-0.27,0.75-0.43
					c0.37-0.23,0.16-0.53,0.07-0.8c-0.66-2.06-1.1-4.15-1-6.34C63.9,113.41,63.52,112.3,62.85,111.31z M31.55,52.33
					c-0.35-1.35-0.88-2.57-1.03-3.9c-0.18-1.58-0.2-1.58-1.77-1.4c-0.08,0.01-0.16,0.01-0.24,0.02c-0.31,0.04-0.39,0.2-0.17,0.43
					c0.93,0.99,1.2,2.29,1.64,3.51C30.22,51.68,30.57,52.28,31.55,52.33z M47.65,53.34c0.49-0.14,0.49-0.34,0.54-0.52
					c0.49-1.79,0.58-3.66,1-5.46c0.08-0.34,0.23-0.71-0.31-0.66c-0.43,0.04-1.19-0.4-1.21,0.46C47.61,49.22,47.65,51.28,47.65,53.34
					z M68.73,39.86c-0.43,0.73-0.76,1.35-1.15,1.93c-0.27,0.4-0.12,0.57,0.26,0.69c0.98,0.32,1.96,0.66,2.94,0.96
					c0.18,0.06,0.43,0.23,0.58-0.03c0.14-0.24-0.09-0.41-0.21-0.57c-0.16-0.22-0.35-0.42-0.56-0.59C69.8,41.64,69,41.03,68.73,39.86
					z M70.05,61.85c-0.28-2.11,0.23-4.1-0.02-6.14C68.39,56.84,68.12,59.93,70.05,61.85z M19.64,48.36
					c-0.05-0.37-0.26-0.59-0.43-0.84c-0.5-0.71-1.33-1.02-1.96-1.58c-0.93-0.83-0.95-0.81-2.04-0.1
					C17.26,47.9,17.55,48.06,19.64,48.36z M61.58,47.99c1.03-0.32,1.91-0.35,2.31-1.34c0.18-0.44,0.65-0.72,1.06-1
					c0.67-0.47,1.34-0.94,2-1.42c0.16-0.12,0.47-0.18,0.42-0.43c-0.06-0.26-0.39-0.26-0.6-0.36c-0.35-0.17-0.48,0.14-0.65,0.33
					c-0.79,0.88-1.67,1.65-2.71,2.2C62.61,46.39,62.15,47.07,61.58,47.99z M69.58,44.59c-0.82-0.61-1.51-0.47-2.2,0.08
					c-0.46,0.37-0.99,0.66-1.49,0.99c-0.56,0.37-1.17,0.7-1.59,1.46C66.25,46.51,68.05,45.91,69.58,44.59z M71.51,41.87
					c0.21-0.8,0.46-1.54-0.34-2.21c-0.43-0.37-0.68-0.9-0.85-1.46c-0.05-0.17,0.03-0.51-0.33-0.44c-0.23,0.05-0.29,0.25-0.33,0.49
					C69.35,39.95,69.76,40.8,71.51,41.87z M28.03,51.05c-0.31-1.29-1.14-2.19-1.83-3.18c-0.43-0.6-0.98-0.26-1.48-0.32
					c-0.13-0.01-0.33,0.05-0.31,0.19c0.04,0.46,0.34,0.77,0.71,1.03c0.02,0.02,0.04,0.03,0.07,0.05c0.71,0.53,1.5,0.96,1.87,1.86
					C27.18,51,27.6,51.06,28.03,51.05z M68.95,49.41c0.53-1.13,1.14-1.95,1.81-2.72c0.5-0.57,0.53-1.18,0.45-1.89
					C68.98,46.11,68.59,46.89,68.95,49.41z M22.73,49c-0.32-0.54-0.26-1.49-1.03-1.75c-1.5-0.51-2.82-1.27-3.93-2.39
					c-0.17-0.17-0.34-0.3-0.55-0.09c-0.28,0.28,0.06,0.38,0.19,0.49c0.69,0.57,1.43,1.09,2.1,1.68c0.89,0.78,2.13,1.13,2.7,2.28
					c0.05,0.1,0.29,0.13,0.45,0.13C22.77,49.35,22.78,49.2,22.73,49z M49.67,52.52c1.74-1.46,3.26-3.08,4.31-5.09
					c0.08-0.15,0.3-0.34,0.11-0.49c-0.19-0.15-0.48-0.12-0.7,0c-0.13,0.07-0.2,0.25-0.27,0.39c-0.73,1.35-1.63,2.57-2.56,3.79
					C50.23,51.56,49.81,51.95,49.67,52.52z M34.57,52.22c0.07-1.91-0.15-3.6-0.22-5.28c-0.01-0.25-0.21-0.37-0.47-0.34
					c-0.2,0.02-0.37,0.1-0.38,0.34C33.4,48.71,33.49,50.45,34.57,52.22z M14.98,40.51c-0.5,0.61-0.89,1.32-1.53,1.78
					c-0.73,0.52-0.58,1.14-0.36,1.93c0.67-0.73,1.24-1.38,1.84-2C15.46,41.68,15.56,41.13,14.98,40.51z M29.55,51.54
					c-0.24-0.69-0.44-1.3-0.66-1.91c-0.29-0.8-0.8-1.47-1.32-2.14c-0.24-0.31-0.55-0.28-0.79-0.09c-0.25,0.2,0.05,0.39,0.16,0.53
					c0.76,0.94,1.4,1.93,1.72,3.11C28.77,51.41,29.04,51.6,29.55,51.54z M58.99,45.97c0.26-0.47,0.26-0.92,0.31-1.38
					c0.25-2.26-0.06-4.51-0.05-6.77c0-0.25,0.09-0.67-0.31-0.61c-0.39,0.05-0.16,0.44-0.14,0.67c0.22,2.39,0.25,4.78-0.01,7.17
					C58.76,45.32,58.62,45.63,58.99,45.97z M58.4,49.06c1.35-0.33,2.6-0.6,2.97-2.11C59.81,46.78,59.15,47.23,58.4,49.06z
					 M55.94,49.85c1.9-0.09,2.05-1.69,2.93-2.79c-0.56,0.01-1.01-0.22-1.3,0.2C56.99,48.07,56.41,48.88,55.94,49.85z M19.52,74.95
					c0.43-0.25,0.98-0.29,0.95-0.78c-0.05-0.83,0.36-1.74-0.32-2.49c-0.3-0.33-0.46-0.21-0.51,0.17
					C19.53,72.85,19.34,73.84,19.52,74.95z M13.07,45.47c0.05,0.06,0.11,0.12,0.16,0.17c1.03-0.73,2.08-1.43,3.07-2.2
					c0.37-0.29-0.12-0.56-0.23-0.84c-0.07-0.17-0.21-0.25-0.38-0.07C14.82,43.51,13.94,44.49,13.07,45.47z M60.37,125.92
					c0.43-0.31,0.55-0.54,0.43-0.97c-0.32-1.12-0.57-2.27-0.87-3.39c-0.16-0.62-0.37-1.23-0.83-1.96
					C59.2,121.9,60.42,123.72,60.37,125.92z M59.89,45.83c0.31-0.08,0.21-0.35,0.21-0.54c-0.02-1.8,0.02-3.6,0.13-5.39
					c0.05-0.73,0.03-1.47,0.03-2.21c0-0.17,0.06-0.44-0.22-0.44c-0.32,0-0.28,0.27-0.27,0.48c0,0.08,0.03,0.16,0.03,0.24
					c0.05,2.48,0.28,4.96-0.05,7.43C59.74,45.56,59.68,45.74,59.89,45.83z M25.03,50.09c-0.48-0.95-1.09-1.6-1.41-2.41
					c-0.08-0.21-0.32-0.15-0.51-0.15c-0.13,0-0.23,0.09-0.19,0.2c0.21,0.62,0.35,1.28,0.68,1.83
					C23.82,49.97,24.38,49.95,25.03,50.09z M12.54,51.42c0.07,0.02,0.14,0.03,0.21,0.05c0.24-1.05,0.48-2.09,0.71-3.14
					c0.06-0.26,0.12-0.53,0.14-0.8c0.02-0.28-0.22-0.35-0.41-0.43c-0.18-0.07-0.24,0.08-0.25,0.22
					C12.81,48.68,12.68,50.05,12.54,51.42z M12.77,40.85c0.08,0.16-0.16,0.75,0.22,0.67c0.51-0.1,0.89-0.67,1.01-1.18
					c0.08-0.34-0.43-0.53-0.76-0.51C12.69,39.87,12.67,40.31,12.77,40.85z M63.77,72.56c-0.38,0.36-0.91,0.64-0.72,1.06
					c0.16,0.36,0.74,0.42,1.26,0.47C64.13,73.57,63.97,73.12,63.77,72.56z M12.62,39.22c0.45-0.36,0.82-0.61,0.65-1.06
					c-0.08-0.21-0.55-0.41-0.68-0.27C12.26,38.24,12.59,38.66,12.62,39.22z M71.9,39c-0.13-0.51-0.26-1.02-0.4-1.52
					c-0.02-0.09-0.15-0.21-0.2-0.21c-0.18,0.03-0.27,0.18-0.26,0.35C71.08,38.2,71.3,38.7,71.9,39z"/>
			</g>
			<g>
				<path d="M54.42,56.53c-0.54-0.07-1.14-0.23-1.19-1.05c-0.03-0.44-0.31-0.45-0.63-0.39c-0.43,0.09-0.85,0.19-1.27,0.28
					c-0.4,0.08-0.73-0.04-0.81-0.47c-0.08-0.41,0.23-0.55,0.58-0.63c2.18-0.48,4.38-0.84,6.6-1.11c1.3-0.16,2.6-0.25,3.9-0.39
					c0.39-0.04,0.75-0.06,0.81,0.42c0.05,0.5-0.32,0.66-0.73,0.68c-1.61,0.09-3.2,0.3-4.79,0.51c-0.58,0.07-1.17,0-0.95,0.96
					C56.06,55.94,55.26,56.53,54.42,56.53z"/>
			</g>
		</g>
		<g>
			<g>
				<g>
					<g>
						<path class="st0" d="M52.46,9.72C52.45,9.18,52,8.74,51.44,8.7c-2.82-0.14-3.54-1-3.56-1.02c-1.48-2.16-5.61-2.03-5.59-2.03
							c-0.05,0-4.15-0.15-5.64,2.02c-0.02,0.04-0.75,0.9-3.56,1.03c-0.56,0.04-1.01,0.47-1.02,1.02c-0.09,2.57,0.37,11.22,9.64,14.8
							c0.17,0.07,0.37,0.1,0.56,0.1c0.19,0,0.39-0.02,0.56-0.1c8.74-3.38,9.65-11.27,9.65-14.31C52.48,10.04,52.46,9.87,52.46,9.72z
							 M42.61,23.63c-0.11,0.04-0.24,0.05-0.35,0.05c-0.12,0-0.25-0.01-0.35-0.05c-8.61-3.39-9.02-11.49-8.93-13.89
							c0-0.07,0.07-0.11,0.14-0.12c3.2-0.15,4.12-1.2,4.27-1.42c1.07-1.54,4.24-1.62,4.8-1.62h0.09c0.15,0.01,3.71-0.02,4.86,1.63
							c0.15,0.21,1.07,1.26,4.27,1.41c0.06,0.01,0.14,0.05,0.14,0.12C51.63,12.14,51.22,20.24,42.61,23.63z"/>
					</g>
				</g>
			</g>
		</g>
	</g>
	<g>
		<g>
			<path class="st0" d="M34.98,14.62c0,0.03-0.02,0.04-0.06,0.03c-0.02,0-0.06-0.01-0.1-0.02c-0.05-0.01-0.08-0.02-0.1-0.02
				c-0.02,0-0.06-0.01-0.11-0.01c-0.05,0-0.08-0.01-0.1-0.01c-0.03,0-0.05-0.02-0.05-0.05c0-0.15,0.01-0.36,0.02-0.66
				c0.01-0.29,0.02-0.51,0.02-0.66c0-0.14-0.01-0.36-0.02-0.64c-0.01-0.28-0.02-0.5-0.02-0.64c0-0.03,0.01-0.05,0.04-0.05
				c0.02,0,0.06-0.01,0.11-0.01c0.05,0,0.09-0.01,0.11-0.01c0.02,0,0.06-0.01,0.1-0.02c0.05-0.01,0.08-0.02,0.1-0.02
				c0.03,0,0.05,0.01,0.05,0.03c0,0.15-0.01,0.38-0.02,0.68c-0.01,0.3-0.02,0.53-0.02,0.68c0,0.16,0.01,0.39,0.02,0.7
				C34.98,14.23,34.98,14.47,34.98,14.62z"/>
			<path class="st0" d="M37.79,11.55c0,0.19,0,0.48-0.02,0.86c-0.01,0.38-0.01,0.67-0.01,0.86c0,0.18,0,0.45,0,0.81s0,0.63,0,0.81
				c0,0.05-0.02,0.08-0.05,0.08c-0.02,0-0.05-0.01-0.09-0.01c-0.04-0.01-0.07-0.01-0.09-0.02c-0.02,0-0.05,0-0.09,0
				c-0.04,0-0.07,0-0.09,0c-0.02,0-0.05-0.03-0.08-0.09c-0.28-0.5-0.69-1.22-1.25-2.06c-0.09-0.13-0.14-0.2-0.15-0.21
				c-0.01,0-0.02,0.03-0.02,0.09c0,0.22,0,0.56,0.01,1.01c0.01,0.45,0.01,0.79,0.01,1.02c0,0.05-0.01,0.07-0.04,0.07
				c-0.02,0-0.06-0.01-0.1-0.02c-0.04-0.01-0.08-0.02-0.1-0.02c-0.02,0-0.06-0.01-0.1-0.01c-0.04,0-0.08,0-0.1-0.01
				c-0.03,0-0.05-0.02-0.05-0.05c0-0.15,0.01-0.39,0.02-0.7c0.01-0.31,0.02-0.54,0.02-0.7c0-0.17-0.01-0.48-0.02-0.92
				c0-0.11-0.01-0.29-0.02-0.52c0-0.01,0-0.02,0-0.03c0-0.02,0.01-0.04,0.05-0.04c0.08-0.01,0.15-0.02,0.19-0.03
				c0.02,0,0.05-0.01,0.1-0.03c0.04-0.01,0.08-0.02,0.1-0.03c0.01,0,0.03,0.02,0.06,0.06c0.29,0.43,0.74,1.1,1.35,2.12
				c0.03,0.04,0.05,0.08,0.08,0.11c0.01-0.07,0.01-0.22,0.01-0.46c0-0.21-0.01-0.53-0.02-0.94c-0.01-0.42-0.02-0.73-0.02-0.94
				c0-0.05,0.01-0.08,0.04-0.08c0.02,0,0.06,0,0.1,0c0.05,0,0.08,0,0.1,0c0.02,0,0.06-0.01,0.11-0.02c0.05-0.01,0.09-0.01,0.11-0.02
				C37.78,11.5,37.79,11.52,37.79,11.55z"/>
			<path class="st0" d="M39.98,11.86c0,0.05-0.01,0.07-0.03,0.07c-0.04,0-0.26,0-0.68-0.01c-0.01,0.54-0.02,0.97-0.02,1.29
				c0,0.2,0.01,0.51,0.02,0.91c0.01,0.41,0.02,0.71,0.02,0.91c0,0.04-0.02,0.05-0.06,0.05c-0.02,0-0.06-0.01-0.1-0.01
				c-0.05-0.01-0.08-0.01-0.11-0.02c-0.02,0-0.06,0-0.1,0c-0.05,0-0.08,0-0.11,0c-0.03,0-0.05-0.02-0.05-0.07
				c0-0.2,0.01-0.49,0.02-0.89c0.01-0.39,0.02-0.69,0.02-0.89c0-0.31-0.01-0.73-0.02-1.27c-0.33,0.04-0.57,0.07-0.73,0.08
				c-0.01,0-0.02-0.01-0.02-0.02c0-0.03,0.01-0.08,0.02-0.13c0.01-0.07,0.02-0.12,0.02-0.13c0.01-0.06,0.01-0.14,0.03-0.25
				c0.01-0.02,0.02-0.03,0.03-0.04c0.01,0,0.01,0,0.02,0c0.45,0,0.75,0,0.9-0.01c0.13-0.01,0.34-0.03,0.63-0.08
				c0.2-0.03,0.28-0.04,0.25-0.04c0.03,0,0.05,0.01,0.06,0.05c0-0.02,0,0.07,0,0.26c0,0.02,0,0.06,0.01,0.11
				C39.98,11.8,39.98,11.84,39.98,11.86z"/>
			<path class="st0" d="M42.04,14.63c0,0.03-0.01,0.07-0.02,0.13C42.01,14.83,42,14.87,42,14.89c-0.01,0.06-0.01,0.16-0.03,0.29
				c-0.01,0.03-0.02,0.05-0.05,0.05c-0.01,0-0.04,0-0.07-0.01c-0.16-0.04-0.4-0.06-0.73-0.06c-0.09,0-0.23,0-0.42,0
				c-0.19,0-0.33,0-0.42,0c-0.04,0-0.06-0.03-0.06-0.08c0-0.2,0.01-0.51,0.02-0.91c0.02-0.41,0.02-0.71,0.02-0.91
				c0-0.21-0.01-0.59-0.02-1.15c0-0.14-0.01-0.36-0.02-0.65c0-0.02,0-0.02,0-0.04c0-0.04,0.02-0.06,0.05-0.06
				c0.09,0,0.22-0.01,0.4,0c0.18,0,0.31,0,0.4,0c0.09,0,0.21-0.01,0.39-0.02c0.17-0.01,0.3-0.02,0.39-0.02
				c0.06,0,0.09,0.03,0.1,0.08c0.03,0.24,0.04,0.4,0.04,0.45c0,0.04-0.01,0.06-0.04,0.06c-0.11,0-0.27-0.01-0.5-0.02
				c-0.22-0.01-0.39-0.02-0.5-0.02c-0.1,0-0.17,0.02-0.2,0.06c-0.03,0.04-0.04,0.14-0.04,0.3c0,0.16,0,0.24,0,0.41
				c0,0.11,0,0.18,0.01,0.19c0.01,0.06,0.05,0.08,0.1,0.08c0.01,0,0.04,0,0.06,0c0.03,0,0.05,0,0.07,0c0.25,0,0.48-0.01,0.68-0.02
				c0.08,0,0.17-0.01,0.28-0.03c0.03,0,0.04,0.01,0.04,0.05c0,0.06,0,0.15-0.01,0.27c-0.01,0.12-0.01,0.21-0.01,0.27
				c0,0.03-0.02,0.05-0.06,0.05c-0.02,0-0.07-0.01-0.17-0.02c-0.07-0.01-0.23-0.02-0.48-0.02c-0.21,0-0.35,0-0.4,0.01
				c-0.05,0.01-0.08,0.04-0.09,0.11c0-0.01,0,0.06,0,0.21c0,0.16,0,0.24,0,0.4c0,0.19,0.02,0.31,0.06,0.36
				c0.03,0.04,0.11,0.06,0.24,0.06c0.08,0,0.13,0,0.21,0c0.09,0,0.34-0.02,0.76-0.06c0.01,0,0.02,0,0.03,0
				C42.02,14.56,42.04,14.58,42.04,14.63z"/>
			<path class="st0" d="M44.41,15.14c0,0.01-0.01,0.02-0.03,0.02c-0.02,0-0.06,0-0.11,0c-0.05,0-0.09-0.01-0.11-0.01
				c-0.03,0-0.07,0-0.12,0.01c-0.05,0.01-0.09,0.01-0.12,0.01c-0.03,0-0.05-0.02-0.07-0.07c-0.04-0.12-0.16-0.51-0.35-1.16
				c-0.02-0.07-0.07-0.11-0.14-0.12c-0.02,0-0.08,0-0.18,0c-0.18,0-0.28,0-0.31,0.01c-0.03,0.01-0.04,0.05-0.04,0.14
				c0,0.13,0,0.32,0.01,0.58c0.01,0.26,0.01,0.45,0.01,0.58c0,0.04-0.01,0.06-0.04,0.06c-0.03,0-0.06,0-0.12-0.01
				c-0.05-0.01-0.09-0.01-0.12-0.01c-0.02,0-0.05,0-0.1,0.01c-0.04,0.01-0.08,0.01-0.1,0.01c-0.03,0-0.05-0.02-0.05-0.06
				c0-0.21,0.01-0.51,0.02-0.93c0.01-0.41,0.02-0.72,0.02-0.93c0-0.59-0.01-1.21-0.04-1.87c0-0.02,0-0.03,0-0.04
				c0-0.04,0.03-0.06,0.08-0.06c0.11,0,0.28,0,0.5-0.01c0.22-0.01,0.38-0.01,0.49-0.01c0.28,0,0.51,0.11,0.68,0.31
				c0.19,0.22,0.28,0.52,0.28,0.92c0,0.27-0.03,0.48-0.08,0.64c-0.05,0.16-0.15,0.32-0.3,0.47c-0.02,0.02-0.04,0.05-0.04,0.07
				c0,0.03,0.08,0.27,0.23,0.73C44.34,14.87,44.41,15.11,44.41,15.14z M43.89,12.65c0-0.33-0.07-0.55-0.2-0.67
				c-0.1-0.08-0.28-0.13-0.53-0.13c-0.21,0-0.31,0.02-0.32,0.07c-0.01,0.1-0.01,0.37-0.01,0.8c0,0.21,0,0.32,0,0.53
				c0,0,0.01,0.01,0.03,0.01c0.02,0.01,0.06,0.01,0.11,0.01c0.12,0.01,0.25,0.01,0.39,0.01C43.71,13.3,43.89,13.08,43.89,12.65z"/>
			<path class="st0" d="M45.2,15.07c0,0.04-0.02,0.06-0.05,0.06c-0.02,0-0.06,0-0.11,0c-0.05,0-0.08,0-0.11,0
				c-0.02,0-0.06,0.01-0.11,0.01c-0.05,0.01-0.08,0.01-0.11,0.01c-0.03,0-0.05-0.02-0.05-0.06c0-0.21,0.01-0.52,0.02-0.93
				c0.01-0.42,0.02-0.73,0.02-0.94c0-0.2-0.01-0.5-0.02-0.9c-0.01-0.4-0.02-0.71-0.02-0.91c0-0.05,0.01-0.07,0.04-0.07
				c0.02,0,0.06,0.01,0.11,0.01c0.05,0.01,0.09,0.01,0.11,0.01c0.02,0,0.06,0,0.1,0c0.05,0,0.08,0,0.1,0c0.03,0,0.05,0.02,0.05,0.06
				c0,0.2,0,0.5-0.02,0.9c-0.01,0.4-0.01,0.7-0.01,0.9c0,0.21,0,0.52,0.02,0.93C45.2,14.55,45.2,14.86,45.2,15.07z"/>
			<path class="st0" d="M48.14,13.24c0,0.47-0.12,0.87-0.36,1.23c-0.25,0.37-0.57,0.59-0.94,0.62c-0.38,0.03-0.69-0.13-0.94-0.51
				c-0.24-0.36-0.37-0.81-0.37-1.34c0-0.52,0.12-0.98,0.37-1.34c0.25-0.38,0.57-0.55,0.94-0.51c0.37,0.03,0.69,0.25,0.94,0.63
				C48.02,12.37,48.14,12.78,48.14,13.24z M47.68,13.23c0-0.32-0.08-0.59-0.23-0.84c-0.16-0.26-0.37-0.4-0.62-0.42
				c-0.24-0.01-0.45,0.11-0.61,0.37c-0.15,0.25-0.23,0.55-0.23,0.89c0,0.34,0.08,0.64,0.23,0.88c0.16,0.26,0.37,0.39,0.61,0.37
				c0.25-0.01,0.45-0.16,0.62-0.42C47.6,13.83,47.68,13.55,47.68,13.23z"/>
			<path class="st0" d="M50.52,14.57c0,0.01-0.01,0.02-0.03,0.02c-0.02,0-0.06,0.01-0.11,0.01c-0.05,0-0.09,0.01-0.11,0.01
				c-0.03,0-0.07,0.01-0.12,0.02c-0.05,0.01-0.09,0.02-0.12,0.02c-0.03,0-0.05-0.01-0.07-0.04c-0.04-0.09-0.16-0.35-0.35-0.84
				c-0.02-0.05-0.07-0.08-0.14-0.09c-0.02,0-0.08,0-0.17,0c-0.18,0.01-0.28,0.01-0.31,0.02c-0.03,0.01-0.04,0.04-0.04,0.11
				c0,0.1,0,0.26,0.01,0.47c0.01,0.21,0.01,0.36,0.01,0.46c0,0.03-0.01,0.05-0.04,0.05c-0.03,0-0.06,0.01-0.12,0
				c-0.05,0-0.09,0-0.12,0c-0.02,0-0.05,0.01-0.1,0.02c-0.04,0.01-0.08,0.02-0.1,0.02c-0.03,0-0.05-0.01-0.05-0.05
				c0-0.17,0.01-0.43,0.02-0.77c0.01-0.34,0.02-0.6,0.02-0.77c0-0.48-0.01-1-0.04-1.55c0-0.02,0-0.02,0-0.04
				c0-0.03,0.03-0.04,0.08-0.04c0.11,0.01,0.27,0.03,0.49,0.05c0.22,0.02,0.38,0.04,0.49,0.05c0.28,0.04,0.51,0.14,0.68,0.31
				c0.19,0.18,0.28,0.4,0.28,0.68c0,0.19-0.03,0.34-0.08,0.45c-0.05,0.12-0.15,0.23-0.3,0.34c-0.02,0.02-0.04,0.04-0.04,0.05
				c0,0.02,0.08,0.2,0.23,0.52C50.44,14.4,50.52,14.55,50.52,14.57z M50,12.81c0-0.24-0.07-0.41-0.2-0.51
				c-0.1-0.07-0.27-0.12-0.53-0.14c-0.21-0.02-0.31-0.01-0.32,0.03c-0.01,0.08-0.01,0.29-0.01,0.64c0,0.17,0,0.25,0,0.42
				c0,0,0.01,0.01,0.03,0.01c0.02,0,0.06,0.01,0.11,0.01c0.12,0.01,0.25,0.01,0.39,0.01C49.82,13.28,50,13.12,50,12.81z"/>
		</g>
	</g>
</g>
</svg>
