<?xml version="1.0" encoding="utf-8"?>
<!-- Generator: Adobe Illustrator 28.2.0, SVG Export Plug-In . SVG Version: 6.00 Build 0)  -->
<svg version="1.1" id="Слой_1" xmlns="http://www.w3.org/2000/svg" xmlns:xlink="http://www.w3.org/1999/xlink" x="0px" y="0px"
	 viewBox="0 0 84.2 156.9" style="enable-background:new 0 0 84.2 156.9;" xml:space="preserve">
<style type="text/css">
	.st0{fill:#1D1D1B;}
</style>
<g>
	<g>
		<path d="M19.2,145.8c-0.7,0.3-1.1,0.9-1.1,1.6c0,2.7-0.1,5.5,0.1,8.2c0.1,1-0.2,1.2-1.3,1.1c-0.4-0.5-0.4-1.2-0.4-1.8
			c0-2.7,0-5.4,0-8.1c0-0.3,0.1-0.6-0.1-0.8c-0.8-0.1-1.4,0.6-1.4,1.6c0,1.1-0.1,2.3,0,3.5c0.1,1.7-0.1,3.4,0,5.2
			c0,0.1,0,0.3-0.1,0.4c-0.4,0.2-0.8,0.2-1.2,0.1c-0.2-0.4-0.3-0.8-0.3-1.2c0-3.1-0.1-6.2-0.1-9.3c0-0.5-0.1-1.1,0-1.6
			c0.4-0.2,0.8-0.2,1.2-0.2c0.2,0.2,0.2,0.4,0.3,0.7c0.5-0.3,0.9-0.8,1.6-0.7c0.6,0,1.1,0.2,1.2,0.9c0.3-0.1,0.4-0.4,0.6-0.5
			c0.5-0.5,1.2-0.6,1.9-0.4c0.6,0.2,0.9,0.7,0.9,1.3c0.1,1.1,0,2.2,0,3.2c0,2.2-0.1,4.5,0,6.7c0,0.9-0.2,1.2-0.8,1.2
			c-0.5,0-0.7-0.2-0.8-0.7c0-0.4-0.1-0.8-0.1-1.2c0-2.7,0-5.3,0.1-8C19.7,146.5,19.7,146.1,19.2,145.8z"/>
		<path d="M5.7,143.9c0-0.7,0-1.4-0.2-2.1c-0.3-2-0.9-2.4-3-2.3c-0.8,0.1-1.3,0.4-1.6,1.1c-0.4,0.8-0.6,1.6-0.7,2.4
			C0,147.2,0,151.3,0,155.4c0,0.4-0.2,0.8,0.2,1.2c0.4,0.2,0.8,0.2,1.3,0.1c0.1-2.6-0.1-5.2,0.2-7.8c0.8,0.1,1.5-0.2,2.3,0v7.7
			c0.7,0.3,1.1,0.2,1.7-0.1c0-0.2,0-0.4,0-0.6C5.7,151.9,5.7,147.9,5.7,143.9z M1.8,147.5c0-0.1-0.1-0.1-0.1-0.1
			c0.1-1.7,0.1-3.4,0.4-5.1c0.1-1,0.7-1.3,1.8-0.9c0.3,2,0.2,3.9,0.2,5.9C3.3,147.4,2.5,147.4,1.8,147.5z"/>
		<path d="M12.1,154c-0.1-4.5-0.1-9-0.2-13.5c0-0.2,0-0.5-0.2-0.7c-0.3-0.1-0.6-0.2-1,0c-0.4,1.4-0.2,3-0.3,4.6
			c-0.7-0.2-1.2-0.2-1.7,0.1c-0.6,0.4-0.9,1.1-1,1.7c-0.5,2.9-0.4,5.9-0.1,8.9c0.2,1.6,1.7,2.1,3.1,1.3c0.6,0.4,0.8,0.4,1.5,0
			C12.1,155.7,12.2,154.9,12.1,154z M10.5,154.6c0,0.8-0.2,0.9-0.9,0.9c-0.5-0.5-0.7-1.3-0.7-2c-0.2-2.2-0.3-4.4,0.1-6.7
			c0.1-0.5,0.3-0.9,0.8-1.2c0.6,0.2,0.6,0.7,0.7,1.1c0.1,0.7,0.1,1.3,0.1,2C10.5,150.6,10.5,152.6,10.5,154.6z"/>
		<path d="M78.2,150.1v-1.9c0-0.6,0-1.3-0.1-1.9c0-0.7-0.3-1.2-0.9-1.6c-1.5-0.9-3.2-0.2-3.6,1.5c-0.1,0.3-0.1,0.6-0.1,0.9
			c-0.2,2.2,0,4.5,0,6.8c0,0.5,0.1,0.9,0.3,1.4c0.6,1.5,1.9,2,3.2,1.4c0.8-0.4,1.1-1.1,1.2-1.9C78.4,153.1,78.3,151.6,78.2,150.1z
			 M76.8,154.1c0,0.6-0.2,1.1-0.8,1.2c-0.5-0.1-0.7-0.4-0.7-0.8c0-0.5-0.1-1.1-0.1-1.6c0.1-2.1-0.1-4.1,0.1-6.2c0-0.4,0.1-0.7,0.4-1
			c0.6-0.1,0.8,0.2,0.9,0.8c0.2,1.1,0.2,2.1,0.2,3.2C76.8,151.1,76.8,152.6,76.8,154.1z"/>
		<path d="M35.2,144.7c-0.4-0.2-0.7-0.5-1-0.5c-0.2,0.1-0.5,0.2-0.8,0.1c-0.7-0.2-1.3,0-1.7,0.6c-0.4,0.5-0.7,1-0.9,1.6
			c-0.5,1.6-0.4,3.3-0.4,4.9c0,1.3,0.1,2.6,0.5,3.9c0.6,1.5,1.3,1.8,2.8,1.2c0,0,0.1,0,0.1,0c0.4,0.5,0.9,0.4,1.7,0.3
			C35,152.7,35.2,148.7,35.2,144.7z M33.6,152.4c0,1,0.1,2,0,3c-0.6,0.3-0.9,0.3-1.2-0.3c-0.3-0.6-0.4-1.2-0.5-1.8
			c-0.1-2-0.2-4,0-6.1c0-0.4,0.2-0.8,0.4-1.1c0.2-0.4,0.4-0.7,0.9-0.7c0.4,0.3,0.4,0.8,0.5,1.2C33.9,148.6,33.6,150.5,33.6,152.4z"
			/>
		<path d="M49.5,156.8c-0.3,0.1-0.7,0.1-1.1-0.2c-0.2-3.9,0-7.8-0.3-11.8c0.3-0.3,0.7-0.4,1.1-0.4c0.3,0.2,0.2,0.5,0.3,0.8
			c0.3-0.2,0.5-0.5,0.8-0.7c0.8-0.6,1.8-0.3,2.2,0.6c0.2,0.4,0.2,0.8,0.3,1.3c0,3.1,0.1,6.2,0.1,9.3c0,0.9-0.2,1.1-1.2,1
			c-0.3-0.6-0.2-1.2-0.3-1.9c0-2.8-0.1-5.6-0.1-8.4c0-0.3,0.1-0.6-0.2-0.8c-0.8,0.2-1.3,0.8-1.3,1.8c0,1.4,0,2.8,0,4.1
			c0,1.4,0,2.8,0,4.1C49.8,156.1,49.9,156.5,49.5,156.8z"/>
		<path d="M63.6,152.9c-0.5-0.3-0.9-0.4-1.4-0.1c-0.2,0.6,0,1.2-0.2,1.8c-0.1,0.7-0.4,0.9-1.1,0.8c-0.5-1.4-0.3-2.8-0.4-4.2
			c0.2-0.1,0.2-0.1,0.3-0.1c1.9-0.9,2.7-2.5,2.7-4.5c0-0.6-0.2-1-0.6-1.4c-1.1-1.3-3-1-3.5,0.6c-0.1,0.4-0.2,0.8-0.3,1.2
			c-0.3,2-0.2,3.9-0.1,5.9c0,1,0,1.9,0.4,2.9c0.3,0.8,0.8,1.2,1.7,1.3c0.9,0.1,1.7-0.1,2.2-1C63.7,154.9,63.7,153.9,63.6,152.9z
			 M60.9,145.7c0.8,0,1.2,0.3,1.2,1c0,1.3-0.4,2.1-1.6,2.9C60.6,148.2,60.3,146.9,60.9,145.7z"/>
		<path d="M44.2,140.9c-0.3-0.1-0.6-0.1-0.8-0.2c-0.3-0.3-0.3-0.6-0.2-1.1c1.2-0.3,2.3-0.1,3.5-0.1c0.2,0.4,0.2,0.7,0,0.9
			c-0.2,0.2-0.5,0.2-0.8,0.3c0,4.8,0,9.6,0,14.4c0.2,0.3,0.6,0.2,0.8,0.3c0.2,0.3,0.2,0.6,0,1.1c-1,0.3-2,0-3,0.1
			c-0.3-0.4-0.3-0.8-0.2-1.1c0.2-0.2,0.5-0.1,0.8-0.3C44.2,150.5,44.2,145.7,44.2,140.9z"/>
		<path d="M57.1,155.9c-0.2,0.5-0.4,0.8-0.9,0.9c-0.5,0.1-0.8-0.3-1-0.6c-0.5-0.7-0.5-1.5-0.5-2.3c-0.1-2.4,0-4.8,0-7.2
			c0-0.2,0-0.5,0-0.8c-0.3,0-0.5-0.1-0.7-0.1c-0.2-0.4-0.1-0.8-0.1-1.2c0.3-0.3,0.6-0.1,0.9-0.2c0.2-1.4,0-2.9,0.1-4.4
			c0.5-0.2,0.8-0.2,1.3-0.1c0.2,1.5,0.1,3,0.1,4.5c0.6,0.2,1.2-0.1,1.8,0.3c0.2,0.4,0.1,0.7-0.1,1.1c-0.5,0.2-1,0-1.6,0.1
			c-0.1,1.7-0.2,3.4-0.2,5.1C56.3,152.7,56.1,154.4,57.1,155.9z"/>
		<path d="M38.5,156.5c-0.5,0.3-1,0.4-1.7,0.1c0.2-5.6,0.2-11.2,0.2-16.8c0.5-0.3,0.9-0.2,1.3,0c0.2,0.4,0.2,0.8,0.2,1.3
			c0,4.1,0,8.1,0,12.2C38.4,154.4,38.4,155.5,38.5,156.5z"/>
		<path d="M68.6,146.5c-0.3-0.1-0.4-0.4-0.5-0.6c-0.2-0.3-0.5-0.5-0.9-0.4c-0.4,0.1-0.6,0.4-0.7,0.8c-0.1,0.2,0,0.5,0,0.7
			c0,2.7,0,5.5,0,8.2c0,0.5,0,1-0.2,1.4c-0.4,0.2-0.7,0.2-1.2,0c0-3.9,0-7.9,0-12c0.4-0.3,0.8-0.2,1.3,0c0.5-0.3,1.1-0.5,1.7-0.4
			c0.5,0.1,0.9,0.3,1.2,0.8C69.8,145.8,69.6,146.3,68.6,146.5z"/>
		<path d="M29.5,146.5c-0.3-0.1-0.3-0.4-0.5-0.6c-0.2-0.3-0.5-0.5-0.9-0.4c-0.4,0.1-0.7,0.4-0.8,0.8c0,0.2,0,0.5,0,0.7
			c0,2.7,0,5.4,0,8.2c0,0.5,0,1-0.2,1.4c-0.4,0.2-0.7,0.2-1.1,0.1c-0.2-0.5-0.4-9.7-0.2-12c0.4-0.3,0.9-0.2,1.3-0.1
			c0.5-0.3,1.1-0.5,1.8-0.4c0.6,0.1,1,0.4,1.2,0.9C30.6,145.9,30.3,146.3,29.5,146.5z"/>
		<path d="M80.9,156.7c-0.3,0.1-0.7,0.1-1.1,0c0-3.9,0-7.9,0-12c0.3-0.3,0.8-0.2,1.3,0c0.5-0.3,1.1-0.5,1.8-0.4
			c0.5,0.1,0.9,0.4,1.2,0.8c0.4,0.7,0.2,1.2-0.6,1.5c-0.3-0.1-0.4-0.4-0.6-0.6c-0.2-0.3-0.5-0.5-0.9-0.4c-0.4,0.1-0.7,0.4-0.7,0.9
			c0,0.2,0,0.5,0,0.7c0,2.9,0.1,5.9-0.1,8.8C81.1,156.1,81.1,156.4,80.9,156.7z"/>
		<path d="M22.7,144.5c0.4-0.2,0.8-0.3,1.2-0.2c0.3,0.2,0.4,0.6,0.4,0.9c-0.1,1.7,0,3.4,0,5.1c0,1.6-0.1,3.3,0,5
			c0,0.5,0,0.9-0.2,1.4c-0.4,0.2-0.8,0.1-1.1,0.1c-0.2-0.4-0.3-0.9-0.3-1.4C22.6,151.7,22.8,148.1,22.7,144.5z"/>
		<path d="M71.8,156.7c-0.4,0.1-0.7,0.1-1.1,0c-0.3-0.6-0.3-1.2-0.3-1.8c0-3.4,0.1-6.9,0-10.3c0,0,0-0.1,0-0.2
			c0.4-0.2,0.8-0.3,1.2-0.2c0.3,0.2,0.4,0.6,0.4,0.9c-0.1,1.8,0,3.6,0,5.4c0,1.8,0,3.6-0.1,5.4C71.9,156.2,72,156.4,71.8,156.7z"/>
		<path d="M22.8,141.6c0.4-0.3,0.8-0.3,1.3-0.2c0.2,0.7,0.3,1.4-0.2,1.9c-0.2,0.3-0.6,0.2-1,0C22.6,142.8,22.8,142.2,22.8,141.6z"/>
		<path d="M71.9,141.5c0.3,1.7-0.1,2.3-1.2,1.9c-0.3-0.6-0.3-1.2-0.2-1.8C71,141.3,71.4,141.3,71.9,141.5z"/>
	</g>
</g>
<g>
	<g>
		<g>
			<g>
				<path d="M12.1,45.2c0-2.4-0.3-4.8-0.5-7.3c0-0.4-0.3-0.6-0.6-0.7c-1.1-0.5-2.3-0.9-3.4-1.4c-4.7-2-7.8-7-7.6-12.2
					c0.2-3.9,2-7,4.8-9.5c3.7-3.3,7.6-6.2,12.2-8.1c4.8-2.1,9.6-4.1,14.9-5.1c2.6-0.5,5.3-0.6,8-0.8c6-0.3,11.8,0.7,17.5,2
					c9,2.1,16.6,6.5,23,13.1c0.8,0.8,1.4,1.7,2.1,2.6c2.6,3.4,2.4,6.9,0.6,10.5c-1,2-2.5,3.5-4.4,4.7c-1.5,1-3.1,2.1-4.7,3
					c-0.4,0.2-0.6,0.5-0.7,0.8c-0.6,1.7-0.8,3.5-0.9,5.2c-0.3,2.6-0.5,5.3-0.8,7.9c-0.1,1-0.1,1,0.8,1c1.4-0.1,2.3,0.7,2.4,2.1
					c0.1,1.6-0.4,3.1-0.8,4.7c-0.6,2.5-1.2,5.1-2.4,7.4c-0.5,0.9-0.5,1.9-0.4,2.9c0.1,1.8,0.2,3.6,0.4,5.5c0,0.1,0,0.3,0,0.4
					c0,1.3,0,1.3,1.2,1.4c2.2,0.1,4.5,0.1,6.6-0.8c0.3-0.2,0.7-0.3,1,0.2c0.2,0.5-0.2,0.7-0.5,0.8c-2.9,1.1-5.3,3.2-7.9,4.8
					c-0.3,0.2-0.4,0.4-0.3,0.8c0.5,4.8,0.7,9.6,1.6,14.3c0.3,1.8,0.2,3.7,0.3,5.5c0.3,2.9,0.5,5.9,0.9,8.8c0.2,1.4-0.1,2.8-0.8,4
					c-2,3.6-4.6,6.9-8.1,9.2c-1.9,1.2-3.6,2.6-4.8,4.6c-0.5,0.9-1.3,1.5-2.2,1.8c-1,0.3-1.9,1-2.6,1.8c-0.6,0.7-1.4,1.2-2.4,1.3
					c-0.5,0.1-0.9,0.2-1.4,0.4c-0.9,0.3-1.7,0.4-2.6,0c-0.4-0.2-0.7-0.1-1,0.2c-0.5,0.6-1.2,0.7-1.9,0.5c-1.4-0.4-2.8-0.5-4.2,0.1
					c-0.3,0.1-0.7,0.1-1,0c-2.8-0.8-5.6-1.5-8.3-2.7c-0.1-0.1-0.2-0.1-0.4-0.1c-1.9-0.2-3.4-1.1-5.1-1.8c-1.2-0.4-2.5-0.7-3.5-1.5
					c-1.1-0.9-2.3-1.5-3.7-1.9c-0.6-0.2-1.1-0.6-1.4-1.2c-0.1-0.3-0.4-0.4-0.6-0.5c-1.6-0.5-2.6-1.9-3.8-2.9
					c-0.1-0.1-0.2-0.2-0.3-0.4c-0.9-2.6-2.4-4.9-3.1-7.6c-0.4-1.4-0.2-2.8,0-4.2c0.2-1.6,0.2-3.3,0.1-4.9c-0.4-4.9-0.1-9.7,0.3-14.5
					c0.2-2.2,0.2-4.3,0.4-6.5c0-0.6-0.1-0.9-0.6-1.3c-2-1.9-3.7-4-5.1-6.3c-0.2-0.3-0.4-0.6-0.1-0.9c0.3-0.3,0.6-0.2,1-0.1
					c1.5,0.7,3.1,1.2,4.7,1.5c0.5,0.1,0.6,0,0.6-0.5c-0.5-4.3-1-8.7-2.7-12.7c-1.2-2.9-1.7-5.9-1.7-9c0-0.4,0-0.8,0.1-1.1
					c0.4-1.4,1.4-1.9,2.7-1.4c0.6,0.3,0.7,0,0.8-0.5C12.1,48.7,12.2,47,12.1,45.2z M41,46.5L41,46.5c-1.6,0-3.2,0-4.7,0
					c-0.6,0-0.9,0.1-0.8,0.8c0.3,4.3,0.4,8.7,0.5,13c0,1.7,0.2,3.4-0.4,5c-0.4,1.1-1,1.5-2.2,1.4c-0.6-0.1-1.1-0.2-1.7-0.3
					c-0.7-0.1-1.4-0.2-2,0.4c-0.8,0.7-1.3,2.4-0.9,3.6c0.4,1.3,1.4,1.4,2.5,1.5c2.6,0.1,4.8,0.9,6.8,2.6c0.8,0.7,1.7,1.3,2.6,1.8
					c1.3,0.7,2.6,0.9,4,0.3c1-0.4,1.8-1.1,2.6-1.8c1.5-1.4,3.2-2.7,5.3-3.1c0.2-0.1,0.5-0.2,0.7-0.3c1.3-0.7,1.8-2,1.4-3.5
					c-0.5-1.6-1.7-2.4-3.2-2.1c-0.6,0.1-1.2,0.2-1.8,0.3c-2,0.3-2.9-0.4-2.9-2.3c0-1.3,0.1-2.7,0.2-4c0.2-4.2-0.6-8.4-0.4-12.7
					c0-0.5-0.3-0.5-0.7-0.5C44.2,46.5,42.6,46.5,41,46.5z M41.3,30.5c0.1-1.2,0.1-2.4,0.2-3.5c0-0.3,0-0.7,0.4-0.7
					c0.5,0,0.4,0.4,0.4,0.8c-0.3,2.5-0.1,5.1,0,7.6c0,0.4,0.1,0.6,0.6,0.6c1.4,0,2.9,0,4.3,0.1c0.6,0.1,0.7-0.2,0.7-0.7
					c0.1-1.3,0.3-2.5,0.6-3.8c0.9-3.9,2.5-7.6,3.9-11.3c0.8-2,1.2-4.1,1.3-6.3c0.1-3.8-0.9-7.4-2.3-11C51.2,2,51,1.9,50.6,1.8
					c-2.4-0.5-4.9-0.6-7.3-0.7c-0.5,0-0.7,0.2-0.7,0.7c0,0.9,0,1.8,0,2.7c0,0.3,0,0.6-0.4,0.6c-0.4,0-0.3-0.3-0.3-0.6
					c0-0.9,0-1.9,0-2.8c0-0.4-0.1-0.6-0.5-0.6c-2.8,0.1-5.5,0.1-8.3,0.6c-0.4,0.1-0.7,0.3-0.8,0.7c-0.3,1-0.6,1.9-0.9,2.9
					C30,10.4,29.9,15.5,32,20.5c1.9,4.7,3.4,9.5,3.8,14.6c0,0.5,0.3,0.4,0.6,0.4c1.4,0,2.9-0.2,4.3-0.1c0.7,0,0.9-0.3,0.8-0.9
					C41.4,33.1,41.4,31.8,41.3,30.5z M55,71.3c2.1,0.2,4,0.8,5.7,1.6c0.8,0.4,1.3,0.1,1.8-0.5c0.7-1,1.5-1.9,2.4-2.8
					c2-1.9,2.7-4.2,2.7-6.8c0-4.9,0.3-9.8,0.1-14.6c0-1,0-1-1-0.7c-4.8,1.5-9.4,3.4-14.1,5.1c-1,0.3-1.8,0.8-2.7,1.4
					c-0.6,0.5-1.1,1.1-1.3,1.8c-0.6,2.4-1,4.8-0.8,7.2c0.1,1.6,0.8,2.1,2.3,1.6c2.4-0.7,4.8,0.5,5.5,2.9C56,68.9,55.8,70.1,55,71.3z
					 M32.4,54c-0.2-0.1-0.4-0.2-0.6-0.3c-1.8-0.8-3.6-1.5-5.4-2.1c-3.3-1-6.6-2-9.8-3c-0.3-0.1-0.6-0.3-0.6,0.2
					c-0.1,1.6-0.2,3.3-0.2,4.9c0.1,3.3,0.7,6.5,1.4,9.8c0.4,1.7,0.7,3.5,1.9,4.9c1.2,1.3,2.3,2.6,3.3,4c0.2,0.3,0.4,0.4,0.8,0.2
					c1-0.7,2.2-1.2,3.5-1.4c0.8-0.1,0.9-0.4,0.8-1.2c-0.5-3.1,1.8-5.2,4.9-4.6c0.1,0,0.2,0.1,0.3,0.1c1.3,0.2,1.7-0.1,1.9-1.5
					c0.3-2.3,0.2-4.6,0.1-6.9c0-0.8-0.2-1.6-0.9-2.2c-0.1-0.1-0.3-0.5-0.5-0.1c-0.2,0.5-0.5,0.3-0.9,0.3c-0.5-0.1-1-0.2-1.5-0.3
					c-0.2,0-0.3-0.1-0.4,0.2c-0.3,1.2-1.3,1.7-2.4,1.1c-0.5-0.2-0.8-0.7-0.6-1.2c0.2-0.6,0-0.6-0.5-0.6c-1.9,0-3.8,0.2-5.6,0.6
					c-0.3,0.1-0.7,0.3-0.9-0.2c-0.2-0.6,0.4-0.6,0.7-0.7c1.8-0.4,3.5-0.6,5.3-0.7C28.6,53.4,30.5,53.6,32.4,54z M59,3.7
					C59,3.9,59,4,59,4.1c1.3,3.7,1.3,7.4,0.5,11.1c-0.8,3.4-2,6.5-3,9.8c-1,3.3-2,6.7-3.1,10c-0.1,0.2-0.3,0.5,0,0.8
					c0.4,0.4,2.2,0.2,2.5-0.2c1-1.4,2.1-2.7,3-4.1c2.8-4.1,5.4-8.3,6.6-13.1c1.1-4.4,0.8-8.6-1.7-12.6c-0.1-0.2-0.3-0.5-0.5-0.6
					C61.9,4.6,60.5,4.1,59,3.7z M25.8,3.6c-1.5,0.4-2.9,1-4.2,1.7c-0.1,0.1-0.2,0.2-0.3,0.4c-1.1,1.9-1.8,3.9-2,6.1
					c-0.3,3.5,0.5,6.8,1.8,9.9c2,4.8,4.9,9,7.9,13.1c0.7,1,1.4,1.2,2.5,0.9c-0.2-0.7-0.5-1.4-0.7-2.2c-2-5.7-4.1-11.3-5.4-17.3
					c-0.7-3.1-1.2-6.2-0.6-9.4C25.1,5.8,25.5,4.8,25.8,3.6z M48.1,45.4c0.2,0,0.3-0.2,0.3-0.3c0-2.8,0-5.6,0.1-8.4
					c0-0.4-0.2-0.5-0.5-0.5c-4.1-0.3-8.2-0.1-12.2,0.1c-0.4,0-0.9,0-1.2,0.2c-0.4,0.3,0,0.8-0.1,1.2c0,0,0,0.1,0,0.2
					c0,0.2-0.1,0.3-0.2,0.3s-0.2-0.1-0.2-0.3c0-0.3-0.1-0.6-0.1-0.9c0-0.2,0-0.5-0.3-0.5c-0.3,0-0.2,0.3-0.2,0.5
					c0,0.9,0.1,1.8,0.2,2.7c0,0.2,0.2,0.6-0.2,0.7c-0.4,0-0.3-0.4-0.4-0.6c-0.1-0.9-0.1-1.8-0.2-2.7c0-0.2,0-0.5-0.3-0.4
					c-0.3,0-0.2,0.3-0.2,0.5c0,0.6,0.1,1.2,0.1,1.8c0.1,2,0.1,4,0.2,6c0,0.4-0.1,0.8,0.6,0.8c4.2-0.2,8.4-0.2,12.7-0.1
					c0.5,0,1.2,0.3,1.2-0.7c0,0,0.1-0.2,0.2-0.2c0.5,0.2,0.5-0.2,0.5-0.5c0-0.2,0-0.4,0.3-0.4c0.2,0,0.3,0.2,0.3,0.4
					C48,44.5,48,45,48.1,45.4z M52.3,2.1c0,0.2,0,0.3,0,0.3c0.1,0.2,0.2,0.4,0.2,0.6c1.9,4.6,2.7,9.3,1.4,14.2
					c-1,4-2.7,7.9-3.9,11.9c-0.6,1.8-1.1,3.5-1.4,5.4c-0.1,0.6-0.1,1.1,0.8,1.1c0.7,0,1.4,0,2.1,0.2c0.6,0.1,0.8-0.1,1-0.6
					c1-3.3,1.9-6.6,3-9.9c1-3.3,2.4-6.4,3.1-9.8c0.9-3.8,0.9-7.5-0.4-11.2c-0.1-0.3-0.1-0.7-0.5-0.8C56,3,54.2,2.5,52.3,2.1z
					 M71.3,9.3c0.1,0.4,0.2,0.7,0.2,1c0.5,2.5,1,5.1,0.7,7.7c-0.4,3.4-1.8,6.4-3.8,9.2c-2.1,3.1-4.8,5.7-7.6,8.2
					c-0.3,0.3-0.7,0.6-1.1,1c1.9,0.1,3.5,0.2,5.2,0.3c0.4,0,0.6-0.2,0.9-0.4c1.1-0.8,2.1-1.7,3.1-2.6c3.3-3.3,6.2-6.9,7.6-11.5
					C78,17.3,77,12.1,71.3,9.3z M14.4,8.6c-1.6,0.6-3.6,2.1-4.1,3c-2,3.2-2.2,6.6-1.1,10.1c1.9,6.3,6,11,11.1,15
					c0.1,0.1,0.3,0.2,0.4,0.2c1.6-0.2,3.1-0.4,4.9-0.6c-0.9-0.9-1.7-1.6-2.5-2.3c-3-2.9-5.8-5.8-7.7-9.6c-1.6-3-2.5-6.2-2.1-9.6
					C13.5,12.7,13.7,10.7,14.4,8.6z M33.4,35.6c0.3,0,0.5,0,0.7,0c0.8,0.1,1-0.2,0.8-1c-0.2-1.2-0.3-2.4-0.5-3.6
					c-0.6-3.5-1.8-6.8-3.1-10c-1.5-3.6-2.1-7.4-1.6-11.3c0.3-2.4,0.9-4.7,1.6-6.9c0.2-0.5,0.1-0.7-0.5-0.6c-1.2,0.3-2.3,0.6-3.5,0.9
					c-0.4,0.1-0.6,0.2-0.7,0.6c-1.2,2.9-1.6,6-1.2,9.1C26,16,26.8,19,27.7,22c1.2,4.2,3,8.3,4.3,12.5C32.2,35.4,32.5,36,33.4,35.6z
					 M20.3,5.8c-1.6,0.6-3,1.1-4.3,1.8c-0.3,0.1-0.4,0.4-0.5,0.6c-1.2,2.7-1.6,5.5-1.5,8.4c0.1,3.4,1.5,6.4,3.3,9.3
					c2.5,3.8,5.8,6.9,9.1,9.9c0.4,0.3,0.8,0.3,1.1,0.2c0.4,0,1,0.1,1.2-0.3c0.1-0.3-0.4-0.7-0.6-1c-3.1-4.2-6-8.5-7.9-13.4
					c-1.2-3.1-1.9-6.2-1.6-9.6C18.8,9.8,19.3,7.9,20.3,5.8z M56.5,36c1.7,0.3,2,0.4,2.4,0c2.7-2.4,5.3-4.8,7.5-7.6
					c3.8-4.7,5.9-9.9,4.8-16.1c-0.5-2.6-1.3-4.7-4.1-5.6c-0.5-0.2-0.9-0.4-1.4-0.6C65.5,6,65.3,5.8,65.1,6c0,0.1,0,0.2,0,0.2
					c2.4,4.6,2.2,9.3,0.6,14c-1.6,4.6-4.1,8.7-7,12.7C58,34,57.3,35,56.5,36z M8.7,12.4c-1.3,0.8-2.3,1.7-2.8,3.3
					c-0.8,3.2-1.4,6.4-0.7,9.7c1,4.7,3.8,8.3,7.5,11.2c0.7,0.5,1.6,1,2.4,1.1c1.3,0,2.6-0.4,4-0.6c-0.1-0.1-0.1-0.2-0.1-0.2
					c-0.1-0.1-0.3-0.2-0.4-0.4c-3.4-2.8-6.3-6.1-8.4-10.1C7.9,22,6.7,17.4,8.8,12.6C8.8,12.5,8.8,12.5,8.7,12.4z M37.8,83.5
					c-0.5,0.4-1.2,0.5-1,1.2c0.6,2.7,0.3,5.4,0,8.1c-0.3,2.8-0.5,5.6,0.5,8.3c0.9,2.5,1.2,5.1,1.2,7.8c0.1,2.8,0.2,5.7,0.6,8.5
					c0.3,2,0.9,3.9,0.9,5.9c0,2.1-0.2,4.2-0.5,6.3c-0.1,0.6-0.3,1.2-0.1,1.8c0.2,0.4,0.9,0.2,1.4,0.5c0.2,0.1,0.5,0.2,0.7,0.3
					c0.3,0.1,0.7,0.1,1,0.1c0.5-0.1,0.7-0.2,0.5-0.8c-0.4-1.2-0.5-2.4-0.6-3.6c-0.1-2.2-0.4-4.4-1-6.5c-0.7-2.7-1.2-5.4-1.3-8.1
					c-0.1-2.5,0-5-0.2-7.4c-0.2-2.6-0.4-5.2-0.3-7.8c0-0.4,0-0.9-0.1-1.3C38.6,92.4,37.4,88.1,37.8,83.5z M36.3,85.1
					c-0.3,0.4-0.4,0.7-0.5,1.1c-0.4,1.5-0.7,3.1-0.7,4.7c-0.1,3.1,0.3,6.2,0,9.3c-0.2,1.8,0.1,3.6,0.6,5.4c0.2,0.7,0.4,1.4,0.4,2.2
					c0,3.8,0,7.7,0,11.5c0,3.5,0,6.9-0.2,10.4c0,0.2-0.1,0.5,0.2,0.6c0.7,0.2,1.2,0.6,1.7,0.9c0.8,0.4,1,0.4,1-0.6
					c0.1-1.1,0.2-2.1,0.3-3.2c0.2-2.4,0.3-4.9-0.2-7.3c-0.7-3.1-0.9-6.2-1-9.4c0-2.4,0-4.9-0.7-7.3c-1.3-4.1-1.4-8.3-0.9-12.5
					C36.7,89,36.7,87.1,36.3,85.1z M61.1,124.6c0.1,0,0.2,0.1,0.3,0.1c0.5-0.5,1-1,1.4-1.5c0.2-0.2,0.1-0.4,0-0.6
					c-0.8-1.8-0.9-3.7-0.7-5.6c0.1-1.5,0.3-2.9,0.2-4.4c-0.4-4.1-0.7-8.2-1-12.4c-0.1-2.6-0.3-5.1-0.6-7.7c-0.3-2.7-0.9-5.3-1-7.9
					c0-0.3,0-0.7-0.5-0.6c-0.5,0-0.9,0-0.9,0.7c0,0.8,0,1.6,0.2,2.4c0.8,3.1,1.3,6.3,1.2,9.5c-0.1,4.1-0.2,8.2-0.2,12.3
					c0,1.7,0,3.3-0.3,5c-0.2,1.4-0.5,2.8,0,4.1C59.9,120.1,60.8,122.2,61.1,124.6z M66.3,112c-0.2,2.4,0.5,4.6,1.2,6.8
					c0.2,0.6,0.3,0.5,0.7,0.2c0.6-0.6,1.1-1.3,1.7-1.9c0.4-0.4,0.4-0.7,0.3-1.2c-0.6-1.8-0.9-3.6-0.6-5.5c0.2-1.4,0-2.8-0.5-4.1
					c-0.5-1.3-0.6-2.6-0.4-4c0.1-0.9,0.1-1.8,0.1-2.8c-0.2-3.2-0.9-6.3-0.8-9.6c0.1-2.2-0.6-4.4-1.1-6.6c-0.1-0.3-0.1-0.6-0.6-0.5
					c-0.4,0.1-0.4,0.3-0.4,0.7c0.3,1.5,0.4,3,0.4,4.5c0,2.9-0.1,5.9,0.1,8.8c0.1,2.2,0.2,4.4-0.4,6.5c-0.1,0.3-0.1,0.7,0,1.1
					C66.5,106.9,66.6,109.4,66.3,112z M49.2,106.2c0.1,5.7,0.2,11.4,0.3,17c0,1.8-0.1,3.7,0.2,5.5c0.1,0.9,0.4,1.7,0.8,2.5
					c0.2,0.3,0.5,0.4,0.8,0.2c0.2-0.1,0.3-0.1,0.2-0.3c-0.6-1.6-0.5-3.4-0.8-5.1c-0.2-1-0.2-2.1,0-3.1c0.7-5,0.6-9.9,0.2-14.9
					c-0.3-4.1-0.2-8.2,0.1-12.3c0.3-3.2,0.6-6.3,0.2-9.5c-0.1-0.8-0.3-1.7-0.4-2.5c-0.1-0.4-0.3-0.7-0.7-0.7c-0.5,0-0.2,0.5-0.3,0.7
					c0,0.2,0,0.5,0,0.7c0.2,3.1,0.3,6.3,0,9.4c-0.2,1.6-0.5,3.1-0.7,4.7C48.9,101.2,49.3,103.8,49.2,106.2z M66.9,36.7
					c0.8,0,1.5,0.3,2.2-0.1c3.9-2.6,7.2-5.8,9.8-9.6c2.1-3.2,2.9-6.4,1.2-10c-0.7-1.4-1.8-2.1-2.9-3.1C77.1,13.9,77,13.9,77,14
					c0,0.1,0.1,0.3,0.1,0.4c0.8,2.2,0.9,4.5,0.4,6.8c-0.8,3.8-2.8,7-5.1,10C70.8,33.2,68.9,35,66.9,36.7z M45.8,123.7
					c0.7-2.8,1.1-5.5,0.8-8.2c-0.3-2.4,0-4.8,1.1-7.1c0.7-1.3,0.8-2.7,0.8-4.1c-0.1-2.3-0.1-4.5,0.2-6.8c0.2-1.9,0.7-3.7,0.7-5.6
					c0.1-2.9,0-5.8-0.2-8.7c0-0.3,0-0.5-0.3-0.7c-0.5-0.2-0.9-0.4-1.5-0.7c0.1,1.2,0.2,2.3,0.3,3.5c0.4,6.1,0.1,12.1-1.2,18.1
					c-0.5,2.4-1.2,4.8-1.1,7.2c0.1,1.9-0.2,3.8-0.5,5.7C44.5,118.9,45.2,121.2,45.8,123.7z M21.8,91.8c0-1.3-0.4-2.5-0.4-3.7
					c0-1-0.5-1.2-1.3-1.5c-0.7-0.2-0.8,0.1-0.9,0.6c-0.3,1.4-0.3,2.8-0.1,4.2c0.2,2.2,0.4,4.3,0.2,6.4c-0.2,3.2-0.6,6.3-0.5,9.4
					c0.1,3.5-0.7,7-1,10.6c-0.1,1.1-0.3,2.2-0.4,3.3c0,0.5,0.5,1.2,0.9,1.2c0.3,0,0.3,0,0.2-0.9c-0.1-1.7,0.1-3.4,0.4-5.1
					c0.4-2.1,0.9-4.3,1.2-6.4c0.4-3.4,0.6-6.8,1-10.2C21.3,97,21.5,94.4,21.8,91.8z M35.5,85c-0.6,0.2-1,0.4-1.1,1
					c0,0.5-0.2,0.9-0.2,1.4c-0.7,3.8-1.5,7.6-1.3,11.5c0.1,2.3,0.2,4.5,0.3,6.8c0.1,3.4,0.4,6.7,1.1,10.1c0.6,3.3,0.9,6.6,0.3,10
					c-0.2,1.2-0.5,2.4-0.7,3.5c-0.2,0.8,0.6,0.8,1,0.9c0.6,0.2,0.5-0.4,0.5-0.7c0.1-1.1,0.1-2.3,0.1-3.4c0.1-3.4,0.2-6.9,0.2-10.3
					c0-3.3,0.3-6.6-0.5-9.8c-0.5-2-0.7-4.1-0.6-6.2c0.1-1.7,0.2-3.4,0.1-5.2c-0.1-1.9-0.1-3.9,0.1-5.8C34.8,87.6,35.1,86.3,35.5,85z
					 M51.3,83.4c1,4.5,0.7,8.9,0.2,13.3c-0.4,4.6-0.5,9.1,0,13.6c0.3,3.2,0.6,6.4,0,9.5c-0.7,3.5-0.2,6.9,0.2,10.4
					c0.1,0.6,0.4,0.9,1.1,0.7c1.4-0.3,1.4-0.3,1-1.6c-0.1-0.4-0.2-0.8-0.4-1.2c-0.6-1.5-0.9-3.1-0.8-4.8c0.2-3.3,0.2-6.6,0.2-9.9
					c-0.1-9.5-0.1-19-0.2-28.6C52.7,83.7,52.7,83.7,51.3,83.4z M33.9,85.9c-1,0.2-1,0.2-1.2,1.1c-1.2,4.3-1.4,8.7-1.2,13.2
					c0.2,3.2,0.4,6.4,0,9.6c-0.3,2.5-0.1,5.1,0.3,7.6c0.4,2.3,0.5,4.6,0.2,6.9c-0.2,1.4-0.4,2.8-0.8,4.2c-0.1,0.5,0,0.7,0.5,0.8
					c1.4,0.3,1.4,0.3,1.7-1.1c0.7-3.2,1-6.5,0.6-9.8c-0.3-2.1-0.7-4.2-1-6.3c-0.3-2.7-0.3-5.5-0.5-8.2c-0.4-4.9-0.2-9.8,0.8-14.7
					C33.5,88.1,33.7,87,33.9,85.9z M40.5,99.6c-0.1,3.8,0.2,7.5,0.2,11.2c0,2.9,0.3,5.9,1,8.8c0.5,2.2,1.2,4.4,1.3,6.6
					c0.1,1.6,0.2,3.2,0.6,4.7c0.1,0.4,0.1,1,0.8,0.8c0.7-0.1,0.5-0.6,0.5-1c-0.1-1.7-0.3-3.5-0.7-5.2c-0.3-1.1-0.4-2.2-0.4-3.3
					c0-1.4,0.1-2.7,0-4.1c-0.2-2-0.4-3.9-0.3-5.9c0.1-3.4-0.5-6.8-1.8-10C41.1,101.4,41,100.5,40.5,99.6z M57.8,95.3
					c0-1.1-0.1-2-0.1-3c-0.1-2.4-0.5-4.9-0.1-7.3c0.2-1,0.1-1-0.9-1c-0.3,0-0.5,0.1-0.5,0.5c0,0.4-0.1,0.8-0.1,1.1
					c-0.1,4.2,0.2,8.4,0,12.6c-0.1,2.2,0.5,4.3,0.7,6.5c0.4,5.8,0.6,11.6,0.8,17.4c0.1,1.8,0.1,3.7,0.2,5.5c0,0.2-0.2,0.6,0.4,0.5
					c0.9-0.2,1.6-1.1,1.6-2.1c0-0.8-0.2-1.5-0.4-2.2c-0.9-2.5-1-5.2-1-7.8c0-0.7,0.2-1.4,0.1-2.2c-0.3-1.7-0.6-3.4-0.6-5.2
					c0-1.3,0.2-2.6,0.1-3.8C57.7,101.6,57.5,98.4,57.8,95.3z M10.3,35.5c-5.8-5.7-7.5-12.4-5-20.2C2.5,17.2,0.5,22,1.1,25.6
					C2,30.8,5.2,34,10.3,35.5z M49.4,36.7c-0.1,0-0.1,0-0.2,0c0,2.4,0,4.7,0,7.1c0,0.1,0,0.3,0.2,0.3c0.7-0.1,0.5,0.4,0.5,0.7
					c0.1,0.4,0,0.8,0.6,0.8c1.3,0,2.6,0.1,3.9,0.2c0.5,0,0.7-0.2,0.7-0.7c-0.1-2.5,0.1-5.1,0.2-7.6c0-0.6-0.2-0.8-0.7-0.8
					c-1.1-0.1-2.3-0.2-3.4-0.3C50,36.3,50,36.3,50,37.5c0,0.1,0,0.2,0,0.3c0,0.2,0,0.5-0.3,0.5c-0.3,0-0.3-0.3-0.3-0.5
					C49.4,37.4,49.4,37.1,49.4,36.7z M24.7,96.5c-0.1,0.8-0.2,1.4-0.2,2c-0.6,5.3-1.4,10.7-2.6,15.8c-0.8,3.2-1.2,6.3-0.7,9.5
					c0.2,1,0.7,1,1.3,1c1.2,0.2,1.4,0,1.2-1.2c-0.3-1.6-0.3-3.2,0.1-4.8c0.3-1.3,0-2.7,0.1-4c0-1.7,0.8-3.3,1-4.9
					c0.5-3.7,0.5-7.4,0.2-11.1C25,98.1,25.1,97.3,24.7,96.5z M42.3,79.2c-0.8,0.6-1.2,1.3-1.2,2.3c0,1.2-0.1,2.4-0.2,3.6
					c-0.2,2.9-0.1,5.7,0.7,8.5c0.4,1.4,0.8,2.8,1.1,4.3c0.7,3.2,0.8,6.4,1.2,9.6c0.3,2.5,0.5,4.9,0.2,7.4c-0.1,0.6,0,1.2,0.3,1.9
					c0.5-2.8,0.8-5.5,0.5-8.1c-0.7-5.7-0.9-11.3-1.2-17C43.3,87.5,42.6,83.4,42.3,79.2z M69.9,111.3c0,1.6,0.3,2.8,0.7,4
					c0.1,0.2,0,0.4,0.3,0.4c0.3-0.1,0.8-1,0.6-1.3c-0.6-1.2-0.7-2.5-0.7-3.8c0.1-1.9,0-3.8-0.6-5.6c-0.2-0.6-0.1-1.1-0.1-1.7
					c0.1-0.7,0.1-1.5-0.1-2.2c-0.1-0.5-0.1-1,0-1.4c0.2-0.7,0.4-1.4,0.2-2.1c-0.7-2.1-0.2-4.2,0-6.2c0.2-2.1,1.1-4,0.7-6.2
					c-0.2-0.8-0.3-1.6-0.9-2.3c-0.8-1-0.8-1-2-0.6c-0.7,0.2-0.8,0.5-0.6,1.2c0.8,2.8,1.4,5.7,1.1,8.7c-0.1,0.7,0.1,1.5,0.1,2.2
					c0.3,2.7,0.8,5.4,0.4,8.2c-0.1,0.8-0.1,1.6,0.2,2.3C70,107,70.4,109.3,69.9,111.3z M26.5,104.9c-0.1-1.5-0.2-2.9-0.2-4.3
					c-0.1-2.4-0.3-4.8,0.4-7.1c0.6-1.9,0.3-3.8,0-5.7c-0.1-0.4-0.3-0.4-0.6-0.4c-0.3,0-0.4,0.1-0.4,0.4c0,2.8-0.4,5.5-0.2,8.2
					s0.4,5.5,0.3,8.2c-0.1,2.6,0,5.1-0.8,7.6c-0.4,1.3-0.6,2.6-0.5,3.9c0,1.1,0.1,2.2-0.1,3.3c-0.2,1.2-0.3,2.5-0.1,3.7
					c0.1,0.7,0.1,1.3,0,1.9c-0.1,1.1,0.5,1.7,1.5,1.7c0.4,0,0.5-0.1,0.5-0.5c0.1-1,0.1-2,0.3-3c0.2-1,0.1-1.9,0-2.8
					c-0.4-2.8-0.7-5.7-0.6-8.6C26.1,109.5,26.3,107.2,26.5,104.9z M31.5,44.4c-0.1-2.5-0.2-4.8-0.3-7.2c0-0.5-0.1-0.7-0.6-0.6
					c-1.1,0.1-2.2,0.2-3.3,0.3c-0.4,0-0.5,0.2-0.5,0.6c0,0.4,0.3,1-0.1,1.1c-0.5,0-0.3-0.7-0.4-1.1c-0.1-0.2,0-0.5-0.4-0.4
					c-0.3,0.1-0.2,0.3-0.2,0.5c0.3,2.7,0.4,5.3,0.6,8c0,0.2-0.1,0.6,0.2,0.6c0.5,0,0.4-0.4,0.4-0.7c0-0.7-0.1-1.5-0.2-2.2
					c0-0.2-0.1-0.5,0.2-0.5c0.4,0,0.3,0.3,0.3,0.5c0,0.7,0.1,1.3,0.1,2c0,0.6,0.2,0.7,0.8,0.6c0.7-0.1,1.4-0.1,2.1-0.2
					C31.9,45.5,31.5,45.9,31.5,44.4z M27.2,120.3c1.1-2.1,1.6-4.2,0.9-6.5c-0.6-1.8-0.7-3.7-0.5-5.7c0.5-4.8,1.2-9.7,1.5-14.6
					c0.1-1.9,0.1-3.8,0-5.7c0-0.2,0-0.5-0.2-0.5c-0.5,0-1,0-1.4,0.2c-0.4,0.2-0.1,0.7-0.1,1.1c0.2,1.2,0.6,2.4,0.2,3.6
					c-1,3.3-0.9,6.6-0.6,10c0.1,1.8,0.2,3.7,0,5.6C26.4,111.9,26.4,116.1,27.2,120.3z M63.4,90.7c-0.2,0.4-0.1,0.9-0.1,1.4
					c0.3,5.5,0.5,10.9,0.1,16.4c-0.1,1-0.1,2,0.3,3c0.6,1.7,0.7,3.4,0.7,5.2c0,1.4,0.5,2.8,0.9,4.1c0,0.1,0,0.3,0.2,0.3
					c0.5,0,1.5-1.2,1.3-1.6c-1.2-3.5-1.3-7.1-1.3-10.7c0-3.6-0.4-7.2-0.9-10.7C64.4,95.5,64,93.1,63.4,90.7z M34.2,73.8
					c-1-0.5-1.8-0.7-2.8-0.2c-2.9,1.4-5.7,2.8-8.8,3.8c-3.5,1.1-7,1.2-10.5-0.5c-1.1-0.5-2.3-0.6-3.5-0.9c1,0.9,2.1,1.8,3.3,2.4
					c1.9,1,4,1.3,6.1,1.5c2.5,0.2,4.9,0.2,7.3-1C28.4,77.3,31.1,75.3,34.2,73.8z M53.4,109.3c0.1,0,0.1,0,0.2,0c0.3-2,0.5-4.1,1-6.1
					c0.5-2,0.7-4.1,0.8-6.1c0.2-2.5,0.3-4.9,0.1-7.4c-0.1-1.4-0.1-2.8,0-4.2c0.1-1.4,0.1-1.3-1.2-1.5c-0.8-0.1-1,0.1-1,0.9
					c0.1,6.5,0.1,13,0.2,19.6C53.4,106,53.4,107.7,53.4,109.3z M55.7,101.6c-0.4,0.6-0.5,1.2-0.6,1.8c-0.4,2.6-0.7,5.3-1.2,7.9
					c-0.2,1.4,0,2.8,0.5,4.1c0.2,0.6,0.4,1.3,0.5,2c0.6,3.6,1.6,7.2,1.5,10.9c0,0.2,0,0.4,0.3,0.4c0.2,0,0.4-0.1,0.4-0.3
					c0-0.2,0-0.4,0-0.6c-0.1-2.8-0.2-5.6-0.3-8.3c-0.1-4.3-0.3-8.6-0.6-12.9C56.2,104.8,56,103.3,55.7,101.6z M12,79.4
					c0.1,0.1,0.3,0.3,0.4,0.4c3.1,1.9,6.3,3.3,10,2.7c2.3-0.4,4.5-0.8,6.4-2.2c2.2-1.6,4.5-3.1,7.1-4.1c0.2-0.1,0.3-0.1,0.3-0.4
					c-0.1-1-0.9-1.6-1.8-1.1c-0.2,0.1-0.5,0.2-0.7,0.3c-2.6,1.2-4.8,2.9-7.4,4.3c-3,1.6-6.2,2.2-9.6,1.5
					C15.1,80.4,13.6,79.9,12,79.4z M17.3,114.5c0.1-0.1,0.2-0.2,0.2-0.2c0.3-3.2,1.1-6.4,0.6-9.7c-0.1-0.5,0-1,0-1.5
					c0.5-3.4,0.7-6.8,0.5-10.2c-0.1-1.8-0.4-3.6-0.2-5.4c0-0.5,0.4-1,0.2-1.4c-0.3-0.4-0.9-0.5-1.3-0.7c-0.5-0.3-0.5-0.1-0.5,0.4
					c0,1.5,0,3.1-0.1,4.6c-0.1,2.6-0.2,5.2,0,7.8c0.3,3.3,0.5,6.6,0.4,9.9C17,110.2,17.3,112.3,17.3,114.5z M14.7,82.5
					c0.1,0.1,0.1,0.2,0.2,0.2c2,1.4,4.2,2.5,6.6,3.2c0.7,0.2,1.4,0.2,2-0.2c1.7-1,3.5-1.7,5.1-2.7c3.3-2,6-5,9.9-6.1
					c-0.6-0.5-1.2-0.5-1.8-0.2c-2.4,0.9-4.6,2.1-6.6,3.6c-2.9,2.1-6.1,3-9.6,3.1C18.5,83.4,16.6,83.2,14.7,82.5z M13,88.7
					c-0.1,0.2-0.2,0.3-0.2,0.4c-0.3,3.9-0.6,7.8-0.5,11.8c0.1,3.3,0.3,6.5-0.1,9.8c-0.3,1.8,0.5,3.5,1.2,5.2
					c0.1-0.2,0.2-0.2,0.2-0.3c1-3.5,1.2-7,0.8-10.5c-0.5-4.4-1-8.8-1.2-13.2C13.2,90.8,13.1,89.8,13,88.7z M48.5,108.5
					c-0.2,0.3-0.3,0.4-0.3,0.6c-1,1.9-1.1,3.9-0.9,6c0.1,1.6,0.1,3.2-0.2,4.9c-0.4,1.8-1,3.5-0.7,5.3c0.3,2,1.3,3.9,1.6,6
					c0,0.2,0.1,0.4,0.4,0.3c0.5-0.3,0.9-0.1,1.5-0.1c-0.5-1.1-0.8-2.1-0.9-3.2c-0.1-1.1-0.2-2.2-0.2-3.3c0.3-4.2-0.1-8.3,0-12.5
					C48.8,111.2,48.8,110,48.5,108.5z M45.4,80.8c0.1,0.7,0.2,1.3,0.2,1.9c0.3,2.5,0.7,4.9,0.4,7.4c-0.2,1.2-0.4,2.5-0.5,3.7
					c-0.2,2.3-0.2,4.6-0.6,6.9c-0.4,2-0.1,4,0.2,6.2c0.1-0.3,0.2-0.4,0.2-0.5c1.2-4.2,1.9-8.5,2.1-12.9c0.1-3.6,0-7.2-0.5-10.8
					C46.9,81.8,46.6,81.1,45.4,80.8z M71.3,89.2c-0.7,2.5-1,5.1-0.5,7.7c0.1,0.7,0.2,1.4,0.2,2.2c-0.2,1.7-0.1,3.3,0.1,5
					c0.2,2.1,0.5,4.1,0.3,6.2c-0.1,1.3,0,2.6,0.7,3.9c0.7-1.2,1.2-2.3,1.2-3.6c0.1-1.8-0.3-3.5-0.5-5.3c-0.4-3.6-0.4-7.2-0.8-10.8
					C71.8,92.7,71.5,91,71.3,89.2z M22.2,45.5c-0.1-1.6-0.2-3.2-0.4-4.8c-0.1-0.9-0.3-1.9-0.4-2.8c0-0.1,0-0.3-0.2-0.3
					c-0.2,0-0.2,0.2-0.2,0.3c0,0.4,0.1,0.8,0.1,1.2c0,0.2,0,0.3-0.2,0.4c-0.2,0-0.3-0.1-0.3-0.3c0-0.3-0.1-0.7-0.1-1
					c0-0.2,0-0.5-0.3-0.5c-0.3,0-0.2,0.3-0.2,0.5c0,0,0,0.1,0,0.2c0,0.2,0.1,0.5-0.3,0.5c-0.3,0-0.2-0.3-0.2-0.5
					c0-0.6-0.2-0.7-0.8-0.6c-0.8,0.2-1.6,0.3-2.4,0.4c-0.7,0.1-0.7,0.4-0.5,0.9c0.3,0.9,0.7,1.8,1.1,2.6c1.1,1.9,2.5,3.4,4.6,4.2
					C22.1,46.2,22.3,46.1,22.2,45.5z M28.7,113.2c0-0.6,0.1-1.2,0.2-1.8c0.2-2.2,0.9-4.4,1-6.7c0-0.8,0-1.6,0.4-2.2
					c0.6-1.1,0.5-2.3,0.4-3.4c-0.3-3.6-0.1-7.2,0.8-10.8c0.1-0.5,0.6-1.2,0.2-1.6c-0.3-0.3-1,0.2-1.6,0.3c-0.4,0.1-0.5,0.3-0.5,0.7
					c0.3,4.3-0.2,8.5-0.6,12.8c-0.3,2.9-0.8,5.8-0.9,8.7C28,110.6,28.1,111.9,28.7,113.2z M16.1,97.7c-0.5,2.7-1.1,5.3-0.9,8
					c0.2,3.6,0,7.2-1.1,10.7c-0.1,0.3-0.1,0.6,0.1,0.8c0.5,0.6,0.7,1.3,0.8,2c0.1,0.6,0.4,1,0.9,1.3c0.5,0.2,0.6,0.2,0.6-0.4
					c0.2-2.1,0.2-4.2,0.2-6.4c0-2.1-0.2-4.2-0.2-6.3C16.7,104.2,16.5,100.9,16.1,97.7z M30.6,104.7c-0.1,1-0.2,1.9-0.4,2.7
					c-0.7,2.9-1.2,5.9-0.8,8.9c0.1,1.5,0.1,2.9-0.1,4.4c-0.2,1.9-0.4,3.7-0.4,5.6c0,1.2,0.4,1.8,1.4,2.2c0.8-2.1,1.3-7.4,0.9-10
					c-0.6-3.7-0.8-7.4-0.3-11.2C31,106.5,31,105.6,30.6,104.7z M62.5,108.9c0.3-0.2,0.2-0.5,0.3-0.7c0.2-1.7,0.3-3.4,0.3-5.1
					c0-4.5-0.2-8.9-0.5-13.4c-0.1-1.7-0.3-3.5-0.2-5.2c0-0.3,0.1-0.7-0.4-0.7c-0.6,0-1.3-0.1-1.7,0.3c-0.3,0.2,0,0.8,0,1.2
					c0,0.2,0,0.4,0.1,0.7c0.4,2.7,0.8,5.3,1.1,8c0.4,3.5,0.5,6.9,0.7,10.4C62.2,105.8,62.4,107.3,62.5,108.9z M20.5,124.2
					c0.1-0.4,0-0.8,0-1c-0.1-1.4-0.2-2.8-0.2-4.2c0.1-2,0.8-3.9,1.2-5.9c1-5.1,1.9-10.1,2.4-15.2c0.1-1.2,0.2-2.4,0.4-3.7
					c-0.4,0.4-0.5,0.9-0.6,1.4c-0.8,4.9-1.8,9.8-3.1,14.7c-0.9,3.5-1.6,7-1.7,10.6C18.9,122.3,19.7,123.1,20.5,124.2z M81.6,18.8
					c0.6,2.5,0,4.8-1.1,7c-1.4,2.7-3.3,5-5.4,7.1c-1,0.9-2,1.8-3,2.7c2.6-1.2,5-2.6,7.2-4.4c2.7-2.2,4.2-5,3.9-8.6
					C83,21,82.5,19.8,81.6,18.8z M13.2,82.9c-0.1,1.9,0,3.7,0.2,5.5c0.6,4,0.6,8,1,11.9c0,0.3-0.1,0.6,0.3,0.9
					c0.4-2,0.6-3.9,0.7-5.9c0.2-3.3,0.3-6.6,0.4-9.9c0-0.3,0-0.6-0.3-0.8C14.9,84.1,14.1,83.5,13.2,82.9z M39.5,78.2
					c-1.2-0.5-2.3-0.3-3.5,0.6c-1.8,1.5-3.9,2.6-5.8,3.9c-1.2,0.9-2.4,1.7-3.6,2.5c-0.7,0.4-1.4,0.7-2.1,1.1c1,0.1,1.9,0.2,2.8,0.1
					c3.2-0.1,5.7-1.2,6.9-4.4c0.1-0.3,0.3-0.6,0.5-0.8c0.3-0.4,0.7-0.8,1.2-0.9C37.3,79.9,38.2,78.7,39.5,78.2z M40.2,81.4
					c-0.5,0.4-0.8,0.8-1.2,1c-0.4,0.3-0.6,0.7-0.6,1.2c-0.2,1.8-0.1,3.5,0.1,5.2c0.7,4.5,2,8.9,3.5,13.2c0.1,0.2,0.1,0.4,0.3,0.5
					c0.1-0.2,0.1-0.5,0-0.7c-0.3-2-0.5-3.9-1.1-5.9c-1-3.6-1.4-7.2-1.2-11C40.1,83.8,40.4,82.7,40.2,81.4z M75.1,76.6
					c0-0.1,0-0.1,0-0.2c-0.1,0-0.2,0-0.3,0c-4.6,0-9.1-0.4-13.4-2.3c-1.4-0.6-2.9-1.2-4.4-1.4c-1-0.2-2-0.4-3.1-0.2
					c0.1,0.1,0.1,0.2,0.2,0.2c0.3,0.1,0.6,0.1,1,0.2c3.4,0.6,6.4,2,9.4,3.7c2.3,1.3,4.8,2,7.4,1.9c0.3,0,0.5,0,0.8-0.1
					C73.4,77.8,74.2,77.2,75.1,76.6z M12.1,66.2c0-0.1,0-0.2,0-0.3c-0.1-4.4-0.6-8.9-0.5-13.3c0-0.7-0.6-0.8-1.1-1s-0.8,0.1-1.1,0.5
					c-0.4,0.6-0.3,1.3-0.4,2C8.8,58.4,10.7,62.2,12.1,66.2z M43.1,79c-0.1,0-0.2,0.1-0.3,0.1c0.7,6.4,1.5,12.7,1.7,19.1
					c0.3-0.3,0.3-0.6,0.3-0.9c0-1.5,0.1-3.1,0.3-4.6c0.3-1.9,0.7-3.9,0.4-5.9c-0.2-2.1-0.5-4.1-0.7-6.2c0-0.3-0.1-0.5-0.3-0.7
					C44,79.7,43.6,79.4,43.1,79z M15.4,77.1c5.8,1.1,10.4-1.8,15.5-4.1c-0.8-0.2-1.4-0.2-1.9-0.6c-0.8-0.7-1.6-0.4-2.4-0.2
					c-1,0.3-1.8,0.8-2.6,1.4c-1.9,1.6-4.1,2.4-6.5,3C16.8,76.9,16.1,76.7,15.4,77.1z M54.7,130.4c1.2-0.8,1.3-1.9,1.3-3.2
					c-0.2-3-0.9-6-1.3-8.9c-0.2-1.2-0.4-2.3-1.1-3.6c0,0.4,0,0.6-0.1,0.8c0,2.3,0,4.6-0.1,6.9c-0.1,1.6-0.1,3.3,0.4,4.8
					C54.1,128.2,54.5,129.2,54.7,130.4z M68.4,37.5c-0.9,0-1.6,0-2.4,0c-0.5,0-1-0.1-1.4,0c-0.6,0.2-0.1,0.8-0.3,1.2
					c-0.1,0.2-0.1,0.3-0.3,0.3s-0.2-0.2-0.2-0.3c0-0.3,0-0.5,0-0.8c0-0.2,0-0.6-0.3-0.5c-0.3,0-0.2,0.3-0.2,0.5
					c0.2,1.2,0.1,2.4,0.1,3.6c0,0.3,0.1,0.7-0.3,0.7c-0.5,0-0.3-0.5-0.3-0.8c0-1.2,0-2.5-0.2-3.8c0-0.2,0-0.4-0.3-0.4
					c-0.2,0.6,0,1.1,0,1.7c0,1.9-0.2,3.8-0.3,5.6c0,0.2-0.2,0.5,0.2,0.5c0.2,0,0.4-0.1,0.4-0.4c0-0.1,0-0.2,0-0.3
					c0.1-0.3-0.2-0.8,0.3-0.8c0.4,0,0.2,0.5,0.3,0.7c0,0,0.1,0.1,0.1,0.2c1.2-0.8,2.1-1.8,2.9-2.9c0.3-0.4,0.4-0.8,0.4-1.3
					c0.1-0.4-0.4-1.2,0.7-0.8c0,0,0.2-0.1,0.2-0.2C67.9,38.8,68.1,38.2,68.4,37.5z M71,63.7c1-1.3,1.3-2.8,1.7-4.3
					c0.5-1.8,1.1-3.6,1.1-5.5c0-0.5-0.1-1.1-0.4-1.5c-0.4-0.6-1.1-0.6-1.7-0.5c-0.6,0.1-0.6,0.6-0.6,1.1c-0.3,2.4-0.4,4.8-0.3,7.2
					C70.8,61.3,70.9,62.5,71,63.7z M49,76.8c1.4,0.4,2.8,0.7,4.2,1.1c2.8,0.8,5.4,1.9,8.2,2.6c1.1,0.3,2.3,0.3,3.4,0.1
					C60.1,76.9,54.6,76.7,49,76.8z M21.1,105.7c0.4-0.5,0.4-0.9,0.5-1.4c0.7-3,1-6,1.6-9c0.4-2,1.3-3.9,1-6.1
					c-0.1-0.6,0.4-1.4,0-1.7c-0.4-0.3-1.2-0.2-1.8-0.4c-0.5-0.1-0.6,0.1-0.6,0.5c0.1,0.9,0.2,1.7,0.3,2.6c0.3,2.5-0.2,4.9-0.4,7.4
					C21.6,100.4,21.3,103,21.1,105.7z M65.5,99.4c0.3-0.3,0.2-0.5,0.2-0.7c-0.2-3-0.2-5.9-0.1-8.9c0-1.8,0-3.5-0.3-5.2
					c-0.2-1.4-0.8-1.7-2.1-1.1c-0.2,0.1-0.3,0.2-0.3,0.3c0,1-0.3,2.1,0.1,3.1c1.1,2.7,1.3,5.6,1.8,8.4C65.1,96.7,65.3,98,65.5,99.4z
					 M14.2,72.9c0.1-0.2,0.1-0.2,0.1-0.3c0.4-2.7,0.9-5.3,1.8-7.8c0.1-0.3,0.1-0.6,0-0.9c-0.3-1.6-0.8-3.1-0.9-4.7
					c-0.1-0.9,0-1.9-0.5-2.9c-0.7,2-1.1,3.8-1,5.8c0.2,2.7,0.3,5.4,0,8.1C13.7,71.1,13.9,72,14.2,72.9z M70.7,79.6
					c-0.3-0.3-0.7-0.3-1-0.4c-2.7-0.8-5.5-1.4-7.9-3c-2.8-1.8-5.8-2.6-9-3.1C52.1,73,51.5,73,51,73.6c0.6,0.1,1.1,0.1,1.6,0.2
					c3.1,0.4,6.1,1.2,8.5,3.3c2,1.7,4.2,2.6,6.7,3.2C68.9,80.6,69.8,80.2,70.7,79.6z M13.5,75.3c0.1-0.8,0.2-1.7,0-2.5
					c-0.3-1.2-0.4-2.3-0.3-3.5c0.2-2.2,0.2-4.4,0-6.6c-0.1-1.1-0.2-2.2,0.1-3.2c1-3.5,1.5-7.1,1.5-10.7c0-0.3,0.2-0.8-0.3-0.9
					c-0.4,0-0.3,0.5-0.4,0.7c-0.4,1.7-0.7,3.4-1.3,5c-0.2,0.4-0.5,0.8-0.5,1.3c0,0.9,0.1,1.8,0.1,2.8c0.1,3.3,0.6,6.7,0.4,10
					C12.7,70.2,13,72.8,13.5,75.3z M64.7,82c-1.8-0.3-3.2-0.9-4.8-0.9c-2.5,0.1-5,0.2-7.6,0c-0.1,0-0.3,0-0.3,0.2
					c0.3,0.3,0.8,0.5,0.9,0.9c0.3,0.6,0.8,0.6,1.3,0.7c2.1,0.3,4.1,0.2,6.2-0.1C61.8,82.6,63.2,82.5,64.7,82z M58.7,80.5
					c-3.8-1.7-8.1-2-12-3.3c0.9,1,1.8,1.9,3,2.5c0.5,0.2,1,0.7,1.6,0.8C53.8,80.7,56.2,80.7,58.7,80.5z M16.5,65.7
					c-0.1,0.2-0.2,0.4-0.2,0.5c-0.9,3-1.4,6.1-1.8,9.2c0,0.2-0.1,0.3,0.1,0.4c0.4,0.3,1.3-0.1,1.4-0.6c0.3-1.5,0.4-3.1,1-4.5
					C17.8,68.9,17.4,67.3,16.5,65.7z M68,67.4c-0.6,0.6-0.7,1.3-0.6,2c0.2,1.1,0.1,2.2,0.2,3.3c0,0.7-0.5,1.6,0,2
					c0.5,0.4,1.3,0.2,2.1,0.3c0.6,0.1,0.8,0,0.6-0.7c-0.7-2-1.5-4-1.8-6.2C68.3,68,68.2,67.7,68,67.4z M41.3,78.5
					c-0.7-0.1-1.1,0.2-1.5,0.4c-1.3,0.7-2.5,1.6-4,2c-0.4,0.1-0.7,0.4-0.9,0.7c-0.6,1-1.2,2-1.8,3C36.4,83.3,39,81.2,41.3,78.5z
					 M56.7,43.6C56.7,43.6,56.7,43.6,56.7,43.6c0,0.5,0.1,1,0,1.5c-0.1,0.6,0.3,0.6,0.7,0.7c0.5,0.1,0.7-0.1,0.7-0.6
					c0.3-2.5,0.3-5.1,0-7.6c0-0.5-0.2-0.7-0.7-0.7c-0.6,0-0.4,0.4-0.4,0.7C56.9,39.7,56.8,41.7,56.7,43.6z M68.8,61.7
					c-0.5,1.5-0.3,2.9-0.4,4.2c-0.1,0.7,0.5,1.3,0.7,2c0.1,0.3,0.2,0.6,0.2,0.9c0.3,1.3,0.7,2.7,1.2,3.9c0.3-0.2,0.2-0.5,0.1-0.7
					c-0.2-2.4-0.3-4.7-0.5-7.1C70.1,63.8,69.5,62.8,68.8,61.7z M58.1,88.8c0.4,7.6,0.1,15.3,0.4,23c0.3-0.3,0.2-0.5,0.3-0.7
					c0.1-5.6,0.2-11.1,0.2-16.7C59,92.5,58.8,90.6,58.1,88.8z M34.4,53.8c-1-2.2-1.8-4.3-1.6-6.7c0-0.2-0.1-0.4-0.3-0.4
					c-0.5,0-1.1-0.1-1.5,0.2c-0.4,0.2,0,0.7,0,1c0,0.2,0,0.3,0,0.5c0.5,2.1,0.5,4.5,3.1,5.3C34.2,53.7,34.2,53.7,34.4,53.8z
					 M24.1,45.6c-0.2-2.6-0.5-5.2-0.5-7.7c0-0.6-0.4-0.5-0.7-0.5c-0.4,0-0.9,0-0.8,0.6c0.5,2.5,0.5,5.1,0.7,7.6
					c0,0.7,0.4,0.8,0.9,0.8C24.4,46.4,24,45.9,24.1,45.6z M28.7,118.5c-0.1,0.2-0.2,0.3-0.3,0.4c-1.2,2.3-1.6,4.8-1.7,7.3
					c0,0.8,0.4,1.1,1,1.4c0.5,0.2,0.8,0.2,0.7-0.5c-0.2-2-0.1-3.9,0.2-5.8C28.7,120.5,28.9,119.6,28.7,118.5z M18.1,69.2
					c-0.7,1.8-1,3.6-1.3,5.3c-0.3,1.5-0.2,1.2,1.1,1c0.7-0.1,1.1-0.5,1-1.3c-0.1-0.8,0-1.7,0.2-2.5C19.4,70.6,18.8,70,18.1,69.2z
					 M58.2,76.2c-0.2-0.4-0.5-0.4-0.8-0.5c-1.8-0.8-3.8-1.2-5.8-1.5c-1.1-0.2-1.9,0.2-2.6,0.9c-0.1,0.2-0.4,0.3-0.3,0.5
					c0.1,0.2,0.3,0.3,0.5,0.3c0.3,0,0.5,0,0.8,0c1.8-0.2,3.6-0.2,5.5,0C56.4,76,57.2,76.1,58.2,76.2z M44.2,78.4
					c2.4,1.9,5,3.3,8.2,4.1c-0.9-0.9-1.6-1.7-2.6-2.1c-0.9-0.3-1.7-0.8-2.3-1.5C46.5,78,45.5,77.5,44.2,78.4z M44.6,120.9
					c-0.1,0-0.1,0-0.2,0c0,0.1-0.1,0.2-0.1,0.4c0,1.4,0.2,2.7,0.5,4c0.4,2.1,1.1,4.2,0.9,6.4c0,0.2,0,0.3,0.2,0.4
					c0.3,0.1,0.7,0.2,1,0c0.3-0.2,0-0.5,0-0.8c0-0.2-0.1-0.4-0.1-0.6C46.1,127.4,45.3,124.1,44.6,120.9z M48.9,52.1
					c1.1-1.5,2.1-2.7,3.1-4c0.2-0.3,0.7-0.7,0.5-1.1c-0.2-0.4-0.8-0.2-1.2-0.3c-0.2,0-0.5,0-0.7,0c-0.5-0.1-0.7,0.2-0.8,0.6
					C49.4,48.9,49.2,50.4,48.9,52.1z M60.8,42.5c0,0-0.1,0-0.2,0c0,0.8,0,1.7,0,2.5c0,0.2-0.2,0.6,0.2,0.7c0.4,0,0.6-0.2,0.6-0.6
					c0-0.5,0.1-1.1,0.2-1.6c0.1-1.8,0.3-3.6,0.2-5.4c0-0.4,0-0.8-0.6-0.8c-0.7,0-0.4,0.5-0.5,0.7C60.7,39.5,60.8,41,60.8,42.5z
					 M52.2,51.3c1-0.3,2.1-0.4,2.8-1.1c0.8-0.9,1.3-2,2-3.1c-0.7-0.1-1.5-0.5-1.9,0C53.9,48.4,53.1,49.9,52.2,51.3z M68.8,55.6
					c1.7-2.2,1.8-4.9,1.9-7.5C68.9,50.2,68.7,52.8,68.8,55.6z M66.6,69.5c-0.7,0.8-1.4,1.5-2,2.2c-0.1,0.1-0.1,0.2-0.1,0.4
					c0.1,0.8,0.4,1.6,0.9,2.2c0.3,0.4,1.1,0.4,1.2,0C66.9,72.8,66.8,71.2,66.6,69.5z M62.8,111.3c0,0.1,0,0.2,0,0.3
					c0.3,3.2,0.6,6.5,1,9.8c0,0.3-0.1,0.7,0.2,0.8c0.2,0,0.5-0.3,0.8-0.4c0.4-0.2,0.2-0.5,0.1-0.8c-0.7-2.1-1.1-4.2-1-6.3
					C63.8,113.4,63.5,112.3,62.8,111.3z M31.5,52.3c-0.4-1.3-0.9-2.6-1-3.9c-0.2-1.6-0.2-1.6-1.8-1.4c-0.1,0-0.2,0-0.2,0
					c-0.3,0-0.4,0.2-0.2,0.4c0.9,1,1.2,2.3,1.6,3.5C30.2,51.7,30.5,52.3,31.5,52.3z M47.6,53.3c0.5-0.1,0.5-0.3,0.5-0.5
					c0.5-1.8,0.6-3.7,1-5.5c0.1-0.3,0.2-0.7-0.3-0.7c-0.4,0-1.2-0.4-1.2,0.5C47.5,49.2,47.6,51.3,47.6,53.3z M68.7,39.9
					c-0.4,0.7-0.8,1.3-1.2,1.9c-0.3,0.4-0.1,0.6,0.3,0.7c1,0.3,2,0.7,2.9,1c0.2,0.1,0.4,0.2,0.6,0c0.1-0.2-0.1-0.4-0.2-0.6
					c-0.2-0.2-0.3-0.4-0.6-0.6C69.7,41.6,68.9,41,68.7,39.9z M70,61.8c-0.3-2.1,0.2-4.1,0-6.1C68.3,56.8,68.1,59.9,70,61.8z
					 M19.6,48.4c0-0.4-0.3-0.6-0.4-0.8c-0.5-0.7-1.3-1-2-1.6c-0.9-0.8-1-0.8-2-0.1C17.2,47.9,17.5,48.1,19.6,48.4z M61.5,48
					c1-0.3,1.9-0.3,2.3-1.3c0.2-0.4,0.7-0.7,1.1-1c0.7-0.5,1.3-0.9,2-1.4c0.2-0.1,0.5-0.2,0.4-0.4c-0.1-0.3-0.4-0.3-0.6-0.4
					c-0.3-0.2-0.5,0.1-0.7,0.3c-0.8,0.9-1.7,1.7-2.7,2.2C62.5,46.4,62.1,47.1,61.5,48z M69.5,44.6c-0.8-0.6-1.5-0.5-2.2,0.1
					c-0.5,0.4-1,0.7-1.5,1c-0.6,0.4-1.2,0.7-1.6,1.5C66.2,46.5,68,45.9,69.5,44.6z M71.4,41.9c0.2-0.8,0.5-1.5-0.3-2.2
					c-0.4-0.4-0.7-0.9-0.8-1.5c-0.1-0.2,0-0.5-0.3-0.4c-0.2,0-0.3,0.2-0.3,0.5C69.3,40,69.7,40.8,71.4,41.9z M28,51
					c-0.3-1.3-1.1-2.2-1.8-3.2c-0.4-0.6-1-0.3-1.5-0.3c-0.1,0-0.3,0-0.3,0.2c0,0.5,0.3,0.8,0.7,1c0,0,0,0,0.1,0
					c0.7,0.5,1.5,1,1.9,1.9C27.1,51,27.5,51.1,28,51z M68.9,49.4c0.5-1.1,1.1-2,1.8-2.7c0.5-0.6,0.5-1.2,0.4-1.9
					C68.9,46.1,68.5,46.9,68.9,49.4z M22.7,49c-0.3-0.5-0.3-1.5-1-1.8c-1.5-0.5-2.8-1.3-3.9-2.4c-0.2-0.2-0.3-0.3-0.5-0.1
					c-0.3,0.3,0.1,0.4,0.2,0.5c0.7,0.6,1.4,1.1,2.1,1.7c0.9,0.8,2.1,1.1,2.7,2.3c0,0.1,0.3,0.1,0.5,0.1C22.7,49.3,22.7,49.2,22.7,49
					z M49.6,52.5c1.7-1.5,3.3-3.1,4.3-5.1c0.1-0.2,0.3-0.3,0.1-0.5s-0.5-0.1-0.7,0c-0.1,0.1-0.2,0.2-0.3,0.4
					c-0.7,1.3-1.6,2.6-2.6,3.8C50.2,51.6,49.8,52,49.6,52.5z M34.5,52.2c0.1-1.9-0.2-3.6-0.2-5.3c0-0.2-0.2-0.4-0.5-0.3
					c-0.2,0-0.4,0.1-0.4,0.3C33.3,48.7,33.4,50.5,34.5,52.2z M14.9,40.5c-0.5,0.6-0.9,1.3-1.5,1.8c-0.7,0.5-0.6,1.1-0.4,1.9
					c0.7-0.7,1.2-1.4,1.8-2C15.4,41.7,15.5,41.1,14.9,40.5z M29.5,51.5c-0.2-0.7-0.4-1.3-0.7-1.9c-0.3-0.8-0.8-1.5-1.3-2.1
					c-0.2-0.3-0.5-0.3-0.8-0.1c-0.2,0.2,0,0.4,0.2,0.5c0.8,0.9,1.4,1.9,1.7,3.1C28.7,51.4,29,51.6,29.5,51.5z M58.9,46
					c0.3-0.5,0.3-0.9,0.3-1.4c0.2-2.3-0.1-4.5,0-6.8c0-0.2,0.1-0.7-0.3-0.6c-0.4,0-0.2,0.4-0.1,0.7c0.2,2.4,0.2,4.8,0,7.2
					C58.7,45.3,58.5,45.6,58.9,46z M58.3,49.1c1.3-0.3,2.6-0.6,3-2.1C59.7,46.8,59.1,47.2,58.3,49.1z M55.9,49.8
					c1.9-0.1,2-1.7,2.9-2.8c-0.6,0-1-0.2-1.3,0.2C56.9,48.1,56.3,48.9,55.9,49.8z M19.5,74.9c0.4-0.2,1-0.3,1-0.8
					c0-0.8,0.4-1.7-0.3-2.5c-0.3-0.3-0.5-0.2-0.5,0.2C19.5,72.8,19.3,73.8,19.5,74.9z M13,45.5c0.1,0.1,0.1,0.1,0.2,0.2
					c1-0.7,2.1-1.4,3.1-2.2c0.4-0.3-0.1-0.6-0.2-0.8c-0.1-0.2-0.2-0.2-0.4-0.1C14.8,43.5,13.9,44.5,13,45.5z M60.3,125.9
					c0.4-0.3,0.5-0.5,0.4-1c-0.3-1.1-0.6-2.3-0.9-3.4c-0.2-0.6-0.4-1.2-0.8-2C59.1,121.9,60.4,123.7,60.3,125.9z M59.8,45.8
					c0.3-0.1,0.2-0.3,0.2-0.5c0-1.8,0-3.6,0.1-5.4c0-0.7,0-1.5,0-2.2c0-0.2,0.1-0.4-0.2-0.4c-0.3,0-0.3,0.3-0.3,0.5
					c0,0.1,0,0.2,0,0.2c0,2.5,0.3,5,0,7.4C59.7,45.6,59.6,45.7,59.8,45.8z M25,50.1c-0.5-1-1.1-1.6-1.4-2.4
					c-0.1-0.2-0.3-0.2-0.5-0.2c-0.1,0-0.2,0.1-0.2,0.2c0.2,0.6,0.4,1.3,0.7,1.8C23.8,50,24.3,50,25,50.1z M12.5,51.4
					c0.1,0,0.1,0,0.2,0c0.2-1,0.5-2.1,0.7-3.1c0.1-0.3,0.1-0.5,0.1-0.8c0-0.3-0.2-0.3-0.4-0.4c-0.2-0.1-0.2,0.1-0.2,0.2
					C12.8,48.7,12.6,50,12.5,51.4z M12.7,40.8c0.1,0.2-0.2,0.8,0.2,0.7c0.5-0.1,0.9-0.7,1-1.2c0.1-0.3-0.4-0.5-0.8-0.5
					C12.6,39.9,12.6,40.3,12.7,40.8z M63.7,72.6c-0.4,0.4-0.9,0.6-0.7,1.1c0.2,0.4,0.7,0.4,1.3,0.5C64.1,73.6,63.9,73.1,63.7,72.6z
					 M12.6,39.2c0.4-0.4,0.8-0.6,0.6-1.1c-0.1-0.2-0.6-0.4-0.7-0.3C12.2,38.2,12.5,38.7,12.6,39.2z M71.8,39c-0.1-0.5-0.3-1-0.4-1.5
					c0-0.1-0.2-0.2-0.2-0.2c-0.2,0-0.3,0.2-0.3,0.3C71,38.2,71.2,38.7,71.8,39z"/>
			</g>
			<g>
				<path d="M54.4,56.5c-0.5-0.1-1.1-0.2-1.2-1c0-0.4-0.3-0.5-0.6-0.4c-0.4,0.1-0.8,0.2-1.3,0.3c-0.4,0.1-0.7,0-0.8-0.5
					c-0.1-0.4,0.2-0.5,0.6-0.6c2.2-0.5,4.4-0.8,6.6-1.1c1.3-0.2,2.6-0.2,3.9-0.4c0.4,0,0.8-0.1,0.8,0.4c0,0.5-0.3,0.7-0.7,0.7
					c-1.6,0.1-3.2,0.3-4.8,0.5c-0.6,0.1-1.2,0-1,1C56,55.9,55.2,56.5,54.4,56.5z"/>
			</g>
		</g>
		<g>
			<g>
				<g>
					<g>
						<path class="st0" d="M52.4,9.7c0-0.6-0.5-1-1-1c-2.8-0.1-3.5-1-3.6-1c-1.5-2.2-5.6-2-5.6-2c0,0-4.2-0.2-5.6,2
							c0,0-0.8,0.9-3.6,1c-0.6,0-1,0.5-1,1c-0.1,2.6,0.4,11.2,9.6,14.8c0.2,0.1,0.4,0.1,0.6,0.1s0.4,0,0.6-0.1
							c8.7-3.4,9.7-11.3,9.7-14.3C52.4,10,52.4,9.9,52.4,9.7z M42.5,23.6c-0.1,0-0.2,0-0.3,0c-0.1,0-0.2,0-0.3,0
							c-8.6-3.4-9-11.5-8.9-13.9c0-0.1,0.1-0.1,0.1-0.1c3.2-0.1,4.1-1.2,4.3-1.4c1.1-1.5,4.2-1.6,4.8-1.6h0.1c0.2,0,3.7,0,4.9,1.6
							c0.2,0.2,1.1,1.3,4.3,1.4c0.1,0,0.1,0.1,0.1,0.1C51.6,12.1,51.2,20.2,42.5,23.6z"/>
					</g>
				</g>
			</g>
		</g>
	</g>
	<g>
		<g>
			<path class="st0" d="M34.9,14.6C34.9,14.6,34.9,14.7,34.9,14.6c-0.1,0-0.1,0-0.2,0c0,0-0.1,0-0.1,0c0,0-0.1,0-0.1,0s-0.1,0-0.1,0
				c0,0,0,0,0-0.1c0-0.1,0-0.4,0-0.7c0-0.3,0-0.5,0-0.7c0-0.1,0-0.4,0-0.6c0-0.3,0-0.5,0-0.6c0,0,0-0.1,0-0.1c0,0,0.1,0,0.1,0
				s0.1,0,0.1,0s0.1,0,0.1,0c0,0,0.1,0,0.1,0c0,0,0,0,0,0c0,0.1,0,0.4,0,0.7c0,0.3,0,0.5,0,0.7c0,0.2,0,0.4,0,0.7
				C34.9,14.2,34.9,14.5,34.9,14.6z"/>
			<path class="st0" d="M37.7,11.6c0,0.2,0,0.5,0,0.9c0,0.4,0,0.7,0,0.9c0,0.2,0,0.4,0,0.8c0,0.4,0,0.6,0,0.8c0,0.1,0,0.1,0,0.1
				c0,0,0,0-0.1,0c0,0-0.1,0-0.1,0c0,0,0,0-0.1,0s-0.1,0-0.1,0s0,0-0.1-0.1c-0.3-0.5-0.7-1.2-1.2-2.1c-0.1-0.1-0.1-0.2-0.2-0.2
				c0,0,0,0,0,0.1c0,0.2,0,0.6,0,1s0,0.8,0,1c0,0.1,0,0.1,0,0.1c0,0-0.1,0-0.1,0c0,0-0.1,0-0.1,0c0,0-0.1,0-0.1,0c0,0-0.1,0-0.1,0
				c0,0,0,0,0-0.1c0-0.1,0-0.4,0-0.7c0-0.3,0-0.5,0-0.7c0-0.2,0-0.5,0-0.9c0-0.1,0-0.3,0-0.5c0,0,0,0,0,0c0,0,0,0,0,0
				c0.1,0,0.2,0,0.2,0c0,0,0,0,0.1,0c0,0,0.1,0,0.1,0c0,0,0,0,0.1,0.1c0.3,0.4,0.7,1.1,1.3,2.1c0,0,0,0.1,0.1,0.1c0-0.1,0-0.2,0-0.5
				c0-0.2,0-0.5,0-0.9c0-0.4,0-0.7,0-0.9c0-0.1,0-0.1,0-0.1c0,0,0.1,0,0.1,0c0,0,0.1,0,0.1,0c0,0,0.1,0,0.1,0S37.7,11.5,37.7,11.6
				C37.7,11.5,37.7,11.5,37.7,11.6z"/>
			<path class="st0" d="M39.9,11.9C39.9,11.9,39.9,11.9,39.9,11.9c-0.1,0.1-0.3,0.1-0.7,0.1c0,0.5,0,1,0,1.3c0,0.2,0,0.5,0,0.9
				c0,0.4,0,0.7,0,0.9c0,0,0,0.1-0.1,0.1c0,0-0.1,0-0.1,0c0,0-0.1,0-0.1,0c0,0-0.1,0-0.1,0c0,0-0.1,0-0.1,0s0,0,0-0.1
				c0-0.2,0-0.5,0-0.9c0-0.4,0-0.7,0-0.9c0-0.3,0-0.7,0-1.3C38.4,12,38.2,12,38,12c0,0,0,0,0,0c0,0,0-0.1,0-0.1c0-0.1,0-0.1,0-0.1
				c0-0.1,0-0.1,0-0.2c0,0,0,0,0,0c0,0,0,0,0,0c0.5,0,0.8,0,0.9,0c0.1,0,0.3,0,0.6-0.1c0.2,0,0.3,0,0.2,0c0,0,0,0,0.1,0.1
				c0,0,0,0.1,0,0.3c0,0,0,0.1,0,0.1C39.9,11.8,39.9,11.8,39.9,11.9z"/>
			<path class="st0" d="M42,14.6c0,0,0,0.1,0,0.1c0,0.1,0,0.1,0,0.1c0,0.1,0,0.2,0,0.3c0,0,0,0.1,0,0.1c0,0,0,0-0.1,0
				c-0.2,0-0.4-0.1-0.7-0.1c-0.1,0-0.2,0-0.4,0s-0.3,0-0.4,0c0,0-0.1,0-0.1-0.1c0-0.2,0-0.5,0-0.9c0-0.4,0-0.7,0-0.9
				c0-0.2,0-0.6,0-1.1c0-0.1,0-0.4,0-0.6c0,0,0,0,0,0c0,0,0-0.1,0-0.1c0.1,0,0.2,0,0.4,0c0.2,0,0.3,0,0.4,0s0.2,0,0.4,0
				c0.2,0,0.3,0,0.4,0c0.1,0,0.1,0,0.1,0.1c0,0.2,0,0.4,0,0.4c0,0,0,0.1,0,0.1c-0.1,0-0.3,0-0.5,0c-0.2,0-0.4,0-0.5,0
				c-0.1,0-0.2,0-0.2,0.1c0,0,0,0.1,0,0.3s0,0.2,0,0.4c0,0.1,0,0.2,0,0.2c0,0.1,0,0.1,0.1,0.1c0,0,0,0,0.1,0c0,0,0,0,0.1,0
				c0.2,0,0.5,0,0.7,0c0.1,0,0.2,0,0.3,0c0,0,0,0,0,0.1c0,0.1,0,0.1,0,0.3c0,0.1,0,0.2,0,0.3c0,0,0,0.1-0.1,0.1c0,0-0.1,0-0.2,0
				c-0.1,0-0.2,0-0.5,0c-0.2,0-0.3,0-0.4,0c0,0-0.1,0-0.1,0.1c0,0,0,0.1,0,0.2c0,0.2,0,0.2,0,0.4c0,0.2,0,0.3,0.1,0.4
				c0,0,0.1,0.1,0.2,0.1c0.1,0,0.1,0,0.2,0C41.3,14.6,41.5,14.6,42,14.6C41.9,14.5,42,14.5,42,14.6C42,14.6,42,14.6,42,14.6z"/>
			<path class="st0" d="M44.3,15.1C44.3,15.2,44.3,15.2,44.3,15.1c0,0-0.1,0-0.1,0s-0.1,0-0.1,0c0,0-0.1,0-0.1,0s-0.1,0-0.1,0
				s0,0-0.1-0.1c0-0.1-0.2-0.5-0.3-1.2c0-0.1-0.1-0.1-0.1-0.1c0,0-0.1,0-0.2,0c-0.2,0-0.3,0-0.3,0c0,0,0,0.1,0,0.1
				c0,0.1,0,0.3,0,0.6s0,0.4,0,0.6c0,0,0,0.1,0,0.1c0,0-0.1,0-0.1,0c0,0-0.1,0-0.1,0c0,0,0,0-0.1,0c0,0-0.1,0-0.1,0c0,0,0,0,0-0.1
				c0-0.2,0-0.5,0-0.9c0-0.4,0-0.7,0-0.9c0-0.6,0-1.2,0-1.9c0,0,0,0,0,0c0,0,0-0.1,0.1-0.1c0.1,0,0.3,0,0.5,0s0.4,0,0.5,0
				c0.3,0,0.5,0.1,0.7,0.3c0.2,0.2,0.3,0.5,0.3,0.9c0,0.3,0,0.5-0.1,0.6c0,0.2-0.2,0.3-0.3,0.5c0,0,0,0.1,0,0.1c0,0,0.1,0.3,0.2,0.7
				C44.3,14.9,44.3,15.1,44.3,15.1z M43.8,12.6c0-0.3-0.1-0.6-0.2-0.7c-0.1-0.1-0.3-0.1-0.5-0.1c-0.2,0-0.3,0-0.3,0.1
				c0,0.1,0,0.4,0,0.8c0,0.2,0,0.3,0,0.5c0,0,0,0,0,0c0,0,0.1,0,0.1,0c0.1,0,0.2,0,0.4,0C43.7,13.3,43.8,13.1,43.8,12.6z"/>
			<path class="st0" d="M45.1,15.1C45.1,15.1,45.1,15.1,45.1,15.1c-0.1,0.1-0.1,0.1-0.2,0.1s-0.1,0-0.1,0c0,0-0.1,0-0.1,0
				c0,0-0.1,0-0.1,0s0,0,0-0.1c0-0.2,0-0.5,0-0.9c0-0.4,0-0.7,0-0.9c0-0.2,0-0.5,0-0.9c0-0.4,0-0.7,0-0.9c0-0.1,0-0.1,0-0.1
				c0,0,0.1,0,0.1,0c0,0,0.1,0,0.1,0s0.1,0,0.1,0c0,0,0.1,0,0.1,0c0,0,0,0,0,0.1c0,0.2,0,0.5,0,0.9c0,0.4,0,0.7,0,0.9
				c0,0.2,0,0.5,0,0.9C45.1,14.6,45.1,14.9,45.1,15.1z"/>
			<path class="st0" d="M48.1,13.2c0,0.5-0.1,0.9-0.4,1.2c-0.2,0.4-0.6,0.6-0.9,0.6c-0.4,0-0.7-0.1-0.9-0.5
				c-0.2-0.4-0.4-0.8-0.4-1.3c0-0.5,0.1-1,0.4-1.3c0.2-0.4,0.6-0.6,0.9-0.5c0.4,0,0.7,0.2,0.9,0.6C48,12.4,48.1,12.8,48.1,13.2z
				 M47.6,13.2c0-0.3-0.1-0.6-0.2-0.8C47.2,12.1,47,12,46.8,12c-0.2,0-0.5,0.1-0.6,0.4c-0.2,0.2-0.2,0.6-0.2,0.9s0.1,0.6,0.2,0.9
				c0.2,0.3,0.4,0.4,0.6,0.4c0.2,0,0.5-0.2,0.6-0.4C47.5,13.8,47.6,13.6,47.6,13.2z"/>
			<path class="st0" d="M50.5,14.6C50.5,14.6,50.5,14.6,50.5,14.6c0,0-0.1,0-0.1,0s-0.1,0-0.1,0c0,0-0.1,0-0.1,0s-0.1,0-0.1,0
				s0,0-0.1,0c0-0.1-0.2-0.4-0.3-0.8c0-0.1-0.1-0.1-0.1-0.1c0,0-0.1,0-0.2,0c-0.2,0-0.3,0-0.3,0c0,0,0,0,0,0.1c0,0.1,0,0.3,0,0.5
				s0,0.4,0,0.5c0,0,0,0.1,0,0.1c0,0-0.1,0-0.1,0c0,0-0.1,0-0.1,0c0,0,0,0-0.1,0c0,0-0.1,0-0.1,0c0,0,0,0,0-0.1c0-0.2,0-0.4,0-0.8
				c0-0.3,0-0.6,0-0.8c0-0.5,0-1,0-1.6c0,0,0,0,0,0c0,0,0,0,0.1,0c0.1,0,0.3,0,0.5,0.1s0.4,0,0.5,0.1c0.3,0,0.5,0.1,0.7,0.3
				c0.2,0.2,0.3,0.4,0.3,0.7c0,0.2,0,0.3-0.1,0.4c0,0.1-0.2,0.2-0.3,0.3c0,0,0,0.1,0,0.1c0,0,0.1,0.2,0.2,0.5
				C50.4,14.4,50.5,14.6,50.5,14.6z M49.9,12.8c0-0.2-0.1-0.4-0.2-0.5c-0.1-0.1-0.3-0.1-0.5-0.1c-0.2,0-0.3,0-0.3,0
				c0,0.1,0,0.3,0,0.6c0,0.2,0,0.2,0,0.4c0,0,0,0,0,0s0.1,0,0.1,0c0.1,0,0.2,0,0.4,0C49.8,13.3,49.9,13.1,49.9,12.8z"/>
		</g>
	</g>
</g>
</svg>
