<svg width="35" height="35" viewBox="0 0 35 35" fill="none" xmlns="http://www.w3.org/2000/svg">
<path fill-rule="evenodd" clip-rule="evenodd" d="M17.5 35C27.165 35 35 27.165 35 17.5C35 7.83502 27.165 0 17.5 0C7.83502 0 0 7.83502 0 17.5C0 27.165 7.83502 35 17.5 35ZM9.79298 18.2071L16.1569 24.5711C16.5475 24.9616 17.1806 24.9616 17.5711 24.5711C17.9617 24.1805 17.9617 23.5474 17.5711 23.1569L12.9143 18.5L23.9167 18.5C24.469 18.5 24.9167 18.0523 24.9167 17.5C24.9167 16.9477 24.469 16.5 23.9167 16.5L12.9143 16.5L17.5711 11.8431C17.9617 11.4526 17.9617 10.8195 17.5711 10.4289C17.1806 10.0384 16.5475 10.0384 16.1569 10.4289L9.79298 16.7929C9.40245 17.1834 9.40245 17.8166 9.79298 18.2071Z" fill="#262626"/>
</svg>
