<?xml version="1.0" encoding="utf-8"?>
<!-- Generator: Adobe Illustrator 28.2.0, SVG Export Plug-In . SVG Version: 6.00 Build 0)  -->
<svg version="1.1" xmlns="http://www.w3.org/2000/svg" xmlns:xlink="http://www.w3.org/1999/xlink" x="0px" y="0px"
	 viewBox="0 0 124 184" style="enable-background:new 0 0 124 184;" xml:space="preserve">
<style type="text/css">
	.st0{display:none;}
	.st1{display:inline;}
</style>
<g id="Слой_1" class="st0">
	<g class="st1">
		<g>
			<path d="M39.1,162.3c-0.7,0.3-1.1,0.9-1.1,1.6c0,2.7-0.1,5.5,0.1,8.2c0.1,1-0.2,1.2-1.3,1.1c-0.4-0.5-0.4-1.2-0.4-1.8
				c0-2.7,0-5.4,0-8.1c0-0.3,0.1-0.6-0.1-0.8c-0.8-0.1-1.4,0.6-1.4,1.6c0,1.2-0.1,2.3,0,3.5c0.1,1.7-0.1,3.5,0,5.2
				c0,0.1,0,0.3-0.1,0.4c-0.4,0.2-0.8,0.2-1.2,0.1c-0.2-0.4-0.3-0.8-0.3-1.2c0-3.1-0.1-6.2-0.1-9.3c0-0.5-0.1-1.1,0-1.6
				c0.4-0.2,0.8-0.3,1.2-0.2c0.3,0.2,0.2,0.4,0.3,0.7c0.5-0.3,0.9-0.8,1.6-0.7c0.7,0,1.1,0.2,1.2,0.9c0.3-0.1,0.4-0.4,0.6-0.5
				c0.6-0.5,1.2-0.6,1.9-0.3c0.6,0.2,0.8,0.7,0.9,1.3c0.2,1.1,0,2.2,0,3.2c-0.1,2.2-0.1,4.5,0,6.7c0,0.9-0.2,1.2-0.8,1.2
				c-0.5,0-0.7-0.2-0.8-0.7c0-0.4-0.1-0.8-0.1-1.2c0-2.7,0-5.3,0.1-8C39.6,163,39.6,162.6,39.1,162.3z"/>
			<path d="M25.6,160.5c0-0.7,0-1.4-0.2-2.1c-0.3-2-0.9-2.4-3-2.3c-0.8,0.1-1.3,0.4-1.6,1.1c-0.4,0.8-0.6,1.6-0.7,2.4
				c-0.3,4.1-0.3,8.2-0.2,12.3c0,0.4-0.2,0.8,0.2,1.2c0.4,0.2,0.8,0.2,1.3,0.1c0.1-2.6-0.1-5.2,0.2-7.8c0.8,0.1,1.5-0.2,2.3,0v7.7
				c0.7,0.3,1.1,0.2,1.7-0.1c0-0.2,0-0.4,0-0.7C25.6,168.5,25.6,164.5,25.6,160.5z M21.6,164c0-0.1-0.1-0.1-0.1-0.1
				c0.1-1.7,0.1-3.4,0.4-5.1c0.1-1,0.7-1.3,1.8-0.9c0.3,2,0.2,3.9,0.2,5.9C23.1,164,22.4,164,21.6,164z"/>
			<path d="M32,170.5c-0.1-4.5-0.1-9-0.2-13.5c0-0.2,0-0.5-0.2-0.7c-0.3-0.1-0.6-0.2-1,0c-0.5,1.4-0.2,3-0.3,4.6
				c-0.7-0.2-1.2-0.2-1.7,0.2c-0.7,0.4-0.9,1-1,1.7c-0.5,3-0.4,5.9-0.1,8.9c0.2,1.6,1.7,2.1,3.1,1.3c0.6,0.4,0.8,0.4,1.5,0
				C32,172.3,32,171.4,32,170.5z M30.4,171.1c0,0.8-0.2,0.9-0.9,0.9c-0.5-0.5-0.7-1.3-0.7-2c-0.2-2.2-0.3-4.4,0.1-6.7
				c0.1-0.5,0.3-0.9,0.8-1.2c0.6,0.2,0.7,0.7,0.7,1.1c0.1,0.7,0.1,1.3,0.1,2C30.4,167.2,30.4,169.2,30.4,171.1z"/>
			<path d="M98.1,166.6v-1.9c0-0.6,0-1.3-0.1-1.9c0-0.7-0.3-1.2-0.9-1.6c-1.5-0.9-3.2-0.2-3.6,1.5c-0.1,0.3-0.1,0.6-0.1,1
				c-0.2,2.2,0,4.5,0,6.8c0,0.5,0.1,0.9,0.3,1.4c0.6,1.5,1.9,2,3.2,1.4c0.8-0.4,1.1-1.1,1.2-1.9C98.3,169.7,98.1,168.2,98.1,166.6z
				 M96.6,170.6c0,0.6-0.2,1.1-0.8,1.2c-0.5-0.1-0.7-0.4-0.7-0.8c0-0.5-0.1-1-0.1-1.6c0-2.1-0.1-4.1,0.1-6.2c0-0.4,0.1-0.7,0.4-1
				c0.6-0.1,0.9,0.2,0.9,0.8c0.1,1,0.2,2.1,0.2,3.2C96.7,167.6,96.7,169.1,96.6,170.6z"/>
			<path d="M55,161.3c-0.4-0.2-0.7-0.5-1.1-0.5c-0.2,0.1-0.5,0.2-0.8,0.1c-0.7-0.2-1.3,0-1.7,0.6c-0.4,0.5-0.7,1-0.9,1.6
				c-0.5,1.6-0.4,3.3-0.4,4.9c0,1.3,0.1,2.6,0.5,3.9c0.6,1.5,1.3,1.8,2.8,1.2c0,0,0.1,0,0.1,0c0.4,0.5,0.9,0.4,1.6,0.3
				C54.9,169.3,55.1,165.3,55,161.3z M53.5,169c0,1,0.1,2,0,3c-0.6,0.3-0.9,0.3-1.2-0.3c-0.3-0.5-0.4-1.2-0.5-1.8
				c-0.1-2-0.2-4,0-6.1c0-0.4,0.2-0.8,0.3-1.1c0.2-0.4,0.4-0.7,0.9-0.7c0.4,0.3,0.4,0.8,0.5,1.2C53.8,165.2,53.5,167.1,53.5,169z"/>
			<path d="M69.4,173.3c-0.4,0.1-0.7,0.1-1.1-0.2c-0.2-3.9,0-7.8-0.3-11.8c0.3-0.3,0.7-0.4,1.1-0.4c0.3,0.2,0.2,0.5,0.3,0.8
				c0.3-0.3,0.5-0.5,0.8-0.7c0.8-0.5,1.8-0.3,2.2,0.6c0.2,0.4,0.3,0.8,0.3,1.3c0,3.1,0.1,6.2,0.1,9.3c0,0.9-0.2,1.1-1.3,1
				c-0.3-0.6-0.3-1.2-0.3-1.8c-0.1-2.8-0.1-5.6-0.1-8.4c0-0.3,0.1-0.6-0.2-0.8c-0.8,0.2-1.3,0.8-1.3,1.8c0,1.4,0,2.8,0,4.1
				c0,1.4,0,2.8,0,4.1C69.7,172.7,69.8,173,69.4,173.3z"/>
			<path d="M83.5,169.5c-0.5-0.3-0.9-0.4-1.4-0.1c-0.2,0.6,0,1.2-0.1,1.8c-0.1,0.7-0.4,0.9-1.1,0.8c-0.5-1.3-0.4-2.8-0.4-4.2
				c0.2-0.1,0.2-0.1,0.3-0.2c1.9-0.9,2.7-2.5,2.7-4.5c0-0.5-0.2-1-0.6-1.4c-1.1-1.3-3-1-3.5,0.6c-0.1,0.4-0.2,0.8-0.3,1.2
				c-0.3,2-0.2,4-0.1,5.9c0,1,0,1.9,0.4,2.9c0.3,0.8,0.8,1.2,1.7,1.3c0.9,0.1,1.7-0.1,2.2-1C83.6,171.5,83.6,170.5,83.5,169.5z
				 M80.8,162.2c0.8,0,1.2,0.3,1.2,1c0,1.3-0.4,2.1-1.6,2.9C80.5,164.8,80.2,163.5,80.8,162.2z"/>
			<path d="M64,157.5c-0.3-0.1-0.6-0.1-0.8-0.2c-0.3-0.3-0.3-0.6-0.2-1.1c1.2-0.3,2.3-0.1,3.5-0.1c0.2,0.4,0.1,0.7,0,0.9
				c-0.2,0.2-0.5,0.2-0.8,0.3c0,4.8,0,9.6,0,14.4c0.3,0.3,0.6,0.2,0.8,0.3c0.2,0.3,0.2,0.6,0,1.1c-1,0.3-2,0-3,0.1
				c-0.3-0.4-0.3-0.8-0.2-1.1c0.2-0.3,0.5-0.1,0.8-0.3C64,167.1,64,162.3,64,157.5z"/>
			<path d="M77,172.5c-0.2,0.5-0.4,0.8-0.9,0.9c-0.5,0.1-0.8-0.3-1-0.6c-0.5-0.7-0.5-1.5-0.5-2.3c-0.1-2.4,0-4.8,0-7.3
				c0-0.2,0-0.5,0-0.8c-0.3,0-0.5-0.1-0.7-0.1c-0.2-0.4-0.1-0.8-0.1-1.2c0.3-0.3,0.6-0.1,0.9-0.3c0.2-1.4,0-2.9,0.1-4.4
				c0.4-0.3,0.8-0.2,1.3-0.1c0.2,1.5,0.1,3,0.1,4.5c0.6,0.2,1.2-0.1,1.8,0.3c0.2,0.4,0.1,0.7-0.1,1.1c-0.5,0.2-1,0-1.6,0.1
				c-0.1,1.7-0.2,3.4-0.2,5.1C76.1,169.2,75.9,171,77,172.5z"/>
			<path d="M58.3,173.1c-0.5,0.3-1,0.4-1.7,0.1c0.2-5.6,0.2-11.2,0.1-16.8c0.5-0.3,0.9-0.2,1.3,0c0.2,0.4,0.2,0.8,0.2,1.3
				c0,4.1,0,8.2,0,12.2C58.3,170.9,58.3,172,58.3,173.1z"/>
			<path d="M88.5,163.1c-0.3-0.1-0.4-0.4-0.5-0.6c-0.2-0.3-0.5-0.5-0.9-0.4c-0.4,0.1-0.6,0.4-0.7,0.8c0,0.2,0,0.5,0,0.7
				c0,2.7,0,5.5,0,8.2c0,0.5,0,1-0.2,1.4c-0.4,0.2-0.7,0.2-1.2,0c0-3.9,0-7.9,0-12c0.4-0.3,0.8-0.2,1.3,0c0.5-0.3,1.1-0.5,1.7-0.4
				c0.5,0.1,1,0.3,1.2,0.8C89.6,162.3,89.4,162.9,88.5,163.1z"/>
			<path d="M49.3,163.1c-0.3-0.1-0.3-0.4-0.5-0.6c-0.2-0.3-0.5-0.5-0.9-0.4c-0.4,0.1-0.7,0.4-0.8,0.8c0,0.2,0,0.5,0,0.7
				c0,2.7,0,5.4,0,8.2c0,0.5,0,1-0.2,1.4c-0.4,0.2-0.7,0.2-1.1,0.1c-0.2-0.5-0.4-9.7-0.2-12c0.4-0.3,0.8-0.2,1.3-0.1
				c0.5-0.3,1.1-0.5,1.8-0.4c0.6,0.1,1,0.4,1.3,0.9C50.5,162.4,50.2,162.9,49.3,163.1z"/>
			<path d="M100.8,173.2c-0.4,0.1-0.7,0.2-1.1,0c0-3.9,0-7.9,0-12c0.3-0.3,0.8-0.2,1.3,0c0.5-0.3,1.1-0.5,1.8-0.4
				c0.5,0.1,0.9,0.4,1.2,0.8c0.4,0.7,0.2,1.2-0.6,1.5c-0.3-0.1-0.4-0.4-0.6-0.6c-0.2-0.3-0.5-0.5-1-0.4c-0.4,0.1-0.7,0.4-0.7,0.9
				c0,0.2,0,0.5,0,0.7c0,2.9,0.1,5.9,0,8.8C101,172.7,101,172.9,100.8,173.2z"/>
			<path d="M42.5,161.1c0.4-0.2,0.8-0.3,1.2-0.2c0.3,0.2,0.4,0.6,0.4,0.9c-0.1,1.7,0,3.4,0,5.1c0,1.7-0.1,3.3,0,5
				c0,0.5-0.1,0.9-0.2,1.4c-0.4,0.2-0.8,0.1-1.2,0.1c-0.3-0.4-0.3-0.9-0.3-1.4C42.5,168.3,42.7,164.7,42.5,161.1z"/>
			<path d="M91.6,173.3c-0.4,0.1-0.7,0.1-1.1,0c-0.3-0.6-0.3-1.2-0.3-1.8c0-3.4,0.1-6.8,0-10.3c0,0,0-0.1,0-0.2
				c0.4-0.2,0.8-0.3,1.2-0.2c0.3,0.2,0.4,0.6,0.4,0.9c-0.1,1.8,0,3.6,0,5.4c0,1.8,0,3.6-0.1,5.4C91.8,172.8,91.8,173,91.6,173.3z"/>
			<path d="M42.7,158.2c0.4-0.3,0.8-0.3,1.3-0.2c0.2,0.7,0.3,1.4-0.2,1.9c-0.3,0.3-0.6,0.2-1,0C42.5,159.4,42.6,158.8,42.7,158.2z"
				/>
			<path d="M91.8,158c0.3,1.7-0.1,2.3-1.2,1.9c-0.3-0.6-0.3-1.2-0.2-1.8C90.8,157.9,91.3,157.8,91.8,158z"/>
		</g>
	</g>
	<g class="st1">
		<g>
			<g>
				<g>
					<path d="M193.1-65.4c-0.8-1.8-2.1-1.2-3.2-0.7c-7,3.2-14.5,3.2-21.9,2.8c-4.1-0.2-4.1-0.4-4.1-4.6c0-0.5,0-0.9-0.1-1.4
						c-0.4-6.1-0.9-12.1-1.3-18.2c-0.2-3.3-0.2-6.6,1.4-9.6c4.1-7.8,6-16.3,8-24.8c1.2-5.1,2.9-10.2,2.5-15.5
						c-0.3-4.6-3.4-7.2-8-6.9c-3.3,0.2-3.2,0.2-2.8-3.2c0.4-3.5,0.7-7.1,1.1-10.6c-1.9,2.6-4.5,4.7-6.5,5.6
						c-0.6,0.3-1.2,0.5-1.9,0.7c-0.5,0.8-0.9,1.6-1.3,2.5c-0.1-0.7-0.2-1.4-0.2-2.1c-1.1,0.3-2.2,0.5-3.3,0.6
						c0.5,15.4-0.3,30.8-0.3,46.2c0,8.9-2.5,16.5-9,22.8c-2.9,2.8-5.7,5.9-8,9.2c-1.5,2.1-3.3,2.9-6,1.6c-5.9-2.8-12.2-4.6-19.1-5.4
						c2.5-4.1,3.2-8,2-12.2c-2.4-8-10.2-12.3-18.2-9.8c-5.2,1.6-7.3,0.1-7.6-5.3c-0.6-8.2,0.7-16.2,2.8-24.2
						c0.7-2.5,2.3-4.5,4.4-6.1c2.7-2.1,5.7-3.6,8.8-4.8c7.8-2.8,15.6-5.7,23.3-8.6c-5.4,0.3-10.9,0.5-16.3,0.7
						c-2.2,2-5.7,2.4-8.7,3.4c0.6-1,1.2-1.9,1.9-2.9c-1.1,0.1-2.2,0.2-3.3,0.3c-2.2,2.4-4.5,4.6-7.1,6.7c0.5-1.9,1.9-3.2,3-4.7
						c0.4-0.6,0.9-1.2,1.3-1.7c-1,0.1-2,0.2-3,0.3c-1.2,1.5-2.4,3.1-3.6,4.7c0.2-1.5,0.5-3,0.7-4.5c-0.6,0-1.2,0.1-1.9,0.1
						c-0.4,2.3-0.8,4.5-1.4,6.7c-0.2,0.6-0.2,1.3-1.8,1.7c0-2.8,0-5.6,0-8.4c-1.2,0-2.5,0-3.7-0.1c0.4,9.9,1.6,19.8,1.2,29.8
						c-0.2,4.4-0.5,8.9-0.5,13.3c0,6.6,3,9,9.5,7.8c2-0.3,3.9-0.7,5.9-1c4.9-0.8,9,1.9,10.7,7.1c1.6,4.8-0.2,9.3-4.5,11.5
						c-0.7,0.4-1.5,0.8-2.3,0.9c-7.1,1.4-12.5,5.6-17.6,10.3c-2.6,2.4-5.4,4.5-8.7,6c-4.6,2.1-9,1.4-13.3-0.9
						c-3.1-1.7-6-3.8-8.7-6.1C45.6-71.3,38-74,29.5-74.4c-3.7-0.2-7.1-0.7-8.5-5c-1.2-3.8,0.2-9.4,3-11.8c2-1.7,4.3-1.7,6.7-1.3
						c1.9,0.3,3.7,0.8,5.6,1c3.8,0.4,5.9-0.9,7.3-4.6c2-5.4,1.6-11.1,1.5-16.7c-0.2-10.7-0.4-21.3-1-32c-1.2,0-2.5-0.1-3.7-0.1
						c0.1,1.7,0.1,3.3,0,5.1c-1.1-1.7-1.8-3.4-2.4-5.2c-0.6,0-1.3,0-1.9,0c1,3.5,2.5,6.9,4.1,10.4c-0.8-0.3-0.9-0.3-1-0.3
						c-5.8-1.7-7.7-5.8-8.8-10.2c-0.6,0-1.1,0-1.7,0c0.6,1.9,1.2,3.8,1.7,5.8c-3.3-0.2-4.4-2.2-5.2-4.5c-0.2-0.5-0.3-0.9-0.5-1.4
						c-0.7,0-1.4,0-2.1-0.1c0.4,1.1,0.7,2.1,1.1,3.3c-1.7,0.2-2.6-0.4-2.9-1.7c-0.2-0.6-0.3-1.1-0.5-1.7c-0.7,0-1.4-0.1-2.1-0.1
						c0.2,0.6,0.4,1.2,0.6,1.8c-1.4,0-2.8-0.2-3.3-1.2c-0.1-0.3-0.2-0.5-0.4-0.8c-3.6-0.2-7.1-0.4-10.7-0.7
						c-2.3-0.2-4.6-0.3-6.9-0.5c5.3,1.6,10.7,3.2,16,4.9c6.2,1.9,12.1,4.2,18,6.9c0.7,0.3,1.4,0.7,2.1,1.1c-6.5-1.2-12.9-2-19.5-2
						c-6,0.1-11.9,0.8-17.8,2.2c-1.1,0.3-2.9,0.2-2.4,2.2c0.5,1.7,1.8,1,2.9,0.7c6.1-1.4,12.3-2.2,18.6-2.1c1.4,0,2.3,0,1.5,1.9
						c-0.8,1.8,0.1,3.1,1.9,3.9c3.7,1.7,7,0.2,8-3.8c0.3-1.1,0.8-0.8,1.3-0.6c1.7,0.4,3.4,0.8,5,1.2c1.1,0.3,2.3,0.7,3-0.9
						c0.7-1.5,1.3-0.2,1.8,0.3c2.1,2,2.8,4.7,2.9,7.5c0.3,7.6,0.7,15.3-0.4,22.9c-0.6,4.3-2.1,5.5-6.4,4.8c-0.4-0.1-0.7-0.2-1.1-0.3
						C23-98.2,15.3-91,16.9-80.7c0.4,2.6-0.1,3.5-2.7,3.9c-4.1,0.7-8,2.2-11.5,4.6c-1.2,0.8-1.9,0.7-2.6-0.5c-3.2-4.7-7-9-10.9-13.2
						c-4.2-4.6-5.2-10.5-6.4-16.2c-2.3-10.7-4.3-21.6-4.7-32.6c-0.2-4.8,0.2-9.5,0.5-14.3c-1.2-0.2-2.3-0.5-3.5-0.8
						c-0.1,11.6-1.6,22.9-4.9,34.1c-1,3.5-0.6,7.3-0.3,10.8c0.6,7.4,0.6,14.7-0.1,22c-0.3,3.9-0.1,7.7,0.9,11.6
						c0.7,2.7,0.3,5.6-0.1,8.3c-1.7-8.4-2.6-16.7-2.1-25.2c0.6-11.2-1-22.3-1.3-33.4c-0.1-3.1-0.1-6.2-0.3-9.2
						c-0.1-1.7,1.2-2.8,1.7-4.2c1.9-5,2.7-10.3,4-15.5c-0.8-0.3-1.7-0.5-2.5-0.8c-0.7,3-1.4,6.1-2.1,9.1c-0.2-0.1-0.5-0.1-0.7-0.2
						c0.3-3.2,0.6-6.5,1-9.7c-0.7-0.3-1.4-0.6-2.1-0.9c-0.1-0.1-0.2-0.1-0.3-0.2c-0.2,2.5-0.5,4.9-0.9,7.3c-0.3,1.7-0.6,2.5-2.7,1.6
						c-4.3-1.8-7.7,0-8.9,4.5c-0.3,1.2-0.4,2.5-0.4,3.8c0.2,10.3,1.6,20.5,5.7,30c5.9,13.6,7.3,28,9.1,42.4c0.2,1.6-0.3,2-1.9,1.7
						c-5.5-1-10.7-2.8-15.7-5.1c-1.1-0.5-2.3-1-3.2,0.2c-0.9,1-0.2,2,0.4,3c4.7,7.9,10.3,15,17,21.2c1.4,1.3,2,2.6,1.9,4.5
						c-0.5,7.3-0.6,14.5-1.3,21.8c-1.4,16.1-2.3,32.2-1.1,48.4c0.4,5.4,0.4,10.9-0.3,16.3c-0.7,4.7-1.3,9.4-0.1,14.1
						c2.3,8.8,7.1,16.7,10.2,25.2c0.2,0.5,0.5,1,1,1.3c4.2,3.3,7.4,7.8,12.8,9.5c0.9,0.3,1.7,0.8,2,1.7c0.8,2.1,2.6,3.5,4.5,4
						c4.6,1.2,8.5,3.2,12.2,6.2c3.2,2.6,7.7,3.4,11.7,4.9c5.6,2.1,11,5.2,17.1,5.9c0.4,0,0.8,0.3,1.3,0.5c8.9,3.8,18.3,6.3,27.7,8.9
						c1.2,0.3,2.4,0.5,3.5,0c4.6-2,9.2-1.6,13.8-0.3c2.3,0.6,4.5,0.2,6.2-1.7c1-1.1,2.1-1.3,3.4-0.7c2.9,1.4,5.8,0.8,8.8-0.1
						c1.6-0.5,3.1-1.2,4.7-1.3c3.3-0.3,5.8-1.9,7.9-4.3c2.4-2.7,5.2-4.8,8.7-5.9c3.2-1,5.8-3.2,7.5-6.1c3.8-6.7,9.6-11.1,15.9-15.3
						c11.8-7.6,20.2-18.4,27-30.5c2.3-4.1,3.1-8.7,2.5-13.4c-1.3-9.7-2-19.5-3-29.3c-0.6-6.1,0-12.2-1.1-18.2
						c-2.9-15.7-3.5-31.7-5.2-47.6c-0.1-1.1,0.1-1.9,1.1-2.5c8.6-5.6,16.5-12.3,26.2-16C192.6-63.1,193.9-63.6,193.1-65.4z
						 M-34.3-93.3c-4.7-13.1-10.9-25.8-10.1-40.2c0.1-2.3,0.1-4.6,1.2-6.6c0.8-1.4,1.8-2.4,3.5-1.8c1.7,0.5,3.9,0.8,3.8,3.2
						c-0.5,14.8,1.1,29.6,1.6,44.3C-34.2-94-34.3-93.7-34.3-93.3z M162.4-137.5c0.2-1.5-0.1-3.2,2-3.6c2.1-0.3,4.2-0.4,5.6,1.6
						c1.1,1.6,1.3,3.3,1.3,5.2c-0.1,6.3-2.2,12.3-3.7,18.3c-1.3,5-2.4,10-5.7,14.5c-0.2-4-0.6-8.1-0.7-12.1
						C161.2-121.6,161.5-129.5,162.4-137.5z M161.3-153.7c-0.5,8.8-0.7,17.7-6.4,25.1C154.3-137.7,155.3-146.3,161.3-153.7z
						 M158.7-128.1c0.8,6.8-0.9,13.4,0.1,20.5C152.3-114.1,153.2-124.3,158.7-128.1z M154.8-108.2c2.4,3.8,4.4,7.3,4.7,11.3
						c0.6,7.8,1.1,15.7,1.6,23.6c0,0.7,0.4,1.4-0.5,2.2c-1.9-4.3-3.2-8.6-4.1-13.1c-0.2-1.1-0.4-2.1-0.7-3.2
						c-0.7-2.2-2.4-4.3-2.3-6.6C153.8-98.6,153.1-103.2,154.8-108.2z M152-89.1c0.8,0.9,1.2,1.8,1.4,2.8c1.2,7.1,3.9,13.7,6.1,20.5
						c0.7,2.1,0.1,2.6-1.9,2.3c-2.3-0.4-5.3,0.2-6.8-1c-1.7-1.4,0-4.3-0.1-6.6c-0.2-3.7,0-7.4-0.5-11.1
						C149.7-84.9,149.9-87.2,152-89.1z M140.7-74.8c2.1-2.3,4.2-4.7,6.7-7.4c0.8,5.7,1,10.9,0,16.1c-0.3,1.3-3,1.4-4,0
						c-1.6-2.2-2.7-4.7-3.1-7.5C140.3-74,140.4-74.4,140.7-74.8z M137.8-72c0.7,1.9,1.2,3.4,1.8,5.1c-1.7-0.2-3.7-0.3-4.2-1.6
						C134.8-69.8,136.5-70.8,137.8-72z M101.2-70.2c10.6,1.8,20.8,4.2,30.1,10.3c7.9,5.2,17.3,7.4,26.4,9.9c1.1,0.3,2.4,0.2,3.3,1.3
						c-2.9,2.2-5.8,3.6-9.7,2.6c-8.2-2.1-15.8-5.1-22.3-10.8c-8.1-7-18-9.5-28.2-11c-1.7-0.2-3.4-0.4-5.4-0.7
						C97.1-70.4,99.1-70.5,101.2-70.2z M120.4,58.6c-1-25.8,0-51.2-1.3-76.7c2.2,6.1,3,12.5,3,18.9c-0.1,18.5-0.5,37-0.8,55.5
						C121.3,57,121.4,57.7,120.4,58.6z M103.4,33.9c-0.1-21.7-0.2-43.4-0.5-65.1c0-2.8,0.9-3.3,3.4-3c4.6,0.5,4.5,0.4,4.1,4.9
						c-0.3,4.7-0.4,9.5,0.1,14.2c0.7,8.3,0.2,16.5-0.4,24.8c-0.5,6.9-1.2,13.7-2.8,20.4c-1.6,6.6-2.2,13.6-3.2,20.4
						c-0.2,0-0.4,0.1-0.7,0.1C103.4,45,103.4,39.4,103.4,33.9z M106.2-37.8c-1.8-0.2-3.5-0.2-4.5-2.2c-0.6-1.2-2.1-2-3.1-2.9
						c0.2-0.7,0.8-0.7,1.2-0.6c8.4,0.7,16.8,0.3,25.2,0c5.4-0.2,10.2,1.9,16.1,2.9c-5.2,1.7-9.8,2-14.3,2.5
						C119.9-37.3,113-36.8,106.2-37.8z M102.8-54c-4.7-1.3-9.4-2.5-14.1-3.7c18.7-0.4,37.2,0.1,52.7,12.8c-3.9,0.8-7.6,0.7-11.4-0.3
						C120.7-47.6,112-51.4,102.8-54z M126.5-33.9c1.6-1.2,3.8-0.9,5.8-0.9c1.7,0,1.3,1.5,1.3,2.5c-0.5,5.8,0.3,11.6,0.6,17.4
						c0.8,14.9,1.6,29.7,1.6,44.6c0,5.7-0.3,11.4-1.1,17.1c-0.1,0.8,0,1.6-1,2.3c-0.4-5.2-0.9-10.2-1.2-15.3
						c-0.8-11.6-0.9-23.2-2.3-34.7c-1-8.9-2.4-17.8-3.5-26.7c-0.1-0.7-0.3-1.4-0.2-2.2C126.6-31.2,125.5-33.1,126.5-33.9z M135.6-24
						c-1.4-3.3-0.2-6.8-0.3-10.3c0-0.6,0.4-0.9,0.9-1.1c4.4-2.1,6.2-1.2,6.9,3.6c0.9,5.8,1,11.6,0.9,17.4
						c-0.2,9.9-0.2,19.8,0.4,29.7c0,0.6,0.2,1.3-0.7,2.4c-0.7-4.8-1.3-9.2-2.1-13.5C140-5.4,139.3-15,135.6-24z M88.7-63.5
						c2.4-2.5,5.2-3.5,8.8-3c6.6,1,13.2,2.2,19.4,5c0.9,0.4,1.9,0.5,2.5,1.7c-3.1-0.4-6-0.7-8.9-1.1c-6.1-0.7-12.1-0.6-18.2-0.1
						c-0.9,0.1-1.8,0.1-2.7,0.1c-0.8,0-1.5-0.3-1.8-0.9C87.3-62.6,88.2-63,88.7-63.5z M121.2-45.5c-8.3,0.7-16.6,0.5-24.8-0.1
						c-2.1-0.1-3.5-1.7-5.3-2.5c-4-1.8-7-5-10-8.3C94.3-52,108.3-51,121.2-45.5z M83.6-50.7c2.2,2.2,4.8,3.8,7.7,5
						c3.4,1.3,5.7,3.9,8.6,7c-10.6-2.7-19.3-7.3-27.3-13.8C77.3-55.6,80.5-53.8,83.6-50.7z M87.4,33.7c0.1,4.8-0.4,9.5-2.5,13.8
						C81,54.9,80.2,62.9,81.1,71c1,9.2-0.6,18-2.8,27.5c-2.1-8.3-4.4-16.1-2.9-24.3c1.1-6.3,2-12.6,1.8-18.9
						c-0.3-8.3,1.9-16.2,3.6-24.2c4.2-20,5.3-40.1,3.8-60.4c-0.3-3.8-0.6-7.5-1-11.6c1.8,0.8,3.4,1.6,4.9,2.2c1.1,0.4,1,1.3,1.1,2.2
						c0.4,9.6,0.8,19.2,0.6,28.9c-0.1,6.3-1.6,12.4-2.3,18.6C87,18.6,87.2,26.1,87.4,33.7z M77.7-38.1c-0.2-2.1-0.5-4.1-0.8-6.3
						c3.8,0.9,4.8,3.3,5.2,6.6c1.4,11.9,1.9,23.9,1.5,35.9c-0.4,14.6-2.9,28.8-6.9,42.8c-0.1,0.3-0.3,0.6-0.6,1.5
						c-1-7.3-2-13.9-0.7-20.5c1.4-7.6,1.2-15.4,2.1-23c0.4-4.1,1.1-8.3,1.6-12.4C80.1-21.7,78.7-29.9,77.7-38.1z M69.2-50.4
						c1.5,1.1,3,2.3,4.6,3.4c0.9,0.6,1,1.4,1.1,2.3c0.8,6.9,1.7,13.7,2.5,20.5c0.7,6.6-0.6,13-1.5,19.5c-0.7,5-1.1,10.1-1.1,15.2
						c0,1,0.1,2.1-0.9,3c-0.7-21.4-3.6-42.5-5.7-63.7L69.2-50.4z M66.4-49.7c1.1,13.9,3.3,27.4,4.1,41.1c1.2,18.9,1.9,37.9,4.1,56.7
						c1.1,8.9,0,17.7-1.6,27.1c-1-2.4-1.3-4.3-1.1-6.3c1-8.3,0.3-16.5-0.6-24.7c-1.1-10.6-1.7-21.4-3.8-31.9
						c-1-4.8-2.2-9.5-3.5-14.2c-2.7-9.3-2.7-18.8-2.2-28.4c0.2-4,0.7-8,0.6-12C62.3-45.5,63.9-47.6,66.4-49.7z M63,6.1
						c1.8,6.4,2.6,13,3.5,19.5c0.1,0.8,0.3,1.6-0.1,2.4c-0.8-0.3-0.8-1.1-1.1-1.7C60.2,12,56-2.6,53.7-17.7
						c-0.9-5.8-1.2-11.5-0.4-17.4c0.2-1.7,0.7-2.9,2.1-3.9c1.4-1,2.6-2.2,4.1-3.5c0.6,4.3-0.2,8.1-0.4,11.9
						C58.3-18.1,59.6-5.9,63,6.1z M63.2-52.1c-7.8,8.9-16.3,16-27,20.3c2-3.3,3.9-6.6,5.9-9.9c0.7-1.1,1.6-2.1,2.9-2.4
						c4.8-1.4,8.9-4.4,13.3-6.7C59.6-51.4,60.9-52.4,63.2-52.1z M44.9-46.4c-1.6,0.3-2.9,1.5-3.8,2.9c-0.6,0.9-1.3,1.8-1.6,2.8
						c-3.9,10.8-12.5,14.4-23,14.7c-3.1,0.1-6.2,0-9.4-0.4c2.3-1.2,4.7-2.4,7-3.7c4.2-2.5,8.2-5.3,12.1-8.2
						c6.3-4.6,13.2-8.3,19.3-13.1c3.8-3,7.5-3.4,11.6-1.9C52.7-51.5,49.7-47.4,44.9-46.4z M18.9,65.5c2.5,7.6,0.9,14.6-2.9,21.7
						c-2.5-14.2-2.6-28-1-41.9c0.7-6.1,0.6-12.3,0.1-18.5C14.3,15.6,14,4.5,17.3-6.4c1.2-4,0-8.1-0.7-12.1c-0.2-1.2-1-2.9,0.2-3.5
						c1.4-0.7,3.2-0.6,4.8-0.6c0.9,0,0.8,1.1,0.8,1.8c0.2,6.4,0.3,12.7-0.1,19.1c-1,16.2-3.3,32.3-5.1,48.5
						C16.5,53,17,59.4,18.9,65.5z M54-57.3c-13,3.7-22.1,13.6-33.1,20.3c-5.5,3.4-11.5,5.7-17,9c-1.9,1.1-4.4,1.1-6.6,0.5
						c-8-2.1-15.2-5.7-21.9-10.6c-0.3-0.2-0.4-0.5-0.7-0.7c6.3,2.2,12.7,3.1,19.3,2.8C5.5-36.4,16.4-39.2,26-46.3
						c6.7-5,14.1-9,22-11.9C50.1-58.9,51.9-58.9,54-57.3z M6.3-16.2C7.3-9.1,4.4-2.7,2.9,4c-2.2,9.9-3,20.1-5.5,29.9
						c-0.4,1.4-0.5,3-1.7,4.5c0.8-9.1,1.7-17.8,2.3-26.6c0.6-8.2,2.3-16.4,1.4-24.7c-0.3-2.9-0.8-5.7-1.1-8.6
						c-0.2-1.5,0.3-2.2,2-1.8c2,0.5,4.6,0.1,6,1.2C7.6-20.7,6-18.2,6.3-16.2z M-21.3-29.4c-0.5,11.1-0.9,22.1-1.5,33.2
						c-0.3,6.6-1.1,13.1-2.4,19.7c-1.3-0.9-0.9-2-1-2.9c-1.6-13.2-1.6-26.6-3.5-39.8c-0.9-6-1-11.8-0.8-18.2c3,2,5.5,3.8,8.2,5.5
						C-21.2-31.3-21.2-30.4-21.3-29.4z M5.4-68.3c2.6-2.2,5.4-3.9,8.7-4.7c2.8-0.7,5.5-1.5,8.1,0.7c1.5,1.3,3.7,1.2,6.2,1.9
						C11.7-62.8-3.9-53.2-23.1-56.8c2.1-1.3,4.5-0.8,6.8-1.4C-8.4-60.2-0.9-63,5.4-68.3z M-9.2-74.3c0.1-1.3,0.7-1.7,1.7-0.6
						c2.3,2.5,0.9,5.5,1.1,8.3c0.1,1.6-1.7,1.7-3.2,2.6C-10.3-67.7-9.6-71-9.2-74.3z M-11-74.6c-0.7,2.7-1.1,5.6-0.8,8.4
						c0.3,2.6-0.8,3.8-3.3,4.3c-4.4,0.7-4.6,1.7-3.6-3.3c1.2-5.8,2.1-11.8,4.4-17.8C-11.8-80.6-10-78.4-11-74.6z M-19.4-94.8
						c2.9,5.4,4.2,10.8,1.7,16.7c-2,4.8-2.2,10.1-3.4,15.1c-0.4,1.7-3.1,2.9-4.6,2c-0.6-0.4-0.4-0.9-0.4-1.4
						c1.4-10.3,2.9-20.7,5.9-30.7C-19.9-93.6-19.6-94.1-19.4-94.8z M-28.5-106.8c-0.4-6.4,1-12.7,3.3-19.3c1.7,3.4,1.5,6.7,1.7,9.7
						c0.4,5.4,2.1,10.5,3,15.7c0.2,1,0.3,1.9,0,2.9c-2.9,8.5-4.8,17.3-6.1,26.1c0,0.2-0.2,0.4-0.5,1c-1-3.2-1.7-6.2-1.4-9.3
						C-27.6-88.9-28-97.9-28.5-106.8z M-45.3-60.7c3.9,1,8.1,1.4,11.6,3.1c11.5,5.7,23.1,5.3,34.9,1.6c10.2-3.1,19.7-7.9,29.2-12.6
						c3.4-1.7,6-0.7,9.3,0.8C29.1-62.9,20.2-56.1,10.2-51C2.5-47.1-5.7-47.2-14-47.8c-7.1-0.5-14.1-1.4-20.5-4.9
						C-38.3-54.8-41.9-57.6-45.3-60.7z M-34.6-49.1c5.4,1.5,10.5,3.4,15.8,4.5c11.3,2.4,21.9,0.3,32.1-5
						c8.4-4.4,15.9-10.1,24.5-14.2c0.8-0.4,1.6-0.8,2.5-1.2c3.2-1.4,5.9,0.4,6.2,3.8c0.1,1-0.6,1-1.1,1.2
						c-8.8,3.1-16.3,8.2-23.8,13.5c-6.3,4.5-13.9,6-21.4,7.4c-12.5,2.2-23.1-2.6-33.3-8.8C-33.8-48.2-34.2-48.7-34.6-49.1z
						 M-29.7,72.1c-2.4-5.7-5-11.2-4.1-17.3c1.6-10.9,0.9-21.7,0.5-32.6C-33.8,9-32.6-4-31.6-17c0-0.2,0.2-0.5,0.6-1.3
						c0.3,3.9,0.5,7.2,0.7,10.6c0.7,14.7,2.4,29.3,4.1,43.9c1.3,11.8,0.6,23.6-2.6,35.1C-29,71.4-29.3,71.6-29.7,72.1z M-19.4,86.5
						c-0.2,1.7-0.5,2-2.1,1.2c-1.8-0.9-2.7-2.4-3.1-4.2c-0.5-2.4-1.1-4.8-2.7-6.7c-0.7-0.8-0.8-1.8-0.5-2.8
						c3.6-11.6,4.3-23.5,3.6-35.5c-0.5-9.1,1.6-17.8,3.1-26.6c1.5,10.8,2,21.7,1.6,32.6c-0.3,7,0.5,14,0.5,20.9
						C-18.7,72.4-18.7,79.5-19.4,86.5z M-18.7,13.4c-0.8-8.6-0.5-17.2-0.1-25.8c0.3-5.1,0.2-10.2,0.2-15.3c0-1.5,0.3-2.1,1.8-1.2
						c1.5,0.8,3.5,1.2,4.5,2.4c0.9,1.2-0.4,3-0.6,4.6c-0.6,6,0.4,12,0.6,17.9c0.4,11.4-0.3,22.7-1.8,33.9c-0.2,1.6-0.4,3.3-0.2,4.9
						c1.7,10.9-0.9,21.5-2,32.2c0,0.1-0.2,0.3-0.5,0.6c-0.1-7.3-0.9-14.4-0.6-21.4C-17,35.3-17.7,24.3-18.7,13.4z M-11.5,73.5
						c-1,5.6-1.7,11.3-1.4,17.1c0.2,3.1,0.1,3.2-0.8,3.2c-1.4-0.1-3.3-2.3-3.1-3.9c0.4-3.7,0.9-7.4,1.2-11.1
						c1.1-11.7,3.8-23.4,3.4-35.2c-0.4-10.6,0.9-21,1.7-31.5c0.5-7.2,0.1-14.3-0.6-21.5c-0.5-4.6-0.5-9.2,0.5-13.8
						c0.4-1.8,0.8-2.6,3.1-1.9c2.7,0.8,4.2,1.7,4.3,5c0.1,4,1.4,8,1.4,12.5c-0.8,8.5-1.5,17.2-2.3,26c-1,11.3-1.8,22.6-3.2,33.9
						C-8.4,59.3-10.2,66.4-11.5,73.5z M-6.2,100.1c-2.8-3.6-5.2-6.4-5.1-11.3c0.4-12.1,2.8-23.8,5.8-35.3C-1.3,37.3,2.2,21,4.8,4.5
						c0.3-1.7,0.6-3.3,1.9-4.8C6.3,3.9,6,8,5.5,12.1c-1.9,17-4.7,33.9-8,50.7c-1.3,6.6-3.7,12.9-4.1,19.7c-0.2,4.7,0.2,9.4,0.5,14.1
						C-6,97.6-5.7,98.5-6.2,100.1z M4.6,82.2c-1.2,5.3-1.2,10.6-0.3,15.9c0.7,4.1,0,4.6-4,4.1c-2.1-0.3-3.8-0.2-4.4-3.5
						C-5.9,88-4.4,77.7-1.7,67.1c4.3-17.3,6.9-35,8.8-52.8c0.2-2.1,0.5-4.1,0.8-6.7c1.2,2.9,1.1,5.4,1.2,7.9
						c0.7,12.3,1,24.7-0.8,36.9C7.5,58,5,63.2,4.8,68.9C4.7,73.4,5.6,77.8,4.6,82.2z M14,96.7c-0.7,3.2-0.9,6.6-1.1,10
						c-0.1,1.3-0.6,1.7-1.8,1.6c-3.5,0-5.5-2.2-5.1-5.7c0.3-2.2,0.5-4.3,0.1-6.5C5.3,92,5.6,87.9,6.4,83.7C7.1,80,7,76.3,6.9,72.6
						c-0.1-4.4,0.5-8.7,1.8-12.9c2.6-8.3,2.4-16.8,2.7-25.4c0.3-9.2-0.4-18.3-1-27.5c-0.6-9.2,0.7-18.3,0.8-27.5
						c0-1.1,0.3-1.5,1.3-1.5c1,0,1.7,0.1,1.9,1.4c1.1,6.3,1.8,12.5,0,18.9c-2.3,7.7-1.8,15.6-1.4,23.5c0.2,4.6,0.5,9.2,0.8,14.2
						c-0.5,7.5-1.1,15.2-1.6,23c-0.6,9.6,0.6,19,1.9,28.5C14.4,90.5,14.7,93.5,14,96.7z M20.8,90.7c-0.9,6.5-1.3,13-0.6,19.5
						c0.2,2.2-0.7,2.4-2.3,1.6c-2-1-3.3-2.2-3.2-4.8c0.3-8.5,1.8-16.7,5.7-24.4c0.2-0.4,0.4-0.7,0.9-1.4
						C21.8,84.7,21.2,87.7,20.8,90.7z M21.2,63.6c-1.9-4.3-2.4-8.8-2.2-13.3c0.4-9.7,2.1-19.3,3.1-28.9c1.5-14.2,3-28.3,2.1-42.6
						c-0.1-1.6,0.3-2.2,1.7-2.4c1.9-0.3,4.2-2,5.3-1c1.2,1.1-0.3,3.5-0.8,5.3c-2.9,11.8-3.6,23.8-2.7,35.9c0.3,3.9,0.5,7.8-1.4,11.4
						c-1.2,2.3-1.2,4.9-1.3,7.5c-0.5,7.5-2.5,14.8-3.3,22.3C21.5,59.7,21.4,61.6,21.2,63.6z M21.8,107.1c0.3-6.3,0.6-12.5,1.4-18.7
						c0.6-4.9,0.7-9.8,0.2-14.7c-1-10.1,0.5-19.9,2.8-29.7c0.7-2.8,0.9-5.7,1.4-9c1.2,3.2,1,6.1,0.7,8.9
						c-1.5,12.5-0.9,24.8,1.1,37.2c1.4,8.8-0.3,26.2-2.9,33.3C23,113.2,21.6,110.9,21.8,107.1z M31.2,116.9c-1.8-0.3-2.2-1-1.8-2.7
						c1.2-4.7,2.1-9.4,2.7-14.2c1-7.7,0.7-15.4-0.6-23c-1.5-8.4-2-16.7-1.1-25.2c1.1-10.6,0.6-21.2,0-31.8c-0.8-14.9,0-29.6,3.9-44
						c0.8-2.8,0.7-2.8,4.1-3.5c-0.7,3.7-1.2,7.2-1.9,10.7c-3.5,16.2-4.1,32.5-2.7,49c0.7,9.1,0.8,18.3,1.8,27.4c0.8,7,2.2,14,3.2,21
						c1.6,11,0.3,21.9-1.9,32.7C36,117.9,36,117.8,31.2,116.9z M44.4,72c-0.1,11.4-0.5,22.9-0.8,34.3c-0.1,3.8-0.2,7.6-0.4,11.4
						c-0.1,1,0.5,2.8-1.6,2.3c-1.5-0.4-4-0.3-3.5-3.1c0.7-3.9,1.5-7.8,2.2-11.8C42.5,94,41.6,83,39.5,71.9
						c-2.1-11.1-3.3-22.2-3.6-33.5c-0.2-7.5-0.7-15.1-0.9-22.6c-0.4-13,2.1-25.6,4.5-38.3c0.3-1.5,0.7-3,0.8-4.5
						c0.1-2.2,1.5-2.8,3.5-3.4C42.6-26,41.5-22,41-17.8c-0.7,6.4-0.7,12.9-0.3,19.3c0.4,5.7,0,11.4-0.2,17.1
						c-0.3,6.9,0.4,13.7,2.1,20.5C45.3,50,44.5,61.1,44.4,72z M56.1,110.8c-0.2,3.5-0.6,7.1-0.9,10.6c-0.3,3-0.7,3.3-3.5,1.9
						c-1.9-1-3.6-2.5-5.7-3.1c-1.1-0.3-0.8-1.3-0.8-2.1c0.5-11.5,0.6-23.1,0.6-34.6c0-12.8,0-25.6-0.2-38.4c0-2.4-0.6-4.9-1.2-7.2
						c-1.7-5.9-2.5-11.9-2-18c0.9-10.4-0.3-20.7-0.1-31c0.1-5.3,0.8-10.5,2.3-15.6c0.3-1.1,0.5-2.3,1.7-3.5
						c1.3,6.7,1.3,13.1,0.5,19.4c-1.9,14.1-1.4,28,2.9,41.7c2.5,7.9,2.2,16.1,2.3,24.3c0.1,10.5,0.8,21,3.2,31.3
						C57.2,94.5,56.6,102.7,56.1,110.8z M67.4,126.9c-1.2,0.2-2.4,0.1-3.5-0.3c-0.8-0.3-1.6-0.5-2.3-0.9c-1.5-1-4.1-0.2-4.6-1.7
						c-0.6-1.7,0.1-3.9,0.3-5.9c0.8-6.9,1.5-13.9,1.5-20.9c0-6.7-2-13.1-2.9-19.6c-1.3-9.4-1.6-18.8-2-28.2
						c-0.3-8.8-1.2-17.5-4.2-25.9c-3.2-9-2.6-18.4-1.6-27.8c0.9-9,1.8-18.1-0.1-27.1c-0.5-2.4,1.5-2.7,3.3-4.1
						c-1.3,15.6,2.9,29.9,6.3,44.2C58,10,58,11.5,58,12.9c-0.4,8.6,0.4,17.2,0.9,25.9c0.5,8.3,0.2,16.5,0.5,24.8
						c0.4,9.2,1.8,18.2,4.3,27.1c2,7.1,3,14.4,3.5,21.7c0.2,4.1,0.7,8.2,1.9,12.1C69.6,126.3,68.9,126.7,67.4,126.9z M73.3,125.3
						c-2.4,0.4-2.5-1.4-2.8-2.8c-1.2-5.1-1.6-10.4-1.9-15.7c-0.4-7.6-2.7-14.8-4.3-22.1C62.1,75.1,61,65.4,61,55.6
						c0.1-12.3-1.1-24.7-0.7-37.4c1.6,2.9,2.2,6,3.3,8.8c4.3,10.7,6.5,21.8,6.1,33.2c-0.2,6.7,0.4,13.2,1,19.8
						c0.4,4.5,0.2,9.1,0.2,13.6c0,3.7,0.5,7.4,1.4,11c1.5,5.7,2,11.4,2.5,17.2C75,123.2,75.5,124.9,73.3,125.3z M81.9,126.2
						c-1,0.6-2.3,0.2-3.4-0.1c-0.6-0.1-0.8-0.5-0.8-1.2c0.8-7.4-1.5-14.3-2.9-21.4c-0.9-4.4-1.7-8.9-1.6-13.4c0-0.4,0.2-0.8,0.3-1.2
						c0.2,0,0.5,0,0.7,0c2.4,10.8,4.8,21.7,7.2,32.5c0.2,0.7,0.4,1.4,0.4,2.1C81.8,124.5,83.1,125.6,81.9,126.2z M86.6,124.4
						c-0.9,0.5-1.1-0.3-1.2-0.9c-0.8-6.9-4.1-13.2-5.2-19.9c-1-6,1-11.9,2.2-17.7c1.1-5.4,1.1-10.8,0.7-16.2
						c-0.6-6.9-0.4-13.6,3-19.9c0.2-0.5,0.5-0.9,1.1-1.9c0.9,4.8,0.7,9,0.7,13.1c-0.2,13.9,1,27.7,0.1,41.6
						c-0.2,3.6,0.2,7.3,0.5,10.9c0.4,3.6,1.5,7,3.1,10.6C89.8,124,88.2,123.5,86.6,124.4z M96.3,124.4c-1,0.4-1.9,0.3-2.5-0.8
						c-1.4-2.6-2.3-5.3-2.8-8.2c-1-6.1-0.5-12.3-0.6-18.5c-0.4-18.8-0.7-37.6-1-56.7c0.4-8.3-1-17,0-25.6C90,9.5,91,4.3,91.5-0.9
						c1.1-10.4,0.6-20.9,0.1-31.3c0-0.8-0.2-1.7,0-2.4c0.1-0.8-0.8-2.2,0.9-2.3c1.4-0.1,2.1,0.8,2.3,2.2c0.4,2.8,1,5.5,1.3,8.3
						c1.2,10.6,0.2,21.2-0.7,31.8c-1.2,13.7-1.5,27.4-0.5,41.1c1.3,16.6,1.6,33.2-0.7,49.7c-0.5,3.4-0.6,6.9,0.1,10.3
						c1.2,5.6,0.6,11.4,2.7,16.8C97.3,124,96.8,124.2,96.3,124.4z M101.7,122.9c-2.3,0.5-3.3-0.3-3.6-2.4
						C96.7,109,94.9,97.7,97.3,86c2.1-10.4,1.1-21.2,0-31.8c-1.6-15.1-1.4-30.2,0-45.4c1.4-14.7,2.5-29.5-0.8-44.5
						c4.5,0.7,4.6,0.7,4.6,4.9c0.2,31.7,0.3,63.4,0.6,95.1c0.1,11,0.1,22-0.6,32.9c-0.3,5.5,0.5,10.9,2.6,16
						c0.6,1.3,0.9,2.7,1.3,4.1C106.2,121.9,106.2,121.8,101.7,122.9z M107.6,120.6c-0.6-3.8-1.9-7.1-3.1-10.5
						c-1.9-5.3-1.8-10.7-1.4-16.1c0.5-7.6,0.4-15.2,0.5-22.8c0-0.7,0.1-1.4,0.2-2.7c2.3,4.1,2.9,8,3.5,11.9
						c1.6,9.9,3.9,19.7,4.5,29.8C112,114.3,111.7,118,107.6,120.6z M115.7,113.5c0,0.8-0.7,1-1.3,1.1c-1,0.2-0.9-0.7-0.9-1.3
						c0.2-12.4-3-24.2-5.1-36.3c-0.4-2.2-1-4.4-1.8-6.5c-1.7-4.4-2.3-8.8-1.5-13.6c1.4-8.8,2.5-17.6,3.9-26.3
						c0.3-1.9,0.8-3.8,2.1-5.9c1.1,5.7,1.6,10.9,1.9,16.2c0.9,14.3,1.5,28.6,1.9,43c0.2,9.2,0.6,18.5,0.9,27.7
						C115.8,112.2,115.8,112.8,115.7,113.5z M118.9,113c-1.7,0.4-1.2-0.9-1.2-1.7c-0.3-6.1-0.4-12.2-0.7-18.2
						c-0.8-19.3-1.3-38.7-2.6-58c-0.5-7.2-2.6-14.4-2.2-21.7c0.8-14-0.3-28,0-41.9c0-1.3,0.4-2.5,0.5-3.8c0.1-1.2,0.6-1.5,1.7-1.5
						c3.4-0.2,3.5-0.1,3,3.2c-1.4,8.2-0.2,16.3,0.2,24.5c0.2,3.2,0.3,6.3,0.5,9.9c-0.8,10.2-0.4,20.8,0.2,31.5
						c0.2,4.2-0.4,8.5-0.5,12.8c-0.1,5.8,0.9,11.6,2,17.3c0.5,2.5-0.3,4.9-0.3,7.3c0,8.8,0.6,17.6,3.5,26.1c0.8,2.4,1.3,4.9,1.3,7.5
						C124.4,109.4,122.1,112.3,118.9,113z M126.5,105.8c0.2-7.3-3.9-13.4-4.2-21.1c1.5,2.4,2.2,4.5,2.8,6.5c1,3.8,1.8,7.6,2.9,11.3
						C128.3,104,127.9,104.8,126.5,105.8z M134.9,96.4c-1.6,1.7-3.2,3.4-4.8,5.1c-0.3-0.1-0.6-0.2-0.9-0.3c-1.2-7.7-4-14.8-6.9-22
						c-1.8-4.4-1-9.2-0.1-13.7c1-5.5,1-11,1.1-16.5c0.3-13.7,0.4-27.4,0.8-41.1c0.3-10.8-1.4-21.3-3.9-31.8
						c-0.6-2.7-0.5-5.4-0.5-8.1c0-2.1,1.5-2.1,3-2.2c1.8-0.1,1.6,1.1,1.7,2.1c0.6,8.9,2.4,17.6,3.5,26.4c1.1,8.5,1.5,17,2,25.5
						c0.7,13.8,1.7,27.5,3.2,41.3c0.5,4.9-0.2,9.8-0.6,14.7c-0.6,6.4-0.3,12.7,2.4,18.6C135.2,95.1,135.6,95.7,134.9,96.4z
						 M141.1,91.9c-0.8,0.5-1.8,1.6-2.5,1.4c-1.2-0.2-0.7-1.7-0.7-2.6c-1.1-10.8-2.1-21.7-3.2-32.5c0-0.3,0-0.7,0-1.1
						c2.2,3.3,3.5,7,3.3,10.9c-0.3,7.3,1.2,14.3,3.3,21.1C141.7,90.1,142.4,91.1,141.1,91.9z M144,89.6c-0.7,0-0.6-0.6-0.7-1
						c-1.5-4.5-3-9-3.1-13.8c-0.1-5.8-0.4-11.6-2.4-17.1c-1.1-3.2-1.2-6.6-0.9-10c1.3-18.3,0.7-36.5-0.4-54.7
						c-0.1-1.5-0.4-3.1,0.2-4.6c2.1,8,3.4,16.2,4.4,24.3c1.5,11.9,3.1,23.8,3,35.8c-0.1,12.2,0.3,24.1,4.3,35.7
						C148.9,85.7,145.5,89.7,144,89.6z M158.3,76.3c-2,2-3.8,4.1-5.7,6.2c-1.1,1.2-1.7,1.3-2.3-0.5c-2.2-7.4-4.6-14.8-3.8-22.7
						c0.7-8.5,0.6-17-0.9-25.5c-0.2-1.1-0.2-2.4,0.1-3.5c2-7.1,1.7-14.4,1.3-21.7c-0.6-9.8-0.4-19.6-0.5-29.4
						c-0.1-5-0.5-10-1.4-14.9c-0.2-1.2,0-1.8,1.2-2.2c1.6-0.5,1.7,0.6,1.9,1.5c1.6,7.3,4,14.5,3.6,22c-0.5,10.8,2,21.3,2.6,32
						c0.2,3.1,0.1,6.2-0.2,9.2c-0.6,4.6-0.3,9.1,1.3,13.4c1.6,4.5,2.1,9.1,1.5,13.7c-0.7,6.3,0.1,12.3,2.1,18.2
						C159.8,73.9,159.6,75.1,158.3,76.3z M161.8,71.8c-1,0.2-0.9-0.7-1-1.2c-1.3-4.1-2.1-8.3-2.2-13.5c1.5-6.8,0.3-14.2-2-21.6
						c-0.7-2.4-0.9-5-0.6-7.6c1.3-9.2-0.5-18.3-1.4-27.4c-0.3-2.4-0.6-4.9-0.5-7.3c0.7-9.9-1-19.5-3.8-29c-0.7-2.3-0.3-3.3,2.1-4.1
						c4.1-1.4,4.1-1.5,6.8,1.9c1.8,2.3,2.4,4.9,2.9,7.8c1.4,7.2-1.8,13.7-2.3,20.6c-0.5,6.9-2.2,13.8,0,20.8c0.7,2.3-0.1,4.7-0.6,7
						c-0.4,1.6-0.4,3.2,0,4.8c0.6,2.4,0.8,4.8,0.3,7.3c-0.3,1.9-0.5,3.8,0.2,5.7c2,6.1,2.1,12.3,1.9,18.6c-0.1,4.4,0.3,8.7,2.3,12.7
						C164.4,68.4,162.9,71.6,161.8,71.8z M165.4,1c1.5,11.9,1.4,23.9,2.7,35.8c0.7,5.9,1.9,11.7,1.7,17.6c-0.2,4.3-1.7,8.1-4.1,12
						c-2.5-4.3-2.8-8.7-2.4-13c0.5-7-0.2-13.8-1-20.6c-0.7-5.5-1.2-11-0.5-16.6c0.3-2.4-0.1-4.8-0.5-7.3c-1.4-8.6-0.4-17.1,1.8-25.5
						C163.9-10.6,164.6-4.8,165.4,1z M167.1-52.5c-0.8,0.6-1.7,0.4-2.6,0.4c-8.8,0.1-17.1-2-24.7-6.5c-9.8-5.7-20-10.2-31.2-12.3
						c-1.1-0.2-2.1-0.4-3.2-0.6c-0.1,0-0.2-0.2-0.6-0.6c3.6-0.8,7-0.1,10.4,0.5c5.1,1,10,2.7,14.7,4.8c14.2,6.4,29.3,7.9,44.7,7.8
						c0.4,0,0.7,0,1.1,0c0,0.2,0.1,0.3,0.1,0.5C172.9-56.5,170-54.5,167.1-52.5z"/>
				</g>
				<g>
					<path d="M106.6-125.4c-1.8-0.2-3.8-0.8-4-3.5c-0.1-1.5-1-1.5-2.1-1.3c-1.4,0.3-2.8,0.6-4.2,0.9c-1.3,0.3-2.4-0.1-2.7-1.6
						c-0.3-1.4,0.8-1.8,1.9-2.1c7.3-1.6,14.6-2.8,22-3.7c4.3-0.5,8.7-0.8,13-1.3c1.3-0.1,2.5-0.2,2.7,1.4c0.2,1.7-1.1,2.2-2.4,2.3
						c-5.3,0.3-10.7,1-16,1.7c-1.9,0.2-3.9,0-3.2,3.2C112.1-127.3,109.4-125.4,106.6-125.4z"/>
				</g>
			</g>
		</g>
	</g>
</g>
<g id="Слой_4">
	<g>
		<path d="M27.2,174.9l-0.5-1.4h-4.1l-0.5,1.5c-0.2,0.6-0.3,1-0.5,1.2c-0.1,0.2-0.3,0.3-0.6,0.3c-0.3,0-0.5-0.1-0.7-0.3
			s-0.3-0.5-0.3-0.7c0-0.2,0-0.3,0.1-0.5c0-0.2,0.1-0.4,0.2-0.7l2.6-7.5c0.1-0.2,0.2-0.5,0.3-0.8c0.1-0.3,0.2-0.6,0.3-0.8
			s0.3-0.4,0.5-0.5s0.4-0.2,0.7-0.2c0.3,0,0.5,0.1,0.7,0.2s0.3,0.3,0.5,0.5c0.1,0.2,0.2,0.4,0.3,0.6s0.2,0.5,0.3,0.9l2.6,7.4
			c0.2,0.6,0.3,1,0.3,1.2c0,0.3-0.1,0.5-0.3,0.7s-0.4,0.3-0.7,0.3c-0.2,0-0.3,0-0.4-0.1c-0.1-0.1-0.2-0.2-0.3-0.3s-0.2-0.3-0.2-0.5
			C27.3,175.2,27.2,175,27.2,174.9z M23.2,171.7h3l-1.5-4.8L23.2,171.7z"/>
		<path d="M35.5,175.1v-0.2c-0.3,0.3-0.5,0.6-0.7,0.8s-0.5,0.4-0.8,0.5s-0.6,0.2-0.9,0.2c-0.4,0-0.9-0.1-1.2-0.3
			c-0.4-0.2-0.7-0.5-1-0.9c-0.3-0.4-0.5-0.9-0.6-1.4s-0.2-1.1-0.2-1.8c0-1.3,0.3-2.4,0.9-3.1c0.6-0.7,1.3-1.1,2.2-1.1
			c0.5,0,1,0.1,1.4,0.3s0.7,0.5,1.1,1v-3.2c0-0.4,0.1-0.8,0.2-1c0.2-0.2,0.4-0.3,0.7-0.3s0.5,0.1,0.7,0.3s0.2,0.5,0.2,0.9v9.5
			c0,0.4-0.1,0.7-0.2,0.9c-0.2,0.2-0.4,0.3-0.6,0.3c-0.3,0-0.5-0.1-0.6-0.3C35.5,175.8,35.5,175.5,35.5,175.1z M31.8,172
			c0,0.6,0.1,1.1,0.2,1.5c0.2,0.4,0.4,0.7,0.6,0.9s0.6,0.3,0.9,0.3c0.3,0,0.6-0.1,0.9-0.3s0.5-0.5,0.6-0.9s0.2-0.9,0.2-1.5
			c0-0.6-0.1-1.1-0.2-1.5s-0.4-0.7-0.7-0.9s-0.6-0.3-0.9-0.3c-0.3,0-0.6,0.1-0.9,0.3s-0.5,0.5-0.6,1C31.9,170.9,31.8,171.4,31.8,172
			z"/>
		<path d="M45,172.2v2.9c0,0.5-0.1,0.8-0.3,1s-0.4,0.3-0.7,0.3c-0.3,0-0.5-0.1-0.7-0.3s-0.3-0.6-0.3-1v-3.4c0-0.5,0-1,0-1.3
			s-0.1-0.5-0.3-0.7s-0.4-0.3-0.7-0.3c-0.6,0-1,0.2-1.2,0.7s-0.3,1.2-0.3,2.1v2.9c0,0.4-0.1,0.8-0.3,1c-0.2,0.2-0.4,0.3-0.7,0.3
			c-0.3,0-0.5-0.1-0.7-0.3c-0.2-0.2-0.3-0.6-0.3-1v-6.1c0-0.4,0.1-0.7,0.2-0.9c0.2-0.2,0.4-0.3,0.6-0.3c0.3,0,0.5,0.1,0.6,0.3
			c0.2,0.2,0.3,0.5,0.3,0.8v0.2c0.3-0.4,0.7-0.8,1-1s0.8-0.3,1.2-0.3c0.5,0,0.9,0.1,1.2,0.3s0.6,0.5,0.8,1c0.3-0.4,0.7-0.8,1-1
			s0.8-0.3,1.2-0.3c0.5,0,1,0.1,1.3,0.3s0.6,0.6,0.8,1c0.2,0.4,0.2,1,0.2,1.8v4.2c0,0.5-0.1,0.8-0.3,1s-0.4,0.3-0.7,0.3
			c-0.3,0-0.5-0.1-0.7-0.3c-0.2-0.2-0.3-0.6-0.3-1v-3.6c0-0.5,0-0.8-0.1-1.1c0-0.3-0.1-0.5-0.3-0.7s-0.4-0.3-0.7-0.3
			c-0.2,0-0.5,0.1-0.7,0.3s-0.4,0.4-0.5,0.7C45,170.6,45,171.2,45,172.2z"/>
		<path d="M51.7,166.6c-0.3,0-0.5-0.1-0.7-0.3s-0.3-0.4-0.3-0.8c0-0.3,0.1-0.6,0.3-0.8s0.4-0.3,0.7-0.3c0.2,0,0.5,0.1,0.6,0.3
			c0.2,0.2,0.3,0.4,0.3,0.8c0,0.3-0.1,0.6-0.3,0.8C52.2,166.5,52,166.6,51.7,166.6z M52.7,168.9v6.2c0,0.4-0.1,0.8-0.3,1
			c-0.2,0.2-0.4,0.3-0.7,0.3s-0.5-0.1-0.7-0.3s-0.3-0.5-0.3-1v-6.1c0-0.4,0.1-0.7,0.3-1s0.4-0.3,0.7-0.3s0.5,0.1,0.7,0.3
			S52.7,168.5,52.7,168.9z"/>
		<path d="M56.1,173.3v1.8c0,0.4-0.1,0.8-0.3,1c-0.2,0.2-0.4,0.3-0.7,0.3c-0.3,0-0.5-0.1-0.7-0.3c-0.2-0.2-0.3-0.5-0.3-1v-6
			c0-1,0.3-1.4,0.9-1.4c0.3,0,0.5,0.1,0.7,0.3s0.2,0.6,0.2,1c0.2-0.4,0.5-0.8,0.7-1s0.5-0.3,0.9-0.3s0.8,0.1,1.1,0.3
			s0.6,0.5,0.6,0.9c0,0.3-0.1,0.5-0.2,0.6c-0.2,0.2-0.3,0.3-0.5,0.3c-0.1,0-0.2,0-0.5-0.1c-0.3-0.1-0.5-0.1-0.7-0.1
			c-0.3,0-0.5,0.1-0.7,0.2s-0.3,0.4-0.4,0.7s-0.2,0.7-0.2,1.2S56.1,172.6,56.1,173.3z"/>
		<path d="M64.7,175.1c-0.5,0.4-0.9,0.7-1.3,0.9c-0.4,0.2-0.9,0.3-1.4,0.3c-0.5,0-0.9-0.1-1.3-0.3c-0.4-0.2-0.6-0.5-0.8-0.9
			s-0.3-0.8-0.3-1.2c0-0.6,0.2-1.1,0.5-1.5s0.8-0.7,1.3-0.8c0.1,0,0.4-0.1,0.9-0.2c0.5-0.1,0.9-0.2,1.2-0.3s0.7-0.2,1.1-0.3
			c0-0.6-0.1-1-0.3-1.2c-0.2-0.3-0.5-0.4-1.1-0.4c-0.5,0-0.8,0.1-1.1,0.2c-0.2,0.2-0.4,0.4-0.6,0.7s-0.3,0.5-0.4,0.6
			s-0.2,0.1-0.5,0.1c-0.2,0-0.4-0.1-0.5-0.2c-0.2-0.2-0.2-0.4-0.2-0.6c0-0.4,0.1-0.7,0.3-1.1c0.2-0.4,0.6-0.6,1.1-0.9
			s1.1-0.3,1.8-0.3c0.8,0,1.5,0.1,1.9,0.3c0.5,0.2,0.8,0.6,1,1.1c0.2,0.5,0.3,1.1,0.3,1.9c0,0.5,0,0.9,0,1.3c0,0.4,0,0.7,0,1.2
			c0,0.4,0.1,0.8,0.2,1.3s0.2,0.7,0.2,0.8c0,0.2-0.1,0.4-0.3,0.6c-0.2,0.2-0.4,0.3-0.6,0.3c-0.2,0-0.4-0.1-0.6-0.3
			C65.1,175.8,64.9,175.5,64.7,175.1z M64.6,172c-0.3,0.1-0.7,0.2-1.2,0.4c-0.5,0.1-0.9,0.2-1.1,0.3c-0.2,0.1-0.4,0.2-0.6,0.4
			s-0.3,0.4-0.3,0.7c0,0.3,0.1,0.6,0.3,0.8c0.2,0.2,0.5,0.3,0.8,0.3c0.4,0,0.7-0.1,1-0.3c0.3-0.2,0.5-0.4,0.7-0.7
			c0.2-0.3,0.3-0.9,0.3-1.6V172z"/>
		<path d="M68,175.1v-9.3c0-0.4,0.1-0.8,0.2-1c0.2-0.2,0.4-0.3,0.7-0.3c0.3,0,0.5,0.1,0.7,0.3c0.2,0.2,0.3,0.5,0.3,1v9.3
			c0,0.4-0.1,0.8-0.3,1c-0.2,0.2-0.4,0.3-0.7,0.3c-0.3,0-0.5-0.1-0.7-0.3S68,175.5,68,175.1z"/>
		<path d="M79,176.2h-3.1c-0.4,0-0.8-0.1-0.9-0.3c-0.2-0.2-0.3-0.6-0.3-1.1v-8.7c0-0.5,0.1-0.9,0.3-1.1c0.2-0.2,0.5-0.3,0.9-0.3h3.2
			c0.5,0,0.9,0,1.2,0.1c0.4,0.1,0.7,0.2,0.9,0.4c0.2,0.2,0.4,0.4,0.6,0.6c0.2,0.2,0.3,0.5,0.4,0.8s0.1,0.6,0.1,1
			c0,1.2-0.5,2-1.5,2.5c1.3,0.5,2,1.4,2,2.8c0,0.6-0.1,1.2-0.4,1.7c-0.3,0.5-0.7,0.9-1.2,1.1c-0.3,0.1-0.7,0.3-1.1,0.3
			C80,176.1,79.5,176.2,79,176.2z M76.7,166.4v3h1.9c0.5,0,0.9-0.1,1.2-0.2c0.3-0.1,0.5-0.3,0.6-0.6c0.1-0.2,0.2-0.5,0.2-0.7
			c0-0.6-0.2-1-0.5-1.2c-0.4-0.2-0.9-0.3-1.6-0.3H76.7z M78.8,171h-2.1v3.4h2.2c1.4,0,2.1-0.6,2.1-1.7c0-0.6-0.2-1-0.5-1.3
			S79.5,171,78.8,171z"/>
		<path d="M89.1,175.1v-0.3c-0.2,0.3-0.5,0.6-0.7,0.8s-0.5,0.4-0.8,0.5s-0.6,0.2-1,0.2c-0.5,0-0.9-0.1-1.2-0.3
			c-0.4-0.2-0.6-0.5-0.8-0.9c-0.2-0.5-0.3-1.1-0.3-2v-4.3c0-0.4,0.1-0.8,0.3-1c0.2-0.2,0.4-0.3,0.7-0.3c0.3,0,0.5,0.1,0.7,0.3
			c0.2,0.2,0.3,0.5,0.3,1v3.4c0,0.5,0,0.9,0.1,1.3c0.1,0.3,0.2,0.6,0.4,0.8c0.2,0.2,0.4,0.3,0.8,0.3c0.3,0,0.6-0.1,0.9-0.3
			s0.5-0.5,0.6-0.8c0.1-0.3,0.2-1,0.2-2v-2.6c0-0.4,0.1-0.7,0.3-1s0.4-0.3,0.7-0.3s0.5,0.1,0.7,0.3c0.2,0.2,0.3,0.5,0.3,1v6.2
			c0,0.4-0.1,0.7-0.2,0.9c-0.2,0.2-0.4,0.3-0.6,0.3s-0.5-0.1-0.6-0.3C89.2,175.8,89.1,175.5,89.1,175.1z"/>
		<path d="M97.5,175.1v-0.2c-0.3,0.3-0.5,0.6-0.7,0.8c-0.2,0.2-0.5,0.4-0.8,0.5c-0.3,0.1-0.6,0.2-0.9,0.2c-0.4,0-0.9-0.1-1.2-0.3
			c-0.4-0.2-0.7-0.5-1-0.9c-0.3-0.4-0.5-0.9-0.6-1.4c-0.1-0.5-0.2-1.1-0.2-1.8c0-1.3,0.3-2.4,0.9-3.1c0.6-0.7,1.3-1.1,2.2-1.1
			c0.5,0,1,0.1,1.4,0.3s0.7,0.5,1.1,1v-3.2c0-0.4,0.1-0.8,0.2-1c0.2-0.2,0.4-0.3,0.7-0.3s0.5,0.1,0.7,0.3c0.2,0.2,0.2,0.5,0.2,0.9
			v9.5c0,0.4-0.1,0.7-0.2,0.9c-0.2,0.2-0.4,0.3-0.6,0.3c-0.3,0-0.5-0.1-0.6-0.3C97.6,175.8,97.5,175.5,97.5,175.1z M93.8,172
			c0,0.6,0.1,1.1,0.2,1.5c0.2,0.4,0.4,0.7,0.6,0.9s0.6,0.3,0.9,0.3c0.3,0,0.6-0.1,0.9-0.3c0.3-0.2,0.5-0.5,0.7-0.9
			c0.2-0.4,0.2-0.9,0.2-1.5c0-0.6-0.1-1.1-0.2-1.5c-0.2-0.4-0.4-0.7-0.7-0.9c-0.3-0.2-0.6-0.3-0.9-0.3c-0.3,0-0.6,0.1-0.9,0.3
			s-0.5,0.5-0.6,1C93.9,170.9,93.8,171.4,93.8,172z"/>
	</g>
</g>
<g id="Слой_2">
	<g>
		<g>
			<g>
				<g>
					<g>
						<path d="M104.5,92.8c-0.3-0.6-0.7-0.4-1.1-0.2c-2.3,1-4.8,1.1-7.3,0.9c-1.4-0.1-1.4-0.1-1.3-1.5c0-0.1,0-0.3,0-0.5
							c-0.1-2-0.3-4-0.4-6c-0.1-1.1-0.1-2.2,0.5-3.2c1.4-2.6,2-5.4,2.7-8.2c0.4-1.7,1-3.4,0.8-5.1c-0.1-1.5-1.1-2.4-2.6-2.3
							c-1.1,0.1-1.1,0.1-0.9-1.1c0.1-0.9,0.2-1.7,0.3-2.6l3.9-5.9c0.1-0.2,0.4-0.4,0.6-0.5c1.1-0.4,1.8-0.7,2.2-0.9
							c0.4-0.2,0.8-0.5,1.1-0.9c0.3-0.4,0.7-1.1,0.7-1.8c0-0.1,0-0.2,0-0.3c-0.2-1-1.2-1.5-1.6-1.7l-0.1-4.1c0-1.5-1.1-2.1-1.7-2.4
							c-0.2-3.9-0.7-7.6-1.7-11.1c-1.3-4.6-3.3-8.8-5.9-12.4c-4.8-6.6-10-9.2-10-9.3c-0.6-0.3-1.7-1.1-1.9-1.2
							C80,9.7,79,8.9,78.2,8.4c-2.4-1.3-8-2.3-10.7-2.3c-1.8,0-2.5-0.3-2.6-0.4C64.1,4.1,61.6,4,61.5,4c-0.1,0-2.6,0-3.4,1.6
							c-0.1,0.1-0.8,0.4-2.6,0.4c-2.7,0-8.4,1-10.7,2.3c-0.8,0.4-1.8,1.3-2.3,2.2c-0.4,0.2-1.3,0.9-1.9,1.2c-0.1,0-5.3,2.7-10,9.3
							c-2.7,3.7-4.7,7.9-5.9,12.4c-1,3.5-1.6,7.2-1.7,11.1c-0.6,0.2-1.7,0.8-1.7,2.3L21,51.1c-0.5,0.2-1.4,0.7-1.6,1.7
							c-0.2,0.8,0.3,1.6,0.7,2.1c0.3,0.4,0.7,0.7,1.1,0.9c0.4,0.2,1.1,0.5,2.2,0.9c0.3,0.1,0.5,0.2,0.6,0.5l4.1,6.3
							c0.3,0.4,0.6,0.7,1,1c-0.1,0.6-0.1,1.2-0.2,1.8c-0.1,0.6-0.2,0.8-0.9,0.5c-1.4-0.6-2.6,0-3,1.5c-0.1,0.4-0.1,0.8-0.1,1.2
							c0.1,3.4,0.5,6.8,1.9,9.9c1.9,4.5,2.4,9.3,3,14c0.1,0.5-0.1,0.7-0.6,0.6c-1.8-0.3-3.5-0.9-5.2-1.7c-0.4-0.2-0.8-0.3-1.1,0.1
							c-0.3,0.3-0.1,0.7,0.1,1c1.5,2.6,3.4,5,5.6,7c0.5,0.4,0.7,0.9,0.6,1.5c-0.1,2.4-0.2,4.8-0.4,7.2c-0.5,5.3-0.8,10.7-0.4,16
							c0.1,1.8,0.1,3.6-0.1,5.4c-0.2,1.5-0.4,3.1,0,4.7c0.8,2.9,2.3,5.5,3.4,8.3c0.1,0.2,0.2,0.3,0.3,0.4c1.4,1.1,2.5,2.6,4.2,3.2
							c0.3,0.1,0.6,0.3,0.7,0.6c0.3,0.7,0.9,1.2,1.5,1.3c1.5,0.4,2.8,1.1,4,2.1c1.1,0.9,2.6,1.1,3.9,1.6c1.9,0.7,3.6,1.7,5.7,2
							c0.1,0,0.3,0.1,0.4,0.2c3,1.3,6.1,2.1,9.2,2.9c0.4,0.1,0.8,0.1,1.2,0c1.5-0.7,3-0.5,4.6-0.1c0.8,0.2,1.5,0.1,2.1-0.6
							c0.3-0.4,0.7-0.4,1.1-0.2c1,0.5,1.9,0.3,2.9,0c0.5-0.2,1-0.4,1.6-0.4c1.1-0.1,1.9-0.6,2.6-1.4c0.8-0.9,1.7-1.6,2.9-2
							c1.1-0.3,1.9-1,2.5-2c1.3-2.2,3.2-3.7,5.3-5.1c3.9-2.5,6.7-6.1,8.9-10.1c0.8-1.4,1-2.9,0.8-4.4c-0.4-3.2-0.7-6.5-1-9.7
							c-0.2-2,0-4-0.4-6c-1-5.2-1.2-10.5-1.7-15.8c0-0.4,0-0.6,0.4-0.8c2.8-1.8,5.5-4.1,8.7-5.3C104.4,93.5,104.8,93.4,104.5,92.8z
							 M95,67.7c0.7-0.1,1.4-0.1,1.9,0.5c0.4,0.5,0.4,1.1,0.4,1.7c0,2.1-0.7,4.1-1.2,6.1c-0.4,1.6-0.8,3.3-1.9,4.8
							c-0.1-1.3-0.2-2.7-0.2-4c-0.1-2.6,0-5.3,0.3-7.9C94.4,68.4,94.3,67.8,95,67.7z M95.5,60.7l-0.9-0.5l-0.2,0.4l0.9,0.5l-1.1,1.7
							c-0.3,0.5-0.8,0.9-1.4,1c-1.8,0.5-7.1,1.6-20.3,2.1v-0.4h-0.5v0.4c-0.2,0-0.5,0-0.7,0v-0.8c9.9-0.4,16.1-1.3,18.5-1.6l0.1,0
							c0.5-0.1,0.8-0.1,1-0.1c1.4-0.1,1.9-0.8,2-0.9c0.6-0.9,1.2-1.9,1.8-2.7l0.8,0.4l0.2-0.4l-0.8-0.4c0.1-0.1,0.1-0.2,0.2-0.3
							l0.5,0.3l0.2-0.4l-0.5-0.2c0.2-0.3,0.4-0.5,0.5-0.8l1.3,0.6L95.5,60.7z M90.5,90.8c-0.1-1.2,0-2.5-0.2-3.7
							c-0.1-0.8,0-1.6,0.6-2.3c0.3,0.3,0.4,0.6,0.5,0.9c0.4,2.3,1.3,4.5,2,6.8c0.2,0.7,0,0.8-0.6,0.7C92,93.3,91,93.4,90.5,93
							C89.9,92.6,90.5,91.6,90.5,90.8z M87.7,87.4c-1,0.9-1.9,2-2.7,3.1c-0.5,0.7-1.1,1-2,0.5c-2-0.9-4-1.5-6.3-1.8
							c0.8-1.4,1.1-2.6,0.7-4c-0.8-2.7-3.4-4.1-6-3.3c-1.7,0.5-2.4,0-2.5-1.8c-0.2-2.7,0.2-5.4,0.9-8c0.2-0.8,0.8-1.5,1.5-2
							c0.9-0.7,1.9-1.2,2.9-1.6c1.9-0.7,3.9-1.4,5.8-2.1c5.3-0.3,8.7-0.8,10.9-1.2c0.1,4.9-0.1,9.8-0.1,14.6
							C90.6,82.8,89.8,85.3,87.7,87.4z M89.4,92.5c-0.1,0.4-1,0.5-1.3,0c-0.5-0.7-0.9-1.6-1-2.5c0-0.2,0-0.3,0.1-0.4
							c0.7-0.8,1.4-1.5,2.2-2.4C89.6,89.1,89.7,90.8,89.4,92.5z M86.8,92.3c-0.6-0.1-1.2-0.1-1.4-0.5c-0.2-0.5,0.4-0.8,0.8-1.2
							C86.4,91.2,86.6,91.7,86.8,92.3z M80.5,133.8c-0.3-8.5,0-17-0.4-25.4c0.7,2,1,4.1,1,6.3c0,6.1-0.2,12.3-0.3,18.4
							C80.7,133.3,80.8,133.5,80.5,133.8z M74.8,125.7c0-7.2-0.1-14.4-0.2-21.6c0-0.9,0.3-1.1,1.1-1c1.5,0.2,1.5,0.1,1.4,1.6
							c-0.1,1.6-0.1,3.1,0,4.7c0.2,2.7,0.1,5.5-0.1,8.2c-0.2,2.3-0.4,4.5-0.9,6.8c-0.5,2.2-0.7,4.5-1.1,6.7c-0.1,0-0.1,0-0.2,0
							C74.8,129.3,74.8,127.5,74.8,125.7z M75.7,101.9c-0.6-0.1-1.1-0.1-1.5-0.7c-0.2-0.4-0.7-0.6-1-1c0.1-0.2,0.3-0.2,0.4-0.2
							c2.8,0.2,5.6,0.1,8.4,0c1.8-0.1,3.4,0.6,5.3,1c-1.7,0.6-3.2,0.7-4.7,0.8C80.3,102.1,78,102.2,75.7,101.9z M69.5,125.6
							c0,1.6-0.1,3.1-0.8,4.6c-1.3,2.5-1.5,5.1-1.2,7.8c0.3,3-0.2,6-0.9,9.1c-0.7-2.8-1.4-5.3-0.9-8c0.4-2.1,0.7-4.2,0.6-6.3
							c-0.1-2.7,0.6-5.4,1.2-8c1.4-6.6,1.8-13.3,1.3-20c-0.1-1.2-0.2-2.5-0.3-3.8c0.6,0.3,1.1,0.5,1.6,0.7c0.4,0.1,0.3,0.4,0.4,0.7
							c0.1,3.2,0.3,6.4,0.2,9.6c0,2.1-0.5,4.1-0.8,6.2C69.4,120.6,69.5,123.1,69.5,125.6z M64.2,129.1c-0.4-3.5-0.6-7.1-1.3-10.6
							c-0.3-1.6-0.7-3.2-1.2-4.7c-0.9-3.1-0.9-6.2-0.7-9.4c0.1-1.3,0.2-2.6,0.2-4c0-1.1,0.5-1.8,1.3-2.5c0.4,4.6,1.1,9.1,1.4,13.6
							c0.4,6.3,0.6,12.5,1.4,18.8c0.4,2.9,0,5.9-0.5,9c-0.3-0.8-0.4-1.4-0.4-2.1C64.8,134.5,64.5,131.8,64.2,129.1z M46.9,136.1
							c0.8,2.5,0.3,4.8-1,7.2c-0.8-4.7-0.9-9.3-0.3-13.9c0.2-2,0.2-4.1,0-6.1c-0.3-3.7-0.4-7.4,0.7-11c0.4-1.3,0-2.7-0.2-4
							c-0.1-0.4-0.3-1,0.1-1.2c0.5-0.2,1.1-0.2,1.6-0.2c0.3,0,0.3,0.4,0.3,0.6c0.1,2.1,0.1,4.2,0,6.3c-0.3,5.4-1.1,10.7-1.7,16
							C46.1,132,46.2,134.1,46.9,136.1z M46.1,105.8c-1,0-2,0-3.1-0.1c0.8-0.4,1.6-0.8,2.3-1.2c1.4-0.8,2.7-1.8,4-2.7
							c2.1-1.5,4.4-2.7,6.4-4.4c1.3-1,2.5-1.1,3.8-0.6c-1.5,0.6-2.4,1.9-4,2.3c-0.5,0.1-1,0.5-1.3,1c-0.2,0.3-0.4,0.6-0.5,0.9
							C52.4,104.5,49.6,105.7,46.1,105.8z M42.7,109.1c0.3,2.3-0.6,4.5-1.1,6.7c-0.7,3.3-1,6.6-1.8,9.9c-0.1,0.5-0.2,1-0.6,1.5
							c0.3-3,0.6-5.9,0.8-8.8c0.2-2.7,0.8-5.4,0.5-8.2c-0.1-1-0.2-1.9-0.4-2.9c-0.1-0.5,0.1-0.7,0.7-0.6c0.7,0.2,1.5,0,2,0.4
							C43.1,107.6,42.6,108.4,42.7,109.1z M41.9,105.1c-0.6,0.4-1.4,0.4-2.2,0.2c-2.6-0.7-5-1.9-7.3-3.5c-0.1-0.1-0.1-0.2-0.2-0.2
							c2.1,0.7,4.2,1,6.4,0.9c3.9-0.1,7.5-1.1,10.6-3.4c2.2-1.6,4.7-3,7.3-3.9c0.7-0.3,1.3-0.2,2,0.3c-4.3,1.2-7.3,4.5-11,6.7
							C45.7,103.3,43.7,104.1,41.9,105.1z M33.6,104.7c-0.2,3.7-0.3,7.3-0.5,11c-0.1,2.2-0.4,4.3-0.8,6.5c-0.4-0.3-0.3-0.7-0.3-1
							c-0.5-4.4-0.5-8.8-1.1-13.2c-0.3-2-0.3-3.9-0.3-6c1,0.7,1.8,1.3,2.7,1.8C33.6,104.1,33.6,104.4,33.6,104.7z M54.6,100.6
							c0.2-0.4,0.5-0.7,0.9-0.8c1.6-0.5,2.9-1.5,4.4-2.2c0.4-0.2,0.9-0.5,1.6-0.4c-2.6,3-5.4,5.3-8.9,6.7
							C53.2,102.8,53.9,101.7,54.6,100.6z M58.2,102.8c0.1-0.5,0.2-1,0.7-1.3c0.5-0.3,0.9-0.7,1.4-1.2c0.2,1.4-0.1,2.7-0.1,4
							c-0.2,4.1,0.2,8.1,1.3,12.1c0.6,2.1,0.8,4.3,1.2,6.5c0,0.3,0.1,0.5,0,0.8c-0.3-0.1-0.3-0.4-0.4-0.6c-1.7-4.7-3.1-9.6-3.9-14.6
							C58.1,106.6,58,104.7,58.2,102.8z M66.3,101.8c-0.1-0.7-0.2-1.4-0.3-2.1c1.3,0.3,1.6,1.1,1.7,2.2c0.5,4,0.6,7.9,0.5,11.9
							c-0.1,4.8-1,9.5-2.3,14.2c0,0.1-0.1,0.2-0.2,0.5c-0.3-2.4-0.6-4.6-0.2-6.8c0.5-2.5,0.4-5.1,0.7-7.6c0.1-1.4,0.4-2.7,0.5-4.1
							C67.1,107.2,66.6,104.5,66.3,101.8z M66.2,106.4c0.2,2.2-0.2,4.3-0.5,6.5c-0.2,1.7-0.4,3.3-0.4,5c0,0.3,0,0.7-0.3,1
							c-0.2-7.1-1.2-14.1-1.9-21.1l0.4-0.1c0.5,0.4,1,0.8,1.5,1.1c0.3,0.2,0.3,0.5,0.4,0.8C65.7,101.9,66,104.2,66.2,106.4z
							 M64.7,97c1.5-1,2.6-0.4,3.6,0.6c0.7,0.7,1.6,1.3,2.6,1.6c1.1,0.4,1.9,1.3,2.9,2.3C70.2,100.7,67.3,99.1,64.7,97z M77.2,94.3
							c-2-0.2-4-0.2-6,0c-0.3,0-0.6,0-0.9,0c-0.2,0-0.5-0.1-0.6-0.3c-0.1-0.3,0.2-0.4,0.3-0.6c0.8-0.8,1.7-1.2,2.9-1
							c2.2,0.3,4.4,0.7,6.4,1.6c0.3,0.1,0.6,0.2,0.8,0.6C79.1,94.5,78.1,94.4,77.2,94.3z M87.4,99.6c-1.3,0.3-2.5,0.2-3.8-0.1
							c-3.1-0.8-6-2.1-9-2.9c-1.5-0.4-3.1-0.8-4.7-1.2C76.2,95.2,82.3,95.3,87.4,99.6z M80.7,99.4c-2.8,0.2-5.5,0.2-8.2,0
							c-0.7,0-1.2-0.6-1.8-0.8c-1.3-0.6-2.3-1.6-3.3-2.7C71.8,97.2,76.5,97.5,80.7,99.4z M82.5,103.2c0.5-0.4,1.3-0.3,1.9-0.3
							c0.6,0,0.4,0.5,0.4,0.8c-0.2,1.9,0.1,3.8,0.2,5.8c0.3,4.9,0.5,9.8,0.5,14.8c0,1.9-0.1,3.8-0.4,5.7c0,0.3,0,0.5-0.3,0.8
							c-0.1-1.7-0.3-3.4-0.4-5.1c-0.3-3.8-0.3-7.7-0.7-11.5c-0.3-3-0.8-5.9-1.2-8.8c0-0.2-0.1-0.5-0.1-0.7
							C82.5,104.1,82.1,103.5,82.5,103.2z M85.5,106.5c-0.4-1.1-0.1-2.3-0.1-3.4c0-0.2,0.1-0.3,0.3-0.4c1.5-0.7,2-0.4,2.3,1.2
							c0.3,1.9,0.3,3.8,0.3,5.8c-0.1,3.3-0.1,6.6,0.1,9.8c0,0.2,0.1,0.4-0.2,0.8c-0.2-1.6-0.4-3-0.7-4.5
							C86.9,112.7,86.7,109.5,85.5,106.5z M83.3,95.6c-2.7-2.3-5.9-3.2-9.4-3.6c-0.6-0.1-1.1-0.1-1.8-0.2c0.6-0.6,1.3-0.6,2-0.5
							c3.5,0.6,6.9,1.4,10,3.4c2.6,1.7,5.7,2.4,8.7,3.3c0.4,0.1,0.8,0.1,1.1,0.4c-1,0.7-1.9,1.2-3.2,0.9
							C88,98.5,85.4,97.5,83.3,95.6z M73.8,89.6c-2.3,0.5-4.1,1.9-5.8,3.4c-0.9,0.8-1.8,1.5-2.9,2c-1.5,0.7-3,0.5-4.4-0.3
							c-1-0.6-2-1.3-2.9-2c-2.2-1.9-4.7-2.7-7.5-2.9c-1.2-0.1-2.4-0.2-2.8-1.6c-0.4-1.2,0.1-3.1,1-3.9c0.7-0.6,1.4-0.6,2.2-0.4
							c0.6,0.1,1.2,0.3,1.9,0.3c1.3,0.1,2-0.3,2.4-1.5c0.7-1.8,0.5-3.7,0.5-5.5c-0.1-3.4-0.1-6.8-0.3-10.2c2,0,4,0.1,6.3,0.1
							c2,0,3.9,0,5.7,0c0.2,3.2,0.5,6.3,0.4,9.5c-0.1,1.5-0.2,2.9-0.2,4.4c0,2.2,1,3,3.2,2.6c0.7-0.1,1.3-0.2,2-0.3
							c1.6-0.3,3,0.6,3.6,2.3c0.5,1.6-0.1,3.1-1.5,3.8C74.4,89.4,74.1,89.5,73.8,89.6z M31.2,79.1c-0.1-2.1,0.3-4.2,1.1-6.4
							c0.6,1.1,0.5,2.2,0.6,3.2c0.1,1.8,0.7,3.5,1,5.2c0.1,0.3,0.1,0.6,0,1c-1,2.8-1.6,5.7-2,8.7c0,0.1-0.1,0.1-0.2,0.3
							C31.3,90,31.1,89,31.2,88C31.5,85,31.3,82,31.2,79.1z M45.1,67.4c2,0.6,4,1.4,6,2.3c0.2,0.1,0.5,0.2,0.7,0.4
							c-2.1-0.4-4.3-0.7-6.4-0.7c-2,0-4,0.3-5.9,0.7c-0.4,0.1-1,0.1-0.8,0.7c0.2,0.6,0.6,0.3,1,0.2c2-0.5,4.1-0.7,6.2-0.7
							c0.5,0,0.8,0,0.5,0.6c-0.3,0.6,0,1,0.6,1.3c1.2,0.6,2.3,0.1,2.7-1.3c0.1-0.4,0.3-0.2,0.4-0.2c0.6,0.1,1.1,0.3,1.7,0.4
							c0.4,0.1,0.7,0.2,1-0.3c0.2-0.5,0.4-0.1,0.6,0.1c0.7,0.7,0.9,1.6,1,2.5c0.1,2.5,0.2,5-0.1,7.6c-0.2,1.4-0.7,1.8-2.1,1.6
							c-0.1,0-0.2-0.1-0.4-0.1c-3.4-0.7-5.9,1.7-5.4,5.1c0.1,0.9,0,1.2-0.9,1.3c-1.4,0.2-2.7,0.7-3.8,1.5c-0.4,0.3-0.6,0.2-0.9-0.2
							c-1.1-1.6-2.3-3-3.6-4.4c-1.4-1.5-1.7-3.5-2.1-5.4c-0.8-3.6-1.4-7.1-1.5-10.8c0-1.5,0.1-2.9,0.1-4.4c1.9,0.3,4.5,0.6,8,0.9
							C42.7,66.7,43.9,67.1,45.1,67.4z M42.8,65.5v-0.9c0.2,0,0.4,0,0.6,0v0.9C43.2,65.6,43,65.5,42.8,65.5z M69.7,65.5v-0.3
							c0.1,0,0.2,0,0.2,0V66c-2.5,0.1-5.3,0.1-8.4,0.1c-7.4,0-13.2-0.2-17.6-0.5v-0.9c4.5,0.4,10.4,0.6,17.6,0.6
							c2.7,0,5.3,0,7.7-0.1v0.3H69.7z M70.8,66.9c-0.3,0.4-0.6,0.8-0.9,1.2c0.1-0.4,0.1-0.8,0.2-1.2C70.3,66.9,70.5,66.9,70.8,66.9z
							 M70.4,66v-0.8c0.1,0,0.2,0,0.3,0V66C70.6,66,70.5,66,70.4,66z M71.6,66.9c0,0,0.1-0.1,0.1-0.1c0.3,0,0.5,0,0.8,0
							c-0.6,0.6-1.2,1.1-1.8,1.7C70.8,67.9,71.3,67.4,71.6,66.9z M69.4,66.9c-0.1,0.6-0.2,1.3-0.4,1.9C69,69,69,69.2,68.4,69.4
							c0-0.8,0-1.7,0-2.5C68.8,66.9,69.1,66.9,69.4,66.9z M53.4,66.9c0.2,0,0.4,0,0.6,0c0,0.4,0,0.8,0,1.3
							C53.7,67.7,53.5,67.3,53.4,66.9z M53.9,69.9c-0.3-0.1-0.3-0.1-0.3-0.1c-1.7-0.5-2.4-1.7-2.8-3c0.6,0,1.3,0,1.9,0.1
							C53,67.9,53.5,68.9,53.9,69.9z M50.7,68.3c-1.1-0.1-1.5-0.7-1.7-1.5c0,0,0,0,0,0c0.4,0,0.9,0,1.3,0
							C50.4,67.3,50.5,67.8,50.7,68.3z M48.5,67.4c-0.6,0.1-0.9-0.1-1-0.6c0,0,0-0.1,0-0.1c0.3,0,0.5,0,0.8,0
							C48.3,66.9,48.4,67.2,48.5,67.4z M46.8,66.9c-0.4,0-0.8,0-1-0.2c0.3,0,0.6,0,0.9,0C46.8,66.7,46.8,66.8,46.8,66.9z M38.5,92.4
							c0,0.5-0.6,0.6-1,0.9c-0.2-1.2,0-2.3,0.1-3.4c0-0.4,0.2-0.5,0.6-0.2C38.8,90.5,38.4,91.5,38.5,92.4z M36.7,92.5
							c0.1,0.9-0.3,1.3-1.1,1.4c-1.5,0.2-1.5,0.6-1.2-1.1c0.4-1.9,0.7-3.9,1.5-5.9c0.8,0.9,1.4,1.6,1.1,2.8
							C36.7,90.6,36.6,91.6,36.7,92.5z M32,93.8c0.5-3.4,1-6.8,2-10.2c0.1-0.2,0.2-0.4,0.2-0.6c1,1.8,1.4,3.6,0.6,5.5
							c-0.7,1.6-0.7,3.3-1.1,5c-0.1,0.6-1,1-1.5,0.7C31.9,94.1,32,94,32,93.8z M35.2,95.2c2.6-0.7,5.1-1.6,7.2-3.3
							c0.9-0.7,1.8-1.3,2.9-1.6c0.9-0.2,1.8-0.5,2.7,0.2c0.5,0.4,1.2,0.4,2.1,0.6c-5.6,2.5-10.7,5.7-17.1,4.5
							C33.7,95.2,34.5,95.4,35.2,95.2z M73.5,67.1c0.1-0.1,0.1-0.2,0.2-0.3c0.4,0,0.8,0,1.2,0C74.4,66.9,74,67,73.5,67.1z
							 M92.4,86.5c-0.1-0.4-0.1-0.7-0.2-1c-0.2-0.7-0.8-1.4-0.8-2.2c0.1-1.5-0.1-3,0.4-4.7c0.8,1.3,1.5,2.4,1.6,3.7
							c0.2,2.6,0.4,5.2,0.5,7.8c0,0.2,0.1,0.5-0.2,0.7C93.1,89.4,92.7,88,92.4,86.5z M93.1,78.8c-2.1-2.1-1.8-5.5,0-6.8
							C93.4,74.3,92.8,76.5,93.1,78.8z M91.9,71.8c-0.2-2.6,0-5,1.4-7.2h0c0.3-0.1,0.5-0.2,0.7-0.4C93.8,66.9,93.6,69.6,91.9,71.8z
							 M101.7,53.2c0.2-0.2,0.3-0.5,0.3-0.7l0-0.4c0.3,0.2,0.6,0.5,0.7,0.8c0,0.1,0,0.1,0,0.2c0,0.4-0.3,0.9-0.6,1.2
							c-0.2,0.3-0.5,0.5-0.8,0.6c-0.4,0.2-1,0.5-2.1,0.8c-0.5,0.1-0.8,0.4-1.1,0.8l-1,1.4L96,57.5c0.1-0.1,0.1-0.2,0.2-0.3l0.8,0.3
							l0.2-0.5l-0.7-0.3c0.4-0.6,0.7-1,0.7-1c0.2-0.2,0.3-0.2,0.3-0.2c2-0.5,3.4-1.8,3.7-2.1C101.4,53.4,101.6,53.4,101.7,53.2z
							 M101.2,47c-0.3,0-0.7,0-0.9,0.1c0-0.5,0-1.1,0-1.6C100.7,45.6,101.2,46.1,101.2,47z M100.2,47.5c0.3,0,0.6,0,0.9-0.1l0.1,3.7
							c-0.2,0-0.5,0-1.1,0C100.2,49.9,100.2,48.7,100.2,47.5z M100,52.4C100,52.4,100,52.3,100,52.4L100,52.4c0-0.3,0-0.5,0.1-0.8
							c0.5,0,0.9,0,1.2,0l0,0.9c0,0.1,0,0.1-0.1,0.2c-0.1,0-0.1,0.1-0.2,0.1l-1-0.1C100,52.6,100,52.5,100,52.4z M58.4,17.5
							l0.3-11.1c0,0,0,0,0,0c0.1-0.1,0.2-0.1,0.2-0.2l0-0.1C59.4,5,61.5,5,61.5,5c0,0,2.1,0,2.6,1.2l0,0.1c0,0,0.1,0.1,0.2,0.2l0,0
							c0,0,0.1,0,0.1,0.1l-0.1,11c0,0.2,0,0.3-0.1,0.3L64,18c-0.1,0.1-0.3,0-0.4,0c-0.1,0-0.3-0.1-0.4-0.1h-3.4
							c-0.1,0-0.3,0-0.4,0.1l0,0c-0.2,0-0.4,0.1-0.5,0l-0.3-0.2C58.4,17.8,58.4,17.7,58.4,17.5z M31.3,21.6c4.6-6.4,9.7-9,9.7-9
							c0.8-0.4,2-1.2,2.1-1.3l0.1-0.1l0-0.1c0.4-0.7,1.3-1.5,2-1.9C47.5,8,53,7,55.5,7c0.9,0,1.7-0.1,2.3-0.2l-0.2,10.7
							c0,0.4,0.2,0.7,0.5,0.9l0.3,0.2c0.4,0.2,0.8,0.3,1.2,0.3h3.4c0.4,0,0.8-0.1,1.2-0.3l0.3-0.2c0.3-0.2,0.5-0.5,0.5-0.9l0.2-10.6
							C65.9,7,66.7,7,67.5,7c2.6,0,8,0.9,10.3,2.2c0.7,0.4,1.6,1.2,2,1.9l0,0l0.1,0.1l0.1,0.1c1.1,0.8,1.7,1.1,2.1,1.3
							c0.2,0.1,5.1,2.6,9.7,9c5.9,8.2,8.4,18.5,7.3,30.6c0,0.2-0.1,0.8-0.8,1.1c-0.7,0.3-3,0.4-4.3,0.4l-0.4-6
							c0-0.5-0.2-0.9-0.5-1.2c-0.5-0.5-1.3-0.6-1.7-0.6v0l-1.5,0.2l-5.3,0.2c-0.1,0-0.8,0.1-0.7,1.5l0.5,5.1l0.1,1.4
							c-2.7,0.4-12.1,1.5-23,1.4c-11.3,0.1-21-1.2-23-1.4l0.1-1.3l0.5-5.1c0-0.6,0-1-0.3-1.2c-0.2-0.2-0.4-0.2-0.4-0.2l-5.3-0.2
							l-1.3-0.2h0c-0.1,0-1.1,0-1.8,0.6c-0.3,0.3-0.5,0.7-0.5,1.2l-0.4,6c-1.3,0-3.7-0.1-4.3-0.4c-0.8-0.3-0.8-1.1-0.8-1.1
							c-0.2-1.8-0.2-3.6-0.2-5.3C23.7,37.1,26.2,28.6,31.3,21.6z M93.1,55c0,0.1-0.1,0.2-0.2,0.3h0c-0.6,0.1-2.8,0.6-6.1,0.8l0,0
							c0,0,0,0,0,0c0,0-0.1-0.1-0.1-0.5l-0.8-7.7c0,0,0-0.4,0.2-0.4l5.2-0.6c0,0,0.7,0,1.1,0.4c0.1,0.1,0.2,0.3,0.2,0.6L93.1,55z
							 M85.1,47.9l0.7,7.4l-0.5-0.5l-0.1-2l-0.5-5.1c0-0.6,0.1-0.7,0.1-0.8l0.7,0C85.1,47.2,85,47.7,85.1,47.9z M37.6,46.9l0.7,0
							c0,0,0.2,0.2,0.1,0.7l-0.5,5.1l-0.1,2l-0.5,0.5l0.7-7.4C38,47.7,37.9,47.2,37.6,46.9z M37.2,47.9l-0.8,7.7
							c0,0.4-0.1,0.5-0.1,0.5l0,0h0c-3.4-0.2-5.6-0.7-6.2-0.8c-0.1,0-0.1-0.1-0.1-0.2l0.5-7.2c0-0.2,0.1-0.4,0.2-0.6
							c0.4-0.3,1.1-0.4,1.1-0.4l5.2,0.6C37.1,47.5,37.1,47.7,37.2,47.9z M24.4,54.2c0.9,0.4,3.5,0.5,4.7,0.5l0,0.3
							c0,0.3,0.1,1,0.8,1.2c0,0,2.4,0.6,6.3,0.9c0.1,0,0.4,0,0.7-0.2c0.1-0.1,0.3-0.3,0.4-0.5l1.3-1.2c1.9,0.3,11,1.4,22.1,1.4h2
							c11.1,0,20.3-1.2,22.1-1.5l1.3,1.3c0.1,0.2,0.2,0.3,0.3,0.5c0.3,0.2,0.6,0.2,0.7,0.2c3.5-0.2,5.9-0.7,6.3-0.9
							c0.7-0.1,0.9-0.8,0.8-1.2l0-0.3c1.2,0,3.7-0.1,4.7-0.5c0.4-0.2,0.8-0.5,1-0.8l0.5,0.1c-0.6,0.4-1.6,1.1-2.8,1.4
							c0,0-0.1,0-0.3,0.1c-0.2,0.1-0.4,0.2-0.5,0.3c-0.3,0.3-4.5,6.8-4.5,6.9c0,0-0.3,0.5-1.4,0.6c-0.2,0-0.5,0.1-1.1,0.1
							c-3.1,0.4-12.4,1.8-28.1,1.8c-15.7,0-25-1.3-28.1-1.8c-0.6-0.1-0.9-0.1-1.1-0.1c-1.1-0.1-1.4-0.5-1.4-0.6l-0.2-0.3
							c-1.8-2.7-4.1-6.4-4.3-6.6c-0.2-0.2-0.4-0.3-0.5-0.3c-0.1,0-0.2-0.1-0.2-0.1c0,0,0,0,0,0c-1.2-0.3-2.2-0.9-2.8-1.4l0.5,0
							C23.6,53.7,23.9,54,24.4,54.2z M21.9,47c0-0.9,0.5-1.3,0.9-1.5c0,0.5,0,1,0,1.6L21.9,47L21.9,47z M21.9,47.6l0.9-0.1
							c0,0.1,0,0.3,0,0.4l-0.9,0L21.9,47.6z M21.9,48.5l1,0c0,0.9,0.1,1.9,0.1,2.8l-1.1,0.1L21.9,48.5z M21.8,51.9l1.2-0.2
							c0,0.2,0,0.4,0,0.5c0,0,0,0.2,0,0.4l-1,0.1c-0.1,0-0.2,0-0.2-0.1c0,0-0.1-0.1-0.1-0.2L21.8,51.9z M29,62.8l-4.1-6.3
							c-0.3-0.4-0.7-0.7-1.1-0.8c-1.1-0.3-1.7-0.6-2.1-0.8c-0.3-0.2-0.6-0.4-0.8-0.6c-0.2-0.3-0.6-0.9-0.5-1.4
							c0.1-0.4,0.4-0.7,0.7-0.9l0,0.4c0,0.3,0.1,0.6,0.3,0.7c0.1,0.1,0.3,0.2,0.4,0.2c0.4,0.4,1.7,1.6,3.7,2.1c0,0,0.2,0,0.3,0.2
							c0.1,0.1,2,3.1,4.4,6.8c0.1,0.1,0.5,0.8,2,0.9c0.2,0,0.5,0.1,1,0.1l0.1,0c1.5,0.2,4.5,0.6,8.9,1v0.9
							c-7.2-0.5-10.6-1.2-11.9-1.6C29.8,63.7,29.3,63.3,29,62.8z M30.1,64.7c0.1,0,0.3,0.1,0.4,0.1c-0.2,0.8-0.4,1.7-0.6,2.5
							c-0.1,0-0.2,0-0.2,0c0.1-0.9,0.2-1.7,0.3-2.6C30,64.7,30,64.7,30.1,64.7z M29.3,83.5c-1.5-4.3-3.6-8.5-3.3-13.3
							c0-0.8,0-1.5,0.4-2.2c0.3-0.5,0.6-0.8,1.2-0.6c0.5,0.2,1.3,0.3,1.3,1.1c-0.2,4.9,0.4,9.8,0.5,14.7
							C29.3,83.3,29.3,83.4,29.3,83.5z M29.7,74.2c0-1,0-2-0.1-3.1c0-0.6,0.4-0.9,0.6-1.4c0.6-1.5,0.8-3.1,1.2-4.7
							c0.3,0.1,0.6,0.1,1,0.2c-0.1,3.7-0.6,7.3-1.6,10.9c-0.3,1.2-0.2,2.4-0.1,3.6c0.2,2.4,0.2,4.9,0,7.3c-0.1,1.3,0,2.6,0.3,3.8
							c0.2,0.9,0.1,1.8,0,2.7c-0.6-2.8-0.8-5.5-0.7-8.3C30.3,81.5,29.8,77.9,29.7,74.2z M25.6,94.3c1.3,0.3,2.7,0.5,3.8,1
							c3.8,1.9,7.6,1.7,11.6,0.5c3.4-1,6.5-2.6,9.7-4.2c1.1-0.5,2-0.2,3.1,0.3c-3.5,1.6-6.4,3.8-9.7,5.5c-2.6,1.3-5.3,1.3-8,1.1
							c-2.3-0.2-4.7-0.5-6.8-1.6C27.9,96.3,26.7,95.3,25.6,94.3z M29.1,98.2c1.8,0.5,3.5,1.1,5.2,1.5c3.8,0.8,7.3,0.1,10.6-1.7
							c2.8-1.5,5.3-3.3,8.1-4.7c0.3-0.1,0.5-0.3,0.8-0.4c1-0.5,2,0.1,2,1.3c0,0.3-0.2,0.3-0.4,0.4c-2.9,1-5.4,2.7-7.9,4.5
							c-2.1,1.5-4.6,2-7.1,2.4c-4.1,0.7-7.6-0.9-11-2.9C29.4,98.5,29.3,98.3,29.1,98.2z M30.8,138.3c-0.8-1.9-1.6-3.7-1.4-5.7
							c0.5-3.6,0.3-7.2,0.2-10.8c-0.2-4.3,0.2-8.7,0.5-13c0-0.1,0.1-0.2,0.2-0.4c0.1,1.3,0.2,2.4,0.2,3.5c0.2,4.9,0.8,9.7,1.3,14.5
							c0.4,3.9,0.2,7.8-0.9,11.6C31,138.1,30.9,138.1,30.8,138.3z M34.2,143.1c-0.1,0.6-0.2,0.7-0.7,0.4c-0.6-0.3-0.9-0.8-1-1.4
							c-0.2-0.8-0.4-1.6-0.9-2.2c-0.2-0.3-0.3-0.6-0.2-0.9c1.2-3.8,1.4-7.8,1.2-11.8c-0.2-3,0.5-5.9,1-8.8c0.5,3.6,0.7,7.2,0.5,10.8
							c-0.1,2.3,0.2,4.6,0.2,6.9C34.4,138.4,34.4,140.7,34.2,143.1z M34.4,118.9c-0.3-2.9-0.2-5.7,0-8.6c0.1-1.7,0.1-3.4,0.1-5
							c0-0.5,0.1-0.7,0.6-0.4c0.5,0.3,1.2,0.4,1.5,0.8c0.3,0.4-0.1,1-0.2,1.5c-0.2,2,0.1,4,0.2,5.9c0.1,3.8-0.1,7.5-0.6,11.2
							c-0.1,0.5-0.1,1.1-0.1,1.6c0.5,3.6-0.3,7.1-0.6,10.7c0,0-0.1,0.1-0.2,0.2c0-2.4-0.3-4.8-0.2-7.1
							C35,126.1,34.8,122.5,34.4,118.9z M36.8,138.8c-0.3,1.9-0.6,3.7-0.5,5.6c0.1,1,0,1.1-0.3,1c-0.5,0-1.1-0.8-1-1.3
							c0.1-1.2,0.3-2.4,0.4-3.7c0.4-3.9,1.3-7.8,1.1-11.7c-0.1-3.5,0.3-7,0.5-10.4c0.2-2.4,0-4.7-0.2-7.1c-0.2-1.5-0.2-3.1,0.1-4.6
							c0.1-0.6,0.3-0.9,1-0.6c0.9,0.3,1.4,0.6,1.4,1.6c0,1.3,0.5,2.7,0.5,4.1c-0.3,2.8-0.5,5.7-0.8,8.6c-0.3,3.7-0.6,7.5-1.1,11.2
							C37.8,134.1,37.2,136.4,36.8,138.8z M38.6,147.6c-0.9-1.2-1.7-2.1-1.7-3.7c0.1-4,0.9-7.9,1.9-11.7c1.4-5.4,2.5-10.7,3.4-16.2
							c0.1-0.5,0.2-1.1,0.6-1.6c-0.1,1.4-0.3,2.7-0.4,4.1c-0.6,5.6-1.6,11.2-2.7,16.8c-0.4,2.2-1.2,4.3-1.4,6.5
							c-0.1,1.6,0.1,3.1,0.2,4.7C38.6,146.7,38.7,147.1,38.6,147.6z M42.1,141.7c-0.4,1.8-0.4,3.5-0.1,5.3c0.2,1.3,0,1.5-1.3,1.4
							c-0.7-0.1-1.3-0.1-1.5-1.1c-0.6-3.6-0.1-7,0.8-10.5c1.4-5.7,2.3-11.6,2.9-17.5c0.1-0.7,0.2-1.4,0.3-2.2
							c0.4,0.9,0.4,1.8,0.4,2.6c0.2,4.1,0.3,8.2-0.3,12.2c-0.3,1.8-1.1,3.6-1.1,5.4C42.2,138.7,42.5,140.2,42.1,141.7z M45.2,146.5
							c-0.2,1.1-0.3,2.2-0.4,3.3c0,0.4-0.2,0.5-0.6,0.5c-1.2,0-1.8-0.7-1.7-1.9c0.1-0.7,0.2-1.4,0-2.2c-0.3-1.4-0.2-2.7,0.1-4.1
							c0.2-1.2,0.2-2.5,0.2-3.7c0-1.5,0.2-2.9,0.6-4.3c0.9-2.7,0.8-5.6,0.9-8.4c0.1-3-0.1-6.1-0.3-9.1c-0.2-3,0.2-6.1,0.3-9.1
							c0-0.4,0.1-0.5,0.4-0.5c0.3,0,0.6,0,0.6,0.4c0.3,2.1,0.6,4.1,0,6.2c-0.7,2.5-0.6,5.2-0.5,7.8c0.1,1.5,0.2,3.1,0.3,4.7
							c-0.2,2.5-0.4,5-0.5,7.6c-0.2,3.2,0.2,6.3,0.6,9.4C45.4,144.4,45.5,145.4,45.2,146.5z M47.5,144.4c-0.3,2.1-0.4,4.3-0.2,6.5
							c0.1,0.7-0.2,0.8-0.8,0.5c-0.6-0.3-1.1-0.7-1.1-1.6c0.1-2.8,0.6-5.5,1.9-8.1c0.1-0.1,0.1-0.2,0.3-0.5
							C47.8,142.5,47.6,143.5,47.5,144.4z M47.6,135.5c-0.6-1.4-0.8-2.9-0.7-4.4c0.1-3.2,0.7-6.4,1-9.6c0.5-4.7,1-9.4,0.7-14.1
							c0-0.5,0.1-0.7,0.6-0.8c0.6-0.1,1.4-0.7,1.8-0.3c0.4,0.4-0.1,1.2-0.3,1.7c-1,3.9-1.2,7.9-0.9,11.9c0.1,1.3,0.2,2.6-0.5,3.8
							c-0.4,0.8-0.4,1.6-0.4,2.5c-0.2,2.5-0.8,4.9-1.1,7.4C47.7,134.2,47.7,134.8,47.6,135.5z M47.8,149.9c0.1-2.1,0.2-4.1,0.5-6.2
							c0.2-1.6,0.2-3.2,0.1-4.9c-0.3-3.3,0.2-6.6,0.9-9.8c0.2-0.9,0.3-1.9,0.4-3c0.4,1.1,0.3,2,0.2,3c-0.5,4.1-0.3,8.2,0.4,12.3
							c0.5,2.9-0.1,8.7-0.9,11C48.2,151.9,47.8,151.1,47.8,149.9z M50.9,153.1c-0.6-0.1-0.7-0.3-0.6-0.9c0.4-1.5,0.7-3.1,0.9-4.7
							c0.3-2.6,0.2-5.1-0.2-7.6c-0.5-2.8-0.7-5.5-0.4-8.3c0.4-3.5,0.2-7,0-10.5c-0.3-4.9,0-9.8,1.3-14.6c0.3-0.9,0.2-0.9,1.4-1.2
							c-0.2,1.2-0.4,2.4-0.6,3.6c-1.2,5.4-1.3,10.8-0.9,16.2c0.2,3,0.3,6.1,0.6,9.1c0.3,2.3,0.7,4.6,1.1,6.9
							c0.5,3.6,0.1,7.3-0.6,10.8C52.5,153.4,52.5,153.4,50.9,153.1z M55.3,138.3c0,3.8-0.2,7.6-0.3,11.4c0,1.3-0.1,2.5-0.1,3.8
							c0,0.3,0.2,0.9-0.5,0.7c-0.5-0.1-1.3-0.1-1.2-1c0.2-1.3,0.5-2.6,0.7-3.9c0.7-3.7,0.4-7.4-0.3-11c-0.7-3.7-1.1-7.4-1.2-11.1
							c-0.1-2.5-0.2-5-0.3-7.5c-0.1-4.3,0.7-8.5,1.5-12.7c0.1-0.5,0.2-1,0.3-1.5c0-0.7,0.5-0.9,1.2-1.1c-0.4,1.5-0.8,2.8-0.9,4.2
							c-0.2,2.1-0.2,4.3-0.1,6.4c0.1,1.9,0,3.8-0.1,5.7c-0.1,2.3,0.1,4.5,0.7,6.8C55.6,131,55.3,134.6,55.3,138.3z M59.2,151.1
							c-0.1,1.2-0.2,2.3-0.3,3.5c-0.1,1-0.2,1.1-1.2,0.6c-0.6-0.3-1.2-0.8-1.9-1c-0.4-0.1-0.3-0.4-0.3-0.7c0.2-3.8,0.2-7.6,0.2-11.5
							c0-4.2,0-8.5-0.1-12.7c0-0.8-0.2-1.6-0.4-2.4c-0.6-2-0.8-3.9-0.6-6c0.3-3.4-0.1-6.9,0-10.3c0-1.8,0.3-3.5,0.8-5.2
							c0.1-0.4,0.2-0.8,0.5-1.2c0.4,2.2,0.4,4.3,0.2,6.4c-0.6,4.7-0.5,9.3,1,13.8c0.8,2.6,0.7,5.3,0.8,8c0,3.5,0.3,7,1.1,10.4
							C59.5,145.7,59.3,148.4,59.2,151.1z M62.9,156.4c-0.4,0.1-0.8,0-1.2-0.1c-0.3-0.1-0.5-0.2-0.7-0.3c-0.5-0.3-1.4-0.1-1.5-0.6
							c-0.2-0.6,0-1.3,0.1-2c0.3-2.3,0.5-4.6,0.5-6.9c0-2.2-0.7-4.3-1-6.5c-0.4-3.1-0.5-6.2-0.7-9.4c-0.1-2.9-0.4-5.8-1.4-8.6
							c-1.1-3-0.9-6.1-0.5-9.2c0.3-3,0.6-6,0-9c-0.2-0.8,0.5-0.9,1.1-1.3c-0.4,5.2,1,9.9,2.1,14.6c0.1,0.5,0.1,1,0.1,1.4
							c-0.1,2.9,0.1,5.7,0.3,8.6c0.2,2.7,0.1,5.5,0.2,8.2c0.1,3.1,0.6,6,1.4,9c0.7,2.4,1,4.8,1.1,7.2c0.1,1.4,0.2,2.7,0.6,4
							C63.7,156.2,63.4,156.4,62.9,156.4z M64.9,155.9c-0.8,0.1-0.8-0.5-0.9-0.9c-0.4-1.7-0.5-3.4-0.6-5.2c-0.1-2.5-0.9-4.9-1.4-7.3
							c-0.7-3.2-1.1-6.4-1.1-9.7c0-4.1-0.4-8.2-0.2-12.4c0.5,1,0.7,2,1.1,2.9c1.4,3.5,2.2,7.2,2,11c-0.1,2.2,0.1,4.4,0.3,6.6
							c0.1,1.5,0.1,3,0.1,4.5c0,1.2,0.2,2.5,0.5,3.7c0.5,1.9,0.7,3.8,0.8,5.7C65.4,155.2,65.6,155.8,64.9,155.9z M67.7,156.2
							c-0.3,0.2-0.8,0.1-1.1,0c-0.2,0-0.3-0.2-0.3-0.4c0.3-2.4-0.5-4.7-1-7.1c-0.3-1.5-0.6-2.9-0.5-4.4c0-0.1,0.1-0.3,0.1-0.4
							c0.1,0,0.2,0,0.2,0c0.8,3.6,1.6,7.2,2.4,10.8c0.1,0.2,0.1,0.5,0.1,0.7C67.7,155.6,68.1,156,67.7,156.2z M69.3,155.6
							c-0.3,0.2-0.4-0.1-0.4-0.3c-0.3-2.3-1.4-4.4-1.7-6.6c-0.3-2,0.3-3.9,0.7-5.9c0.4-1.8,0.4-3.6,0.2-5.4c-0.2-2.3-0.1-4.5,1-6.6
							c0.1-0.1,0.2-0.3,0.4-0.6c0.3,1.6,0.2,3,0.2,4.3c-0.1,4.6,0.3,9.2,0,13.8c-0.1,1.2,0.1,2.4,0.2,3.6c0.1,1.2,0.5,2.3,1,3.5
							C70.3,155.5,69.8,155.3,69.3,155.6z M72.5,155.6c-0.3,0.1-0.6,0.1-0.8-0.3c-0.5-0.8-0.8-1.8-0.9-2.7c-0.3-2-0.2-4.1-0.2-6.1
							c-0.1-6.2-0.2-12.4-0.3-18.8c0.1-2.8-0.3-5.6,0-8.5c0.2-1.7,0.5-3.4,0.7-5.2c0.4-3.4,0.2-6.9,0-10.4c0-0.3-0.1-0.5,0-0.8
							c0-0.3-0.3-0.7,0.3-0.8c0.5,0,0.7,0.3,0.8,0.7c0.1,0.9,0.3,1.8,0.4,2.8c0.4,3.5,0.1,7-0.2,10.5c-0.4,4.5-0.5,9.1-0.2,13.6
							c0.4,5.5,0.5,11-0.2,16.5c-0.2,1.1-0.2,2.3,0,3.4c0.4,1.8,0.2,3.8,0.9,5.6C72.8,155.5,72.6,155.5,72.5,155.6z M74.3,155.1
							c-0.8,0.2-1.1-0.1-1.2-0.8c-0.5-3.8-1.1-7.6-0.3-11.4c0.7-3.5,0.4-7,0-10.5c-0.5-5-0.5-10,0-15c0.5-4.9,0.8-9.8-0.3-14.7
							c1.5,0.2,1.5,0.2,1.5,1.6c0.1,10.5,0.1,21,0.2,31.5c0,3.6,0,7.3-0.2,10.9c-0.1,1.8,0.2,3.6,0.9,5.3c0.2,0.4,0.3,0.9,0.4,1.4
							C75.8,154.8,75.8,154.8,74.3,155.1z M76.2,154.4c-0.2-1.3-0.6-2.4-1-3.5c-0.6-1.7-0.6-3.6-0.5-5.3c0.2-2.5,0.1-5,0.2-7.6
							c0-0.2,0-0.5,0.1-0.9c0.7,1.4,1,2.6,1.2,3.9c0.5,3.3,1.3,6.5,1.5,9.9C77.7,152.3,77.6,153.5,76.2,154.4z M78.9,152
							c0,0.3-0.2,0.3-0.4,0.4c-0.3,0.1-0.3-0.2-0.3-0.4c0.1-4.1-1-8-1.7-12c-0.1-0.7-0.3-1.5-0.6-2.2c-0.6-1.5-0.8-2.9-0.5-4.5
							c0.5-2.9,0.8-5.8,1.3-8.7c0.1-0.6,0.3-1.3,0.7-2c0.4,1.9,0.5,3.6,0.6,5.4c0.3,4.7,0.5,9.5,0.6,14.2c0.1,3.1,0.2,6.1,0.3,9.2
							C78.9,151.6,78.9,151.8,78.9,152z M80,151.8c-0.6,0.1-0.4-0.3-0.4-0.6c-0.1-2-0.1-4-0.2-6c-0.3-6.4-0.4-12.8-0.9-19.2
							c-0.2-2.4-0.9-4.8-0.7-7.2c0.3-4.6-0.1-9.3,0-13.9c0-0.4,0.1-0.8,0.2-1.3c0-0.4,0.2-0.5,0.6-0.5c1.1-0.1,1.2,0,1,1.1
							c-0.5,2.7-0.1,5.4,0.1,8.1c0.1,1.1,0.1,2.1,0.2,3.3c-0.3,3.4-0.1,6.9,0.1,10.4c0.1,1.4-0.1,2.8-0.2,4.2c0,1.9,0.3,3.8,0.7,5.7
							c0.2,0.8-0.1,1.6-0.1,2.4c0,2.9,0.2,5.8,1.1,8.6c0.3,0.8,0.4,1.6,0.4,2.5C81.8,150.6,81,151.6,80,151.8z M82.5,149.5
							c0.1-2.4-1.3-4.4-1.4-7c0.5,0.8,0.7,1.5,0.9,2.2c0.3,1.2,0.6,2.5,1,3.7C83.1,148.9,82.9,149.1,82.5,149.5z M85.3,146.4
							c-0.5,0.5-1.1,1.1-1.6,1.7c-0.1,0-0.2-0.1-0.3-0.1c-0.4-2.6-1.3-4.9-2.3-7.3c-0.6-1.5-0.3-3,0-4.5c0.3-1.8,0.3-3.6,0.4-5.5
							c0.1-4.5,0.1-9.1,0.3-13.6c0.1-3.6-0.5-7.1-1.3-10.5c-0.2-0.9-0.2-1.8-0.2-2.7c0-0.7,0.5-0.7,1-0.7c0.6,0,0.5,0.4,0.5,0.7
							c0.2,2.9,0.8,5.8,1.2,8.7c0.4,2.8,0.5,5.6,0.7,8.4c0.2,4.6,0.6,9.1,1,13.7c0.2,1.6-0.1,3.2-0.2,4.9c-0.2,2.1-0.1,4.2,0.8,6.2
							C85.4,145.9,85.5,146.1,85.3,146.4z M87.3,144.8c-0.3,0.2-0.6,0.5-0.8,0.5c-0.4-0.1-0.2-0.5-0.2-0.9
							c-0.4-3.6-0.7-7.2-1.1-10.8c0-0.1,0-0.2,0-0.4c0.7,1.1,1.2,2.3,1.1,3.6c-0.1,2.4,0.4,4.7,1.1,7
							C87.5,144.3,87.7,144.6,87.3,144.8z M88.3,144.1c-0.2,0-0.2-0.2-0.2-0.3c-0.5-1.5-1-3-1-4.6c0-1.9-0.1-3.8-0.8-5.7
							c-0.4-1.1-0.4-2.2-0.3-3.3c0.4-6,0.2-12.1-0.1-18.1c0-0.5-0.1-1,0.1-1.5c0.7,2.7,1.1,5.4,1.5,8.1c0.5,3.9,1,7.9,1,11.8
							c0,4,0.1,8,1.4,11.8C89.9,142.8,88.8,144.1,88.3,144.1z M93,139.7c-0.7,0.7-1.3,1.4-1.9,2.1c-0.4,0.4-0.6,0.4-0.7-0.2
							c-0.7-2.5-1.5-4.9-1.3-7.5c0.2-2.8,0.2-5.6-0.3-8.4c-0.1-0.4-0.1-0.8,0-1.2c0.6-2.4,0.6-4.8,0.4-7.2c-0.2-3.2-0.1-6.5-0.2-9.7
							c0-1.7-0.2-3.3-0.5-4.9c-0.1-0.4,0-0.6,0.4-0.7c0.5-0.2,0.6,0.2,0.6,0.5c0.5,2.4,1.3,4.8,1.2,7.3c-0.2,3.6,0.7,7,0.9,10.6
							c0.1,1,0,2.1-0.1,3.1c-0.2,1.5-0.1,3,0.4,4.4c0.5,1.5,0.7,3,0.5,4.5c-0.2,2.1,0,4.1,0.7,6C93.5,138.9,93.4,139.3,93,139.7z
							 M94.2,138.2c-0.3,0.1-0.3-0.2-0.3-0.4c-0.4-1.4-0.7-2.7-0.7-4.5c0.5-2.3,0.1-4.7-0.7-7.2c-0.2-0.8-0.3-1.7-0.2-2.5
							c0.4-3.1-0.1-6.1-0.5-9.1c-0.1-0.8-0.2-1.6-0.1-2.4c0.2-3.3-0.3-6.5-1.3-9.6c-0.2-0.8-0.1-1.1,0.7-1.4
							c1.4-0.5,1.3-0.5,2.3,0.6c0.6,0.8,0.8,1.6,1,2.6c0.5,2.4-0.6,4.6-0.8,6.8c-0.2,2.3-0.7,4.6,0,6.9c0.2,0.8,0,1.6-0.2,2.3
							c-0.1,0.5-0.1,1.1,0,1.6c0.2,0.8,0.3,1.6,0.1,2.4c-0.1,0.6-0.1,1.3,0.1,1.9c0.7,2,0.7,4.1,0.6,6.2c0,1.5,0.1,2.9,0.8,4.2
							C95,137.1,94.5,138.1,94.2,138.2z M95.4,114.8c0.5,3.9,0.5,7.9,0.9,11.9c0.2,1.9,0.6,3.9,0.5,5.8c-0.1,1.4-0.6,2.7-1.4,4
							c-0.8-1.4-0.9-2.9-0.8-4.3c0.2-2.3-0.1-4.6-0.3-6.8c-0.2-1.8-0.4-3.6-0.2-5.5c0.1-0.8,0-1.6-0.2-2.4c-0.5-2.8-0.1-5.7,0.6-8.4
							C94.8,110.9,95.1,112.8,95.4,114.8z M95.9,97c-0.3,0.2-0.6,0.1-0.9,0.1c-2.9,0-5.7-0.7-8.2-2.1c-3.2-1.9-6.6-3.4-10.3-4.1
							c-0.4-0.1-0.7-0.1-1.1-0.2c0,0-0.1-0.1-0.2-0.2c1.2-0.3,2.3,0,3.4,0.2c1.7,0.3,3.3,0.9,4.9,1.6c4.7,2.1,9.7,2.6,14.8,2.6
							c0.1,0,0.2,0,0.4,0c0,0.1,0,0.1,0,0.2C97.8,95.7,96.9,96.4,95.9,97z"/>
					</g>
					<g>
						<path d="M75.9,72.9c-0.6-0.1-1.3-0.3-1.3-1.2c0-0.5-0.3-0.5-0.7-0.4c-0.5,0.1-0.9,0.2-1.4,0.3c-0.4,0.1-0.8,0-0.9-0.5
							c-0.1-0.5,0.2-0.6,0.6-0.7c2.4-0.5,4.8-0.9,7.3-1.2c1.4-0.2,2.9-0.3,4.3-0.4c0.4,0,0.8-0.1,0.9,0.5c0.1,0.6-0.4,0.7-0.8,0.8
							c-1.8,0.1-3.5,0.3-5.3,0.6c-0.6,0.1-1.3,0-1,1.1C77.7,72.3,76.8,72.9,75.9,72.9z"/>
					</g>
				</g>
			</g>
		</g>
		<g>
			<g>
				<g>
					<g>
						<g>
							<g>
								<path d="M100,52.3L100,52.3L100,52.3C100,52.4,100,52.3,100,52.3z"/>
							</g>
						</g>
					</g>
				</g>
			</g>
			<g>
				<g>
					<path d="M38.4,57.1c13.9,1.6,28,1.8,41.9,0.4c1.4-0.2,2.9-0.4,4.3-0.5c-1.4,0.3-2.9,0.6-4.3,0.9c-6.2,1.1-12.6,1.6-18.8,1.6
						C53.8,59.4,46,58.8,38.4,57.1L38.4,57.1z"/>
				</g>
				<g>
					<g>
						<path d="M30.7,51.3c0.1,1,0.1,2,0,3c0,0.1,0,0.1,0.1,0.1c1.1,0.2,2.2,0.4,3.2,0.7c-1.1,0-2.1-0.1-3.2-0.2
							c-0.3,0-0.6-0.3-0.6-0.6C30.3,53.3,30.4,52.3,30.7,51.3L30.7,51.3z"/>
					</g>
					<g>
						<path d="M88.5,47.7c0.6-0.1,1.2-0.2,1.8-0.3c0.7-0.1,1.4,0,1.8,0.6c0.3,0.6,0.2,1.2,0.3,1.9c0,0.6,0,1.2,0,1.8
							c-0.2-0.6-0.3-1.2-0.4-1.8c-0.1-0.5-0.1-1.2-0.3-1.7c-0.3-0.5-0.9-0.5-1.4-0.5C89.7,47.8,89.1,47.7,88.5,47.7L88.5,47.7z"/>
					</g>
					<g>
						<path d="M26.7,43.3c1-9.6,5-20.5,12.8-26.6c1.2-0.9,2.4-1.6,3.7-2.2c-1.2,0.8-2.3,1.7-3.4,2.6C32.5,23.9,29,33.7,26.7,43.3
							L26.7,43.3z"/>
					</g>
					<g>
						<path d="M59.3,6.4c1.3-0.9,3.3-0.9,4.5,0.1C62.3,5.9,60.8,6,59.3,6.4L59.3,6.4z"/>
					</g>
					<g>
						<path d="M63.7,16.8c-1.3,0.9-3.3,0.9-4.5-0.1C60.6,17.2,62.2,17.2,63.7,16.8L63.7,16.8z"/>
					</g>
					<g>
						<path d="M87.1,53.8c0.2,0.5,0.2,1,0.3,1.5c0,0,0,0,0,0c0.7-0.1,1.4-0.1,2.1,0c-0.6,0.2-1.3,0.3-1.9,0.4c-0.2,0-0.4,0-0.5-0.2
							C87,54.9,87,54.3,87.1,53.8L87.1,53.8z"/>
					</g>
					<g>
						<path d="M94.7,49.3c-0.2-0.8-0.3-1.6-0.3-2.3c-0.1-0.4,0-0.8-0.2-1.1C94,45.4,93.5,45,93,44.9c-0.6,0-1.1,0-1.7,0
							c-0.8,0-1.6,0-2.4,0c0.8-0.2,1.6-0.3,2.3-0.3c0.8,0,1.7-0.3,2.4,0.1c0.9,0.4,1,1.3,1,2.2C94.7,47.7,94.7,48.5,94.7,49.3
							L94.7,49.3z"/>
					</g>
					<g>
						<path d="M39.7,49.6c0-1.1,0.1-2.2,0.2-3.2c0-0.2-0.1-0.4-0.3-0.5c-0.8-0.1-1.6-0.1-2.4-0.3c0.5,0,1.1-0.1,1.6-0.1
							c0.3,0,0.6,0,0.8,0c0.3,0.1,0.6,0.5,0.5,0.8C40.1,47.4,39.9,48.5,39.7,49.6L39.7,49.6z"/>
					</g>
					<g>
						<path d="M28.9,47.6c0,1.9-0.2,3.7-0.6,5.5C28.3,51.2,28.5,49.4,28.9,47.6L28.9,47.6z"/>
					</g>
					<g>
						<path d="M75.2,9.8c1.5,0.2,3.2,0.7,4.1,2.1c0.1,0.1,0.1,0.2,0.3,0.3c2.2,1.1,4.5,2.6,5.7,4.8c-1.7-1.8-3.8-3.1-6-4.2
							c-0.3-0.1-0.5-0.4-0.6-0.7C77.9,10.9,76.5,10.4,75.2,9.8L75.2,9.8z"/>
					</g>
				</g>
			</g>
		</g>
	</g>
</g>
<g id="Слой_3" class="st0">
	<g class="st1">
		<g>
			<g>
				<g>
					<g>
						<g>
							<path d="M616.6-353.4v0.2h0C616.5-353.2,616.6-353.3,616.6-353.4z"/>
						</g>
						<g>
							<path d="M627.4-352c-0.6-3-3.5-4.6-4.9-5.1l-0.2-12.3c0-4.7-3.2-6.4-5.2-7.1c-0.5-11.8-2.2-23-5.2-33.5
								c-3.9-13.8-10-26.5-18-37.6c-14.5-20-30.1-27.9-30.3-28c-1.9-1-5.1-3.2-5.9-3.7c-1.6-2.7-4.8-5.3-7-6.5c-7.2-4-24.3-7-32.4-7
								c-5.5,0-7.4-1-7.9-1.3c-2.4-4.9-9.9-5-10.2-5s-7.8,0.1-10.2,5c-0.4,0.3-2.3,1.3-7.9,1.3c-8.1,0-25.2,3-32.4,7
								c-2.3,1.3-5.4,3.9-7,6.5c-1.1,0.7-4.1,2.8-5.9,3.7c-0.2,0.1-15.9,8.1-30.3,28c-8,11.1-14,23.7-18,37.6
								c-3,10.5-4.7,21.8-5.2,33.5c-1.7,0.5-5.2,2.3-5.2,7.1l-0.2,12.3c-1.4,0.6-4.3,2.1-4.9,5.1c-0.5,2.4,0.9,4.8,2.2,6.4
								c0.9,1.1,2,2,3.3,2.7c1.2,0.6,3.3,1.5,6.7,2.6c0.8,0.2,1.4,0.7,1.8,1.4l12.5,18.9c1.3,2,3.4,3.5,5.7,4.2
								c8.7,2.5,32.5,6.7,94.9,6.8c62.4-0.1,86.3-4.3,95-6.8c2.4-0.7,4.4-2.2,5.7-4.2l12.5-18.9c0.4-0.7,1.1-1.2,1.9-1.4
								c3.4-1.1,5.5-2,6.7-2.6c1.3-0.7,2.4-1.6,3.3-2.7c1-1.3,2.3-3.3,2.3-5.4C627.5-351.4,627.5-351.7,627.4-352z M620-369.4
								c-0.9,0.1-2,0.1-2.8,0.2c0-1.6,0-3.2-0.1-4.9C618.5-373.5,620-372.2,620-369.4z M617.2-367.8c0.8,0,1.9-0.1,2.8-0.2l0.2,11
								c-0.6,0-1.6,0-3.4,0C617.1-360.5,617.2-364.2,617.2-367.8z M616.5-353.1c0-0.1,0-0.2,0-0.2v0c0.1-0.7,0.1-1.3,0.2-2
								c1.4,0,2.8,0,3.5,0l0,2.7c0,0.2-0.1,0.4-0.2,0.5c-0.2,0.2-0.4,0.2-0.6,0.2l-3-0.3C616.5-352.6,616.5-352.8,616.5-353.1z
								 M490.7-458.5l0.9-33.4c0,0,0.1,0,0.1-0.1c0.3-0.2,0.5-0.4,0.6-0.6l0.2-0.2c1.4-3.4,7.7-3.6,7.8-3.6s6.3,0.2,7.8,3.6l0.1,0.2
								c0,0.1,0.2,0.3,0.6,0.6l0.1,0.1c0.1,0.1,0.2,0.1,0.3,0.2l-0.2,33.2c0,0.7,0,0.9-0.2,1l-1,0.6c-0.3,0.2-0.8,0.1-1.3,0
								c-0.4-0.1-0.8-0.2-1.3-0.2h-10.3c-0.4,0-0.8,0.1-1.2,0.2l-0.1,0c-0.6,0.2-1.1,0.2-1.4,0l-1-0.6
								C490.8-457.6,490.7-457.8,490.7-458.5z M408.9-446c13.9-19.3,29.1-27.1,29.3-27.1c2.3-1.2,6-3.7,6.4-4l0.3-0.3l0.1-0.2
								c1.2-2.2,4.1-4.6,6.1-5.8c6.8-3.8,23.2-6.6,31-6.6c2.8,0,5.1-0.3,7-0.7l-0.5,32.2c0,1.1,0.5,2.1,1.5,2.6l1,0.6
								c1.1,0.6,2.3,1,3.6,1H505c1.2,0,2.5-0.3,3.6-1l1-0.6c0.9-0.5,1.5-1.5,1.5-2.6l0.7-32.1c1.8,0.4,3.9,0.6,6.5,0.6
								c7.8,0,24.2,2.8,31,6.6c2.1,1.2,4.9,3.6,6.1,5.8l0.1,0.1l0.2,0.2l0.3,0.2c3.4,2.3,5.2,3.4,6.2,3.9c0.6,0.3,15.5,8,29.3,27.1
								c17.8,24.6,25.2,55.8,22.1,92.6c0,0.5-0.3,2.4-2.4,3.3c-2.1,0.9-9.1,1.2-13.1,1.2l-1.2-18.2c0-1.4-0.5-2.7-1.5-3.6
								c-1.6-1.5-3.9-1.8-5-1.8v0l-4.5,0.5l-16,0.7c-0.4,0-2.4,0.4-2.1,4.4l1.5,15.3l0.3,4.1c-8.3,1.1-36.6,4.6-69.5,4.3
								c-34.2,0.2-63.4-3.5-69.5-4.3l0.3-4.1l1.5-15.3c0.1-1.7-0.1-2.9-0.8-3.7c-0.5-0.6-1.2-0.7-1.4-0.7l-16-0.7l-4-0.5h-0.1
								c-0.3,0-3.4,0-5.3,1.8c-1,0.9-1.5,2.2-1.5,3.6l-1.2,18.2c-4,0-11.1-0.3-13.1-1.2c-2.3-1-2.4-3.3-2.4-3.4
								c-0.5-5.4-0.7-10.8-0.7-15.9C386.1-399.3,393.7-425,408.9-446z M595.7-345.2c0,0.4-0.2,0.7-0.5,0.8h0
								c-1.8,0.4-8.5,1.9-18.5,2.5l0,0c0,0,0,0,0,0c-0.1-0.1-0.4-0.4-0.4-1.5l-2.4-23.2c0-0.1,0-1.1,0.7-1.3l15.8-1.8
								c0,0,2.2,0,3.3,1.1c0.4,0.4,0.6,0.9,0.6,1.7L595.7-345.2z M571.3-366.5l2.2,22.2l-1.7-1.6l-0.4-6l-1.5-15.3
								c-0.1-1.7,0.2-2.2,0.3-2.3l2.1-0.1C571.5-368.6,571.3-367.3,571.3-366.5z M428.1-369.6l2.1,0.1c0.1,0.1,0.5,0.6,0.3,2.3
								l-1.5,15.3l-0.4,6l-1.7,1.6l2.2-22.2C429.2-367.3,429-368.6,428.1-369.6z M426.6-366.7l-2.3,23.2c-0.1,1.1-0.4,1.4-0.4,1.5
								l0,0h0c-10.1-0.6-16.8-2.1-18.6-2.5c-0.3-0.1-0.4-0.3-0.4-0.8l1.4-21.9c0-0.7,0.2-1.3,0.6-1.7c1.1-1,3.2-1.1,3.2-1.1
								l15.8,1.8C426.5-367.9,426.6-367.2,426.6-366.7z M388-347.7c2.8,1.2,10.6,1.4,14.1,1.5l0,0.8c-0.1,1,0.3,3.1,2.5,3.6
								c0.1,0,7.3,1.9,19,2.6c0.4,0.1,1.3,0,2.1-0.6c0.4-0.4,0.8-0.8,1.1-1.4l3.8-3.8c5.6,0.8,33.3,4.4,66.8,4.4h6
								c33.6,0,61.3-3.6,66.8-4.4l3.8,3.8c0.2,0.6,0.6,1,1,1.4c0.8,0.6,1.7,0.6,2,0.6c10.7-0.6,17.7-2.3,19-2.6
								c2.1-0.4,2.7-2.4,2.6-3.6l0-0.8c3.5,0,11.3-0.2,14.1-1.5c1.3-0.6,2.3-1.4,3-2.5l1.5,0.2c-1.7,1.3-4.7,3.3-8.4,4.2
								c-0.1,0-0.4,0.1-0.8,0.2c-0.6,0.2-1.1,0.6-1.5,1c-0.9,0.9-13.6,20.6-13.7,20.8c-0.1,0.1-1,1.4-4.3,1.7
								c-0.6,0.1-1.6,0.2-3.3,0.4c-9.2,1.3-37.4,5.4-84.8,5.4c-47.4,0-75.5-4.1-84.8-5.4c-1.7-0.2-2.7-0.4-3.3-0.4
								c-3.4-0.3-4.2-1.7-4.2-1.7l-0.6-0.9c-5.3-8.2-12.4-19.2-13.1-19.9c-0.5-0.6-1.1-0.9-1.5-1c-0.3-0.1-0.7-0.2-0.7-0.2
								c0,0,0,0,0,0c-3.8-0.8-6.8-2.9-8.5-4.2l1.5-0.2C385.7-349.1,386.7-348.2,388-347.7z M380.4-364.9l2.9-0.1
								c0.1,2.8,0.2,5.7,0.4,8.5l-3.4,0.4L380.4-364.9z M383.3-366.5l-2.8,0.1l0-1.3l2.8-0.2C383.3-367.4,383.3-367,383.3-366.5z
								 M380.3-354.6l3.6-0.5c0,0.5,0.1,1.1,0.1,1.6c0,0.1,0,0.5,0.1,1.1l-3,0.3c-0.2,0-0.5,0-0.6-0.2c-0.2-0.1-0.2-0.4-0.2-0.6
								L380.3-354.6z M380.5-369.5c0-2.7,1.5-4,2.9-4.7c-0.1,1.6-0.1,3.2-0.1,4.8l-2.8,0.2V-369.5z M442.2-313.5
								c-21.8-1.5-31.9-3.7-36-5c-1.7-0.5-3.2-1.6-4.2-3.1l-12.5-18.9c-0.8-1.2-2-2.1-3.3-2.5c-3.2-1-5.2-1.9-6.3-2.4
								c-0.9-0.5-1.7-1.1-2.3-1.9c-0.7-1-1.9-2.7-1.6-4.2c0.2-1.2,1.2-2,2.1-2.6l0,1.3c0,0.8,0.4,1.7,1,2.3c0.4,0.3,0.8,0.6,1.3,0.7
								c1.2,1.2,5.2,4.9,11.3,6.2c0,0,0.6,0.1,1,0.6c0.4,0.5,6.2,9.2,13.4,20.4c0.2,0.4,1.6,2.4,6,2.8c0.5,0,1.4,0.2,2.9,0.4l0.3,0
								c4.5,0.7,13.5,2,27,3.1V-313.5z M445.5-313.3c-0.6,0-1.2-0.1-1.9-0.1v-2.8c0.6,0,1.2,0.1,1.9,0.2V-313.3z M525.6-312.1
								c-7.6,0.2-16.1,0.3-25.4,0.3c-22.4,0-39.8-0.6-53.2-1.4v-2.7c13.7,1.1,31.5,1.9,53.2,1.9c8.3,0,16-0.1,23.1-0.3v1h1.5v-1
								c0.2,0,0.5,0,0.8,0V-312.1z M528-312.1c-0.3,0-0.6,0-0.9,0v-2.3c0.3,0,0.6,0,0.9,0V-312.1z M602.8-328l-2.8-1.5l-0.7,1.3
								l2.7,1.4l-3.4,5.2c-1,1.5-2.5,2.6-4.2,3.1c-5.5,1.6-21.5,4.9-61.2,6.2v-1.2h-1.5v1.3c-0.7,0-1.4,0-2.2,0.1v-2.3
								c30-1.2,48.6-3.8,55.8-4.9l0.2,0c1.6-0.2,2.6-0.4,3-0.4c4.4-0.4,5.8-2.4,6-2.8c1.8-2.8,3.6-5.6,5.4-8.3l2.5,1.3l0.7-1.3
								l-2.4-1.2c0.2-0.3,0.3-0.5,0.5-0.8l1.6,0.8l0.6-1.4l-1.4-0.7c0.6-0.8,1.1-1.6,1.6-2.4l3.8,1.7L602.8-328z M623-347.3
								c-0.6,0.8-1.4,1.5-2.3,1.9c-1.1,0.6-3.1,1.4-6.3,2.4c-1.4,0.4-2.6,1.3-3.3,2.5l-2.9,4.3l-3.8-1.7c0.2-0.3,0.4-0.6,0.6-0.8
								l2.4,1l0.6-1.4l-2.1-0.9c1.2-1.8,2-2.9,2.1-3.1c0.5-0.5,1-0.6,1.1-0.6c6.1-1.4,10.3-5.3,11.2-6.2c0.5-0.1,1-0.3,1.4-0.7
								c0.7-0.6,1-1.4,1-2.3l0-1.3c0.9,0.5,1.9,1.4,2.1,2.6c0,0.2,0,0.3,0,0.5C624.7-349.7,623.8-348.3,623-347.3z"/>
						</g>
					</g>
				</g>
			</g>
		</g>
		<g>
			<g>
				<path d="M430.5-338.7c41.9,4.8,84.4,5.5,126.4,1.1c4.2-0.5,8.9-1.1,13-1.5c-4.1,0.9-8.7,1.8-12.9,2.7
					c-18.6,3.2-37.9,4.8-56.8,4.7C476.9-331.9,453.3-333.7,430.5-338.7L430.5-338.7z"/>
			</g>
			<g>
				<g>
					<path d="M407.1-356.3c0.3,3,0.3,6,0.1,9c0,0.2,0.1,0.3,0.3,0.4c3.3,0.5,6.5,1.1,9.7,2.1c-3.2,0.1-6.4-0.3-9.6-0.7
						c-1,0-1.9-0.8-1.8-1.9C406.1-350.4,406.4-353.4,407.1-356.3L407.1-356.3z"/>
				</g>
				<g>
					<path d="M581.6-367.4c1.8-0.4,3.6-0.6,5.4-0.8c2-0.4,4.3,0,5.4,1.9c1,1.7,0.7,3.8,0.9,5.6c0.1,1.8,0.1,3.6,0.1,5.5
						c-0.5-1.8-0.8-3.6-1.1-5.4c-0.4-1.6-0.2-3.5-1-5c-0.9-1.5-2.7-1.7-4.2-1.6C585.3-367.1,583.5-367.2,581.6-367.4L581.6-367.4z"
						/>
				</g>
				<g>
					<path d="M395.1-380.7c2.9-29,15.2-61.9,38.6-80.3c3.5-2.6,7.2-4.9,11.1-6.7c-3.6,2.4-7,5-10.2,7.9
						C412.6-439.2,402.1-409.4,395.1-380.7L395.1-380.7z"/>
				</g>
				<g>
					<path d="M493.4-492c4-2.7,9.8-2.7,13.7,0.3C502.6-493.4,498-493.3,493.4-492L493.4-492z"/>
				</g>
				<g>
					<path d="M506.8-460.6c-4,2.7-9.8,2.7-13.7-0.3C497.6-459.3,502.2-459.3,506.8-460.6L506.8-460.6z"/>
				</g>
				<g>
					<path d="M577.5-348.9c0.5,1.5,0.7,3,0.9,4.5c0,0.1,0.1,0,0.1,0c2.1-0.2,4.2-0.3,6.3-0.1c-1.9,0.6-3.9,0.9-5.8,1.1
						c-0.6,0.1-1.2,0.1-1.5-0.5C577.2-345.5,577.3-347.2,577.5-348.9L577.5-348.9z"/>
				</g>
				<g>
					<path d="M600.5-362.6c-0.5-2.3-0.8-4.7-1-7c-0.2-1.1-0.1-2.3-0.5-3.3c-0.6-1.4-1.9-2.5-3.4-2.7c-1.7-0.1-3.5,0.1-5.2,0.1
						c-2.4,0.1-4.7,0.1-7.1-0.1c2.3-0.5,4.7-0.8,7-1c2.4-0.1,5.1-1,7.4,0.2c2.6,1.3,3,4.1,2.9,6.7
						C600.6-367.3,600.6-365,600.5-362.6L600.5-362.6z"/>
				</g>
				<g>
					<path d="M434.3-361.7c0-3.3,0.3-6.6,0.6-9.8c0.1-0.6-0.3-1.2-0.8-1.4c-2.3-0.3-4.9-0.3-7.2-0.8c1.6-0.1,3.3-0.2,4.9-0.2
						c0.8,0,1.7-0.1,2.6,0.1c1,0.2,1.7,1.4,1.6,2.4C435.6-368.1,435.1-364.9,434.3-361.7L434.3-361.7z"/>
				</g>
				<g>
					<path d="M401.7-367.7c0.1,5.7-0.5,11.2-1.8,16.7C399.8-356.6,400.4-362.2,401.7-367.7L401.7-367.7z"/>
				</g>
				<g>
					<path d="M541.7-481.7c4.5,0.7,9.8,2.2,12.3,6.4c0.2,0.4,0.4,0.6,0.8,0.8c6.7,3.3,13.5,7.8,17.3,14.4
						c-5.2-5.4-11.6-9.2-18.2-12.7c-0.9-0.4-1.4-1.3-1.8-2.2C549.7-478.5,545.6-480,541.7-481.7L541.7-481.7z"/>
				</g>
			</g>
		</g>
	</g>
	<g class="st1">
		<g>
			<g>
				<g>
					<path d="M632.5-222.7c-0.8-1.8-2.1-1.2-3.2-0.7c-7,3.2-14.5,3.2-21.9,2.8c-4.1-0.2-4.1-0.4-4.1-4.6c0-0.5,0-0.9-0.1-1.4
						c-0.4-6.1-0.9-12.1-1.3-18.2c-0.2-3.3-0.2-6.6,1.4-9.6c4.1-7.8,6-16.3,8-24.8c1.2-5.1,2.9-10.2,2.5-15.5
						c-0.3-4.6-3.4-7.2-8-6.9c-3.3,0.2-3.2,0.2-2.8-3.2c0.4-3.5,0.7-7.1,1.1-10.6c-1.9,2.6-4.5,4.7-6.5,5.6
						c-0.6,0.3-1.2,0.5-1.9,0.7c-0.5,0.8-0.9,1.6-1.3,2.5c-0.1-0.7-0.2-1.4-0.2-2.1c-1.1,0.3-2.2,0.5-3.3,0.6
						c0.5,15.4-0.3,30.8-0.3,46.2c0,8.9-2.5,16.5-9,22.8c-2.9,2.8-5.7,5.9-8,9.2c-1.5,2.1-3.3,2.9-6,1.6c-5.9-2.8-12.2-4.6-19.1-5.4
						c2.5-4.1,3.2-8,2-12.2c-2.4-8-10.2-12.3-18.2-9.8c-5.2,1.6-7.3,0.1-7.6-5.3c-0.6-8.2,0.7-16.2,2.8-24.2
						c0.7-2.5,2.3-4.5,4.4-6.1c2.7-2.1,5.7-3.6,8.8-4.8c7.8-2.8,15.6-5.7,23.3-8.6c-5.4,0.3-10.9,0.5-16.3,0.7
						c-2.2,2-5.7,2.4-8.7,3.4c0.6-1,1.2-1.9,1.9-2.9c-1.1,0.1-2.2,0.2-3.3,0.3c-2.2,2.4-4.5,4.6-7.1,6.7c0.5-1.9,1.9-3.2,3-4.7
						c0.4-0.6,0.9-1.2,1.3-1.7c-1,0.1-2,0.2-3,0.3c-1.2,1.5-2.4,3.1-3.6,4.7c0.2-1.5,0.5-3,0.7-4.5c-0.6,0-1.2,0.1-1.9,0.1
						c-0.4,2.3-0.8,4.5-1.4,6.7c-0.2,0.6-0.2,1.3-1.8,1.7c0-2.8,0-5.6,0-8.4c-1.2,0-2.5,0-3.7-0.1c0.4,9.9,1.6,19.8,1.2,29.8
						c-0.2,4.4-0.5,8.9-0.5,13.3c0,6.6,3,9,9.5,7.8c2-0.3,3.9-0.7,5.9-1c4.9-0.8,9,1.9,10.7,7.1c1.6,4.8-0.2,9.3-4.5,11.5
						c-0.7,0.4-1.5,0.8-2.3,0.9c-7.1,1.4-12.5,5.6-17.6,10.3c-2.6,2.4-5.4,4.5-8.7,6c-4.6,2.1-9,1.4-13.3-0.9
						c-3.1-1.7-6-3.8-8.7-6.1c-6.5-5.6-14.2-8.3-22.7-8.7c-3.7-0.2-7.1-0.7-8.5-5c-1.2-3.8,0.2-9.4,3-11.8c2-1.7,4.3-1.7,6.7-1.3
						c1.9,0.3,3.7,0.8,5.6,1c3.8,0.4,5.9-0.9,7.3-4.6c2-5.4,1.6-11.1,1.5-16.7c-0.2-10.7-0.4-21.3-1-32c-1.2,0-2.5-0.1-3.7-0.1
						c0.1,1.7,0.1,3.3,0,5.1c-1.1-1.7-1.8-3.4-2.4-5.2c-0.6,0-1.3,0-1.9,0c1,3.5,2.5,6.9,4.1,10.4c-0.8-0.3-0.9-0.3-1-0.3
						c-5.8-1.7-7.7-5.8-8.8-10.2c-0.6,0-1.1,0-1.7,0c0.6,1.9,1.2,3.8,1.7,5.8c-3.3-0.2-4.4-2.2-5.2-4.5c-0.2-0.5-0.3-0.9-0.5-1.4
						c-0.7,0-1.4,0-2.1-0.1c0.4,1.1,0.7,2.1,1.1,3.3c-1.7,0.2-2.6-0.4-2.9-1.7c-0.2-0.6-0.3-1.1-0.5-1.7c-0.7,0-1.4-0.1-2.1-0.1
						c0.2,0.6,0.4,1.2,0.6,1.8c-1.4,0-2.8-0.2-3.3-1.2c-0.1-0.3-0.2-0.5-0.4-0.8c-3.6-0.2-7.1-0.4-10.7-0.7
						c-2.3-0.2-4.6-0.3-6.9-0.5c5.3,1.6,10.7,3.2,16,4.9c6.2,1.9,12.1,4.2,18,6.9c0.7,0.3,1.4,0.7,2.1,1.1c-6.5-1.2-12.9-2-19.5-2
						c-6,0.1-11.9,0.8-17.8,2.2c-1.1,0.3-2.9,0.2-2.4,2.2c0.5,1.7,1.8,1,2.9,0.7c6.1-1.4,12.3-2.2,18.6-2.1c1.4,0,2.3,0,1.5,1.9
						c-0.8,1.8,0.1,3.1,1.9,3.9c3.7,1.7,7,0.2,8-3.8c0.3-1.1,0.8-0.8,1.3-0.6c1.7,0.4,3.4,0.8,5,1.2c1.1,0.3,2.3,0.7,3-0.9
						c0.7-1.5,1.3-0.2,1.8,0.3c2.1,2,2.8,4.7,2.9,7.5c0.3,7.6,0.7,15.3-0.4,22.9c-0.6,4.3-2.1,5.5-6.4,4.8c-0.4-0.1-0.7-0.2-1.1-0.3
						c-10.1-2.1-17.8,5-16.2,15.3c0.4,2.6-0.1,3.5-2.7,3.9c-4.1,0.7-8,2.2-11.5,4.6c-1.2,0.8-1.9,0.7-2.6-0.5
						c-3.2-4.7-7-9-10.9-13.2c-4.2-4.6-5.2-10.5-6.4-16.2c-2.3-10.7-4.3-21.6-4.7-32.6c-0.2-4.8,0.2-9.5,0.5-14.3
						c-1.2-0.2-2.3-0.5-3.5-0.8c-0.1,11.6-1.6,22.9-4.9,34.1c-1,3.5-0.6,7.3-0.3,10.8c0.6,7.4,0.6,14.7-0.1,22
						c-0.3,3.9-0.1,7.7,0.9,11.6c0.7,2.7,0.3,5.6-0.1,8.3c-1.7-8.4-2.6-16.7-2.1-25.2c0.6-11.2-1-22.3-1.3-33.4
						c-0.1-3.1-0.1-6.2-0.3-9.2c-0.1-1.7,1.2-2.8,1.7-4.2c1.9-5,2.7-10.3,4-15.5c-0.8-0.3-1.7-0.5-2.5-0.8c-0.7,3-1.4,6.1-2.1,9.1
						c-0.2-0.1-0.5-0.1-0.7-0.2c0.3-3.2,0.6-6.5,1-9.7c-0.7-0.3-1.4-0.6-2.1-0.9c-0.1-0.1-0.2-0.1-0.3-0.2c-0.2,2.5-0.5,4.9-0.9,7.3
						c-0.3,1.7-0.6,2.5-2.7,1.6c-4.3-1.8-7.7,0-8.9,4.5c-0.3,1.2-0.4,2.5-0.4,3.8c0.2,10.3,1.6,20.5,5.7,30
						c5.9,13.6,7.3,28,9.1,42.4c0.2,1.6-0.3,2-1.9,1.7c-5.5-1-10.7-2.8-15.7-5.1c-1.1-0.5-2.3-1-3.2,0.2c-0.9,1-0.2,2,0.4,3
						c4.7,7.9,10.3,15,17,21.2c1.4,1.3,2,2.6,1.9,4.5c-0.5,7.3-0.6,14.5-1.3,21.8c-1.4,16.1-2.3,32.2-1.1,48.4
						c0.4,5.4,0.4,10.9-0.3,16.3c-0.7,4.7-1.3,9.4-0.1,14.1c2.3,8.8,7.1,16.7,10.2,25.2c0.2,0.5,0.5,1,1,1.3
						c4.2,3.3,7.4,7.8,12.8,9.5c0.9,0.3,1.7,0.8,2,1.7c0.8,2.1,2.6,3.5,4.5,4c4.6,1.2,8.5,3.2,12.2,6.2c3.2,2.6,7.7,3.4,11.7,4.9
						c5.6,2.1,11,5.2,17.1,5.9c0.4,0,0.8,0.3,1.3,0.5c8.9,3.8,18.3,6.3,27.7,8.9c1.2,0.3,2.4,0.5,3.5,0c4.6-2,9.2-1.6,13.8-0.3
						c2.3,0.6,4.5,0.2,6.2-1.7c1-1.1,2.1-1.3,3.4-0.7c2.9,1.4,5.8,0.8,8.8-0.1c1.6-0.5,3.1-1.2,4.7-1.3c3.3-0.3,5.8-1.9,7.9-4.3
						c2.4-2.7,5.2-4.8,8.7-5.9c3.2-1,5.8-3.2,7.5-6.1c3.8-6.7,9.6-11.1,15.9-15.3c11.8-7.6,20.2-18.4,27-30.5
						c2.3-4.1,3.1-8.7,2.5-13.4c-1.3-9.7-2-19.5-3-29.3c-0.6-6.1,0-12.2-1.1-18.2c-2.9-15.7-3.5-31.7-5.2-47.6
						c-0.1-1.1,0.1-1.9,1.1-2.5c8.6-5.6,16.5-12.3,26.2-16C632-220.4,633.3-220.9,632.5-222.7z M405.1-250.6
						c-4.7-13.1-10.9-25.8-10.1-40.2c0.1-2.3,0.1-4.6,1.2-6.6c0.8-1.4,1.8-2.4,3.5-1.8c1.7,0.5,3.9,0.8,3.8,3.2
						c-0.5,14.8,1.1,29.6,1.6,44.3C405.2-251.3,405.2-250.9,405.1-250.6z M601.8-294.8c0.2-1.5-0.1-3.2,2-3.6
						c2.1-0.3,4.2-0.4,5.6,1.6c1.1,1.6,1.3,3.3,1.3,5.2c-0.1,6.3-2.2,12.3-3.7,18.3c-1.3,5-2.4,10-5.7,14.5c-0.2-4-0.6-8.1-0.7-12.1
						C600.6-278.9,600.9-286.8,601.8-294.8z M600.7-310.9c-0.5,8.8-0.7,17.7-6.4,25.1C593.7-295,594.7-303.6,600.7-310.9z
						 M598.1-285.4c0.8,6.8-0.9,13.4,0.1,20.5C591.7-271.3,592.6-281.6,598.1-285.4z M594.2-265.5c2.4,3.8,4.4,7.3,4.7,11.3
						c0.6,7.8,1.1,15.7,1.6,23.6c0,0.7,0.4,1.4-0.5,2.2c-1.9-4.3-3.2-8.6-4.1-13.1c-0.2-1.1-0.4-2.1-0.7-3.2
						c-0.7-2.2-2.4-4.3-2.3-6.6C593.2-255.9,592.5-260.5,594.2-265.5z M591.4-246.4c0.8,0.9,1.2,1.8,1.4,2.8
						c1.2,7.1,3.9,13.7,6.1,20.5c0.7,2.1,0.1,2.6-1.9,2.3c-2.3-0.4-5.3,0.2-6.8-1c-1.7-1.4,0-4.3-0.1-6.6c-0.2-3.7,0-7.4-0.5-11.1
						C589.1-242.2,589.3-244.5,591.4-246.4z M580.1-232c2.1-2.3,4.2-4.7,6.7-7.4c0.8,5.7,1,10.9,0,16.1c-0.3,1.3-3,1.4-4,0
						c-1.6-2.2-2.7-4.7-3.1-7.5C579.7-231.3,579.8-231.7,580.1-232z M577.2-229.3c0.7,1.9,1.2,3.4,1.8,5.1c-1.7-0.2-3.7-0.3-4.2-1.6
						C574.2-227.1,575.9-228.1,577.2-229.3z M540.6-227.4c10.6,1.8,20.8,4.2,30.1,10.3c7.9,5.2,17.3,7.4,26.4,9.9
						c1.1,0.3,2.4,0.2,3.3,1.3c-2.9,2.2-5.8,3.6-9.7,2.6c-8.2-2.1-15.8-5.1-22.3-10.8c-8.1-7-18-9.5-28.2-11
						c-1.7-0.2-3.4-0.4-5.4-0.7C536.5-227.6,538.5-227.8,540.6-227.4z M559.8-98.6c-1-25.8,0-51.2-1.3-76.7c2.2,6.1,3,12.5,3,18.9
						c-0.1,18.5-0.5,37-0.8,55.5C560.7-100.3,560.8-99.6,559.8-98.6z M542.8-123.4c-0.1-21.7-0.2-43.4-0.5-65.1c0-2.8,0.9-3.3,3.4-3
						c4.6,0.5,4.5,0.4,4.1,4.9c-0.3,4.7-0.4,9.5,0.1,14.2c0.7,8.3,0.2,16.5-0.4,24.8c-0.5,6.9-1.2,13.7-2.8,20.4
						c-1.6,6.6-2.2,13.6-3.2,20.4c-0.2,0-0.4,0.1-0.7,0.1C542.8-112.3,542.8-117.9,542.8-123.4z M545.6-195.1
						c-1.8-0.2-3.5-0.2-4.5-2.2c-0.6-1.2-2.1-2-3.1-2.9c0.2-0.7,0.8-0.7,1.2-0.6c8.4,0.7,16.8,0.3,25.2,0c5.4-0.2,10.2,1.9,16.1,2.9
						c-5.2,1.7-9.8,2-14.3,2.5C559.3-194.6,552.5-194.1,545.6-195.1z M542.2-211.3c-4.7-1.3-9.4-2.5-14.1-3.7
						c18.7-0.4,37.2,0.1,52.7,12.8c-3.9,0.8-7.6,0.7-11.4-0.3C560.1-204.9,551.4-208.7,542.2-211.3z M565.9-191.2
						c1.6-1.2,3.8-0.9,5.8-0.9c1.7,0,1.3,1.5,1.3,2.5c-0.5,5.8,0.3,11.6,0.6,17.4c0.8,14.9,1.6,29.7,1.6,44.6
						c0,5.7-0.3,11.4-1.1,17.1c-0.1,0.8,0,1.6-1,2.3c-0.4-5.2-0.9-10.2-1.2-15.3c-0.8-11.6-0.9-23.2-2.3-34.7
						c-1-8.9-2.4-17.8-3.5-26.7c-0.1-0.7-0.3-1.4-0.2-2.2C566-188.5,564.9-190.4,565.9-191.2z M575-181.3c-1.4-3.3-0.2-6.8-0.3-10.3
						c0-0.6,0.4-0.9,0.9-1.1c4.4-2.1,6.2-1.2,6.9,3.6c0.9,5.8,1,11.6,0.9,17.4c-0.2,9.9-0.2,19.8,0.4,29.7c0,0.6,0.2,1.3-0.7,2.4
						c-0.7-4.8-1.3-9.2-2.1-13.5C579.4-162.6,578.7-172.3,575-181.3z M528.1-220.7c2.4-2.5,5.2-3.5,8.8-3c6.6,1,13.2,2.2,19.4,5
						c0.9,0.4,1.9,0.5,2.5,1.7c-3.1-0.4-6-0.7-8.9-1.1c-6.1-0.7-12.1-0.6-18.2-0.1c-0.9,0.1-1.8,0.1-2.7,0.1c-0.8,0-1.5-0.3-1.8-0.9
						C526.7-219.9,527.6-220.3,528.1-220.7z M560.6-202.7c-8.3,0.7-16.6,0.5-24.8-0.1c-2.1-0.1-3.5-1.7-5.3-2.5c-4-1.8-7-5-10-8.3
						C533.7-209.3,547.7-208.3,560.6-202.7z M523-208c2.2,2.2,4.8,3.8,7.7,5c3.4,1.3,5.7,3.9,8.6,7c-10.6-2.7-19.3-7.3-27.3-13.8
						C516.7-212.9,520-211.1,523-208z M526.8-123.6c0.1,4.8-0.4,9.5-2.5,13.8c-3.8,7.5-4.6,15.5-3.7,23.6c1,9.2-0.6,18-2.8,27.5
						c-2.1-8.3-4.4-16.1-2.9-24.3c1.1-6.3,2-12.6,1.8-18.9c-0.3-8.3,1.9-16.2,3.6-24.2c4.2-20,5.3-40.1,3.8-60.4
						c-0.3-3.8-0.6-7.5-1-11.6c1.8,0.8,3.4,1.6,4.9,2.2c1.1,0.4,1,1.3,1.1,2.2c0.4,9.6,0.8,19.2,0.6,28.9
						c-0.1,6.3-1.6,12.4-2.3,18.6C526.4-138.7,526.6-131.2,526.8-123.6z M517.1-195.4c-0.2-2.1-0.5-4.1-0.8-6.3
						c3.8,0.9,4.8,3.3,5.2,6.6c1.4,11.9,1.9,23.9,1.5,35.9c-0.4,14.6-2.9,28.8-6.9,42.8c-0.1,0.3-0.3,0.6-0.6,1.5
						c-1-7.3-2-13.9-0.7-20.5c1.4-7.6,1.2-15.4,2.1-23c0.4-4.1,1.1-8.3,1.6-12.4C519.5-179,518.1-187.2,517.1-195.4z M508.7-207.7
						c1.5,1.1,3,2.3,4.6,3.4c0.9,0.6,1,1.4,1.1,2.3c0.8,6.9,1.7,13.7,2.5,20.5c0.7,6.6-0.6,13-1.5,19.5c-0.7,5-1.1,10.1-1.1,15.2
						c0,1,0.1,2.1-0.9,3c-0.7-21.4-3.6-42.5-5.7-63.7L508.7-207.7z M505.8-207c1.1,13.9,3.3,27.4,4.1,41.1
						c1.2,18.9,1.9,37.9,4.1,56.7c1.1,8.9,0,17.7-1.6,27.1c-1-2.4-1.3-4.3-1.1-6.3c1-8.3,0.3-16.5-0.6-24.7
						c-1.1-10.6-1.7-21.4-3.8-31.9c-1-4.8-2.2-9.5-3.5-14.2c-2.7-9.3-2.7-18.8-2.2-28.4c0.2-4,0.7-8,0.6-12
						C501.7-202.8,503.3-204.9,505.8-207z M502.4-151.2c1.8,6.4,2.6,13,3.5,19.5c0.1,0.8,0.3,1.6-0.1,2.4c-0.8-0.3-0.8-1.1-1.1-1.7
						c-5.2-14.3-9.4-28.9-11.7-44.1c-0.9-5.8-1.2-11.5-0.4-17.4c0.2-1.7,0.7-2.9,2.1-3.9c1.4-1,2.6-2.2,4.1-3.5
						c0.6,4.3-0.2,8.1-0.4,11.9C497.7-175.4,499-163.2,502.4-151.2z M502.6-209.3c-7.8,8.9-16.3,16-27,20.3c2-3.3,3.9-6.6,5.9-9.9
						c0.7-1.1,1.6-2.1,2.9-2.4c4.8-1.4,8.9-4.4,13.3-6.7C499-208.7,500.3-209.7,502.6-209.3z M484.3-203.7c-1.6,0.3-2.9,1.5-3.8,2.9
						c-0.6,0.9-1.3,1.8-1.6,2.8c-3.9,10.8-12.5,14.4-23,14.7c-3.1,0.1-6.2,0-9.4-0.4c2.3-1.2,4.7-2.4,7-3.7
						c4.2-2.5,8.2-5.3,12.1-8.2c6.3-4.6,13.2-8.3,19.3-13.1c3.8-3,7.5-3.4,11.6-1.9C492.1-208.8,489.2-204.6,484.3-203.7z
						 M458.4-91.8c2.5,7.6,0.9,14.6-2.9,21.7c-2.5-14.2-2.6-28-1-41.9c0.7-6.1,0.6-12.3,0.1-18.5c-0.8-11.2-1.2-22.3,2.2-33.2
						c1.2-4,0-8.1-0.7-12.1c-0.2-1.2-1-2.9,0.2-3.5c1.4-0.7,3.2-0.6,4.8-0.6c0.9,0,0.8,1.1,0.8,1.8c0.2,6.4,0.3,12.7-0.1,19.1
						c-1,16.2-3.3,32.3-5.1,48.5C455.9-104.3,456.4-97.9,458.4-91.8z M493.4-214.6c-13,3.7-22.1,13.6-33.1,20.3
						c-5.5,3.4-11.5,5.7-17,9c-1.9,1.1-4.4,1.1-6.6,0.5c-8-2.1-15.2-5.7-21.9-10.6c-0.3-0.2-0.4-0.5-0.7-0.7
						c6.3,2.2,12.7,3.1,19.3,2.8c11.7-0.4,22.5-3.2,32.1-10.3c6.7-5,14.1-9,22-11.9C489.5-216.2,491.4-216.1,493.4-214.6z
						 M445.7-173.5c1,7.1-1.9,13.5-3.4,20.2c-2.2,9.9-3,20.1-5.5,29.9c-0.4,1.4-0.5,3-1.7,4.5c0.8-9.1,1.7-17.8,2.3-26.6
						c0.6-8.2,2.3-16.4,1.4-24.7c-0.3-2.9-0.8-5.7-1.1-8.6c-0.2-1.5,0.3-2.2,2-1.8c2,0.5,4.6,0.1,6,1.2
						C447-178,445.4-175.5,445.7-173.5z M418.1-186.7c-0.5,11.1-0.9,22.1-1.5,33.2c-0.3,6.6-1.1,13.1-2.4,19.7c-1.3-0.9-0.9-2-1-2.9
						c-1.6-13.2-1.6-26.6-3.5-39.8c-0.9-6-1-11.8-0.8-18.2c3,2,5.5,3.8,8.2,5.5C418.2-188.6,418.2-187.7,418.1-186.7z M444.8-225.6
						c2.6-2.2,5.4-3.9,8.7-4.7c2.8-0.7,5.5-1.5,8.1,0.7c1.5,1.3,3.7,1.2,6.2,1.9c-16.8,7.6-32.4,17.2-51.6,13.6
						c2.1-1.3,4.5-0.8,6.8-1.4C431-217.5,438.5-220.3,444.8-225.6z M430.2-231.6c0.1-1.3,0.7-1.7,1.7-0.6c2.3,2.5,0.9,5.5,1.1,8.3
						c0.1,1.6-1.7,1.7-3.2,2.6C429.1-225,429.8-228.3,430.2-231.6z M428.4-231.9c-0.7,2.7-1.1,5.6-0.8,8.4c0.3,2.6-0.8,3.8-3.3,4.3
						c-4.4,0.7-4.6,1.7-3.6-3.3c1.2-5.8,2.1-11.8,4.4-17.8C427.6-237.9,429.4-235.6,428.4-231.9z M420-252
						c2.9,5.4,4.2,10.8,1.7,16.7c-2,4.8-2.2,10.1-3.4,15.1c-0.4,1.7-3.1,2.9-4.6,2c-0.6-0.4-0.4-0.9-0.4-1.4
						c1.4-10.3,2.9-20.7,5.9-30.7C419.5-250.9,419.8-251.4,420-252z M410.9-264.1c-0.4-6.4,1-12.7,3.3-19.3c1.7,3.4,1.5,6.7,1.7,9.7
						c0.4,5.4,2.1,10.5,3,15.7c0.2,1,0.3,1.9,0,2.9c-2.9,8.5-4.8,17.3-6.1,26.1c0,0.2-0.2,0.4-0.5,1c-1-3.2-1.7-6.2-1.4-9.3
						C411.8-246.2,411.4-255.2,410.9-264.1z M394.1-218c3.9,1,8.1,1.4,11.6,3.1c11.5,5.7,23.1,5.3,34.9,1.6
						c10.2-3.1,19.7-7.9,29.2-12.6c3.4-1.7,6-0.7,9.3,0.8c-10.5,4.8-19.4,11.6-29.4,16.6c-7.8,3.9-15.9,3.8-24.2,3.3
						c-7.1-0.5-14.1-1.4-20.5-4.9C401.1-212.1,397.5-214.9,394.1-218z M404.8-206.4c5.4,1.5,10.5,3.4,15.8,4.5
						c11.3,2.4,21.9,0.3,32.1-5c8.4-4.4,15.9-10.1,24.5-14.2c0.8-0.4,1.6-0.8,2.5-1.2c3.2-1.4,5.9,0.4,6.2,3.8c0.1,1-0.6,1-1.1,1.2
						c-8.8,3.1-16.3,8.2-23.8,13.5c-6.3,4.5-13.9,6-21.4,7.4c-12.5,2.2-23.1-2.6-33.3-8.8C405.6-205.5,405.2-206,404.8-206.4z
						 M409.7-85.2c-2.4-5.7-5-11.2-4.1-17.3c1.6-10.9,0.9-21.7,0.5-32.6c-0.5-13.1,0.7-26.1,1.6-39.2c0-0.2,0.2-0.5,0.6-1.3
						c0.3,3.9,0.5,7.2,0.7,10.6c0.7,14.7,2.4,29.3,4.1,43.9c1.3,11.8,0.6,23.6-2.6,35.1C410.4-85.8,410.2-85.7,409.7-85.2z
						 M420-70.8c-0.2,1.7-0.5,2-2.1,1.2c-1.8-0.9-2.7-2.4-3.1-4.2c-0.5-2.4-1.1-4.8-2.7-6.7c-0.7-0.8-0.8-1.8-0.5-2.8
						c3.6-11.6,4.3-23.5,3.6-35.5c-0.5-9.1,1.6-17.8,3.1-26.6c1.5,10.8,2,21.7,1.6,32.6c-0.3,7,0.5,14,0.5,20.9
						C420.7-84.9,420.7-77.8,420-70.8z M420.7-143.9c-0.8-8.6-0.5-17.2-0.1-25.8c0.3-5.1,0.2-10.2,0.2-15.3c0-1.5,0.3-2.1,1.8-1.2
						c1.5,0.8,3.5,1.2,4.5,2.4c0.9,1.2-0.4,3-0.6,4.6c-0.6,6,0.4,12,0.6,17.9c0.4,11.4-0.3,22.7-1.8,33.9c-0.2,1.6-0.4,3.3-0.2,4.9
						c1.7,10.9-0.9,21.5-2,32.2c0,0.1-0.2,0.3-0.5,0.6c-0.1-7.3-0.9-14.4-0.6-21.4C422.4-122,421.7-132.9,420.7-143.9z M427.9-83.8
						c-1,5.6-1.7,11.3-1.4,17.1c0.2,3.1,0.1,3.2-0.8,3.2c-1.4-0.1-3.3-2.3-3.1-3.9c0.4-3.7,0.9-7.4,1.2-11.1
						c1.1-11.7,3.8-23.4,3.4-35.2c-0.4-10.6,0.9-21,1.7-31.5c0.5-7.2,0.1-14.3-0.6-21.5c-0.5-4.6-0.5-9.2,0.5-13.8
						c0.4-1.8,0.8-2.6,3.1-1.9c2.7,0.8,4.2,1.7,4.3,5c0.1,4,1.4,8,1.4,12.5c-0.8,8.5-1.5,17.2-2.3,26c-1,11.3-1.8,22.6-3.2,33.9
						C431-98,429.2-90.9,427.9-83.8z M433.2-57.2c-2.8-3.6-5.2-6.4-5.1-11.3c0.4-12.1,2.8-23.8,5.8-35.3
						c4.1-16.2,7.6-32.4,10.3-48.9c0.3-1.7,0.6-3.3,1.9-4.8c-0.4,4.1-0.8,8.2-1.2,12.3c-1.9,17-4.7,33.9-8,50.7
						c-1.3,6.6-3.7,12.9-4.1,19.7c-0.2,4.7,0.2,9.4,0.5,14.1C433.4-59.7,433.7-58.7,433.2-57.2z M444-75.1
						c-1.2,5.3-1.2,10.6-0.3,15.9c0.7,4.1,0,4.6-4,4.1c-2.1-0.3-3.8-0.2-4.4-3.5c-1.8-10.8-0.3-21.1,2.4-31.7
						c4.3-17.3,6.9-35,8.8-52.8c0.2-2.1,0.5-4.1,0.8-6.7c1.2,2.9,1.1,5.4,1.2,7.9c0.7,12.3,1,24.7-0.8,36.9
						c-0.8,5.5-3.3,10.8-3.5,16.5C444.1-83.9,445-79.5,444-75.1z M453.4-60.5c-0.7,3.2-0.9,6.6-1.1,10c-0.1,1.3-0.6,1.7-1.8,1.6
						c-3.5,0-5.5-2.2-5.1-5.7c0.3-2.2,0.5-4.3,0.1-6.5c-0.8-4.2-0.5-8.3,0.4-12.4c0.7-3.7,0.6-7.4,0.5-11.1
						c-0.1-4.4,0.5-8.7,1.8-12.9c2.6-8.3,2.4-16.8,2.7-25.4c0.3-9.2-0.4-18.3-1-27.5c-0.6-9.2,0.7-18.3,0.8-27.5
						c0-1.1,0.3-1.5,1.3-1.5c1,0,1.7,0.1,1.9,1.4c1.1,6.3,1.8,12.5,0,18.9c-2.3,7.7-1.8,15.6-1.4,23.5c0.2,4.6,0.5,9.2,0.8,14.2
						c-0.5,7.5-1.1,15.2-1.6,23c-0.6,9.6,0.6,19,1.9,28.5C453.8-66.8,454.1-63.7,453.4-60.5z M460.2-66.6c-0.9,6.5-1.3,13-0.6,19.5
						c0.2,2.2-0.7,2.4-2.3,1.6c-2-1-3.3-2.2-3.2-4.8c0.3-8.5,1.8-16.7,5.7-24.4c0.2-0.4,0.4-0.7,0.9-1.4
						C461.2-72.6,460.6-69.6,460.2-66.6z M460.6-93.7c-1.9-4.3-2.4-8.8-2.2-13.3c0.4-9.7,2.1-19.3,3.1-28.9
						c1.5-14.2,3-28.3,2.1-42.6c-0.1-1.6,0.3-2.2,1.7-2.4c1.9-0.3,4.2-2,5.3-1c1.2,1.1-0.3,3.5-0.8,5.3c-2.9,11.8-3.6,23.8-2.7,35.9
						c0.3,3.9,0.5,7.8-1.4,11.4c-1.2,2.3-1.2,4.9-1.3,7.5c-0.5,7.5-2.5,14.8-3.3,22.3C460.9-97.6,460.8-95.6,460.6-93.7z
						 M461.2-50.2c0.3-6.3,0.6-12.5,1.4-18.7c0.6-4.9,0.7-9.8,0.2-14.7c-1-10.1,0.5-19.9,2.8-29.7c0.7-2.8,0.9-5.7,1.4-9
						c1.2,3.2,1,6.1,0.7,8.9c-1.5,12.5-0.9,24.8,1.1,37.2c1.4,8.8-0.3,26.2-2.9,33.3C462.4-44.1,461-46.4,461.2-50.2z M470.6-40.4
						c-1.8-0.3-2.2-1-1.8-2.7c1.2-4.7,2.1-9.4,2.7-14.2c1-7.7,0.7-15.4-0.6-23c-1.5-8.4-2-16.7-1.1-25.2c1.1-10.6,0.6-21.2,0-31.8
						c-0.8-14.9,0-29.6,3.9-44c0.8-2.8,0.7-2.8,4.1-3.5c-0.7,3.7-1.2,7.2-1.9,10.7c-3.5,16.2-4.1,32.5-2.7,49
						c0.7,9.1,0.8,18.3,1.8,27.4c0.8,7,2.2,14,3.2,21c1.6,11,0.3,21.9-1.9,32.7C475.4-39.4,475.4-39.5,470.6-40.4z M483.8-85.3
						c-0.1,11.4-0.5,22.9-0.8,34.3c-0.1,3.8-0.2,7.6-0.4,11.4c-0.1,1,0.5,2.8-1.6,2.3c-1.5-0.4-4-0.3-3.5-3.1
						c0.7-3.9,1.5-7.8,2.2-11.8c2.1-11.2,1.3-22.2-0.9-33.3c-2.1-11.1-3.3-22.2-3.6-33.5c-0.2-7.5-0.7-15.1-0.9-22.6
						c-0.4-13,2.1-25.6,4.5-38.3c0.3-1.5,0.7-3,0.8-4.5c0.1-2.2,1.5-2.8,3.5-3.4c-1.2,4.4-2.3,8.4-2.8,12.7
						c-0.7,6.4-0.7,12.9-0.3,19.3c0.4,5.7,0,11.4-0.2,17.1c-0.3,6.9,0.4,13.7,2.1,20.5C484.7-107.3,483.9-96.2,483.8-85.3z
						 M495.5-46.4c-0.2,3.5-0.6,7.1-0.9,10.6c-0.3,3-0.7,3.3-3.5,1.9c-1.9-1-3.6-2.5-5.7-3.1c-1.1-0.3-0.8-1.3-0.8-2.1
						c0.5-11.5,0.6-23.1,0.6-34.6c0-12.8,0-25.6-0.2-38.4c0-2.4-0.6-4.9-1.2-7.2c-1.7-5.9-2.5-11.9-2-18c0.9-10.4-0.3-20.7-0.1-31
						c0.1-5.3,0.8-10.5,2.3-15.6c0.3-1.1,0.5-2.3,1.7-3.5c1.3,6.7,1.3,13.1,0.5,19.4c-1.9,14.1-1.4,28,2.9,41.7
						c2.5,7.9,2.2,16.1,2.3,24.3c0.1,10.5,0.8,21,3.2,31.3C496.6-62.8,496-54.6,495.5-46.4z M506.8-30.4c-1.2,0.2-2.4,0.1-3.5-0.3
						c-0.8-0.3-1.6-0.5-2.3-0.9c-1.5-1-4.1-0.2-4.6-1.7c-0.6-1.7,0.1-3.9,0.3-5.9c0.8-6.9,1.5-13.9,1.5-20.9c0-6.7-2-13.1-2.9-19.6
						c-1.3-9.4-1.6-18.8-2-28.2c-0.3-8.8-1.2-17.5-4.2-25.9c-3.2-9-2.6-18.4-1.6-27.8c0.9-9,1.8-18.1-0.1-27.1
						c-0.5-2.4,1.5-2.7,3.3-4.1c-1.3,15.6,2.9,29.9,6.3,44.2c0.3,1.4,0.4,2.9,0.3,4.3c-0.4,8.6,0.4,17.2,0.9,25.9
						c0.5,8.3,0.2,16.5,0.5,24.8c0.4,9.2,1.8,18.2,4.3,27.1c2,7.1,3,14.4,3.5,21.7c0.2,4.1,0.7,8.2,1.9,12.1
						C509-31,508.3-30.6,506.8-30.4z M512.7-32c-2.4,0.4-2.5-1.4-2.8-2.8c-1.2-5.1-1.6-10.4-1.9-15.7c-0.4-7.6-2.7-14.8-4.3-22.1
						c-2.2-9.6-3.2-19.3-3.2-29.2c0.1-12.3-1.1-24.7-0.7-37.4c1.6,2.9,2.2,6,3.3,8.8c4.3,10.7,6.5,21.8,6.1,33.2
						c-0.2,6.7,0.4,13.2,1,19.8c0.4,4.5,0.2,9.1,0.2,13.6c0,3.7,0.5,7.4,1.4,11c1.5,5.7,2,11.4,2.5,17.2
						C514.4-34.1,514.9-32.4,512.7-32z M521.4-31c-1,0.6-2.3,0.2-3.4-0.1c-0.6-0.1-0.8-0.5-0.8-1.2c0.8-7.4-1.5-14.3-2.9-21.4
						c-0.9-4.4-1.7-8.9-1.6-13.4c0-0.4,0.2-0.8,0.3-1.2c0.2,0,0.5,0,0.7,0c2.4,10.8,4.8,21.7,7.2,32.5c0.2,0.7,0.4,1.4,0.4,2.1
						C521.2-32.8,522.5-31.7,521.4-31z M526-32.9c-0.9,0.5-1.1-0.3-1.2-0.9c-0.8-6.9-4.1-13.2-5.2-19.9c-1-6,1-11.9,2.2-17.7
						c1.1-5.4,1.1-10.8,0.7-16.2c-0.6-6.9-0.4-13.6,3-19.9c0.2-0.5,0.5-0.9,1.1-1.9c0.9,4.8,0.7,9,0.7,13.1
						c-0.2,13.9,1,27.7,0.1,41.6c-0.2,3.6,0.2,7.3,0.5,10.9c0.4,3.6,1.5,7,3.1,10.6C529.2-33.3,527.6-33.8,526-32.9z M535.7-32.9
						c-1,0.4-1.9,0.3-2.5-0.8c-1.4-2.6-2.3-5.3-2.8-8.2c-1-6.1-0.5-12.3-0.6-18.5c-0.4-18.8-0.7-37.6-1-56.7c0.4-8.3-1-17,0-25.6
						c0.6-5.2,1.6-10.4,2.2-15.6c1.1-10.4,0.6-20.9,0.1-31.3c0-0.8-0.2-1.7,0-2.4c0.1-0.8-0.8-2.2,0.9-2.3c1.4-0.1,2.1,0.8,2.3,2.2
						c0.4,2.8,1,5.5,1.3,8.3c1.2,10.6,0.2,21.2-0.7,31.8c-1.2,13.7-1.5,27.4-0.5,41.1c1.3,16.6,1.6,33.2-0.7,49.7
						c-0.5,3.4-0.6,6.9,0.1,10.3c1.2,5.6,0.6,11.4,2.7,16.8C536.8-33.3,536.2-33.1,535.7-32.9z M541.1-34.4
						c-2.3,0.5-3.3-0.3-3.6-2.4c-1.4-11.5-3.2-22.8-0.8-34.5c2.1-10.4,1.1-21.2,0-31.8c-1.6-15.1-1.4-30.2,0-45.4
						c1.4-14.7,2.5-29.5-0.8-44.5c4.5,0.7,4.6,0.7,4.6,4.9c0.2,31.7,0.3,63.4,0.6,95.1c0.1,11,0.1,22-0.6,32.9
						c-0.3,5.5,0.5,10.9,2.6,16c0.6,1.3,0.9,2.7,1.3,4.1C545.6-35.4,545.6-35.5,541.1-34.4z M547-36.7c-0.6-3.8-1.9-7.1-3.1-10.5
						c-1.9-5.3-1.8-10.7-1.4-16.1c0.5-7.6,0.4-15.2,0.5-22.8c0-0.7,0.1-1.4,0.2-2.7c2.3,4.1,2.9,8,3.5,11.9
						c1.6,9.9,3.9,19.7,4.5,29.8C551.5-43,551.1-39.3,547-36.7z M555.1-43.8c0,0.8-0.7,1-1.3,1.1c-1,0.2-0.9-0.7-0.9-1.3
						c0.2-12.4-3-24.2-5.1-36.3c-0.4-2.2-1-4.4-1.8-6.5c-1.7-4.4-2.3-8.8-1.5-13.6c1.4-8.8,2.5-17.6,3.9-26.3
						c0.3-1.9,0.8-3.8,2.1-5.9c1.1,5.7,1.6,10.9,1.9,16.2c0.9,14.3,1.5,28.6,1.9,43c0.2,9.2,0.6,18.5,0.9,27.7
						C555.2-45.1,555.2-44.4,555.1-43.8z M558.3-44.3c-1.7,0.4-1.2-0.9-1.2-1.7c-0.3-6.1-0.4-12.2-0.7-18.2
						c-0.8-19.3-1.3-38.7-2.6-58c-0.5-7.2-2.6-14.4-2.2-21.7c0.8-14-0.3-28,0-41.9c0-1.3,0.4-2.5,0.5-3.8c0.1-1.2,0.6-1.5,1.7-1.5
						c3.4-0.2,3.5-0.1,3,3.2c-1.4,8.2-0.2,16.3,0.2,24.5c0.2,3.2,0.3,6.3,0.5,9.9c-0.8,10.2-0.4,20.8,0.2,31.5
						c0.2,4.2-0.4,8.5-0.5,12.8c-0.1,5.8,0.9,11.6,2,17.3c0.5,2.5-0.3,4.9-0.3,7.3c0,8.8,0.6,17.6,3.5,26.1c0.8,2.4,1.3,4.9,1.3,7.5
						C563.8-47.9,561.5-45,558.3-44.3z M565.9-51.5c0.2-7.3-3.9-13.4-4.2-21.1c1.5,2.4,2.2,4.5,2.8,6.5c1,3.8,1.8,7.6,2.9,11.3
						C567.7-53.3,567.3-52.5,565.9-51.5z M574.3-60.8c-1.6,1.7-3.2,3.4-4.8,5.1c-0.3-0.1-0.6-0.2-0.9-0.3c-1.2-7.7-4-14.8-6.9-22
						c-1.8-4.4-1-9.2-0.1-13.7c1-5.5,1-11,1.1-16.5c0.3-13.7,0.4-27.4,0.8-41.1c0.3-10.8-1.4-21.3-3.9-31.8
						c-0.6-2.7-0.5-5.4-0.5-8.1c0-2.1,1.5-2.1,3-2.2c1.8-0.1,1.6,1.1,1.7,2.1c0.6,8.9,2.4,17.6,3.5,26.4c1.1,8.5,1.5,17,2,25.5
						c0.7,13.8,1.7,27.5,3.2,41.3c0.5,4.9-0.2,9.8-0.6,14.7c-0.6,6.4-0.3,12.7,2.4,18.6C574.6-62.2,575-61.6,574.3-60.8z
						 M580.5-65.4c-0.8,0.5-1.8,1.6-2.5,1.4c-1.2-0.2-0.7-1.7-0.7-2.6c-1.1-10.8-2.1-21.7-3.2-32.5c0-0.3,0-0.7,0-1.1
						c2.2,3.3,3.5,7,3.3,10.9c-0.3,7.3,1.2,14.3,3.3,21.1C581.1-67.2,581.8-66.2,580.5-65.4z M583.4-67.7c-0.7,0-0.6-0.6-0.7-1
						c-1.5-4.5-3-9-3.1-13.8c-0.1-5.8-0.4-11.6-2.4-17.1c-1.1-3.2-1.2-6.6-0.9-10c1.3-18.3,0.7-36.5-0.4-54.7
						c-0.1-1.5-0.4-3.1,0.2-4.6c2.1,8,3.4,16.2,4.4,24.3c1.5,11.9,3.1,23.8,3,35.8c-0.1,12.2,0.3,24.1,4.3,35.7
						C588.3-71.6,584.9-67.6,583.4-67.7z M597.7-81c-2,2-3.8,4.1-5.7,6.2c-1.1,1.2-1.7,1.3-2.3-0.5c-2.2-7.4-4.6-14.8-3.8-22.7
						c0.7-8.5,0.6-17-0.9-25.5c-0.2-1.1-0.2-2.4,0.1-3.5c2-7.1,1.7-14.4,1.3-21.7c-0.6-9.8-0.4-19.6-0.5-29.4
						c-0.1-5-0.5-10-1.4-14.9c-0.2-1.2,0-1.8,1.2-2.2c1.6-0.5,1.7,0.6,1.9,1.5c1.6,7.3,4,14.5,3.6,22c-0.5,10.8,2,21.3,2.6,32
						c0.2,3.1,0.1,6.2-0.2,9.2c-0.6,4.6-0.3,9.1,1.3,13.4c1.6,4.5,2.1,9.1,1.5,13.7c-0.7,6.3,0.1,12.3,2.1,18.2
						C599.2-83.4,599-82.2,597.7-81z M601.2-85.5c-1,0.2-0.9-0.7-1-1.2c-1.3-4.1-2.1-8.3-2.2-13.5c1.5-6.8,0.3-14.2-2-21.6
						c-0.7-2.4-0.9-5-0.6-7.6c1.3-9.2-0.5-18.3-1.4-27.4c-0.3-2.4-0.6-4.9-0.5-7.3c0.7-9.9-1-19.5-3.8-29c-0.7-2.3-0.3-3.3,2.1-4.1
						c4.1-1.4,4.1-1.5,6.8,1.9c1.8,2.3,2.4,4.9,2.9,7.8c1.4,7.2-1.8,13.7-2.3,20.6c-0.5,6.9-2.2,13.8,0,20.8c0.7,2.3-0.1,4.7-0.6,7
						c-0.4,1.6-0.4,3.2,0,4.8c0.6,2.4,0.8,4.8,0.3,7.3c-0.3,1.9-0.5,3.8,0.2,5.7c2,6.1,2.1,12.3,1.9,18.6c-0.1,4.4,0.3,8.7,2.3,12.7
						C603.8-88.9,602.3-85.7,601.2-85.5z M604.8-156.3c1.5,11.9,1.4,23.9,2.7,35.8c0.7,5.9,1.9,11.7,1.7,17.6
						c-0.2,4.3-1.7,8.1-4.1,12c-2.5-4.3-2.8-8.7-2.4-13c0.5-7-0.2-13.8-1-20.6c-0.7-5.5-1.2-11-0.5-16.6c0.3-2.4-0.1-4.8-0.5-7.3
						c-1.4-8.6-0.4-17.1,1.8-25.5C603.3-167.9,604-162.1,604.8-156.3z M606.5-209.8c-0.8,0.6-1.7,0.4-2.6,0.4
						c-8.8,0.1-17.1-2-24.7-6.5c-9.8-5.7-20-10.2-31.2-12.3c-1.1-0.2-2.1-0.4-3.2-0.6c-0.1,0-0.2-0.2-0.6-0.6
						c3.6-0.8,7-0.1,10.4,0.5c5.1,1,10,2.7,14.7,4.8c14.2,6.4,29.3,7.9,44.7,7.8c0.4,0,0.7,0,1.1,0c0,0.2,0.1,0.3,0.1,0.5
						C612.3-213.8,609.4-211.8,606.5-209.8z"/>
				</g>
				<g>
					<path d="M546-282.7c-1.8-0.2-3.8-0.8-4-3.5c-0.1-1.5-1-1.5-2.1-1.3c-1.4,0.3-2.8,0.6-4.2,0.9c-1.3,0.3-2.4-0.1-2.7-1.6
						c-0.3-1.4,0.8-1.8,1.9-2.1c7.3-1.6,14.6-2.8,22-3.7c4.3-0.5,8.7-0.8,13-1.3c1.3-0.1,2.5-0.2,2.7,1.4c0.2,1.7-1.1,2.2-2.4,2.3
						c-5.3,0.3-10.7,1-16,1.7c-1.9,0.2-3.9,0-3.2,3.2C551.5-284.6,548.8-282.7,546-282.7z"/>
				</g>
			</g>
		</g>
	</g>
</g>
</svg>
